<svg width="48" height="50" viewBox="0 0 48 50" fill="none" xmlns="http://www.w3.org/2000/svg">
<path d="M7.13677 34.6592L7.29742 34.8301C7.73687 35.2979 8.21197 35.9341 8.2188 36.1357C8.24663 36.9678 8.9146 38 10.2037 39.2046C11.4639 40.3818 12.5201 40.9785 13.3443 40.9785C13.3653 40.978 13.3907 40.9751 13.4053 40.9775C13.6124 40.9775 14.273 41.4043 14.7662 41.8076L14.9473 41.9561L16.1382 40.6821L8.32769 33.3843L7.13677 34.6592ZM15.4312 40.7056L14.8995 41.2749C14.5181 40.9795 13.8101 40.4775 13.4 40.4775C13.3946 40.4775 13.3892 40.4775 13.3838 40.4775C12.8902 40.4946 12.0259 40.2231 10.5455 38.8394C9.06451 37.4561 8.73492 36.5967 8.7188 36.1191C8.70464 35.7114 8.14507 35.0259 7.81988 34.6606L8.3521 34.0913L15.4312 40.7056ZM46.1236 8.30371L47.4849 6.89844L46.7671 6.20312L46.4159 6.56573L45.8059 5.95575L46.0416 5.70349L45.8982 5.1676C45.6795 4.35052 45.2255 2.89783 44.6419 2.34943C44.0531 1.79614 42.5587 1.42944 41.7203 1.26007L41.1729 1.14948L40.952 1.38599L40.5872 1.02118L40.9019 0.696289L40.1841 0L38.8921 1.3335L39.6099 2.02979L39.8913 1.73938L40.2689 2.117L39.3949 3.05255L39.0134 2.67108L39.3282 2.34619L38.6104 1.6499L37.3184 2.9834L38.0362 3.67969L38.3176 3.38928L38.7118 3.78357L37.855 4.70068L37.4773 4.32294L37.7916 3.99854L37.0738 3.30322L35.7125 4.7085L36.4302 5.40381L36.7815 5.0412L37.1721 5.43176L37.1279 5.479L36.9112 5.71088L36.8679 6.02533L36.6388 7.68927L25.7162 18.3345C23.7858 17.0361 21.8638 16.3288 20.2372 16.3288C19.8647 16.3288 19.5035 16.3657 19.1633 16.4384C15.5488 17.2113 14.5816 19.7966 13.4618 22.79L13.2468 23.3627C12.9202 24.2262 11.8241 24.4391 10.0627 24.715C8.95788 24.8881 7.70556 25.0843 6.54424 25.588C5.41601 26.0773 1.63836 27.9739 0.392997 31.835C-0.424142 34.3684 0.034354 37.1172 1.75579 40.005C2.92779 41.9712 4.24267 43.317 5.37426 44.3743C6.50579 45.4315 7.9378 46.6519 9.97893 47.6879C11.7869 48.6055 13.5359 49.0707 15.1774 49.0707C19.8405 49.0707 22.8119 45.3832 24.0378 41.9323C24.4615 40.7393 24.5723 39.4766 24.67 38.3625C24.8257 36.5865 24.9638 35.4785 25.8032 35.0941L26.3598 34.8408C29.2704 33.5204 31.7842 32.3801 32.3101 28.7213C32.5751 26.8774 31.7277 24.5734 29.9715 22.3095L39.8075 10.7307L41.5041 10.3194L41.7949 10.2489L41.9992 10.0302L42.026 10.0015L42.6102 10.5858L42.2955 10.9106L43.0132 11.6069L44.3052 10.2734L43.5875 9.57715L43.3061 9.86755L42.709 9.27051L43.5831 8.33496L44.184 8.93585L43.8692 9.26074L44.587 9.95703L45.879 8.62354L45.1612 7.92725L44.8798 8.21765L44.266 7.60388L45.1229 6.68683L45.7201 7.284L45.4058 7.6084L46.1236 8.30371ZM23.9921 27.4455C23.8315 26.765 23.4779 26.1225 22.9297 25.6104C22.3936 25.1093 21.7385 24.7896 21.0299 24.6725L37.5997 8.52344L38.9752 9.80762L23.9921 27.4455ZM20.315 25.123C20.3521 25.1221 20.3887 25.1211 20.4258 25.1211C21.232 25.1211 21.9961 25.4224 22.5879 25.9756C23.8663 27.1699 23.9346 29.1812 22.7408 30.459C22.1622 31.0781 21.377 31.4351 20.5303 31.4639C19.6832 31.4902 18.8765 31.1899 18.2574 30.6113C16.9791 29.4175 16.9107 27.4063 18.1045 26.1284C18.6832 25.5088 19.4683 25.1519 20.315 25.123ZM31.3202 28.579C30.8429 31.9 28.4637 32.7757 25.3868 34.1849C23.1347 35.2163 24.1156 38.7256 23.0955 41.5975C22.1054 44.3847 19.5492 48.0707 15.1774 48.0707C13.7831 48.0707 12.2032 47.6953 10.4315 46.7961C8.60393 45.8686 7.29186 44.7974 6.05694 43.6436C4.82195 42.4897 3.66418 41.2534 2.6148 39.493C-1.59193 32.4359 3.36297 28.0577 6.94213 26.5054C9.73815 25.2928 13.3059 26.0333 14.1821 23.7164C15.3793 20.5509 16.0915 18.1179 19.3724 17.4163C19.6491 17.3571 19.9382 17.3288 20.2372 17.3288C21.8833 17.3288 23.8261 18.1923 25.6248 19.4958L20.3595 24.6276C20.3387 24.6279 20.3188 24.6229 20.2979 24.6235C19.3179 24.6567 18.4092 25.0698 17.7393 25.7866C16.357 27.2661 16.4361 29.5942 17.9156 30.9766C18.6011 31.6172 19.4859 31.9658 20.4195 31.9658C20.462 31.9658 20.5044 31.9648 20.5474 31.9634C21.5274 31.9302 22.4361 31.5171 23.106 30.8008C23.8118 30.0451 24.1315 29.0687 24.0834 28.1096L28.8412 22.5087C30.5098 24.5182 31.581 26.7651 31.3202 28.579ZM41.2685 9.34753L39.6381 9.7428L37.6244 7.86249L37.8586 6.16168L41.5223 2.2403C41.5223 2.2403 43.488 2.63733 43.9571 3.07812C44.4203 3.51343 44.9322 5.42615 44.9322 5.42615L41.2685 9.34753Z" fill="black"/>
</svg>
