<?xml version="1.0" encoding="utf-8"?>
<!-- Generator: Adobe Illustrator 24.1.3, SVG Export Plug-In . SVG Version: 6.00 Build 0)  -->
<svg version="1.1" id="Layer_1" xmlns="http://www.w3.org/2000/svg" xmlns:xlink="http://www.w3.org/1999/xlink" x="0px" y="0px"
	 viewBox="0 0 50 50" style="enable-background:new 0 0 50 50;" xml:space="preserve">
<style type="text/css">
	.st0{fill:#F588BD;}
</style>
<g id="colour">
	<path class="st0" d="M33.5,25.4c-1.5-3.7-4.5-6.1-8.2-8.5c-0.6-0.3-1.2-0.6-1.8-0.7c-2.2-0.6-4.7-0.3-6.4,1.2
		c-1.7,1.4-2,3.5-2.9,5.3c-1,1.9-3.4,1.5-5.2,1.9c-4.8,1.2-7.9,5.1-7.9,10.1c0,4.9,3.1,9.2,6.8,12c4,3.1,9.4,4.1,14,1.8
		c2-1,3.7-2.7,4.7-4.6c0.5-1,0.9-2,1.1-3.1s0.2-2.4,0.6-3.5c0.4-1,1.4-1.4,2.2-2c1-0.7,1.9-1.5,2.6-2.5
		C34.7,30.6,34.5,27.9,33.5,25.4z"/>
</g>
<g id="Layer_1_1_">
	<path d="M8.5,35l0.2,0.2c0.4,0.5,0.9,1.1,0.9,1.3c0,0.8,0.7,1.9,2,3.1c1.3,1.2,2.3,1.8,3.1,1.8c0,0,0,0,0.1,0
		c0.2,0,0.9,0.4,1.4,0.8l0.2,0.1l1.2-1.3l-7.8-7.3L8.5,35z M16.8,41l-0.5,0.6c-0.4-0.3-1.1-0.8-1.5-0.8l0,0c-0.5,0-1.4-0.3-2.8-1.6
		c-1.5-1.4-1.8-2.2-1.8-2.7c0-0.4-0.6-1.1-0.9-1.5l0.5-0.6L16.8,41z M47.5,8.6L49,7.2l-0.7-0.7l-0.4,0.4l-0.6-0.6L47.5,6l-0.1-0.5
		c-0.2-0.8-0.7-2.3-1.3-2.8c-0.6-0.6-2.1-0.9-2.9-1.1l-0.5-0.1l-0.2,0.2L42,1.3L42.3,1l-0.7-0.7l-1.3,1.3L41,2.3L41.3,2l0.4,0.4
		l-0.9,0.9L40.5,3l0.3-0.3L40,2l-1.3,1.3L39.5,4l0.3-0.3l0.4,0.4L39.3,5l-0.4-0.4l0.4-0.3l-0.7-0.7L37.1,5l0.7,0.7l0.4-0.4l0.4,0.4
		l0,0l-0.2,0.2v0.3l-0.2,1.7L27.1,18.6c-1.9-1.3-3.9-2-5.5-2c-0.4,0-0.7,0-1.1,0.1c-3.6,0.8-4.6,3.4-5.7,6.4l-0.2,0.6
		c-0.3,0.9-1.4,1.1-3.2,1.4C10.4,25.3,9.1,25.5,8,26s-4.9,2.4-6.2,6.2c-0.7,2.5-0.3,5.2,1.5,8.1c1.2,2,2.5,3.3,3.6,4.4
		c1.1,1.1,2.6,2.3,4.6,3.3c1.8,0.9,3.6,1.4,5.2,1.4c4.7,0,7.6-3.7,8.9-7.1c0.4-1.2,0.5-2.5,0.6-3.6c0.2-1.8,0.3-2.9,1.1-3.3l0.6-0.3
		c2.9-1.3,5.4-2.5,6-6.1c0.3-1.8-0.6-4.1-2.3-6.4L41.4,11l1.7-0.4l0.3-0.1l0.1-0.2l0,0l0.6,0.6l-0.3,0.3l0.7,0.7l1.3-1.3L45,9.9
		l-0.3,0.3l-0.6-0.6l0.9-0.9l0.6,0.6l-0.3,0.3l0.7,0.7L47.4,9l-0.7-0.7l-0.3,0.3L45.8,8l0.9-0.9l0.6,0.6L47,8L47.5,8.6z M25.4,27.7
		c-0.2-0.7-0.5-1.3-1.1-1.8c-0.5-0.5-1.2-0.8-1.9-0.9L39,8.8l1.4,1.3L25.4,27.7z M21.7,25.4h0.1c0.8,0,1.6,0.3,2.2,0.9
		c1.3,1.2,1.3,3.2,0.2,4.5c-0.6,0.6-1.4,1-2.2,1c-0.8,0-1.7-0.3-2.3-0.9c-1.3-1.2-1.3-3.2-0.2-4.5C20.1,25.8,20.9,25.5,21.7,25.4z
		 M32.8,28.9c-0.5,3.3-2.9,4.2-5.9,5.6c-2.3,1-1.3,4.5-2.3,7.4c-1,2.8-3.5,6.5-7.9,6.5c-1.4,0-3-0.4-4.7-1.3c-1.8-0.9-3.1-2-4.4-3.2
		c-1.2-1.2-2.4-2.4-3.4-4.2c-4.2-7.1,0.7-11.4,4.3-13c2.8-1.2,6.4-0.5,7.2-2.8c1.2-3.2,1.9-5.6,5.2-6.3c0.3-0.1,0.6-0.1,0.9-0.1
		c1.6,0,3.6,0.9,5.4,2.2l-5.3,5.1c0,0,0,0-0.1,0c-1,0-1.9,0.4-2.6,1.2c-1.4,1.5-1.3,3.8,0.2,5.2c0.7,0.6,1.6,1,2.5,1H22
		c1,0,1.9-0.4,2.6-1.2c0.7-0.8,1-1.7,1-2.7l4.8-5.6C31.9,24.8,33,27.1,32.8,28.9z M42.8,9.6L41.2,10l-2-1.9l0.2-1.7l3.7-3.9
		c0,0,2,0.4,2.4,0.8c0.5,0.4,1,2.3,1,2.3L42.8,9.6z"/>
</g>
</svg>
