<?xml version="1.0" encoding="utf-8"?>
<!-- Generator: Adobe Illustrator 24.1.3, SVG Export Plug-In . SVG Version: 6.00 Build 0)  -->
<svg version="1.1" id="Layer_1" xmlns="http://www.w3.org/2000/svg" xmlns:xlink="http://www.w3.org/1999/xlink" x="0px" y="0px"
	 viewBox="0 0 50 50" style="enable-background:new 0 0 50 50;" xml:space="preserve">
<style type="text/css">
	.st0{fill:#F588BD;}
</style>
<g id="colour">
	<path class="st0" d="M24.7,31.3c-1-2.3-3.3-4.4-5.3-5.9c-2.7-2-6-1.9-9.1-1.4c-3.2,0.5-5.4,2.4-7.4,4.9c-0.2,0.3-0.4,0.6-0.5,1
		C0,33.5-0.3,38.2,1.7,42.2c1.1,2.2,2.9,4.2,5,5.5c2.5,1.6,5.1,2,8,1.6c2.7-0.4,5.1-1,7.2-2.9c2-1.8,3.3-4.4,3.8-7.1
		C25.9,36.7,25.8,33.8,24.7,31.3z M15.7,45.1c-1.9,0.4-4,0.7-5.8-0.1c-1.6-0.7-3.1-2-4-3.5c-2.4-3.3-2.2-7.7,0.7-10.6
		C6.9,30.6,7,30.3,7.1,30c0.8-0.8,1.8-1.6,3-1.9c1.8-0.5,4-0.8,5.8-0.1c1.7,0.7,3.3,2.4,4.5,3.8c1.2,1.4,1.4,3.3,1.4,5.1
		C21.6,40.8,19.6,44.3,15.7,45.1z"/>
</g>
<g id="Layer_1_1_">
	<path d="M47.7,9.6l1.1-1.5l-0.7-0.6l-0.3,0.4l-0.6-0.4l0.4-0.6L48,6.4l-0.3-0.6c-0.1-0.1-0.1-0.2-0.1-0.3c0-0.1,0.1-0.4,0.3-0.7
		l0.3-0.6l-0.5-0.5l-1.3-1.4l-0.5-0.5l-0.7,0.3c-0.1,0-0.2,0.1-0.3,0.1c-0.1-0.1-0.3-0.2-0.4-0.3l-0.6-0.5l-0.6,0.5l-0.5,0.4
		l-0.5-0.7l0.3-0.3L42,0.5l-1.5,1.1l0.6,0.8l0.3-0.2l0.5,0.7l-1,0.7l-0.5-0.7l0.3-0.3l-0.6-0.8l-1.5,1.1l0.6,0.8l0.4-0.2l0.5,0.7
		l-1,0.7l-0.5-0.7l0.3-0.3l-0.6-0.8l-1.5,1.1l0.7,0.9l0.4-0.3l0.4,0.7L37.6,6l-0.5,0.3l0.1,0.6c0.1,0.6,0.1,1.3,0,1.5
		c-0.6,1.5-4.9,5.6-7.4,7.8l-10.2,9.5c-1.9-1.3-4.1-1.9-6.6-1.9h-0.1c-6.7,0-12.3,5.5-12.4,12.3c0,3.3,1.2,6.5,3.6,8.8
		c2.3,2.4,5.4,3.7,8.8,3.7H13c6.8,0,12.4-5.5,12.4-12.3c0-2.2-0.5-4.2-1.6-6.1l9.3-9.7c2.5-2.8,7-7.4,8.7-8.1c0.1,0,0.3,0.1,0.4,0.2
		l0.8,0.5l0.5-0.7l0.5-0.6l0.6,0.5l-0.3,0.3l0.8,0.6l1.1-1.5l-0.8-0.6l-0.2,0.4L44.6,11l0.7-1l0.6,0.5l-0.3,0.3l0.8,0.6l1.1-1.4
		l-0.8-0.6l-0.2,0.3l-0.6-0.5l0.7-1l0.6,0.4l-0.3,0.3L47.7,9.6z M1.5,36.1c0.1-6.3,5.2-11.3,11.4-11.3H13c2.4,0,4.5,0.7,6.3,1.9
		L18.2,28c-1.5-1-3.3-1.5-5.3-1.6c-2.9,0-5.8,1.2-7.7,3.5c0-0.1-0.1-0.1-0.1-0.2c-0.1-0.1-0.3-0.2-0.4-0.2c-0.2,0-0.3,0.1-0.4,0.2
		c-0.2,0.4-0.6,0.9-1,1.7c-0.4,0.7-1.2,2.8-1.3,4.4c-0.1,1,0,2.1,0.2,3.1c0.3,1.3,0.7,2.4,1,2.9c0.1,0.2,0.3,0.3,0.5,0.3l0,0
		c0.2,0,0.3-0.1,0.4-0.2l0.1-0.1c0.2,0.3,0.4,0.6,0.6,0.9l-0.6,0.8l1.9,1.9C3.3,43.3,1.5,39.9,1.5,36.1z M22.5,36.7
		c0,2.6-1.1,5-2.9,6.8s-4.3,2.8-6.8,2.8c-2,0-3.9-0.6-5.5-1.8l2.1-1.8l-2.6-2.5l-1.7,2.2c-0.2-0.3-0.4-0.6-0.6-0.9
		c0.3-0.6,0.4-1.3,0.2-1.9c-0.3-0.8-0.5-2-0.4-3.6c0.1-1.5,0.7-2.9,1.1-3.8c0.3-0.6,0.3-1.2,0.1-1.8c1.9-2.2,4.6-3.5,7.5-3.4
		C18.2,27,22.5,31.4,22.5,36.7z M6.9,40.9l1.8,1.7l-2.5,2.1l-1.3-1.2L6.9,40.9z M4.9,32c-0.4,0.9-1,2.4-1.1,3.9
		c-0.1,1.6,0.1,2.9,0.4,3.8c0.2,0.5,0.1,1.1-0.2,1.6l-0.3,0.4c-0.3-0.5-0.7-1.5-1-2.8c-0.2-0.9-0.3-2-0.2-2.9
		c0.1-1.6,0.9-3.6,1.2-4.2c0.4-0.8,0.8-1.4,1-1.7l0,0l0,0C5.1,30.6,5.2,31.3,4.9,32z M24.4,36.4c-0.1,6.3-5.2,11.3-11.4,11.3h-0.1
		c-2.5,0-4.8-0.9-6.7-2.3l0.7-0.6c1.7,1.2,3.7,1.9,5.8,1.9h0.1c2.7,0,5.2-1,7.1-2.9s3-4.4,3-7.1c0-1.9-0.5-3.6-1.3-5.1l1.2-1
		C23.8,32.3,24.4,34.2,24.4,36.4z M32.4,19.9L22.6,30l-1.2,1.1c-0.7-1.1-1.6-2.1-2.7-2.9l1.2-1.4l0,0l10.7-10c0,0,5.6-5,7.3-7.6
		l2.6,2.7C37.5,14.2,32.4,19.9,32.4,19.9z M42.7,11.8c0,0-0.6-0.4-1-0.4h-0.1c-0.2,0.1-0.5,0.2-0.8,0.4L38,8.9
		c0-0.1,0.1-0.1,0.1-0.2c0.2-0.4,0-1.9,0-1.9l5.6-4.1c0,0,0.5,0.4,0.9,0.5c0,0,0.1,0,0.2,0c0.4,0,0.8-0.2,0.8-0.2l1.3,1.4
		c0,0-0.4,0.7-0.4,1.1c0,0.3,0.3,0.8,0.3,0.8L42.7,11.8z M12.1,41c0.1,0.1,0.1,0.3,0,0.4c0,0-0.1,0.1-0.2,0.1c-0.1,0-0.1,0-0.2-0.1
		l-3.5-3.6c-0.1-0.1-0.1-0.3,0-0.4c0.1-0.1,0.3-0.1,0.4,0L12.1,41z"/>
</g>
</svg>
