<svg width="49" height="49" viewBox="0 0 49 49" fill="none" xmlns="http://www.w3.org/2000/svg">
<path d="M47.2369 9.11768L48.3707 7.58496L47.567 6.99023L47.2822 7.37524L46.726 6.94989L47.1414 6.39264L47.5272 5.87512L47.2144 5.31049C47.1637 5.21698 47.1053 5.07343 47.087 4.99902C47.1121 4.86377 47.2319 4.55426 47.3488 4.32794L47.6751 3.69592L47.1858 3.17896L45.8805 1.80554L45.3687 1.26703L44.7053 1.6015C44.6103 1.64819 44.4672 1.698 44.3831 1.71515C44.2733 1.66168 44.0648 1.51727 43.945 1.41388L43.3389 0.890503L42.6957 1.36761L42.1968 1.73773L41.7245 1.06177L42.0723 0.810547L41.4864 0L40.0201 1.05908L40.606 1.86963L40.9142 1.64703L41.3937 2.33337L40.4126 3.0611L39.9344 2.37665L40.2818 2.12549L39.6959 1.31494L38.23 2.37451L38.816 3.18506L39.1243 2.96216L39.6096 3.65674L38.6481 4.36987L38.1799 3.7002L38.5264 3.44971L37.9405 2.63916L36.3956 3.75586L36.9815 4.56641L37.3694 4.28601L37.8446 4.96582L37.1218 5.50195L36.6591 5.84521L36.724 6.41803C36.7909 7.00873 36.8087 7.71832 36.7613 7.9068C36.1277 9.38605 31.8768 13.4886 29.35 15.7165L19.1296 25.2441C17.2114 23.9883 15.0109 23.34 12.5758 23.315L12.4454 23.3143C5.6532 23.3143 0.0705004 28.841 0.000676181 35.6342C-0.0335035 38.959 1.22913 42.098 3.55591 44.4732C5.8827 46.8483 8.99512 48.1752 12.3199 48.2094L12.4503 48.21C19.2425 48.21 24.8252 42.6833 24.895 35.8901C24.9172 33.7264 24.3801 31.6738 23.2971 29.7775L32.6086 20.1234C35.1141 17.2841 39.5716 12.6952 41.2785 11.9999C41.3763 12.0391 41.5703 12.1316 41.6881 12.2022L42.4637 12.6675L43.0043 11.9424L43.4885 11.2929L44.1101 11.7682L43.855 12.1128L44.6588 12.7075L45.7349 11.2534L44.9312 10.6587L44.7048 10.9646L44.0859 10.4914L44.8157 9.51239L45.4172 9.97235L45.1622 10.3169L45.9659 10.9116L47.0421 9.45752L46.2383 8.86279L46.012 9.1687L45.4132 8.71088L46.1284 7.7514L46.6876 8.17902L46.4332 8.52295L47.2369 9.11768ZM1.00062 35.6445C1.06519 29.3625 6.17804 24.3143 12.4454 24.3143C12.4855 24.3143 12.5254 24.3145 12.5656 24.3149C14.9498 24.3395 17.0225 25.0021 18.8251 26.2551L17.71 27.5366C16.1746 26.5675 14.368 25.9888 12.4229 25.9688C9.48255 25.9349 6.67194 27.1976 4.71479 29.4194C4.67292 29.3545 4.64692 29.2826 4.59821 29.2212C4.49518 29.0908 4.32917 29.0098 4.17634 29.0259C4.01276 29.0317 3.8653 29.1133 3.77253 29.249C3.52448 29.6128 3.19294 30.1841 2.75934 30.9956C2.3946 31.6792 1.56354 33.7471 1.46833 35.4404C1.41218 36.4399 1.49225 37.5312 1.69343 38.5142C1.95807 39.8008 2.40046 40.9111 2.72126 41.4404C2.82184 41.6069 2.99079 41.71 3.17243 41.7168C3.17878 41.7173 3.18512 41.7173 3.19147 41.7173C3.3526 41.7173 3.49909 41.6401 3.59626 41.5034L3.67237 41.3961C3.85779 41.6985 4.05719 41.9924 4.27326 42.2744L3.70807 42.9917L5.59491 44.9173C2.77778 42.8049 0.961614 39.4354 1.00062 35.6445ZM21.9595 36.209C21.9332 38.7842 20.9053 41.1948 19.066 42.9971C17.2266 44.7998 14.7896 45.8086 12.2193 45.7505C10.2468 45.7307 8.36829 45.1179 6.76685 43.9865L8.90778 42.1577L6.31891 39.6782L4.59412 41.8672C4.37073 41.5677 4.16205 41.2575 3.97504 40.9354C4.31281 40.3742 4.40113 39.6783 4.18708 39.0312C3.9361 38.2729 3.66657 37.041 3.80866 35.481C3.94294 34.0063 4.47028 32.6113 4.88874 31.7012C5.15802 31.1151 5.1684 30.4694 4.95881 29.8904C6.82276 27.6874 9.52503 26.4279 12.418 26.4688C17.734 26.5234 22.0142 30.8926 21.9595 36.209ZM6.37067 40.4204L8.16266 42.1362L5.66266 44.272L4.37311 42.9556L6.37067 40.4204ZM4.43464 31.4922C3.99958 32.438 3.45173 33.8901 3.31061 35.4355C3.16071 37.0815 3.44635 38.3848 3.71247 39.1885C3.89411 39.7378 3.8111 40.3354 3.49128 40.7866L3.14899 41.1816C2.85016 40.6885 2.43561 39.6416 2.18366 38.4136C1.9903 37.4722 1.91364 36.4263 1.96735 35.4688C2.05817 33.8574 2.85212 31.8838 3.20075 31.231C3.61969 30.4468 3.95075 29.8745 4.1944 29.5254C4.19489 29.5254 4.19489 29.5254 4.19489 29.5254C4.20075 29.5254 4.20417 29.5288 4.20661 29.5317C4.64704 30.0879 4.73444 30.8389 4.43464 31.4922ZM23.8951 35.8798C23.8305 42.1619 18.7177 47.21 12.4503 47.21C12.4102 47.21 12.3703 47.2098 12.3301 47.2094C9.81855 47.1836 7.51172 46.3414 5.63831 44.9505L6.37305 44.3229C8.07947 45.5607 10.0966 46.2288 12.2144 46.2505C12.2506 46.251 12.2862 46.251 12.3223 46.251C14.9908 46.251 17.5064 45.2246 19.4156 43.354C21.3507 41.4585 22.4317 38.9229 22.4595 36.2139C22.4787 34.3565 21.9862 32.6146 21.1263 31.1069L22.3008 30.0669C23.3333 31.7902 23.9174 33.7072 23.8951 35.8798ZM31.8889 19.4292L22.1033 29.5746L20.8666 30.6697C20.1503 29.548 19.2226 28.5745 18.1347 27.8099L19.3165 26.4517L19.3084 26.4446L30.0113 16.4666C30.0113 16.4666 35.6306 11.5094 37.327 8.90778L39.9104 11.6509C36.9518 13.6902 31.8889 19.4292 31.8889 19.4292ZM42.2025 11.3447C42.2025 11.3447 41.5988 10.9825 41.2289 10.9825C41.1856 10.9825 41.1455 10.9875 41.11 10.9985C40.8886 11.0676 40.6232 11.2083 40.3405 11.378L37.5902 8.4577C37.6249 8.39032 37.671 8.31586 37.6976 8.2536C37.8886 7.80548 37.7176 6.30518 37.7176 6.30518L43.2914 2.17078C43.2914 2.17078 43.8035 2.61285 44.1924 2.7049C44.2401 2.71619 44.2914 2.72113 44.3447 2.72113C44.7061 2.72113 45.1556 2.49445 45.1556 2.49445L46.4609 3.86786C46.4609 3.86786 46.1012 4.55945 46.0841 4.98041C46.0707 5.30945 46.3396 5.79498 46.3396 5.79498L42.2025 11.3447ZM11.6138 40.4814C11.7091 40.5811 11.7056 40.7393 11.606 40.835C11.5577 40.8813 11.4952 40.9043 11.4332 40.9043C11.3673 40.9043 11.3018 40.8784 11.2525 40.8271L7.7779 37.1987C7.68268 37.0991 7.6861 36.9409 7.78571 36.8452C7.88532 36.749 8.04352 36.7539 8.13923 36.853L11.6138 40.4814Z" fill="black"/>
</svg>
