<svg width="49" height="49" viewBox="0 0 49 49" fill="none" xmlns="http://www.w3.org/2000/svg">
<path d="M6.65168 36.916L11.7713 42.1387L14.7718 39.4121L9.65265 34.1899L6.65168 36.916ZM11.7918 41.4448L7.37238 36.9365L9.63214 34.8833L14.0511 39.3916L11.7918 41.4448ZM46.9332 1.56787C46.8016 1.54126 46.6664 1.52777 46.5316 1.52777C46.0624 1.52777 45.601 1.69238 45.2288 1.98938L44.3397 1.05487L44.6863 0.737305L44.0106 0L42.5594 1.32959L43.2352 2.06689L43.6021 1.73071L44.4493 2.62109L43.3111 3.54645L42.5673 2.70807L42.8782 2.42334L42.2025 1.68604L40.8026 2.96826L41.4783 3.70557L41.8297 3.38379L42.5343 4.17804L41.4789 5.03607L40.7679 4.28876L41.1146 3.97119L40.4388 3.23389L38.9876 4.56348L39.6634 5.30078L40.0303 4.9646L40.7005 5.66895L39.4638 6.67438L38.8807 6.0174L39.1917 5.73242L38.5159 4.99512L37.1165 6.27734L37.7923 7.01465L38.1431 6.69324L38.687 7.30597L38.5432 7.42291C38.0972 7.78546 37.9074 8.35956 38.0091 8.89612L37.7776 9.51288L24.5466 20.8941C24.2795 20.7823 23.964 20.6263 23.716 20.4389C23.3193 20.139 23.3226 20.1024 23.335 19.9664C23.3927 19.3304 24.1418 17.9555 24.7003 16.9767C24.8571 16.7018 25.1042 16.3151 25.3784 15.8848C26.6341 13.9142 27.2234 12.9054 27.2022 12.1699C27.1685 10.9992 26.4506 10.2427 25.3735 10.2427C23.5009 10.2427 20.9835 12.6884 19.2015 14.7401C18.4407 15.616 17.6266 16.9987 16.7648 18.4626C15.6904 20.2877 14.4725 22.3563 13.5294 23.0529C11.3804 24.64 9.65186 24.9495 7.98023 25.2488C6.52533 25.5093 5.02094 25.7786 3.5492 26.9135C1.4057 28.5665 0.220889 30.5518 0.0275909 32.8141C-0.23779 35.9197 1.4123 39.4355 4.93201 43.2639C8.26435 46.8884 11.507 48.7263 14.5698 48.7263C17.6629 48.7263 19.6692 46.8932 20.6334 46.0123C21.4622 45.2551 21.9927 43.6738 22.6069 41.8428C23.1873 40.1132 23.9094 37.9605 24.7507 37.2664C25.4798 36.6647 26.6962 36.1709 27.8725 35.6934C30.0049 34.8276 32.21 33.9324 31.7547 31.9966C31.4043 30.507 29.5729 30.3624 27.9572 30.2349C27.2546 30.1794 25.9471 30.0761 25.7032 29.8226C25.653 29.7389 25.5215 29.4518 25.4312 28.7053L42.2034 11.3765C43.5665 11.3448 43.9304 11.0781 44.0913 10.9601C44.8571 10.3988 45.2247 9.33313 45.5803 8.30255C45.7908 7.69232 46.1091 6.77002 46.3737 6.58868C46.4099 6.57288 46.6029 6.52283 46.7307 6.48969C47.4136 6.31256 49.0129 5.89771 48.9305 3.99451C48.8752 2.71619 48.1285 1.80902 46.9332 1.56787ZM22.7161 29.7344L19.9681 26.8413L38.6082 10.4507L39.8675 11.7744L22.7161 29.7344ZM30.7813 32.2256C31.2129 34.061 26.2357 34.7446 24.1143 36.495C22.1743 38.0958 21.3537 43.9997 19.9703 45.2635C19.0902 46.0677 17.2866 47.7263 14.5698 47.7263C12.2604 47.7263 9.29108 46.5276 5.66815 42.587C-1.99627 34.2505 1.4765 29.7747 4.15985 27.7054C6.9715 25.5372 9.83918 27.0215 14.1235 23.8572C16.0189 22.4573 18.2717 17.3356 19.9565 15.3958C22.4722 12.4995 24.3622 11.2427 25.3735 11.2427C25.8967 11.2427 26.1848 11.579 26.2026 12.1987C26.2228 12.9025 24.4195 15.4508 23.8317 16.4811C21.8399 19.9723 22.0828 20.4578 23.113 21.2366C23.712 21.6895 24.4912 21.9493 24.7006 22.014L19.2474 26.8091L22.7152 30.459L24.4251 28.6684C24.5008 29.3795 24.633 29.9896 24.863 30.3625C25.7086 31.7332 30.4261 30.7156 30.7813 32.2256ZM45.8084 5.76379C44.7462 6.4917 44.5388 9.39221 43.5001 10.1535C43.2202 10.3588 42.2937 10.3796 41.9281 10.3796C41.8347 10.3796 41.7779 10.3783 41.7779 10.3783L40.4924 11.7065L38.7215 9.84363L39.0736 8.90588C38.9172 8.68011 38.9609 8.37207 39.174 8.19885L45.8441 2.776C46.04 2.61664 46.2835 2.52777 46.5316 2.52777C46.5995 2.52777 46.6677 2.53442 46.7354 2.5481C47.234 2.64868 47.8858 2.98297 47.9315 4.03772C47.9976 5.56476 46.3727 5.3772 45.8084 5.76379Z" fill="black"/>
</svg>
