<?xml version="1.0" encoding="utf-8"?>
<!-- Generator: Adobe Illustrator 24.1.3, SVG Export Plug-In . SVG Version: 6.00 Build 0)  -->
<svg version="1.1" id="Layer_1" xmlns="http://www.w3.org/2000/svg" xmlns:xlink="http://www.w3.org/1999/xlink" x="0px" y="0px"
	 viewBox="0 0 49 49" style="enable-background:new 0 0 49 49;" xml:space="preserve">
<style type="text/css">
	.st0{fill:#F588BD;}
</style>
<g id="colour">
	<path class="st0" d="M27.6,29.1c-2.2,0.9,0.7-3.5,0.7-3.8c0.1-0.8,0.1-1.3-0.2-2.1c-0.6-2.1-3.2-2.5-3.7-4.5c0-0.1-0.1-0.2-0.1-0.3
		c1-1.4,2-2.7,3.1-4c2.5-2.9-1.8-7.2-4.2-4.2c-2.7,3.2-5,6.7-7.7,9.8c-3.3,3.8-7.5,3.6-11.4,6c-6.4,3.9-5.8,11.1-1.8,16.6
		c3.8,5.2,10,9.6,16.6,6.3c3-1.5,4.2-3.8,5.2-6.8c0.9-2.4,1.5-3.6,4-4.8c1.3-0.6,2.4-1.2,3.6-2l0,0l0,0c0.2-0.2,0.4-0.3,0.6-0.5
		C35.2,32.6,30.4,27.9,27.6,29.1z"/>
</g>
<g id="Layer_1_1_">
	<path d="M6.7,36.9l5.1,5.2l3-2.7l-5.1-5.2L6.7,36.9z M11.8,41.4l-4.4-4.5l2.3-2.1l4.4,4.5L11.8,41.4z M46.9,1.6c-0.1,0-0.3,0-0.4,0
		c-0.5,0-0.9,0.2-1.3,0.5l-0.9-0.9l0.3-0.3L44,0l-1.5,1.3L43.2,2l0.4-0.3l0.8,0.9l-1.1,0.9l-0.7-0.8l0.3-0.3l-0.7-0.7L40.8,3
		l0.7,0.7l0.4-0.3l0.7,0.8L41.5,5l-0.7-0.7L41.1,4l-0.7-0.7L39,4.6l0.7,0.7L40,5l0.7,0.7l-1.2,1L38.9,6l0.3-0.3L38.5,5l-1.4,1.3
		L37.8,7l0.4-0.3l0.5,0.6l-0.1,0.1c-0.4,0.4-0.6,0.9-0.5,1.5l-0.2,0.6L24.5,20.9c-0.3-0.1-0.6-0.3-0.8-0.5c-0.4-0.3-0.4-0.3-0.4-0.5
		c0.1-0.6,0.8-2,1.4-3c0.2-0.3,0.4-0.7,0.7-1.1c1.3-2,1.8-3,1.8-3.7c0-1.2-0.8-1.9-1.8-1.9c-1.9,0-4.4,2.4-6.2,4.5
		c-0.8,0.9-1.6,2.3-2.4,3.7c-1.1,1.8-2.3,3.9-3.2,4.6c-2.1,1.6-3.9,1.9-5.5,2.2c-1.5,0.3-3,0.5-4.4,1.7c-2.1,1.7-3.3,3.6-3.5,5.9
		c-0.3,3.1,1.4,6.6,4.9,10.4c3.3,3.6,6.6,5.5,9.6,5.5c3.1,0,5.1-1.8,6.1-2.7c0.8-0.8,1.4-2.3,2-4.2c0.6-1.7,1.3-3.9,2.1-4.6
		c0.7-0.6,1.9-1.1,3.1-1.6c2.1-0.9,4.3-1.8,3.9-3.7c-0.4-1.5-2.2-1.6-3.8-1.8c-0.7-0.1-2-0.2-2.3-0.4c-0.1-0.1-0.2-0.4-0.3-1.1
		l16.8-17.3c1.4,0,1.7-0.3,1.9-0.4c0.8-0.6,1.1-1.6,1.5-2.7c0.2-0.6,0.5-1.5,0.8-1.7c0,0,0.2-0.1,0.4-0.1c0.5-0.1,2.1-0.5,2-2.4
		C48.9,2.7,48.1,1.8,46.9,1.6z M22.7,29.7L20,26.8l18.6-16.4l1.3,1.3L22.7,29.7z M30.8,32.2c0.4,1.8-4.5,2.5-6.7,4.3
		c-1.9,1.6-2.8,7.5-4.1,8.8c-0.9,0.8-2.7,2.5-5.4,2.5c-2.3,0-5.3-1.2-8.9-5.1c-7.7-8.4-4.2-12.9-1.5-15c2.8-2.2,5.7-0.7,10-3.8
		c1.9-1.4,4.1-6.5,5.8-8.5c2.5-2.9,4.4-4.2,5.4-4.2c0.5,0,0.8,0.3,0.8,1s-1.8,3.3-2.4,4.3c-2,3.5-1.7,4-0.7,4.8
		c0.6,0.5,1.4,0.7,1.6,0.8l-5.5,4.8l3.5,3.6l1.7-1.8c0.1,0.7,0.2,1.3,0.4,1.7C25.7,31.7,30.4,30.7,30.8,32.2z M45.8,5.8
		c-1.1,0.7-1.3,3.6-2.3,4.4c-0.3,0.2-1.2,0.2-1.6,0.2c-0.1,0-0.2,0-0.2,0l-1.3,1.3l-1.8-1.9L39,8.9c-0.2-0.2-0.1-0.5,0.1-0.7
		l6.7-5.4c0.2-0.2,0.4-0.2,0.7-0.2c0.1,0,0.1,0,0.2,0c0.5,0,1.2,0.4,1.2,1.4C48,5.6,46.4,5.4,45.8,5.8z"/>
</g>
</svg>
