<?xml version="1.0" encoding="utf-8"?>
<!-- Generator: Adobe Illustrator 24.1.3, SVG Export Plug-In . SVG Version: 6.00 Build 0)  -->
<svg version="1.1" id="Layer_1" xmlns="http://www.w3.org/2000/svg" xmlns:xlink="http://www.w3.org/1999/xlink" x="0px" y="0px"
	 viewBox="0 0 46 49" style="enable-background:new 0 0 46 49;" xml:space="preserve">
<style type="text/css">
	.st0{fill:#F588BD;}
</style>
<g id="colour">
	<path class="st0" d="M30.5,11.5c-5.3,5.4-10.7,10.9-15.6,16.7c-4.5,5.4-8.8,10.6-14.2,15.2c-2.9,2.5,1.3,6.7,4.2,4.2
		c5.4-4.6,9.6-9.8,14.2-15.2c4.9-5.8,10.3-11.3,15.6-16.7C37.5,13,33.2,8.8,30.5,11.5z"/>
</g>
<g id="Layer_1_1_">
	<path d="M44.4,1.2C44.3,1.1,44.2,1,44.1,1c-0.2-0.2-1-1-1.9-1c-0.4,0-0.8,0.2-1,0.5C41.1,0.8,41,1.1,41,1.3
		C38.7,3.7,25.9,17,21.5,21.7C16.3,27.2,0.8,43.9,0.6,44.1L0,44.7l0.7,0.7l1.9,2l0.7,0.7L4,47.4c0.1-0.1,10.7-10.6,14.2-14l0.8-0.8
		c4.1-4.1,11.6-11.7,13.4-14.1c0.2-0.3,0.4-0.8-0.1-1.6l0.2-0.2c0.5,0.4,0.9,0.9,1,1c0.1,0.2,0,0.9-0.1,1.3
		c-0.1,0.7-0.2,1.3-0.1,1.8c0.4,2,3.7,5.9,4.4,6.7l0.6,0.7l0.8-0.6l0.4-0.3l0.8-0.6l-0.7-0.8c-1.4-1.7-3.5-4.5-3.6-5.5
		c0-0.3,0-0.7,0.1-1.2c0.1-0.7,0.2-1.5-0.1-2.2c-0.2-0.6-1-1.4-1.8-2.2l9.9-10.6c0.7-0.1,1.1-0.4,1.2-1C45.6,2.4,44.9,1.7,44.4,1.2z
		 M41.9,1.9c0.5,0.2,1.4,1,1.7,1.4l-8.8,9.4c-0.2-0.2-0.4-0.4-0.7-0.7c-0.1-0.1-0.7-0.6-1.2-0.9C37.1,6.8,41,2.8,41.9,1.9z
		 M33.2,14.5L33.2,14.5l-0.8,0.8l0,0l-1.5,1.6l0,0l-15,15.6l-1.7-1.6c1.6-1.7,3.1-3.4,4.5-4.8l0.4,0.4L15,31l0.4,0.3l15.1-16
		L30.1,15l-0.8,0.8l-0.4-0.4c0.8-0.8,1.6-1.7,2.5-2.6C31.9,13,33.1,14,33.2,14.5L33.2,14.5z M20.7,28.3l0.6,0.5
		c-0.3,0.3-0.6,0.6-0.9,0.9l-0.6-0.5L20.7,28.3z M21,27.9l1.3-1.4l0.6,0.6c-0.5,0.5-0.9,0.9-1.3,1.4L21,27.9z M22.7,26.2l0.2-0.2
		l0.6,0.6c-0.1,0.1-0.1,0.1-0.2,0.2L22.7,26.2z M19.5,26.1l-0.4-0.4c0.1-0.2,0.3-0.3,0.4-0.4l0.4,0.4L19.5,26.1z M26.1,19.2
		l-0.4-0.4L25.5,19c0.9-1,2-2,3-3.2l0.4,0.4L26.1,19.2z M25.8,19.5l-0.5,0.6l-0.4-0.4c0.2-0.2,0.4-0.4,0.5-0.6L25.8,19.5z
		 M22.2,22.4c0.6-0.7,1.4-1.5,2.3-2.4l0.4,0.4l-4.6,4.9l-0.4-0.4C20.8,24,21.6,23.1,22.2,22.4z M13.3,34.7c-0.3,0-0.6,0.3-0.6,0.6
		s0.3,0.6,0.6,0.6c0.1,0,0.2,0,0.3-0.1l0.4,0.4c-0.1,0.1-0.2,0.2-0.4,0.4L12,35.2l-4,4.2l-0.1-0.1l0.4-0.5L8,38.5L7.6,39l-0.4-0.4
		c1.8-1.9,3.7-4,5.7-6.1l2.5,2.3c-0.3,0.3-0.7,0.7-1,1l-0.5-0.4v-0.1C13.9,35,13.6,34.7,13.3,34.7z M7.2,40.1l0.4-0.4l0.7,0.6
		l-2.4,2.5l-0.1-0.1l0.9-1l-0.4-0.3L6,41.7l-1-0.8c0.6-0.6,1.2-1.2,1.8-1.9l0.4,0.4l-0.4,0.4L7.2,40.1z M5.7,42.1l-0.3,0.3l-0.2-0.1
		l0,0c0-0.3-0.2-0.5-0.5-0.5S4.2,42,4.2,42.3s0.2,0.5,0.5,0.5c0.1,0,0.1,0,0.2,0L5,42.9L4.8,43l0,0c-0.3,0-0.5,0.2-0.5,0.5
		S4.5,44,4.8,44s0.5-0.2,0.5-0.5c0-0.1,0-0.1,0-0.2L5.6,43l0.1,0.1l-0.1,0.1L6,43.5l0-0.1l0.1,0.1l0.3-0.4L6.3,43l5.8-6.1l0.6,0.5
		C10,40.1,6.9,43.2,5,45c-0.4-0.7-1.4-1.6-2.1-2c0.5-0.5,1-1.1,1.7-1.8L5.7,42.1z M12.1,36.3L8.6,40l-0.2-0.2l3.7-3.9l1.2,1
		c-0.1,0.1-0.1,0.1-0.2,0.2L12.1,36.3z M3.3,46.7l-1.9-2c0,0,0.5-0.5,1.2-1.3c0.5,0.2,2,1.4,2,2C3.8,46.2,3.3,46.7,3.3,46.7z
		 M15.7,34.4L13.2,32c0.2-0.3,0.5-0.5,0.7-0.8l2.5,2.4C16.2,33.9,16,34.2,15.7,34.4z M17.5,32.7c-0.2,0.2-0.4,0.4-0.6,0.6l-0.5-0.5
		l3.2-3.3l0.6,0.5C19,31.1,18.2,32,17.5,32.7z M31.6,17.9c-1.1,1.4-4.4,4.9-7.7,8.3l-0.6-0.6l8-8.4C31.5,17.5,31.7,17.7,31.6,17.9z
		 M35.1,17.4c0.3,0.8-0.2,2.3,0,3.1c0.3,1.8,3.9,6,3.9,6l-0.4,0.3c0,0-3.8-4.4-4.2-6.2c-0.2-0.8,0.4-2.5,0.1-3.3
		c-0.1-0.4-1.1-1.2-1.6-1.7l0.4-0.4C33.8,15.8,34.9,16.9,35.1,17.4z M33.6,14.1c-0.2-0.2-0.4-0.5-0.8-0.8c-0.1-0.1-0.6-0.5-1.1-0.8
		c0.3-0.3,0.6-0.6,0.8-0.9c0.3,0.1,1.6,1,1.9,1.5L33.6,14.1z M44.4,3c0,0.1-0.1,0.2-0.3,0.2c-0.1-0.3-0.4-0.6-0.8-0.9
		c-0.1-0.1-0.7-0.6-1.2-0.9c0-0.1,0-0.2,0-0.3C42.1,1,42.2,1,42.3,1c0.3,0,0.8,0.4,1.1,0.7C43.9,2.2,44.5,2.6,44.4,3z M35.8,9.4
		C35.8,9.1,36,9,36.2,9s0.4,0.2,0.4,0.4s-0.2,0.4-0.4,0.4S35.8,9.6,35.8,9.4z M12.5,33.3l0.4,0.3l-2,2.2l-0.4-0.3L12.5,33.3z"/>
</g>
</svg>
