<svg width="46" height="49" viewBox="0 0 46 49" fill="none" xmlns="http://www.w3.org/2000/svg">
<path d="M44.3639 1.19415C44.2897 1.12207 44.2152 1.04987 44.1437 0.977905C43.9814 0.814636 43.1292 0 42.2872 0C41.8804 0 41.515 0.181702 41.2845 0.498657C41.0933 0.761536 41.0375 1.05273 41.0432 1.31512C38.7418 3.70349 25.9459 16.9879 21.4734 21.747C16.32 27.2307 0.80365 43.8847 0.647522 44.0523L0 44.7473L0.660828 45.4296L2.57745 47.4088L3.27893 48.1331L3.99744 47.4257C4.10425 47.3205 14.7149 36.8712 18.163 33.3851L18.9578 32.582C23.0184 28.4803 30.5768 20.8455 32.3667 18.4589C32.5841 18.169 32.795 17.6343 32.2921 16.9001L32.475 16.711C32.9669 17.1572 33.3775 17.5665 33.5032 17.744C33.5573 17.9724 33.4667 18.6219 33.4117 19.0164C33.3199 19.6749 33.2333 20.2969 33.35 20.8324C33.7874 22.8378 37.081 26.7283 37.7368 27.4879L38.3599 28.2094L39.1104 27.6215L39.4911 27.3232L40.3126 26.6798L39.6347 25.8864C38.2225 24.2333 36.1622 21.434 36.0033 20.3861C35.9638 20.126 36.012 19.6711 36.0587 19.2313C36.137 18.492 36.218 17.7276 36.007 17.0803C35.8255 16.5234 35.0381 15.6633 34.2185 14.879L44.1291 4.22949C44.7978 4.12329 45.243 3.784 45.3759 3.26361C45.5983 2.39258 44.9138 1.72809 44.3639 1.19415ZM41.9036 1.86346C42.3752 2.11224 43.3003 2.86652 43.6262 3.30194L34.8348 12.7488C34.6765 12.5438 34.4521 12.3132 34.1526 12.0543C34.0601 11.9749 33.415 11.4447 32.9221 11.2007C37.1138 6.83447 40.9788 2.823 41.9036 1.86346ZM33.2052 14.5L33.1995 14.4947L32.4227 15.338C32.4224 15.3377 32.4167 15.3329 32.4167 15.3329L30.9104 16.8902C30.9104 16.8902 30.923 16.9009 30.9307 16.9073L15.9374 32.4975L14.2578 30.9244C15.8515 29.2173 17.3966 27.5635 18.7693 26.0958L19.2051 26.4987L15.0032 30.9586L15.3665 31.3013L30.4465 15.2955L30.0833 14.9527L29.3062 15.7775L28.9015 15.3941C29.7118 14.5477 30.5412 13.6823 31.3714 12.8167C31.861 13.0321 33.0949 14.0449 33.2597 14.4414L33.2052 14.5ZM20.6804 28.2881L21.2636 28.8253C20.9616 29.132 20.6677 29.4301 20.3788 29.7227L19.8073 29.196L20.6804 28.2881ZM21.0269 27.9279L22.3617 26.5399L22.9636 27.0945C22.5065 27.5615 22.0573 28.0187 21.6143 28.469L21.0269 27.9279ZM22.7081 26.1796L22.9088 25.971L23.5154 26.5297C23.4479 26.5988 23.3804 26.6681 23.313 26.737L22.7081 26.1796ZM19.5482 26.1345L19.1111 25.7303C19.2549 25.5767 19.3922 25.4301 19.5314 25.2812L19.9703 25.6865L19.5482 26.1345ZM26.1248 19.1541L25.7014 18.7452L25.5411 18.9108C26.4769 17.929 27.4955 16.8632 28.5557 15.7554L28.9632 16.1415L26.1248 19.1541ZM25.7819 19.5181L25.2538 20.0787L24.8073 19.6813C24.9866 19.493 25.1684 19.3021 25.3552 19.106L25.7819 19.5181ZM22.2021 22.4319C22.8169 21.7776 23.5868 20.9647 24.4628 20.0433L24.9111 20.4423L20.3134 25.3223L19.8733 24.9158C20.7725 23.9553 21.5657 23.109 22.2021 22.4319ZM13.3062 34.7027C12.9841 34.7027 12.7229 34.9639 12.7229 35.286C12.7229 35.6082 12.9841 35.8693 13.3062 35.8693C13.405 35.8693 13.4937 35.8386 13.5753 35.7952L13.9728 36.159C13.8498 36.2812 13.726 36.4043 13.6005 36.5289L12.0364 35.2139L8.04572 39.4125L7.93878 39.3132L8.36255 38.8423L7.99146 38.5084L7.57288 38.9735L7.13098 38.5632C8.88361 36.6836 10.8691 34.555 12.8488 32.4338L15.3563 34.7822C15.029 35.1085 14.6849 35.4512 14.3282 35.8058L13.8694 35.386C13.8754 35.3523 13.8896 35.3215 13.8896 35.286C13.8896 34.9639 13.6284 34.7027 13.3062 34.7027ZM7.22583 40.1055L7.60455 39.6847L8.25519 40.2889L5.90332 42.7428L5.83746 42.6909L6.76294 41.7188L6.40161 41.3741L6.07349 41.7188L4.98737 40.8624C5.54541 40.2638 6.14966 39.6156 6.79028 38.9286L7.23865 39.3449L6.85474 39.7715L7.22583 40.1055ZM5.72681 42.0829L5.44348 42.3806L5.25964 42.2357C5.25977 42.2319 5.26184 42.2287 5.26184 42.2249C5.26184 41.9684 5.05396 41.7604 4.79749 41.7604C4.54102 41.7604 4.33313 41.9684 4.33313 42.2249C4.33313 42.4813 4.54102 42.6892 4.79749 42.6892C4.86249 42.6892 4.92413 42.6754 4.98029 42.6513L5.09766 42.7438L4.82965 43.0253C4.81842 43.0245 4.8089 43.0188 4.79749 43.0188C4.54102 43.0188 4.33313 43.2267 4.33313 43.4832C4.33313 43.7396 4.54102 43.9475 4.79749 43.9475C5.05396 43.9475 5.26184 43.7396 5.26184 43.4832C5.26184 43.4283 5.24805 43.3773 5.23059 43.3284L5.49164 43.0542L5.55615 43.105L5.44849 43.2173L5.80981 43.563L5.95087 43.4159L6.06079 43.5025L6.36938 43.1099L6.29797 43.0536L12.137 36.961L12.695 37.4276C9.96057 40.1393 6.90399 43.1561 5.03979 44.9943C4.6814 44.2709 3.60553 43.3959 2.95618 43.0416C3.43329 42.5296 4.00275 41.9187 4.6449 41.2298L5.72681 42.0829ZM12.0999 36.2774L8.60095 39.9281L8.41272 39.7533L12.0754 35.8995L13.2441 36.8828C13.1803 36.9461 13.1157 37.0103 13.0515 37.0739L12.0999 36.2774ZM3.29584 46.7131L1.37915 44.7339C1.37915 44.7339 1.83582 44.2438 2.60645 43.4168C3.12305 43.6354 4.57971 44.8344 4.65216 45.3765C3.8114 46.2054 3.29584 46.7131 3.29584 46.7131ZM15.7106 34.4286L13.1901 32.0682C13.4329 31.808 13.6747 31.549 13.9164 31.2901L16.4637 33.6757C16.2271 33.9128 15.976 34.1638 15.7106 34.4286ZM17.4521 32.6819C17.262 32.874 17.0471 33.0904 16.8171 33.3213L16.3029 32.8398L19.4608 29.5563L20.0276 30.0786C19.0396 31.0787 18.1512 31.975 17.4521 32.6819ZM31.5667 17.8589C30.4874 19.2979 27.1735 22.7785 23.8646 26.172L23.2552 25.6108L31.2924 17.2537C31.4897 17.4676 31.6697 17.7216 31.5667 17.8589ZM35.0563 17.3902C35.3175 18.1918 34.8828 19.6668 35.0146 20.536C35.2881 22.3401 38.8745 26.536 38.8745 26.536L38.4937 26.8343C38.4937 26.8343 34.7324 22.4781 34.3271 20.6194C34.1522 19.8176 34.7394 18.1141 34.4208 17.3381C34.2771 16.988 33.3409 16.1368 32.8013 15.6646L33.1671 15.2675C33.7647 15.8246 34.9066 16.9308 35.0563 17.3902ZM33.6105 14.0645C33.4553 13.83 33.2075 13.5594 32.844 13.2452C32.7583 13.1719 32.1979 12.71 31.7242 12.4489C32.003 12.1583 32.281 11.8687 32.5583 11.5797C32.8875 11.6328 34.1271 12.6083 34.4943 13.1149L33.6105 14.0645ZM44.407 3.01617C44.3833 3.10895 44.2717 3.16705 44.1417 3.20355C44.0035 2.94403 43.7294 2.63116 43.2991 2.25983C43.206 2.17932 42.5538 1.63031 42.0561 1.3927C42.0394 1.28412 42.0366 1.16461 42.0933 1.08673C42.1373 1.02618 42.2047 1 42.2872 1C42.5992 1 43.128 1.37451 43.4344 1.68286C43.907 2.15833 44.5011 2.64752 44.407 3.01617ZM35.8271 9.35376C35.8271 9.13226 36.0066 8.9527 36.2281 8.9527C36.4496 8.9527 36.6292 9.13226 36.6292 9.35376C36.6292 9.57526 36.4496 9.75476 36.2281 9.75476C36.0066 9.75476 35.8271 9.57526 35.8271 9.35376ZM12.5383 33.2608L12.9075 33.5977L10.8616 35.8399L10.4924 35.503L12.5383 33.2608Z" fill="black"/>
</svg>
