<svg width="44" height="23" viewBox="0 0 44 23" fill="none" xmlns="http://www.w3.org/2000/svg">
<path d="M0.00956416 3.45638L3.158 21.8778L17.7879 21.7806L19.9754 10.8538H25.2195L27.2674 21.8656L40.2752 22.0413L43.0555 4.63363L43.0613 4.57308C43.073 4.24154 43.0828 2.56527 42.0994 2.13851C40.8982 1.61898 37.3123 1.2889 33.7332 1.37093C27.0037 1.52669 25.5105 2.04378 24.9734 2.41927C24.4832 2.76204 24.407 3.77767 24.4295 4.57064L24.4607 5.55404H20.6287L21.0027 3.38753C21.0232 2.70003 20.9725 1.49105 20.4021 1.11654C19.8006 0.722004 18.1219 0.178547 10.5144 0.0135079C6.4832 -0.0743827 2.41581 0.274738 1.06425 0.824543C-0.0226624 1.26693 -0.00996718 3.04036 0.00272822 3.39144L0.00956416 3.45638ZM41.5608 7.64742C41.192 7.83614 40.3453 8.09365 39.8289 8.22933C39.7127 8.2596 39.6346 8.36898 39.6434 8.48861C39.6434 8.48861 39.6824 9.03841 39.7264 9.55501C39.7713 10.0648 39.7937 10.3206 39.1707 10.4412C38.9627 10.4818 38.8133 10.4637 38.7078 10.3895C38.532 10.2655 38.4666 9.96614 38.4256 9.68929C38.3465 9.15609 38.2566 8.7015 38.2566 8.7015C38.2303 8.56771 38.0984 8.4803 37.9666 8.50374C37.949 8.50716 36.1687 8.82943 33.7449 8.82943C30.865 8.82943 29.3953 8.39095 29.3807 8.38607C29.3006 8.36263 29.2166 8.37825 29.1521 8.42952C29.0877 8.4803 29.0525 8.55989 29.0584 8.64193C29.0584 8.64193 29.0994 9.27767 29.118 9.597L29.1258 9.70687C29.1434 9.97005 29.1609 10.2186 29.0584 10.3284C28.9842 10.409 28.8162 10.4525 28.573 10.4549C28.5535 10.4549 28.5359 10.4554 28.5184 10.4554C27.8494 10.4554 27.8445 10.3221 27.8133 9.56478L27.8074 9.41634C27.785 8.89144 27.8113 8.31868 27.8123 8.31282C27.8172 8.19905 27.7459 8.09603 27.6375 8.06185C26.823 7.80696 25.8553 7.41097 25.7088 7.21517C25.6838 7.18154 25.6443 7.17281 25.6088 7.15615L25.4877 6.41689L25.4426 4.96358C27.1321 5.34017 30.9838 5.5931 34.659 5.5931C37.6405 5.5931 40.4873 5.42379 41.9801 5.02193L41.5608 7.64742ZM30.2712 19.4227C30.2691 19.414 30.2753 19.4058 30.2723 19.3973C30.1629 19.097 29.2283 14.0682 28.823 10.9198C28.823 10.9195 28.8227 10.9193 28.8227 10.9191C29.0802 10.8829 29.2931 10.8114 29.4256 10.6678C29.6736 10.3997 29.6492 10.0301 29.6248 9.67269L29.618 9.56722C29.6082 9.40316 29.5926 9.15462 29.5789 8.95198C30.1795 9.08724 31.5603 9.32943 33.7449 9.32943C35.7137 9.32943 37.2371 9.12581 37.8113 9.03646C37.8435 9.21517 37.8885 9.47738 37.9314 9.76253C37.9881 10.1439 38.0896 10.5648 38.4187 10.7977C38.5688 10.9041 38.7506 10.9566 38.9589 10.9595C38.5445 13.8587 37.4356 18.4135 37.1198 19.5156C35.0586 19.3813 32.3377 19.3301 30.2712 19.4227ZM26.0516 9.85384H26.0505L25.7188 7.82802C26.19 8.09572 26.9012 8.34829 27.3055 8.48079C27.2986 8.70003 27.2918 9.07552 27.3074 9.43831L27.3143 9.58529C27.3425 10.299 27.3783 10.8676 28.3385 10.9404C28.3376 10.9558 28.3249 10.9674 28.3269 10.9832C28.6915 13.8199 29.5423 18.5513 29.7687 19.4491C28.9825 19.4963 28.3247 19.5681 27.8766 19.6679L26.0516 9.85384ZM33.7566 2.37093C37.493 2.28206 40.7859 2.65902 41.701 3.05599C41.9219 3.15224 42.0715 3.88753 42.0613 4.48311C39.227 5.38527 28.3192 5.21291 25.4301 4.45247C25.4231 3.91665 25.4911 3.33858 25.5457 3.23909C25.9207 2.97738 27.4861 2.51595 33.7566 2.37093ZM19.0519 10.3692L17.2268 19.4909C16.7195 19.3703 15.9338 19.2828 14.9846 19.2241C15.2609 18.235 16.3236 13.1631 16.7514 10.1491C17.6991 10.0371 17.7328 9.45278 17.7644 8.72884L17.7713 8.57357C17.7898 8.18245 17.781 7.77767 17.7732 7.54525C18.2055 7.41219 19.1028 7.11782 19.649 6.81319L19.0389 10.3109C19.0352 10.3322 19.0503 10.3487 19.0519 10.3692ZM15.4158 9.86019C15.5862 10.0449 15.8694 10.1338 16.2445 10.1558C15.7558 13.5712 14.5907 18.8895 14.4764 19.18C14.4741 19.1854 14.4781 19.1907 14.4762 19.1961C12.1095 19.0804 8.96544 19.1198 6.61094 19.2548C6.6107 19.2539 6.61143 19.2531 6.61113 19.2523C6.33641 18.4162 5.28471 13.424 4.80131 10.149C4.94835 10.1216 5.08513 10.0775 5.19902 9.99691C5.54863 9.74935 5.65898 9.31331 5.72148 8.91878C5.77031 8.60335 5.82499 8.31478 5.8621 8.12435C6.48417 8.21517 8.25859 8.44173 10.5027 8.44173C13.0359 8.44173 14.6131 8.17171 15.2635 8.0306C15.2488 8.25081 15.2293 8.52913 15.2185 8.71126L15.2107 8.82454C15.1834 9.19515 15.156 9.57894 15.4158 9.86019ZM19.4779 6.33779C19.0984 6.56569 18.2145 6.89577 17.4451 7.12191C17.3338 7.15462 17.2596 7.25911 17.2654 7.37484C17.2664 7.38118 17.2976 7.99154 17.2713 8.55013L17.2644 8.70736C17.2303 9.51253 17.2146 9.66097 16.3689 9.67269C16.075 9.67025 15.8728 9.61751 15.784 9.52132C15.6707 9.39876 15.6893 9.13704 15.7088 8.86019L15.7166 8.74251C15.7381 8.40316 15.7859 7.72493 15.7859 7.72493C15.7918 7.64339 15.7576 7.56429 15.6941 7.51302C15.6316 7.46224 15.5447 7.4471 15.4676 7.46712C15.451 7.472 13.7791 7.94173 10.5027 7.94173C7.75371 7.94173 5.72636 7.59798 5.70683 7.59407C5.57206 7.57113 5.44706 7.65804 5.41972 7.7889C5.41972 7.7889 5.3162 8.27279 5.22734 8.84114C5.18144 9.13216 5.10722 9.44905 4.90995 9.5887C4.78202 9.68001 4.58769 9.70198 4.33964 9.65706C3.6082 9.52425 3.63359 9.24788 3.68535 8.69173C3.73613 8.14827 3.7791 7.56185 3.7791 7.56185C3.78788 7.43978 3.70781 7.32991 3.58964 7.30062C2.97789 7.14968 1.96226 6.85762 1.57054 6.65212L1.09007 3.83956C2.75535 4.2809 6.03648 4.46419 9.46269 4.46419C13.6383 4.46419 18.0187 4.19338 19.9226 3.79055L19.4779 6.33779ZM1.4412 1.75081C2.48808 1.32405 6.24296 0.91927 10.493 1.01351C17.6277 1.1678 19.4197 1.66829 19.8211 1.92513C19.9317 2.06801 20.0168 2.73183 20.01 3.26186C16.7996 4.08773 4.1674 4.27681 1.00255 3.29348C0.991315 2.71944 1.13426 1.87551 1.4412 1.75081ZM1.67112 7.24092C2.19108 7.44497 2.90544 7.64083 3.26445 7.73372C3.24785 7.95198 3.21855 8.30892 3.18632 8.65169C3.13652 9.1932 3.06816 9.93441 4.2498 10.1493C4.2664 10.1523 4.2808 10.1513 4.29716 10.1538C4.75157 13.2629 5.75139 18.1039 6.10026 19.2865C5.08213 19.3545 4.25822 19.4415 3.77256 19.5417L1.67112 7.24092ZM3.9998 20.8719L3.85301 20.0127C5.65666 19.5526 15.2489 19.5229 17.1346 19.9516L16.9676 20.7865L3.9998 20.8719ZM19.6258 9.85384L20.2013 6.55404H25.0028L25.5431 9.85384H19.6258ZM28.1014 20.8763L27.9634 20.1342C29.7196 19.7662 37.8769 19.844 39.5474 20.2547L39.4236 21.0296L28.1014 20.8763ZM39.6222 19.7863C39.1827 19.6964 38.4819 19.6165 37.6299 19.5515C37.9924 18.2411 39.0892 13.6948 39.4776 10.8723C40.3099 10.6156 40.2659 9.985 40.2244 9.5057C40.1971 9.19222 40.1717 8.86312 40.157 8.65853C40.4612 8.57405 41.0246 8.40853 41.4674 8.23171L39.6222 19.7863Z" fill="black"/>
</svg>
