<?xml version="1.0" encoding="utf-8"?>
<!-- Generator: Adobe Illustrator 24.1.3, SVG Export Plug-In . SVG Version: 6.00 Build 0)  -->
<svg version="1.1" id="Layer_1" xmlns="http://www.w3.org/2000/svg" xmlns:xlink="http://www.w3.org/1999/xlink" x="0px" y="0px"
	 viewBox="0 0 100 100" style="enable-background:new 0 0 100 100;" xml:space="preserve">
<style type="text/css">
	.st0{fill:#F588BD;}
</style>
<g id="colour">
	<path class="st0" d="M87.7,30.2c-4.1,0.2-8.2-0.4-12.3-0.4c-4.5,0-8.9,0.4-13.4,1.1c-4.3,0.4-6.7,3.7-7.1,7.1
		c-1.5,2.6-1.3,5.6,1.5,8.2c1.1,1.1,2.4,1.7,3.9,2.4c0,0.4,0,1.1,0.2,1.5c0.2,1.5,1.5,3,3,3.5c1.5,0.4,3.5-0.2,4.5-1.3
		c0.4-0.6,0.9-1.1,1.1-1.9c3,0,6.3-0.2,9.1-0.4c1.5-0.2,3.2-0.2,4.8-0.4c0.4,1.1,0.9,1.9,1.5,2.6c1.3,1.3,3.7,1.9,5.4,0.9
		c0.9-0.6,1.7-1.5,1.9-2.6c0-0.4,0.2-0.9,0.2-1.3c0-0.2,0.2-0.4,0.2-0.9c0.4-0.6,0.9-1.5,1.1-2.2c1.3-0.9,2.6-2.2,3.5-3.7
		C101.1,35.6,94.4,29.8,87.7,30.2z"/>
	<path class="st0" d="M36.8,28.7c-5.4-0.2-10.6-0.2-15.8-0.4c-5.4-0.2-11.3,0-16,2.6c-3.7,1.9-2.6,4.3-2.2,8
		c1.3,4.5,2.4,6.3,6.1,7.8c-0.2,0.6-0.2,1.1,0,1.7c0,0.6,0.2,1.1,0.4,1.5c0.4,0.4,0.6,0.6,1.1,1.1s0.9,0.6,1.5,0.6
		c0.4,0,0.9,0,1.1,0.2c0.9,0,1.5-0.2,2.2-0.6c0.4-0.2,0.6-0.4,1.1-0.6c0.4-0.4,0.9-1.1,1.1-1.7v-0.2c5.6,0.2,11.3-0.4,16.9-1.1
		c0,0.4,0.2,0.9,0.4,1.3c0.2,0.4,0.4,0.9,0.9,1.3c0.4,0.4,0.9,0.6,1.3,0.9s1.1,0.4,1.7,0.4c0.4,0,0.9,0,1.1-0.2
		c0.6-0.2,1.3-0.6,1.9-1.1c0.2-0.2,0.4-0.6,0.6-0.9c0.4-0.6,0.6-1.3,0.6-2.2c0-0.4,0-0.6,0-1.1c1.9-0.6,3.7-1.5,5-2.8
		C55.6,34.8,44.4,29.1,36.8,28.7z"/>
</g>
<g id="Layer_1_1_">
	<path d="M3.2,36.5l6.7,39.9l31.6-0.2l5-23.6h11.3l4.3,23.8l28.2,0.4l6.1-37.7v-0.2c0-0.6,0-4.3-2.2-5.2C91.6,32.6,83.8,32,76,32
		c-14.3,0.2-17.5,1.3-18.6,2.2c-1.1,0.6-1.3,3-1.1,4.8v2.2H48l0.6-4.8c0-1.5,0-4.1-1.3-5c-1.3-0.9-5-1.9-21.4-2.4
		c-8.7-0.2-17.5,0.6-20.6,1.7C3.2,31.7,3.2,35.4,3.2,36.5L3.2,36.5z M93.3,45.4c-0.9,0.4-2.6,0.9-3.7,1.3c-0.2,0-0.4,0.2-0.4,0.6
		c0,0,0,1.1,0.2,2.4c0,1.1,0.2,1.7-1.3,1.9c-0.4,0-0.9,0-1.1-0.2c-0.4-0.2-0.4-0.9-0.6-1.5c-0.2-1.1-0.4-2.2-0.4-2.2
		c0-0.2-0.4-0.4-0.6-0.4c0,0-3.9,0.6-9.1,0.6c-6.3,0-9.3-0.9-9.5-0.9c-0.2,0-0.4,0-0.4,0C66,47.3,66,47.3,66,47.6c0,0,0,1.3,0.2,2.2
		v0.2c0,0.6,0,1.1-0.2,1.3c-0.2,0.2-0.4,0.2-1.1,0.2c0,0,0,0-0.2,0c-1.5,0-1.5-0.2-1.5-1.9v-0.2c0-1.1,0-2.4,0-2.4
		c0-0.2-0.2-0.4-0.4-0.6c-1.7-0.6-3.9-1.5-4.1-1.7c0,0-0.2,0-0.2-0.2l-0.2-1.5v-3.2c3.7,0.9,11.9,1.3,19.9,1.3
		c6.5,0,12.6-0.4,15.8-1.3L93.3,45.4z M68.8,71L68.8,71c-0.2-0.6-2.2-11.7-3-18.4l0,0c0.6,0,1.1-0.2,1.3-0.6
		c0.4-0.6,0.4-1.3,0.4-2.2v-0.2c0-0.4,0-0.9,0-1.3c1.3,0.2,4.3,0.9,9.1,0.9c4.3,0,7.6-0.4,8.9-0.6c0,0.4,0.2,0.9,0.2,1.5
		c0.2,0.9,0.4,1.7,1.1,2.2c0.4,0.2,0.6,0.4,1.1,0.4C87,58.8,84.7,68.8,84,71.2C79.2,71,73.2,70.7,68.8,71z M59.7,50.4L59.7,50.4
		L59.1,46c1.1,0.6,2.6,1.1,3.5,1.5c0,0.4,0,1.3,0,2.2v0.2c0,1.5,0.2,2.8,2.2,3l0,0c0.9,6.1,2.6,16.5,3,18.4c-1.7,0-3,0.2-4.1,0.4
		L59.7,50.4z M76.4,34.1c8-0.2,15.2,0.6,17.1,1.5c0.4,0.2,0.9,1.7,0.9,3c-6.1,1.9-29.7,1.5-36,0c0-1.1,0.2-2.4,0.2-2.6
		C59.3,35.4,62.8,34.3,76.4,34.1z M44.6,51.5l-3.9,19.7c-1.1-0.2-2.8-0.4-4.8-0.6c0.6-2.2,2.8-13.2,3.9-19.7c1.9-0.2,2.2-1.5,2.2-3
		v-0.4c0-0.9,0-1.7,0-2.2c0.9-0.2,2.8-0.9,4.1-1.5L44.6,51.5C44.4,51.2,44.6,51.2,44.6,51.5z M36.6,50.4c0.4,0.4,1.1,0.6,1.7,0.6
		c-1.1,7.4-3.7,18.8-3.9,19.5l0,0c-5.2-0.2-11.9-0.2-17.1,0.2l0,0C16.6,69,14.5,58.2,13.4,51c0.2,0,0.6-0.2,0.9-0.4
		c0.6-0.4,1.1-1.5,1.1-2.4c0-0.6,0.2-1.3,0.2-1.7c1.3,0.2,5.2,0.6,10,0.6c5.4,0,8.9-0.6,10.4-0.9c0,0.4,0,1.1,0,1.5V48
		C36.1,48.9,36.1,49.7,36.6,50.4z M45.4,42.6c-0.9,0.4-2.8,1.3-4.3,1.7c-0.2,0-0.4,0.2-0.4,0.6c0,0,0,1.3,0,2.6V48
		c0,1.7,0,2.2-1.9,2.2c-0.6,0-1.1-0.2-1.3-0.4s-0.2-0.9-0.2-1.5V48c0-0.6,0.2-2.2,0.2-2.2c0-0.2,0-0.4-0.2-0.4
		c-0.2-0.2-0.2-0.2-0.4,0c0,0-3.7,1.1-10.8,1.1c-5.8,0-10.4-0.6-10.4-0.6c-0.2,0-0.6,0.2-0.6,0.4c0,0-0.2,1.1-0.4,2.4
		c0,0.6-0.2,1.3-0.6,1.5c-0.2-0.2-0.6-0.2-1.3-0.2C11,49.7,11,49.1,11,47.8c0.2-1.1,0.2-2.4,0.2-2.4c0-0.2-0.2-0.4-0.4-0.6
		c-1.1-0.4-3.2-0.9-4.1-1.3l-1.1-6.3c3.7,1.1,10.6,1.5,18.2,1.5c9.1,0,18.6-0.6,22.7-1.5L45.4,42.6z M6.2,32.8
		c2.2-0.9,10.4-1.7,19.7-1.5c15.4,0.4,19.3,1.5,20.1,1.9c0.2,0.2,0.4,1.5,0.4,2.8c-6.9,1.7-34.2,2.2-41.2,0
		C5.4,34.8,5.6,33,6.2,32.8z M6.9,44.5c1.1,0.4,2.6,0.9,3.5,1.1c0,0.4,0,1.3-0.2,1.9c0,1.1-0.2,2.8,2.4,3.2l0,0
		c1.1,6.7,3.2,17.3,3.9,19.7c-2.2,0.2-3.9,0.4-5,0.6L6.9,44.5z M11.9,74.2l-0.2-1.9c3.9-1.1,24.7-1.1,28.8-0.2L40,74L11.9,74.2z
		 M45.7,50.4l1.3-7.1h10.4l1.1,7.1H45.7z M64.1,74.2l-0.2-1.7c3.9-0.9,21.4-0.6,25.1,0.2l-0.4,1.7L64.1,74.2z M89,71.8
		c-0.9-0.2-2.4-0.4-4.3-0.4c0.9-2.8,3.2-12.8,3.9-18.8c1.7-0.6,1.7-1.9,1.5-3c0-0.6-0.2-1.3-0.2-1.7c0.6-0.2,1.9-0.6,2.8-0.9
		L89,71.8z"/>
</g>
</svg>
