<?xml version="1.0" encoding="utf-8"?>
<!-- Generator: Adobe Illustrator 24.1.3, SVG Export Plug-In . SVG Version: 6.00 Build 0)  -->
<svg version="1.1" id="Layer_1" xmlns="http://www.w3.org/2000/svg" xmlns:xlink="http://www.w3.org/1999/xlink" x="0px" y="0px"
	 viewBox="0 0 49 49" style="enable-background:new 0 0 49 49;" xml:space="preserve">
<style type="text/css">
	.st0{fill:#F588BD;}
</style>
<g id="colour">
	<path class="st0" d="M29.4,17.3c-4.5-3.6-9.7-2.7-13.9,1c-1.5,1.3-3.3,2.7-4,4.5c-0.6,1.1-1.3,1.1-2,1.5c-2.1,1.2-3.2,1.2-5.1,2.7
		c-4,3.1-6.2,8.1-4.4,13c3.8,10.4,20.5,12,23.6,0.2c0.1-0.3,0.1-3.3,0.3-3.5c0.8-1,2.6-0.2,3.7-0.6c2.3-0.7,3.9-3.1,4.9-5.1
		C34.7,26.3,33.6,20.6,29.4,17.3z"/>
</g>
<g id="Layer_1_1_">
	<path d="M19.7,31.8c0.5,0.4,0.5,1,0.3,1.7c-0.4,1.1-2.4,2.1-2.9,3.6c-0.1,0.3-0.2,1,0.1,1.2c0.2,0.1,0.4,0.1,0.5,0
		c-0.1-0.1-0.1-0.4,0-0.5s0.4-0.1,0.5,0s0.1,0.3,0,0.5l0,0c0,0-0.4,0.9-1.2,0.4c-0.4-0.2-0.8-0.8-0.6-1.7c0.2-1.1,1.9-2.5,2.8-3.5
		c0.3-0.3,0.8-0.8,0.4-1.3C19.4,32,19.3,32,19.2,32c0,0.1,0,0.3-0.1,0.3c-0.1,0.1-0.4,0.1-0.5,0s-0.1-0.4,0-0.5c0,0,0.1-0.1,0.2-0.1
		l0,0C18.8,31.7,19.4,31.5,19.7,31.8z M14.8,29.1c0.3-0.3,0.8-0.8,1.3-0.4c0.1,0.1,0.1,0.2,0.2,0.2c-0.1,0-0.3,0-0.3,0.1
		c-0.1,0.1-0.1,0.4,0,0.5s0.4,0.1,0.5,0c0,0,0.1-0.1,0.1-0.2l0,0c0,0,0.2-0.6-0.1-0.9c-0.4-0.5-1-0.5-1.7-0.3
		c-1.1,0.4-2,2.4-3.6,2.9c-0.3,0.1-1,0.2-1.2-0.1c-0.1-0.2-0.1-0.4,0-0.5c0.1,0.1,0.4,0.1,0.5,0s0.1-0.4,0-0.5s-0.3-0.1-0.5,0l0,0
		c0,0-0.9,0.4-0.4,1.2c0.2,0.4,0.8,0.8,1.7,0.6C12.5,31.7,13.8,30,14.8,29.1z M48.2,3.7c0,0.5-0.3,0.9-0.7,1l-1.8,0.6l-0.8,1.1
		L45.5,7l0,0c0.4,0,0.8,0.3,0.8,0.8c0,0.4-0.3,0.8-0.8,0.8c-0.4,0-0.8-0.3-0.8-0.8l0,0l-0.6-0.6L43.5,8l0.6,0.6c0,0,0,0,0.1,0
		c0.4,0,0.8,0.3,0.8,0.8c0,0.4-0.3,0.8-0.8,0.8c-0.4,0-0.8-0.3-0.8-0.8l0,0L43,8.7l-0.1,0.1c-0.2,0.2-0.5,0.4-0.8,0.4l0,0h-0.2
		L30.7,21.1c1.3,1.8,2.5,4.2,1.8,6.6c-0.6,2.1-2.7,3.9-4.3,5.3l-0.1,0.1c-1,0.9-1.2,1.4-1.3,1.4c-0.1,0.4-0.3,0.7-0.7,0.8
		c-0.1,0-0.2,0.1-0.3,0.1c-0.3,0-0.6-0.1-0.8-0.3c-0.2-0.2-0.7-0.7-1.1-0.7c-0.1,0-0.1,0-0.2,0c-0.6,0-1.3,0.6-2.1,1.7
		c-0.5,0.7-0.8,2-0.7,2.3c0.2,0.3,0.8,0.5,0.9,0.5c0.4,0.1,0.7,0.5,0.8,0.9c0,0.4-0.2,0.8-0.6,1c-0.3,0.1-1.1,0.5-1.5,1.1
		c-0.1,0.2-0.3,0.6-0.4,1c-0.5,1.2-1.2,3.1-3.1,4.4c-1.2,0.8-2.8,1.3-4.6,1.3c-1,0-2-0.2-2.8-0.5c-1.6-0.6-3.7-2-4.7-2.8l-2.7,1.9
		c-0.2,0.1-0.4,0.2-0.6,0.2c-0.3,0-0.6-0.1-0.7-0.3l-0.2-0.2c-0.3-0.4-0.3-0.9,0-1.3L3,43.1c-0.7-1-2.1-3-2.5-4.4
		c-0.7-2.1-0.7-5.2,0.8-7.4c1.3-2,3.2-2.7,4.4-3.2C6,28,6.4,27.9,6.6,27.7c0.5-0.4,0.9-1.2,1-1.5c0.2-0.4,0.5-0.6,0.9-0.6h0.1
		c0.4,0,0.8,0.3,0.9,0.8c0,0.1,0.2,0.7,0.5,0.9c0,0,0.1,0,0.3,0c0.6,0,1.6-0.4,2.1-0.7c1.2-0.8,1.8-1.6,1.7-2.2
		c-0.1-0.3-0.5-0.8-0.7-1c-0.3-0.3-0.4-0.7-0.3-1.1c0.1-0.4,0.4-0.6,0.8-0.7c0.1,0,0.6-0.3,1.4-1.3l0.1-0.1c1.3-1.6,3.1-3.7,5.3-4.3
		c0.5-0.1,1-0.2,1.5-0.2c2,0,3.8,1,5.2,2L38.8,6.6l0,0c-0.1-0.4,0.1-0.7,0.4-0.9L40,4.9l-0.6-0.6l0,0c-0.4,0-0.8-0.3-0.8-0.8
		s0.3-0.8,0.8-0.8c0.4,0,0.8,0.3,0.8,0.8l0,0l0.7,0.7l0.9-0.7L41,2.8l0,0c-0.4,0-0.8-0.3-0.8-0.8c0-0.4,0.3-0.8,0.8-0.8
		c0.4,0,0.8,0.3,0.8,0.8l0,0l0.7,0.7l0.4-0.3l0.6-1.8C43.6,0.3,44,0,44.4,0c0,0,0,0,0.1,0l2.6,0.2c0.5,0,0.9,0.4,0.9,0.9L48.2,3.7z
		 M5.1,44c0.8-0.8,3.9-4.3,4.5-4.7c0.5-0.4,1.2-0.6,1.6-0.7c0.2-0.1,0.4-0.1,0.5-0.2c1.2-0.7,1.9-1.4,2.2-1.7l-2.2-2.2
		c-0.3,0.3-0.8,1-1.6,2.3C10,37,9.9,37.3,9.8,37.6c-0.2,0.5-0.3,0.9-0.6,1.3c-0.5,0.7-4.7,4-5,4.2l-2.5,3l0.2,0.2L5.1,44z
		 M29.7,21.4l-9.1,9.4l-3-3l9.4-9.2c-1.2-0.9-3-2-4.8-2c-0.4,0-0.8,0-1.2,0.2c-2,0.5-3.7,2.7-5,4.2c-1.3,1.6-2,1.6-2,1.6
		s0.9,0.8,1.1,1.7c0.2,1.4-1.1,2.5-2.1,3.2c-0.6,0.4-1.8,0.9-2.7,0.9c-0.3,0-0.6-0.1-0.9-0.2c-0.7-0.5-0.9-1.5-0.9-1.5
		S8,27.9,7.2,28.5c-0.9,0.7-3.5,0.9-5.1,3.4c-1.2,1.8-1.3,4.6-0.7,6.5c0.4,1.3,1.9,3.5,2.6,4.3c1.3-1,4.4-3.6,4.8-4.1
		c0.2-0.3,0.4-0.7,0.5-1.2c0.1-0.3,0.2-0.7,0.4-0.9c1.1-1.9,1.8-2.5,1.8-2.5l0.2-0.2l3,2.9l-0.2,0.2c0,0-0.8,0.9-2.5,1.9
		c-0.1,0.1-0.3,0.1-0.6,0.2c-0.4,0.1-1,0.3-1.5,0.6s-3.1,3.2-4.4,4.5c0.9,0.7,3,2.2,4.6,2.8c0.7,0.3,1.6,0.4,2.5,0.4
		c1.4,0,2.9-0.4,4-1.1c2.4-1.7,2.6-4.3,3.3-5.2c0.6-0.9,1.9-1.4,1.9-1.4s-1-0.2-1.5-0.9c-0.6-0.8,0.1-2.7,0.6-3.5
		c0.6-0.9,1.6-2.1,2.9-2.1c0.1,0,0.2,0,0.3,0c0.9,0.1,1.7,1.1,1.7,1.1s0-0.7,1.6-2c1.5-1.3,3.6-3,4.1-4.9
		C32.2,25.2,30.8,22.9,29.7,21.4z M44.8,4.8l-1.4-1.4l-3.7,3l0.1,0.5L27.5,18.8l0,0l-9.2,9l2.3,2.3l8.8-9.1l0,0L41.5,8.2h0.6
		L44.8,4.8z M47.2,3.7L47,1.2L44.4,1l-0.7,2.1L45,4.4L47.2,3.7z M17.5,33.4L15,30.9l-0.6,0.2l3,3L17.5,33.4z"/>
</g>
</svg>
