<svg width="49" height="49" viewBox="0 0 49 49" fill="none" xmlns="http://www.w3.org/2000/svg">
<path d="M19.685 31.7964C20.1639 32.2025 20.1719 32.8343 19.96 33.4542C19.5776 34.5731 17.5289 35.5191 17.0835 37.0406C16.9935 37.3482 16.9243 38.0357 17.1985 38.2017C17.426 38.3394 17.5985 38.2871 17.6993 38.2326C17.5754 38.0903 17.5767 37.8765 17.7118 37.7405C17.853 37.5981 18.0829 37.5972 18.2253 37.7386C18.3598 37.872 18.3633 38.0825 18.2447 38.2255L18.2505 38.2262C18.2505 38.2262 17.8371 39.0977 17.0064 38.5966C16.6066 38.3553 16.2138 37.8333 16.3789 36.929C16.5875 35.7861 18.243 34.4141 19.1331 33.4672C19.4272 33.1544 19.8859 32.678 19.4845 32.152C19.4043 32.0469 19.3197 32.0075 19.2397 31.9872C19.2708 32.1072 19.2456 32.2391 19.1519 32.3335C19.0106 32.4758 18.7806 32.4766 18.6384 32.3354C18.496 32.194 18.4952 31.9641 18.6365 31.8218C18.6828 31.7751 18.7397 31.7493 18.7989 31.7332L18.7958 31.7283C18.7958 31.7283 19.3613 31.5218 19.685 31.7964ZM14.774 29.1401C15.0847 28.8437 15.5577 28.3815 16.0866 28.7789C16.1923 28.8583 16.2323 28.9427 16.2532 29.0226C16.133 28.9924 16.0013 29.0186 15.9076 29.1129C15.7663 29.2552 15.7671 29.4852 15.9095 29.6265C16.0519 29.7678 16.2818 29.7669 16.423 29.6246C16.4694 29.5779 16.4947 29.5208 16.5105 29.4615L16.5154 29.4646C16.5154 29.4646 16.7177 28.8976 16.4408 28.5758C16.0312 28.0999 15.3993 28.0967 14.7809 28.3131C13.6648 28.7037 12.734 30.7593 11.2158 31.2158C10.9088 31.3082 10.2218 31.3823 10.0539 31.1094C9.91454 30.8829 9.9655 30.71 10.0193 30.6089C10.1625 30.7317 10.3763 30.7288 10.5113 30.5928C10.6526 30.4504 10.6518 30.2205 10.5094 30.0792C10.375 29.9457 10.1645 29.9437 10.0224 30.0634L10.0216 30.0576C10.0216 30.0576 9.15318 30.4774 9.66039 31.3044C9.90459 31.7025 10.4296 32.0914 11.3325 31.9196C12.4739 31.7026 13.8337 30.0371 14.774 29.1401ZM48.189 3.67029C48.2213 4.1297 47.9357 4.55182 47.4972 4.69263L45.6685 5.27979L44.8414 6.34003L45.5163 7.01495C45.5325 7.01392 45.5462 7.00555 45.5627 7.00555C45.9841 7.00555 46.3257 7.34717 46.3257 7.76862C46.3257 8.19 45.9841 8.53162 45.5627 8.53162C45.1413 8.53162 44.7997 8.19 44.7997 7.76862C44.7997 7.75201 44.8081 7.73816 44.8091 7.72186L44.2216 7.13434L43.5993 7.93195L44.1866 8.51929C44.2102 8.51709 44.2306 8.50555 44.2547 8.50555C44.6761 8.50555 45.0177 8.84717 45.0177 9.26862C45.0177 9.69 44.6761 10.0316 44.2547 10.0316C43.8333 10.0316 43.4917 9.69 43.4917 9.26862C43.4917 9.2597 43.4964 9.25232 43.4967 9.24347L42.9796 8.72632L42.9137 8.81079C42.7239 9.05396 42.433 9.19568 42.1253 9.19568C42.1182 9.19568 42.1111 9.19562 42.1039 9.19543L41.9402 9.19196L30.7145 21.0788C32.0202 22.8483 33.1904 25.2514 32.5323 27.6912C31.9607 29.8102 29.82 31.6389 28.2569 32.9741L28.1089 33.1006C27.0989 33.9647 26.873 34.4589 26.8397 34.5438C26.7777 34.9014 26.5251 35.201 26.1758 35.3195C26.0704 35.3553 25.962 35.3726 25.8546 35.3726C25.5698 35.3726 25.2924 35.2508 25.099 35.0278C24.9076 34.8072 24.3863 34.3531 24.0485 34.3033C23.9949 34.2955 23.9422 34.2916 23.8904 34.2916C23.2754 34.2916 22.5986 34.8505 21.8216 36.0004C21.3201 36.7425 21.0026 38.0303 21.1572 38.3307C21.3954 38.6348 21.9162 38.8162 22.0734 38.8542C22.4982 38.9506 22.8117 39.3109 22.8485 39.7449C22.8854 40.179 22.6369 40.5869 22.2344 40.7534C21.973 40.8616 21.141 41.2867 20.7597 41.8041C20.6429 41.9625 20.4912 42.3652 20.3445 42.7545C19.8783 43.9915 19.1739 45.861 17.2023 47.1978C15.9832 48.0245 14.3584 48.4797 12.6272 48.4797C11.6241 48.4797 10.6498 48.3222 9.80986 48.024C8.20323 47.4539 6.11583 45.9954 5.10564 45.2493L2.37395 47.1684C2.19988 47.2906 1.99907 47.3502 1.79961 47.3502C1.52312 47.3502 1.24925 47.2358 1.05303 47.016L0.890611 46.834C0.558641 46.462 0.551377 45.9022 0.873643 45.5218L2.95372 43.0662C2.21562 42.0417 0.87761 40.0737 0.435044 38.6942C-0.232192 36.6142 -0.248488 33.531 1.21929 31.3318C2.54167 29.3505 4.40587 28.6323 5.63939 28.1571C6.0277 28.0076 6.42918 27.8528 6.58678 27.7349C7.09642 27.3535 7.51085 26.5338 7.62651 26.2526C7.78032 25.8729 8.14848 25.628 8.5529 25.6281C8.57866 25.6281 8.60454 25.629 8.63048 25.631C9.06474 25.6646 9.42735 25.9755 9.5269 26.3995C9.55553 26.5215 9.73979 27.067 10.0444 27.3034C10.0451 27.3038 10.1119 27.3369 10.2967 27.3369C10.9195 27.3369 11.8958 26.9645 12.3825 26.6304C13.6156 25.7839 14.1654 25.0513 14.0632 24.3909C14.0132 24.0682 13.595 23.5751 13.3309 23.3459C13.022 23.0819 12.9035 22.657 13.0313 22.2712C13.1473 21.9211 13.4451 21.6663 13.8022 21.6017C13.8869 21.5677 14.3794 21.3383 15.2359 20.322L15.3613 20.173C16.685 18.6002 18.498 16.4461 20.6128 15.8589C21.0846 15.728 21.5799 15.6616 22.0848 15.6616C24.0405 15.6617 25.8877 16.6449 27.2542 17.6376L38.7645 6.55145L38.7634 6.54498C38.7054 6.19098 38.8414 5.83295 39.12 5.60681L39.9904 4.90021L39.3922 4.302C39.376 4.30304 39.3623 4.31134 39.3458 4.31134C38.9244 4.31134 38.5828 3.96973 38.5828 3.54834C38.5828 3.12695 38.9244 2.78534 39.3458 2.78534C39.7673 2.78534 40.1089 3.12695 40.1089 3.54834C40.1089 3.56494 40.1004 3.5788 40.0994 3.59515L40.7709 4.2666L41.6904 3.52008L41.0152 2.84497C40.999 2.84601 40.9853 2.85437 40.9688 2.85437C40.5474 2.85437 40.2058 2.51276 40.2058 2.09131C40.2058 1.66992 40.5474 1.32831 40.9688 1.32831C41.3902 1.32831 41.7318 1.66992 41.7318 2.09131C41.7318 2.10791 41.7234 2.12177 41.7224 2.13806L42.4708 2.88647L42.8995 2.53851L43.4767 0.700378C43.6083 0.281494 43.9962 0 44.4303 0C44.4518 0 44.4735 0.000671395 44.4952 0.0020752L47.0748 0.168518C47.5741 0.200745 47.9728 0.597107 48.0079 1.09625L48.189 3.67029ZM5.07677 44.0475C5.85606 43.2006 9.02208 39.7734 9.60668 39.3544C10.1438 38.9691 10.7629 38.7762 11.2151 38.6351C11.425 38.5697 11.6243 38.5077 11.7102 38.4554C12.9075 37.726 13.6164 37.0809 13.9094 36.7875L11.6604 34.5551C11.4075 34.8568 10.8723 35.5472 10.1077 36.808C9.97582 37.0248 9.87816 37.3168 9.77367 37.6259C9.62035 38.0795 9.46214 38.5482 9.16332 38.9281C8.64812 39.5822 4.47887 42.9282 4.17296 43.174L1.6367 46.1682L1.79912 46.3502L5.07677 44.0475ZM29.7123 21.4182L20.6106 30.8124L17.5784 27.8031L26.9322 18.6478C25.7235 17.7244 23.939 16.6617 22.0848 16.6616C21.6844 16.6616 21.2814 16.7111 20.8803 16.8225C19.0018 17.3441 17.2569 19.4756 16.0006 20.9664C14.6755 22.5388 13.9806 22.5857 13.9806 22.5857C13.9806 22.5857 14.9199 23.3884 15.0514 24.238C15.2723 25.6655 13.9664 26.756 12.9485 27.4548C12.3578 27.8604 11.1909 28.3369 10.2967 28.3369C9.95903 28.3369 9.66033 28.2689 9.44609 28.1036C8.77873 27.5884 8.55333 26.6281 8.55333 26.6281C8.55333 26.6281 8.03929 27.8969 7.18596 28.5355C6.28551 29.2095 3.68358 29.4409 2.05107 31.887C0.831407 33.7144 0.768296 36.4594 1.38725 38.3888C1.81877 39.734 3.30907 41.8561 3.93974 42.7197C5.2393 41.6771 8.37541 39.1205 8.77074 38.6185C9.01683 38.307 9.16039 37.8793 9.30003 37.4662C9.41332 37.1298 9.51976 36.8129 9.67992 36.5492C10.8069 34.6908 11.4446 34.0414 11.4719 34.015L11.6477 33.8383L14.5998 36.7679L14.4494 36.9442C14.4182 36.9803 13.6741 37.8446 11.97 38.8822C11.8313 38.9667 11.6252 39.0311 11.3645 39.1127C10.9446 39.243 10.3694 39.4222 9.89769 39.7606C9.42442 40.1003 6.7733 42.943 5.51689 44.3082C6.38823 44.9606 8.55968 46.5193 10.1443 47.0817C10.8791 47.3424 11.7411 47.4797 12.6272 47.4797C14.0441 47.4797 15.5223 47.1288 16.6411 46.3702C19.0751 44.7197 19.2873 42.1162 19.9547 41.2108C20.587 40.3528 21.8521 39.8294 21.8521 39.8294C21.8521 39.8294 20.8901 39.6111 20.37 38.9475C19.7611 38.1706 20.4403 36.2584 20.993 35.4405C21.6344 34.4913 22.6113 33.2916 23.8904 33.2916C23.9899 33.2916 24.0912 33.2988 24.1943 33.314C25.0448 33.4393 25.8544 34.3726 25.8544 34.3726C25.8544 34.3726 25.8962 33.6775 27.4588 32.3408C28.9403 31.0735 31.0591 29.313 31.5668 27.4308C32.1742 25.1791 30.8425 22.8805 29.7123 21.4182ZM44.7897 4.78046L43.4109 3.41138L39.7502 6.38318L39.8362 6.90759L27.495 18.794L27.4963 18.7953L18.2912 27.806L20.6028 30.1014L29.4002 21.0217C29.3992 21.0204 29.3979 21.0188 29.3969 21.0175L41.5178 8.18274L42.1252 8.19568L44.7897 4.78046ZM47.1915 3.74048L47.0104 1.16644L44.4308 1L43.7795 3.07379L45.1206 4.4054L47.1915 3.74048ZM17.5113 33.3906L15.0127 30.9103L14.3971 31.0852L17.3894 34.0555L17.5113 33.3906Z" fill="black"/>
</svg>
