<?xml version="1.0" encoding="utf-8"?>
<!-- Generator: Adobe Illustrator 24.1.3, SVG Export Plug-In . SVG Version: 6.00 Build 0)  -->
<svg version="1.1" xmlns="http://www.w3.org/2000/svg" xmlns:xlink="http://www.w3.org/1999/xlink" x="0px" y="0px"
	 viewBox="0 0 50 47" style="enable-background:new 0 0 50 47;" xml:space="preserve">
<style type="text/css">
	.st0{fill:#FCA605;}
</style>
<g id="colour">
	<path class="st0" d="M38.8,31.4c-6.8-7.3-14.2-14-21.7-20.6c-1.8-1.6-3.6-3.4-5.6-4.8c-2-1.4-4.7,0.2-4.6,2.6
		c0.1,2.4,2.5,4.1,4.1,5.6c1.9,1.8,3.8,3.5,5.8,5.3c3.3,3,6.5,6.1,9.8,9.1c1.2,1.3,2.3,2.6,3.5,3.9c0.6,0.7,1.2,1.4,1.9,2
		c0.6,0.6,1.1,1.3,1.9,1.7c0.9,0.4,1.8,0.3,2.6-0.3c0.6-0.5,0.7-0.9,1.5-1.1C39.5,34.5,39.8,32.4,38.8,31.4z"/>
</g>
<g id="Layer_1">
	<path d="M48.9,38c-0.3-0.5-0.8-0.7-1.4-0.7c-0.4,0-0.8,0.1-1.1,0.2c-0.7-0.4-2.1-1.2-3.2-1.9c-1.8-1.2-6.5-5.7-12-10.9
		c-2.8-2.6-5.7-5.4-8.6-8.1C17.6,12.1,13.1,7.9,9,4.3c-2.2-1.9-3.6-3-3.9-3.2C4.5,0.6,3.9,0.3,3.2,0.2L1.3,0L1.2,0L1.1,0h0
		c-0.5,0-0.9,0.3-1,0.7C-0.1,1.1,0,1.5,0.2,1.8c0.2,0.2,1,1.4,2.9,3.5c0,0-0.1,0-0.2,0c-0.2,0-0.4,0.2-0.4,0.4
		c0,0.2,0.2,0.4,0.4,0.4c0.2,0,0.4-0.2,0.4-0.4c0,0,0-0.1,0-0.1c0.6,0.6,1.2,1.3,1.9,2c2.8,2.9,7,6.7,13.6,12.7
		c5.4,5,9.9,9.5,13.9,13.4l0.7,0.7c2.3,2.3,4,4.2,4.8,5.1c0.2,0.2,0.3,0.3,0.4,0.4c1.8,2,2.2,3,2.3,3.4c-0.3,0.9-0.3,2,0.5,2.4
		C41.7,46,42,46,42.3,46c1.7,0,4-2.1,4.6-2.8C47,43.2,49.9,39.9,48.9,38z M22.1,22c0.1-0.1,0.3-0.3,0.5-0.4l1.4,1.3
		c-0.2,0.2-0.3,0.3-0.5,0.4C23,22.9,22.6,22.4,22.1,22z M21.1,21c0.1-0.1,0.3-0.3,0.4-0.4l0.7,0.6c-0.2,0.1-0.3,0.3-0.4,0.4
		C21.5,21.4,21.3,21.2,21.1,21z M24.3,23.2l1.2,1.1c-0.2,0.2-0.4,0.3-0.5,0.5c-0.4-0.4-0.8-0.7-1.2-1.1C24,23.5,24.1,23.3,24.3,23.2
		z M25.9,24.6l0.7,0.6c-0.1,0.2-0.3,0.4-0.4,0.6c-0.3-0.3-0.5-0.5-0.8-0.8C25.5,24.9,25.7,24.8,25.9,24.6z M29,24
		c0.2,0.2,0.3,0.3,0.5,0.5c-0.9,0.4-2,1.3-2.4,2.2c-0.1-0.1-0.3-0.3-0.4-0.4C26.8,25.4,28,24.3,29,24z M29.9,24.9
		c0.2,0.2,0.4,0.3,0.5,0.5c-0.9,0.4-2,1.4-2.4,2.3c-0.2-0.2-0.4-0.4-0.5-0.5C27.7,26.2,29,25.1,29.9,24.9z M28.6,23.6
		c-0.6,0.2-1.2,0.7-1.7,1.2l-0.6-0.5c0.3-0.2,0.5-0.4,0.7-0.5c0.1,0.1,0.2,0.1,0.3,0.1c0.3,0,0.5-0.2,0.5-0.5c0-0.3-0.2-0.5-0.5-0.5
		c-0.3,0-0.5,0.2-0.5,0.5c-0.2,0.1-0.5,0.3-0.8,0.6l-1.2-1.1c0.3-0.2,0.5-0.4,0.7-0.5c0.1,0.1,0.2,0.1,0.3,0.1
		c0.3,0,0.5-0.2,0.5-0.5c0-0.3-0.2-0.5-0.5-0.5c-0.3,0-0.5,0.2-0.5,0.5c-0.3,0.1-0.6,0.3-0.9,0.6L23,21.3c0.3-0.2,0.5-0.4,0.7-0.5
		c0.1,0.1,0.2,0.1,0.3,0.1c0.3,0,0.5-0.2,0.5-0.5s-0.2-0.5-0.5-0.5c-0.3,0-0.5,0.2-0.5,0.5c-0.3,0.1-0.6,0.4-0.9,0.6l-0.7-0.6
		c0.3-0.2,0.6-0.4,0.8-0.5c0.1,0,0.1,0,0.2,0c0.3,0,0.5-0.2,0.5-0.5s-0.2-0.5-0.5-0.5s-0.5,0.2-0.5,0.5c0,0,0,0.1,0,0.1
		c-0.2,0.1-0.6,0.3-0.9,0.6l-3.8-3.5c0.4-0.3,0.7-0.5,0.9-0.6c0.1,0,0.1,0.1,0.2,0.1c0.3,0,0.5-0.2,0.5-0.5c0-0.3-0.2-0.5-0.5-0.5
		s-0.5,0.2-0.5,0.5c0,0,0,0,0,0.1c-0.3,0.2-0.7,0.4-1,0.7l-0.7-0.6c0.4-0.3,0.7-0.5,0.9-0.6c0.1,0,0.2,0.1,0.2,0.1
		c0.3,0,0.5-0.2,0.5-0.5c0-0.3-0.2-0.5-0.5-0.5s-0.5,0.2-0.5,0.5c0,0,0,0,0,0c-0.3,0.1-0.6,0.4-1,0.7l-0.7-0.6
		c0.3-0.2,0.6-0.5,0.8-0.6c0.1,0.1,0.2,0.1,0.3,0.1c0.3,0,0.5-0.2,0.5-0.5c0-0.3-0.2-0.5-0.5-0.5c-0.3,0-0.5,0.2-0.5,0.5
		c-0.3,0.1-0.6,0.4-1,0.7l-1.5-1.4c-0.1-0.1-0.3-0.1-0.4,0c-0.1,0.1-0.1,0.3,0,0.4l1.4,1.3c-0.2,0.2-0.3,0.3-0.5,0.4
		c-2.6-2.4-4.8-4.4-6.6-6.1c0-0.4,0.2-0.9,0.7-1.3C9,7.1,9.6,6.7,10.1,6.7c3.4,3.1,7.4,6.6,11.8,10.7C24.1,19.4,26.4,21.6,28.6,23.6
		z M16.6,16.9c-0.2-0.2-0.5-0.4-0.7-0.6c0.1-0.1,0.3-0.3,0.5-0.4l0.7,0.6C16.8,16.6,16.7,16.8,16.6,16.9z M15.5,15.9
		c-0.2-0.2-0.5-0.4-0.7-0.6c0.1-0.1,0.3-0.3,0.5-0.4l0.7,0.6C15.8,15.6,15.6,15.8,15.5,15.9z M6.2,3.2C5.7,3.4,5.2,3.6,4.8,4
		c-0.3,0.3-0.5,0.7-0.6,1C3.6,4.4,3.2,3.9,2.7,3.4c0-0.3,0.2-0.7,0.5-1C3.6,2,4,1.8,4.4,1.8c0,0,0,0,0,0C4.4,1.8,5.1,2.3,6.2,3.2z
		 M1.1,1C1.1,1,1.1,1,1.1,1l1.9,0.2c0.3,0,0.5,0.1,0.7,0.2C3.5,1.6,3.2,1.7,2.9,2C2.6,2.3,2.4,2.6,2.3,2.9C1.4,1.8,1,1.2,1,1.2
		C1,1.1,1,1,1.1,1z M6,6.9C5.5,6.4,5.1,6,4.7,5.5c0-0.4,0.2-0.8,0.5-1.2c0.5-0.5,1.1-0.7,1.5-0.7c0.5,0.4,1,0.8,1.6,1.4
		c0.4,0.4,0.9,0.8,1.4,1.2c-0.5,0.2-1,0.5-1.5,0.9C7.8,7.6,7.6,8,7.5,8.4C6.9,7.9,6.4,7.4,6,6.9z M16.9,17.2
		c0.1-0.1,0.2-0.3,0.4-0.4l3.8,3.5c-0.2,0.1-0.3,0.3-0.4,0.4c-0.4-0.4-0.8-0.7-1.2-1.1C18.6,18.8,17.8,18,16.9,17.2z M28.4,28
		c0.3-0.8,1.6-2,2.4-2.3c0.2,0.2,0.5,0.5,0.7,0.7c-0.4,0.3-0.9,0.7-1.1,1.1c-0.1,0-0.1,0-0.2,0c-0.5,0-0.9,0.4-0.9,0.9
		c0,0.5,0.4,0.9,0.9,0.9c0.5,0,0.9-0.4,0.9-0.9c0-0.2-0.1-0.4-0.2-0.6c0.1-0.3,0.7-0.9,1-1c1.7,1.6,3.4,3.2,4.8,4.5
		c-0.5,0.3-1.1,0.8-1.3,1.3c-0.1,0-0.2-0.1-0.3-0.1c-0.5,0-0.9,0.4-0.9,0.9c0,0.5,0.4,0.9,0.9,0.9c0.5,0,0.9-0.4,0.9-0.9
		c0-0.2-0.1-0.3-0.1-0.4c0.1-0.4,0.8-1.1,1.3-1.3c0.6,0.5,1.1,1,1.6,1.4c-1.1,0.4-2.3,1.5-2.7,2.6c-0.6-0.6-1.2-1.2-1.9-1.9
		C32.4,32,30.4,30,28.4,28z M39.3,39.3c-0.4-0.5-1.4-1.6-2.9-3.2c0.1-1,1.6-2.4,2.7-2.6c1.6,1.4,2.8,2.4,3.6,2.9
		c1.1,0.7,2.5,1.5,3.2,1.9c-1.1,0.7-3.3,2.8-4.1,4.4C41.4,42,40.8,40.9,39.3,39.3z M46.2,42.6c-0.9,1-2.8,2.5-3.9,2.5
		c-0.2,0-0.3,0-0.4-0.1c-0.4-0.2,0-1.5,0-1.5s0,0,0,0c0.4-1.5,3.6-4.4,4.4-4.8c0,0,0,0,0,0s0.6-0.3,1.1-0.3c0.2,0,0.4,0.1,0.5,0.2
		C48.5,39.4,47,41.8,46.2,42.6z M2.2,4.5c0,0.2-0.2,0.4-0.4,0.4c-0.2,0-0.4-0.2-0.4-0.4C1.3,4.2,1.5,4,1.8,4C2,4,2.2,4.2,2.2,4.5z
		 M20.1,17c0-0.3,0.2-0.5,0.5-0.5s0.5,0.2,0.5,0.5s-0.2,0.5-0.5,0.5S20.1,17.3,20.1,17z"/>
</g>
</svg>
