<svg width="50" height="47" viewBox="0 0 50 47" fill="none" xmlns="http://www.w3.org/2000/svg">
<path d="M48.8669 37.9887C48.6056 37.5185 48.113 37.2488 47.5153 37.2488C47.1373 37.2488 46.7441 37.3573 46.4409 37.4683C45.744 37.0849 44.3178 36.2853 43.2261 35.574C41.4521 34.4182 36.6901 29.9183 31.1763 24.7078C28.3796 22.0649 25.4877 19.3321 22.5669 16.6355C17.6399 12.0866 13.0652 7.93286 8.96992 4.28973C6.81751 2.375 5.33131 1.26782 5.06141 1.0697C4.5384 0.611938 3.89851 0.326233 3.2071 0.242432L1.27613 0.00836182L1.21619 0.00109863L1.13776 0H1.13764C0.678901 6.1e-05 0.267402 0.273987 0.0892406 0.697998C-0.071465 1.08051 -0.0112843 1.51385 0.238838 1.83606C0.409553 2.08533 1.22547 3.23541 3.09156 5.29657C3.04395 5.27936 2.99421 5.26605 2.94068 5.26605C2.69331 5.26605 2.49274 5.46661 2.49274 5.71399C2.49274 5.96136 2.69331 6.16187 2.94068 6.16187C3.18806 6.16187 3.38856 5.96136 3.38856 5.71399C3.38856 5.67053 3.37537 5.63116 3.36384 5.59143C3.9203 6.19952 4.54444 6.8656 5.28266 7.62115C8.11561 10.5208 12.2799 14.3347 18.8397 20.3174C24.2788 25.278 28.7741 29.784 32.7402 33.7596L33.4308 34.4516C35.7627 36.788 37.4175 38.6588 38.2128 39.5579C38.3735 39.7395 38.5042 39.8873 38.6042 39.9982C40.3815 41.9695 40.8342 43.0248 40.943 43.3609C40.6913 44.2629 40.6138 45.3324 41.4199 45.8053C41.6912 45.9644 42.0037 46.0451 42.3487 46.0451C44.0488 46.0451 46.3063 43.975 46.9631 43.2498C46.993 43.2168 49.9251 39.8934 48.8669 37.9887ZM22.111 21.9815C22.2277 21.8579 22.3884 21.713 22.5649 21.5656L23.9649 22.8532C23.7851 23.0071 23.6238 23.1569 23.5002 23.2877C23.0456 22.8569 22.5794 22.4198 22.111 21.9815ZM21.0851 21.0272C21.2013 20.905 21.3604 20.7621 21.5338 20.6173L22.1953 21.2257C22.0237 21.373 21.8701 21.5157 21.7498 21.642C21.5319 21.4388 21.306 21.2319 21.0851 21.0272ZM24.3347 23.1933L25.505 24.2697C25.3115 24.4359 25.1392 24.5971 25.0142 24.7341C24.6331 24.3682 24.2521 24.0021 23.8609 23.6302C23.9807 23.5012 24.1475 23.3493 24.3347 23.1933ZM25.8746 24.6096L26.5472 25.2282C26.3987 25.4388 26.2724 25.6528 26.1904 25.8685C25.92 25.6064 25.6514 25.3458 25.3759 25.0803C25.4943 24.9451 25.6693 24.7814 25.8746 24.6096ZM28.9677 23.9971C29.1331 24.1533 29.2972 24.3083 29.4614 24.4634C28.5564 24.8176 27.4352 25.7916 27.0327 26.6871C26.8908 26.5486 26.7454 26.408 26.6021 26.2686C26.7795 25.3724 28.0343 24.2652 28.9677 23.9971ZM29.8814 24.86C30.0582 25.0271 30.2329 25.192 30.4081 25.3576C29.5124 25.767 28.4097 26.7398 27.9783 27.6125C27.794 27.4315 27.6157 27.2549 27.429 27.0723C27.6751 26.2102 29.039 25.0512 29.8814 24.86ZM28.5636 23.6155C27.9706 23.8516 27.3408 24.2982 26.8576 24.8338L26.2714 24.2947C26.5311 24.099 26.7833 23.928 26.9706 23.8225C27.0558 23.8805 27.1528 23.9223 27.2636 23.9223C27.557 23.9223 27.7948 23.6844 27.7948 23.3911C27.7948 23.0977 27.557 22.8598 27.2636 22.8598C26.9722 22.8598 26.7369 23.0945 26.7335 23.3851C26.4877 23.5206 26.1898 23.7225 25.8961 23.9495L24.7323 22.8792C24.9888 22.6865 25.2371 22.5184 25.4218 22.4146C25.5147 22.4943 25.6316 22.5473 25.7636 22.5473C26.057 22.5473 26.2948 22.3094 26.2948 22.0161C26.2948 21.7227 26.057 21.4848 25.7636 21.4848C25.4965 21.4848 25.2847 21.6852 25.2473 21.9419C24.9949 22.0732 24.6722 22.2909 24.3569 22.5339L22.9619 21.2509C23.2327 21.0469 23.4975 20.8674 23.686 20.7641C23.7778 20.8398 23.891 20.8911 24.0192 20.8911C24.3126 20.8911 24.5505 20.6532 24.5505 20.3598C24.5505 20.0664 24.3126 19.8286 24.0192 19.8286C23.7477 19.8286 23.5322 20.0353 23.5004 20.2983C23.2438 20.43 22.9103 20.6554 22.5866 20.9057L21.9308 20.3026C22.231 20.0765 22.5231 19.8811 22.712 19.7861C22.7759 19.8133 22.846 19.8286 22.9198 19.8286C23.2132 19.8286 23.4511 19.5907 23.4511 19.2973C23.4511 19.0039 23.2132 18.7661 22.9198 18.7661C22.6264 18.7661 22.3886 19.0039 22.3886 19.2973C22.3886 19.3286 22.4012 19.3557 22.4064 19.3855C22.1586 19.5204 21.8546 19.7261 21.5554 19.9573L17.7556 16.4626C18.1087 16.1873 18.4716 15.9394 18.6887 15.8329C18.7593 15.8676 18.8359 15.8911 18.9198 15.8911C19.2132 15.8911 19.4511 15.6532 19.4511 15.3598C19.4511 15.0664 19.2132 14.8286 18.9198 14.8286C18.6264 14.8286 18.3886 15.0664 18.3886 15.3598C18.3886 15.3814 18.3984 15.3998 18.4009 15.4208C18.1105 15.5748 17.7346 15.8384 17.3831 16.12L16.7127 15.5034C17.0807 15.2236 17.4412 14.9883 17.6194 14.9221C17.6918 14.959 17.7705 14.9848 17.8573 14.9848C18.1507 14.9848 18.3886 14.7469 18.3886 14.4536C18.3886 14.1602 18.1507 13.9223 17.8573 13.9223C17.5639 13.9223 17.3261 14.1602 17.3261 14.4536C17.3261 14.4699 17.3339 14.4837 17.3354 14.4997C17.0646 14.6307 16.6936 14.8824 16.3386 15.1594L15.6647 14.5396C15.9871 14.2936 16.3063 14.0801 16.5057 13.9813C16.59 14.0377 16.6857 14.0786 16.7948 14.0786C17.0882 14.0786 17.3261 13.8407 17.3261 13.5473C17.3261 13.2539 17.0882 13.0161 16.7948 13.0161C16.5028 13.0161 16.2665 13.252 16.2644 13.5434C15.9932 13.6813 15.634 13.9278 15.2913 14.1962L13.808 12.832C13.7064 12.7397 13.5482 12.7455 13.4545 12.8466C13.3612 12.9487 13.3676 13.1064 13.4691 13.2001L14.9024 14.5184C14.7243 14.6736 14.5665 14.8225 14.451 14.95C11.8403 12.5529 9.66755 10.5281 7.89991 8.80988C7.91096 8.41901 8.14631 7.95862 8.56971 7.52972C9.03956 7.05414 9.63972 6.7403 10.1162 6.65381C13.5366 9.71649 17.4832 13.303 21.8886 17.3702C24.1324 19.4418 26.3928 21.5667 28.5636 23.6155ZM16.563 16.8848C16.3275 16.6694 16.0946 16.4565 15.8651 16.2465C15.9771 16.1221 16.1353 15.9749 16.3182 15.8204L16.9978 16.4455C16.8143 16.6099 16.6648 16.7601 16.563 16.8848ZM15.4962 15.9091C15.2666 15.6989 15.0423 15.493 14.819 15.2882C14.928 15.1638 15.0858 15.0153 15.2714 14.8577L15.949 15.4809C15.7731 15.6334 15.6133 15.782 15.4962 15.9091ZM6.20191 3.23822C5.73402 3.35602 5.24494 3.62793 4.84998 4.02728C4.53242 4.34863 4.32966 4.70734 4.23304 5.06323C3.64515 4.4245 3.15186 3.86646 2.7425 3.38806C2.72041 3.11237 2.9239 2.70923 3.25428 2.37982C3.61402 2.021 4.04603 1.82727 4.42353 1.84174C4.42652 1.84442 4.43006 1.84644 4.43305 1.84912C4.43305 1.84912 5.09949 2.33356 6.20191 3.23822ZM1.13776 1C1.14362 1 1.14967 1.00037 1.15583 1.0011L3.0868 1.23517C3.34229 1.26611 3.58924 1.33795 3.82008 1.44489C3.49909 1.55554 3.18232 1.74554 2.90125 2.02582C2.62745 2.29846 2.43873 2.60632 2.33393 2.90381C1.41029 1.79388 1.04011 1.23578 1.04011 1.23578C0.952705 1.14661 1.01881 1 1.13776 1ZM5.99793 6.9223C5.51356 6.42651 5.07337 5.96515 4.67023 5.53442C4.64735 5.16937 4.83668 4.75183 5.20545 4.37885C5.65845 3.92065 6.26148 3.64429 6.72779 3.67346C7.19788 4.06775 7.72736 4.52277 8.30524 5.03687C8.74854 5.43121 9.20448 5.83807 9.66822 6.25269C9.17274 6.42017 8.6496 6.73645 8.21375 7.17816C7.82795 7.56909 7.57886 7.98419 7.46546 8.38672C6.94331 7.87457 6.44544 7.38037 5.99793 6.9223ZM16.9312 17.2215C17.0201 17.1032 17.1758 16.9498 17.3657 16.7839L21.1642 20.2773C20.9935 20.4238 20.8409 20.5656 20.7209 20.6914C20.3197 20.321 19.9248 19.9537 19.5136 19.5786C18.6114 18.7558 17.7583 17.9772 16.9312 17.2215ZM28.3652 27.9932C28.6628 27.1623 29.958 26.0316 30.8084 25.7358C31.0501 25.9642 31.2944 26.1951 31.5325 26.42C31.1246 26.6813 30.6577 27.1354 30.4568 27.5682C30.3876 27.55 30.3206 27.5255 30.2457 27.5255C29.7739 27.5255 29.3915 27.9079 29.3915 28.3796C29.3915 28.8514 29.7739 29.2338 30.2457 29.2338C30.7174 29.2338 31.0998 28.8514 31.0998 28.3796C31.0998 28.1648 31.0132 27.9741 30.8822 27.824C31.008 27.4815 31.5553 26.9688 31.9076 26.7742C33.6433 28.413 35.2667 29.94 36.725 31.2897C36.2409 31.5851 35.6691 32.1172 35.4298 32.5999C35.3327 32.5615 35.2285 32.5369 35.1177 32.5369C34.646 32.5369 34.2636 32.9193 34.2636 33.3911C34.2636 33.8628 34.646 34.2452 35.1177 34.2452C35.5895 34.2452 35.9719 33.8628 35.9719 33.3911C35.9719 33.2233 35.911 33.0759 35.8275 32.9438C35.9451 32.5158 36.6629 31.871 37.1064 31.643C37.663 32.1562 38.187 32.6343 38.6858 33.0848C37.5925 33.4807 36.3403 34.597 36.012 35.6686C35.4492 35.0766 34.8251 34.433 34.1386 33.7452C32.3602 31.9635 30.4376 30.0334 28.3652 27.9932ZM39.3469 39.3286C38.9222 38.8575 37.9225 37.7005 36.428 36.1105C36.4947 35.082 38.0527 33.7184 39.1227 33.4772C40.6903 34.8807 41.9294 35.9227 42.6802 36.4119C43.7709 37.1225 45.1508 37.8988 45.8796 38.3005C44.7919 39.0272 42.5411 41.0861 41.7364 42.651C41.447 42.0112 40.8006 40.941 39.3469 39.3286ZM46.2219 42.5786C45.3493 43.5421 43.4453 45.0451 42.3487 45.0451C42.1886 45.0451 42.0459 45.0131 41.9259 44.9427C41.5485 44.7214 41.9719 43.4119 41.9719 43.4119C41.9719 43.4119 41.9717 43.4087 41.9717 43.408C42.3335 41.89 45.5391 39.0213 46.3836 38.5759C46.3838 38.576 46.3886 38.5786 46.3886 38.5786C46.3886 38.5786 47.0275 38.2488 47.5153 38.2488C47.7211 38.2488 47.9 38.3074 47.9927 38.4744C48.5228 39.4285 46.9721 41.7502 46.2219 42.5786ZM2.22193 4.4848C2.22193 4.73218 2.02137 4.93274 1.77399 4.93274C1.52662 4.93274 1.32606 4.73218 1.32606 4.4848C1.32606 4.23743 1.52662 4.03687 1.77399 4.03687C2.02137 4.03687 2.22193 4.23743 2.22193 4.4848ZM20.0761 16.9848C20.0761 16.6914 20.3139 16.4536 20.6073 16.4536C20.9007 16.4536 21.1386 16.6914 21.1386 16.9848C21.1386 17.2782 20.9007 17.5161 20.6073 17.5161C20.3139 17.5161 20.0761 17.2782 20.0761 16.9848Z" fill="black"/>
</svg>
