<?xml version="1.0" encoding="utf-8"?>
<!-- Generator: Adobe Illustrator 24.1.3, SVG Export Plug-In . SVG Version: 6.00 Build 0)  -->
<svg version="1.1" id="Layer_1" xmlns="http://www.w3.org/2000/svg" xmlns:xlink="http://www.w3.org/1999/xlink" x="0px" y="0px"
	 viewBox="0 0 100 100" style="enable-background:new 0 0 100 100;" xml:space="preserve">
<style type="text/css">
	.st0{fill:#FCA605;}
</style>
<g id="colour">
	<path class="st0" d="M66.3,21c-14.6,13.6-28,28.4-41.2,43.4c-3.2,3.6-6.8,7.2-9.6,11.2s0.4,9.4,5.2,9.2c4.8-0.2,8.2-5,11.2-8.2
		c3.6-3.8,7-7.6,10.6-11.6c6-6.6,12.2-13,18.2-19.6c2.6-2.4,5.2-4.6,7.8-7c1.4-1.2,2.8-2.4,4-3.8c1.2-1.2,2.6-2.2,3.4-3.8
		c0.8-1.8,0.6-3.6-0.6-5.2c-1-1.2-1.8-1.4-2.2-3C72.5,19.6,68.3,19,66.3,21z"/>
</g>
<g id="Layer_1_1_">
	<path d="M79.5,0.8c-1,0.6-1.4,1.6-1.4,2.8c0,0.8,0.2,1.6,0.4,2.2c-0.8,1.4-2.4,4.2-3.8,6.4c-2.4,3.6-11.4,13-21.8,24
		c-5.2,5.6-10.8,11.4-16.2,17.2c-9,10-17.4,19-24.6,27.2c-3.8,4.4-6,7.2-6.4,7.8c-1,1.2-1.6,2.4-1.8,3.8L3.5,96v0.2v0.2l0,0
		c0,1,0.6,1.8,1.4,2c0.8,0.4,1.6,0.2,2.2-0.2c0.4-0.4,2.8-2,7-5.8c0,0,0,0.2,0,0.4c0,0.4,0.4,0.8,0.8,0.8s0.8-0.4,0.8-0.8
		S15.3,92,14.9,92h-0.2c1.2-1.2,2.6-2.4,4-3.8c5.8-5.6,13.4-14,25.4-27.2c10-10.8,19-19.8,26.8-27.8l1.4-1.4c4.6-4.6,8.4-8,10.2-9.6
		c0.4-0.4,0.6-0.6,0.8-0.8c4-3.6,6-4.4,6.8-4.6c1.8,0.6,4,0.6,4.8-1c0.6-0.6,0.6-1.2,0.6-1.8c0-3.4-4.2-8-5.6-9.2
		C89.9,4.6,83.3-1.2,79.5,0.8z M47.5,54.4c-0.2-0.2-0.6-0.6-0.8-1l2.6-2.8c0.4,0.4,0.6,0.6,0.8,1C49.3,52.6,48.3,53.4,47.5,54.4z
		 M45.5,56.4c-0.2-0.2-0.6-0.6-0.8-0.8l1.2-1.4c0.2,0.4,0.6,0.6,0.8,0.8C46.3,55.6,45.9,56,45.5,56.4z M49.9,50l2.2-2.4
		c0.4,0.4,0.6,0.8,1,1c-0.8,0.8-1.4,1.6-2.2,2.4C50.5,50.6,50.1,50.4,49.9,50z M52.7,46.8l1.2-1.4c0.4,0.2,0.8,0.6,1.2,0.8
		c-0.6,0.6-1,1-1.6,1.6C53.3,47.6,53.1,47.2,52.7,46.8z M51.5,40.6c0.4-0.4,0.6-0.6,1-1c0.8,1.8,2.6,4,4.4,4.8
		c-0.2,0.2-0.6,0.6-0.8,0.8C54.3,45,52.1,42.6,51.5,40.6z M53.3,38.8c0.4-0.4,0.6-0.8,1-1c0.8,1.8,2.8,4,4.6,4.8
		c-0.4,0.4-0.8,0.8-1,1C55.9,43.2,53.7,40.6,53.3,38.8z M50.7,41.4c0.4,1.2,1.4,2.4,2.4,3.4l-1,1.2c-0.4-0.6-0.8-1-1-1.4
		c0.2-0.2,0.2-0.4,0.2-0.6c0-0.6-0.4-1-1-1s-1,0.4-1,1s0.4,1,1,1c0.2,0.4,0.6,1,1.2,1.6L49.3,49c-0.4-0.6-0.8-1-1-1.4
		c0.2-0.2,0.2-0.4,0.2-0.6c0-0.6-0.4-1-1-1s-1,0.4-1,1s0.4,1,1,1c0.2,0.6,0.6,1.2,1.2,1.8l-2.6,2.8c-0.4-0.6-0.8-1-1-1.4
		c0.2-0.2,0.2-0.4,0.2-0.6c0-0.6-0.4-1-1-1s-1,0.4-1,1s0.4,1,1,1c0.2,0.6,0.8,1.2,1.2,1.8l-1.2,1.4c-0.4-0.6-0.8-1.2-1-1.6
		c0-0.2,0-0.2,0-0.4c0-0.6-0.4-1-1-1s-1,0.4-1,1s0.4,1,1,1h0.2c0.2,0.4,0.6,1.2,1.2,1.8l-7,7.6c-0.6-0.8-1-1.4-1.2-1.8
		c0-0.2,0.2-0.2,0.2-0.4c0-0.6-0.4-1-1-1s-1,0.4-1,1s0.4,1,1,1c0,0,0,0,0.2,0c0.4,0.6,0.8,1.4,1.4,2l-1.2,1.4
		c-0.6-0.8-1-1.4-1.2-1.8c0-0.2,0.2-0.4,0.2-0.4c0-0.6-0.4-1-1-1s-1,0.4-1,1s0.4,1,1,1l0,0c0.2,0.6,0.8,1.2,1.4,2l-1.2,1.4
		c-0.4-0.6-1-1.2-1.2-1.6c0.2-0.2,0.2-0.4,0.2-0.6c0-0.6-0.4-1-1-1s-1,0.4-1,1s0.4,1,1,1c0.2,0.6,0.8,1.2,1.4,2l-2.8,3
		c-0.2,0.2-0.2,0.6,0,0.8c0.2,0.2,0.6,0.2,0.8,0l2.6-2.8c0.4,0.4,0.6,0.6,0.8,1c-4.8,5.2-8.8,9.6-12.2,13.2c-0.8,0-1.8-0.4-2.6-1.4
		c-1.6-1.6-2.4-2.8-2.4-3.8c6.2-6.8,13.2-14.8,21.4-23.6C42.3,50.4,46.7,45.8,50.7,41.4z M37.3,65.4c-0.4,0.4-0.8,1-1.2,1.4
		c-0.2-0.2-0.6-0.6-0.8-1l1.2-1.4C36.7,65,37.1,65.2,37.3,65.4z M35.3,67.6c-0.4,0.4-0.8,1-1.2,1.4c-0.2-0.2-0.6-0.6-0.8-1l1.2-1.4
		C34.7,67,35.1,67.4,35.3,67.6z M9.9,86.2c0.4,1,0.8,2,1.6,2.8c0.6,0.6,1.4,1,2,1.2c-1.2,1.2-2.2,2-3.2,3c-0.6,0-1.4-0.4-2-1
		c-0.8-0.8-1.2-1.6-1.2-2.4l0,0C7.1,89.8,8.1,88.4,9.9,86.2z M5.5,96.4L5.5,96.4l0.4-3.8c0-0.6,0.2-1,0.4-1.4c0.4,0.4,0.6,1,1.2,1.6
		s1.2,1,1.8,1.2c-2.2,1.8-3.4,2.6-3.4,2.6C5.7,96.6,5.5,96.6,5.5,96.4z M17.3,86.6c-1,1-1.8,1.8-2.8,2.6c-0.8,0-1.6-0.4-2.4-1
		c-1-1-1.4-2.2-1.4-3c0.8-1,1.6-2,2.8-3.2c0.8-0.8,1.6-1.8,2.4-2.8c0.4,1,1,2,1.8,3c1,0.8,1.8,1.2,2.6,1.4
		C19.3,84.8,18.3,85.8,17.3,86.6z M37.9,64.8c-0.2-0.2-0.6-0.4-0.8-0.8l7-7.6c0.2,0.4,0.6,0.6,0.8,0.8c-0.8,0.8-1.4,1.6-2.2,2.4
		C41.1,61.4,39.5,63,37.9,64.8z M59.5,41.8c-1.6-0.6-4-3.2-4.6-4.8c0.4-0.4,1-1,1.4-1.4c0.6,0.8,1.4,1.8,2.2,2.2c0,0.2,0,0.2,0,0.4
		c0,1,0.8,1.8,1.8,1.8s1.8-0.8,1.8-1.8s-0.8-1.8-1.8-1.8c-0.4,0-0.8,0.2-1.2,0.4c-0.6-0.2-1.8-1.4-2-2c3.2-3.4,6.4-6.8,9-9.6
		c0.6,1,1.6,2.2,2.6,2.6c0,0.2-0.2,0.4-0.2,0.6c0,1,0.8,1.8,1.8,1.8s1.8-0.8,1.8-1.8s-0.8-1.8-1.8-1.8c-0.4,0-0.6,0.2-0.8,0.2
		c-0.8-0.2-2.2-1.6-2.6-2.6c1-1.2,2-2.2,2.8-3.2c0.8,2.2,3,4.6,5.2,5.4c-1.2,1.2-2.4,2.4-3.8,3.8C67.5,33.8,63.5,37.8,59.5,41.8z
		 M82.1,20c-1,0.8-3.2,2.8-6.4,5.8c-2-0.2-4.8-3.2-5.2-5.4c2.8-3.2,4.8-5.6,5.8-7.2c1.4-2.2,3-5,3.8-6.4c1.4,2.2,5.6,6.6,8.8,8.2
		C87.5,15.8,85.3,17,82.1,20z M88.7,6.2c2,1.8,5,5.6,5,7.8c0,0.4,0,0.6-0.2,0.8c-0.4,0.8-3,0-3,0l0,0c-3-0.8-8.8-7.2-9.6-8.8l0,0
		c0,0-0.6-1.2-0.6-2.2c0-0.4,0.2-0.8,0.4-1C82.3,1.6,87.1,4.6,88.7,6.2z M12.5,94.2c0.4,0,0.8,0.4,0.8,0.8c0,0.4-0.4,0.8-0.8,0.8
		c-0.6,0.2-1-0.2-1-0.8C11.5,94.6,11.9,94.2,12.5,94.2z M37.5,58.4c-0.6,0-1-0.4-1-1s0.4-1,1-1s1,0.4,1,1S38.1,58.4,37.5,58.4z"/>
</g>
</svg>
