<svg width="576" height="288" viewBox="0 0 576 288" fill="none" xmlns="http://www.w3.org/2000/svg">
<path fill-rule="evenodd" clip-rule="evenodd" d="M0 288H576V0H0V288Z" fill="white"/>
<path fill-rule="evenodd" clip-rule="evenodd" d="M129.82 236.1C164.18 241.26 225.86 245.5 286.82 246.62C347.78 247.74 408.02 245.74 437.18 241.55C466.34 237.35 464.42 230.95 453.54 224.23C442.66 217.51 422.82 210.47 422.98 202.47C423.14 194.47 443.3 185.51 454.18 171.43C465.06 157.35 466.66 138.15 422.18 116.39C377.7 94.6301 287.14 70.3101 230.18 67.4301C173.22 64.5501 149.86 83.1001 145.7 96.7001C141.54 110.3 156.58 118.94 158.5 127.9C160.42 136.86 149.22 146.14 133.86 157.66C118.5 169.18 98.98 182.94 89.54 193.5C80.1 204.06 80.74 211.42 84.58 218.14C88.42 224.86 95.46 230.94 129.82 236.1Z" fill="#FDD3B6"/>
<path fill-rule="evenodd" clip-rule="evenodd" d="M0 249.04C55.45 250.71 107.63 251.99 138.17 250.63C162.68 249.54 173.2 246.76 179 244.68L178.85 244.36C177.97 242.44 177.59 239.75 177.68 236.06C177.76 232.42 178.28 227.8 178.94 223.23C179.6 218.68 180.4 214.15 181.04 210.72L181.32 209.25C182.35 203.78 182.75 201.67 181.35 200.63C180.52 200.02 179.07 199.65 177.17 199.4C176.79 199.35 176.4 199.31 175.98 199.26C176.06 199.34 176.13 199.43 176.19 199.51C176.43 199.85 176.51 200.2 176.46 200.55C176.41 200.89 176.22 201.2 175.91 201.45C175.47 201.81 174.75 202.09 173.79 202.22C172.33 202.42 170.27 202.32 168.14 202.21C166.43 202.12 164.66 202.03 163.18 202.1C161.6 202.18 160.34 202.43 159.41 203.06C158.5 203.68 157.86 204.69 157.5 206.31C157.03 208.4 157.01 211.48 157 214.81C156.99 217.02 156.98 219.35 156.84 221.57C156.75 222.96 156.61 224.33 156.43 225.64C156.92 229.19 157.27 232.45 157.36 234.88C157.49 238.68 156.92 240.55 156.12 241.44C155.19 242.47 154.08 242.3 153.21 242.13C152.43 241.98 151.86 241.83 151.47 241.61C150.88 241.28 150.67 240.85 150.82 240.2C150.9 239.87 151.08 239.53 151.35 239.04C151.76 238.29 152.38 237.13 153.04 235.22C153.62 233.54 154.24 231.28 154.74 228.65C154.92 227.69 155.09 226.68 155.23 225.63C154.31 218.97 152.92 211.31 152.01 206.28L151.86 205.44C151.16 201.59 150.82 199.61 151.1 198.49C151.46 197.06 152.46 196.99 154.46 197.01C156.16 197.03 158.68 197.12 161.47 197.24C163.48 197.33 165.61 197.43 167.67 197.53C165.74 197.03 163.78 196.48 162.25 195.79C160.42 194.97 159.19 193.96 158.52 192.57C157.86 191.19 157.76 189.48 158.19 187.25C158.49 185.69 159.02 183.91 159.63 181.9C160.7 178.36 161.98 174.11 162.46 169.41C162.94 164.72 162.63 159.51 162.37 155.2C162.22 152.72 162.09 150.53 162.14 148.86C162.21 146.39 162.67 145.02 163.66 144.29C164.65 143.56 166.04 143.56 168 143.8C168.49 143.86 169.02 143.93 169.57 144.01C169.53 142.55 169.6 141.12 169.78 139.72C170.07 137.34 170.65 135.03 171.44 133.09C172.21 131.2 173.2 129.64 174.35 128.66C175.54 127.64 176.9 127.24 178.25 127.35C179.67 127.46 181.07 128.14 182.26 129.24C183.38 130.27 184.31 131.68 184.98 133.25C185.65 134.83 186.07 136.57 186.13 138.26C186.2 140.09 185.86 141.85 184.94 143.25C184.12 144.49 182.87 145.43 181.08 145.86C178.31 146.52 174.27 145.94 170.86 145.42C170.9 145.87 170.95 146.33 171.01 146.79C171.34 149.17 172.03 151.63 173.16 154.15C174.2 156.47 175.63 158.85 177.14 161.03C178.93 163.61 180.84 165.87 182.35 167.37C183.68 168.68 184.68 169.37 185.52 169.53C186.28 169.67 186.98 169.34 187.77 168.63C188.6 167.89 189.52 166.75 190.37 165.51C191.29 164.17 192.14 162.72 192.72 161.52C192.34 161.96 191.88 162.28 191.32 162.48C190.26 162.86 188.9 162.76 187.46 162.28C186.05 161.81 184.55 160.96 183.21 159.86C181.92 158.79 180.77 157.48 179.92 156.15C179.03 154.78 178.45 153.38 178.32 152.22C178.17 150.94 178.54 149.93 179.64 149.13C180.61 148.42 182.19 147.9 184.55 147.53C186.53 147.21 189.08 146.99 191.75 146.84L193.24 146.76C193.24 144.56 193.27 142.48 193.45 140.9C193.63 139.33 193.97 138.2 194.31 137.66C194.5 137.36 194.73 137.18 194.98 137.11C195.34 137.02 195.65 137.14 195.9 137.49C196.13 137.81 196.3 138.44 196.36 139.4C196.47 141.02 196.31 143.78 196.09 146.64C198.13 146.57 200.11 146.54 201.8 146.52C204.34 146.5 206.23 146.53 207.67 146.61C209.14 146.69 210.16 146.83 210.91 147.02C211.81 147.25 212.4 147.56 212.7 148.24C212.87 148.62 212.92 149.08 212.86 149.69C213.65 149.33 214.34 149.19 214.95 149.2C216.12 149.23 216.97 149.79 217.85 150.48C218.22 150.76 218.61 151.08 219 151.41C219.97 152.21 220.96 153.02 221.82 153.45L221.85 153.43C223.51 151.96 223.93 151.11 224.1 150.75C224.32 150.31 224.41 150.11 224.92 150.21L225 150.23C225.25 150.31 225.57 150.7 225.73 151.22C225.86 151.63 225.93 152.17 225.82 152.71C225.8 152.81 225.77 152.91 225.73 153.02C225.51 153.68 225 154.31 224.28 154.66C223.68 154.96 222.94 155.07 222.12 154.84L222.04 154.82C220.97 155.72 219.6 156.75 218.16 157.83C216.09 159.39 213.9 161.05 212.36 162.46C211.01 163.7 210.15 164.73 210 165.48C209.9 165.97 210.31 166.33 211.38 166.51C212.42 166.69 213.96 166.69 215.71 166.6C215.26 166.23 214.9 165.84 214.64 165.43C214.22 164.75 214.1 164.04 214.41 163.31C214.47 163.16 214.56 163 214.66 162.85C215.37 161.81 217.12 160.79 219.29 159.85C221.4 158.94 223.89 158.09 226.18 157.37L227.49 156.96C230.63 155.99 233.32 155.15 235.3 153.65C233.56 153 232.08 152.2 230.94 151.23C229.72 150.2 228.89 148.99 228.44 147.72C227.97 146.38 227.93 144.99 228.31 143.68C228.68 142.41 229.46 141.22 230.46 140.32C231.45 139.42 232.68 138.78 233.95 138.58C235.31 138.37 236.72 138.66 237.88 139.44C238.93 140.15 239.78 141.27 240.18 142.77C240.6 144.33 240.53 146.31 240.03 148.24C239.57 150.02 238.75 151.77 237.59 153.12C238.98 153.51 240.5 153.82 242.12 154.05C245.26 154.49 248.75 154.63 252.21 154.76C253.77 154.82 255.32 154.88 256.79 154.97C259.28 155.11 261.68 155.33 263.77 155.6C265.8 155.87 267.55 156.19 268.84 156.55C270.28 156.96 271.2 157.43 271.7 158.43C271.81 158.64 271.89 158.88 271.95 159.13C272.21 159.23 272.41 159.36 272.56 159.51C273.24 160.22 272.92 161.19 271.91 162.82V162.84C271.64 164.8 271.09 167.47 270.47 170.12C269.79 173 269.02 175.86 268.41 177.71C267.16 181.5 266.56 181.49 260.13 181.41L257.9 181.39C256.29 183.63 255.38 186.17 254.92 192.73C254.63 196.95 254.52 202.77 254.52 208.77C254.53 215.22 254.66 221.89 254.84 226.99C255.47 227.53 256.21 228.01 257.08 228.44C258.99 229.38 261.52 230.05 264.32 230.4C267.1 230.75 270.14 230.78 273.11 230.44C277.5 229.93 281.75 228.6 285.25 227.51C286.52 227.11 287.7 226.74 288.8 226.44C289.44 226.26 290.04 226.12 290.6 226C291.07 225.08 291.7 224.06 292.51 222.94C292.94 222.35 293.44 221.71 293.96 221.03C296.16 218.19 298.86 214.7 299.93 210.31C300.48 208.05 300.62 205.53 300.52 203.19C300.39 199.92 299.82 197.03 299.35 195.69C299.25 195.4 299.16 195.21 299.09 195.08C298.9 194.92 298.79 194.75 298.75 194.65L298.73 194.58C298.64 194.42 298.61 194.28 298.62 194.16C298.47 193.4 298.79 193.08 299.59 193.82C299.63 193.85 299.67 193.89 299.71 193.93L299.84 194.06C299.88 194.1 299.92 194.16 299.97 194.23C300.31 194.43 301.03 194.66 302.43 194.57C304.23 194.44 307.02 193.75 309.76 192.9C312.89 191.92 315.94 190.73 317.37 189.89C318.1 189.47 318.28 189.31 318.26 189.26C318.2 189.16 317.98 189.01 317.76 188.88C317.3 188.59 316.87 188.31 316.84 187.76C316.82 187.32 317.08 187.01 317.44 186.58C318.1 185.81 319.22 184.49 318.27 181.68L318.21 181.51C316.68 181.65 314.89 181.77 313 181.9C309.79 182.12 306.27 182.36 303.22 182.73C302.4 182.83 301.7 182.93 301.03 183.02C296.4 183.66 292.84 184.15 289.22 181.33C286.26 179.03 283.36 174.51 280.84 170.57C279.91 169.12 279.03 167.75 278.23 166.61C277.43 165.47 276.69 164.56 276.1 163.81C275.24 162.74 274.66 162.01 274.49 161.39C274.25 160.49 274.66 159.97 275.97 159.62C277.24 159.29 279.62 159.1 282.37 158.99C285.07 158.89 288.14 158.86 290.81 158.86C293.48 158.86 295.74 158.88 297.6 158.96C299.5 159.05 301.02 159.2 302.17 159.47C303.4 159.76 304.23 160.16 305.21 161.07C306.13 161.93 307.17 163.22 308.82 165.32C310.46 167.39 312.71 170.27 314.77 173.2C316.51 175.68 318.09 178.19 318.98 180.23L319.88 180.13C321.79 179.9 322.92 179.62 323.57 179.26C324.07 178.97 324.23 178.6 324.28 178.12C324.31 177.76 324.29 177.35 324.27 176.88C324.26 176.59 324.24 176.29 324.24 175.97C323.03 176.09 321.86 175.99 320.73 175.7C319.16 175.3 317.7 174.57 316.41 173.66C315.18 172.79 314.08 171.74 313.49 170.48C312.87 169.17 312.79 167.66 313.62 165.91C314.79 163.44 317.82 160.53 320.72 157.74C321.62 156.87 322.52 156.01 323.33 155.19C324.71 153.8 325.86 152.5 326.78 151.25L326.31 151.15C324.5 150.74 322.58 150.06 321.01 149.05C319.67 148.19 318.58 147.11 318.01 145.76C317.4 144.32 317.38 142.62 317.77 141.06C318.19 139.38 319.08 137.85 320.2 136.98C321.28 136.14 322.55 135.91 323.82 136.14C325.16 136.37 326.5 137.12 327.59 138.19C328.64 139.22 329.47 140.55 329.96 142.02C330.42 143.42 330.58 144.95 330.32 146.47C330.11 147.77 329.6 149.06 328.81 150.38C329.2 150.43 329.57 150.48 329.94 150.53C331.8 150.77 333.43 150.97 334.71 151.74C335.77 152.37 336.53 153.34 337.21 154.95C337.86 156.48 338.44 158.61 339.14 161.64C339.91 164.94 340.84 169.35 341.61 173.53C342.23 176.92 342.74 180.14 342.96 182.48C343.39 187.14 342.69 188.34 341.51 190.36C341.34 190.65 341.16 190.95 340.97 191.3C340.8 191.6 340.6 191.98 340.4 192.37C338.98 195.07 337 198.8 333.24 200.66C330.37 202.08 326.55 202.36 322.88 202.62C321.12 202.75 319.39 202.87 317.87 203.11C315.59 203.47 313.69 204.11 312.38 205.14C311.13 206.12 310.41 207.49 310.41 209.36C310.41 213.07 313.11 218.76 315.08 222.91L315.55 223.91C316.17 225.22 316.67 226.33 317.05 227.28C317.29 227.13 317.5 226.97 317.68 226.79C318.2 226.28 318.4 225.6 318.22 224.58C317.89 222.74 316.39 219.89 314.96 217.18C314.54 216.39 314.13 215.61 313.76 214.87C312.9 213.17 312.22 211.66 311.94 210.32C311.64 208.87 311.8 207.63 312.68 206.61C313.51 205.64 315 204.92 316.92 204.52C318.73 204.14 320.94 204.04 323.35 204.29C325.2 204.48 327.15 204.86 329.04 205.23C332.07 205.82 334.99 206.4 337.04 206.09L337.26 206.05C337.31 204 337.61 202.32 338.1 201.23C338.46 200.44 338.93 199.94 339.43 199.67C339.81 199.47 340.2 199.4 340.57 199.45C340.94 199.5 341.29 199.68 341.58 199.95C341.96 200.3 342.23 200.83 342.32 201.47C342.48 202.59 342.06 204.11 340.97 205.32C340.35 206.01 339.52 206.6 338.45 206.97C338.48 209.02 338.76 211.41 339.35 213.9C340.04 216.82 341.16 219.88 342.18 222.65C342.48 223.47 342.77 224.27 343.05 225.04L343.28 224.8C344.55 223.42 345.87 221.99 346.9 220.67C348.2 219.02 349.06 217.53 349.69 216.44C350.14 215.67 350.48 215.08 350.8 214.72C351.56 213.88 352.13 213.99 352.96 214.74C353.21 214.97 353.49 215.27 353.84 215.64L354.28 216.11C354.96 216.83 355.86 217.73 356.89 218.49C357.87 219.21 358.96 219.8 360.04 219.93C361.09 220.05 362.18 219.73 363.4 218.88C364.7 217.97 366.13 216.47 367.82 214.28C369.53 212.05 371.48 209.13 373.6 205.7C375.74 202.25 378.04 198.3 380.45 194.04C379.2 192.73 377.85 191.26 376.5 189.8C374.15 187.26 371.79 184.71 370 182.95C368.17 181.15 367.03 180.27 366.24 180.41C365.46 180.55 364.77 181.77 363.81 184.18C363.16 185.82 362.42 187.96 361.6 190.3C359.81 195.46 357.69 201.55 355.53 205.3C354.43 207.21 353.3 208.53 352.24 209.31C351.45 209.89 350.69 210.18 349.98 210.22C349.22 210.25 348.54 209.99 347.99 209.45C347.57 209.05 347.23 208.49 346.98 207.8C346.3 205.93 346.27 202.94 347.41 199.06C348.32 195.95 349.99 192.25 352.68 188.07C355.46 183.75 359.34 178.91 363.42 174.37L363.85 173.89C360.19 170.25 356.63 166.78 353.69 163.99C349.68 160.18 346.86 157.66 344.82 156.07L344.58 155.88C344.38 156.07 344.18 156.24 343.98 156.39C343.8 156.53 343.61 156.65 343.42 156.77C342.5 157.33 341.6 157.53 340.82 157.46C339.99 157.39 339.29 157.01 338.85 156.43C338.8 156.36 338.75 156.29 338.7 156.22C338.38 155.69 338.26 155.03 338.35 154.43C338.4 154.12 338.5 153.81 338.66 153.54C338.83 153.26 339.06 153.01 339.35 152.84C339.78 152.58 340.32 152.46 340.97 152.56C341.82 152.69 342.9 153.2 344.44 154.3C345.06 153.63 345.71 152.8 346.43 151.9C347.47 150.59 348.64 149.11 350.05 147.63C351.66 145.93 353.59 144.22 355.5 142.81C357.31 141.47 359.11 140.39 360.63 139.81C363.48 138.72 365.29 139.35 368.3 140.38C368.73 140.53 369.19 140.69 369.67 140.84C371.53 141.45 373.87 142.14 376.33 142.53C378.78 142.92 381.36 143.04 383.76 142.54C385.46 142.18 387.08 141.51 388.6 140.53L388.57 140.48C385.09 135.18 380.94 128.87 382.71 123.65C382.89 123.12 383.13 122.6 383.42 122.11C384.85 119.65 387.54 117.61 390.34 116.34C393.17 115.06 396.15 114.57 398.13 115.24C398.41 115.33 398.67 115.45 398.9 115.59C400.78 116.69 401.26 119.11 400.88 122.03C400.44 125.4 398.83 129.48 396.96 132.83C395.25 135.88 393.3 138.33 391.15 140.15C390.85 140.4 390.55 140.64 390.25 140.87C390.59 141.39 390.91 141.88 391.2 142.35C392.99 145.19 394.19 147.58 394.82 149.55C395.49 151.61 395.54 153.25 395 154.51C394.97 154.59 394.92 154.68 394.87 154.79L394.75 155C396.23 156.37 397.92 158.03 399.69 159.78C403.47 163.5 407.63 167.6 410.68 169.8C412.91 171.41 414.48 171.98 415.56 171.81C415.59 170.78 415.55 169.84 415.42 168.94C415.1 166.73 414.29 164.83 412.96 162.86C410.5 159.22 406.29 155.36 402.83 152.18L401.77 151.2C399.94 149.51 398.42 148.06 397.26 146.8C396.07 145.51 395.24 144.4 394.83 143.43C394.36 142.32 394.4 141.39 395.17 140.36C395.84 139.46 397.09 138.51 399.11 137.25C401.06 136.03 403.75 134.52 406.43 133.01C409.16 131.47 411.88 129.94 413.75 128.77C415.59 127.62 416.63 126.8 417.23 126.2C417.51 125.92 417.68 125.7 417.78 125.53L417.72 125.56C417.15 125.82 416.43 126.14 415.48 125.9C414.87 125.74 414.2 125.33 413.68 124.72C413.24 124.21 412.91 123.55 412.8 122.76C412.68 121.88 412.85 120.84 413.32 119.95C413.74 119.15 414.39 118.46 415.28 118.08C416.23 117.68 417.43 117.65 418.6 117.98C419.68 118.29 420.74 118.91 421.56 119.84C422.36 120.75 422.92 121.94 423.21 123.15C423.53 124.46 423.56 125.81 423.29 126.9C423.02 128 422.45 128.81 421.49 129.6C420.59 130.33 419.34 131.03 417.63 131.93C416.07 132.75 414.24 133.67 412.29 134.66C409.81 135.92 407.11 137.28 404.67 138.57C402.4 139.77 400.33 140.91 398.83 141.79L398.22 142.15C399.21 141.96 400.42 141.77 401.65 141.72C403.2 141.66 404.75 141.84 406.27 142.36C407.79 142.89 409.26 143.76 410.65 145.08C411.99 146.36 413.25 148.06 414.36 150.03C415.5 152.04 416.48 154.34 417.25 156.73C418.02 159.15 418.57 161.67 418.81 163.97C419.05 166.19 419.01 168.22 418.62 169.78C418.28 171.13 417.69 172.14 416.74 172.65C416.64 174.04 416.42 175.57 416.06 177.27C415.26 181.09 413.81 185.84 411.64 190.13C409.93 193.5 407.78 196.59 405.13 198.77C401.91 201.42 398.01 202.67 394.44 203.63C396.67 203.39 399.17 203.1 401.75 202.79C410.14 201.8 419.4 200.72 424.5 200.95C428.37 201.13 430.01 202.1 430.29 203.83C430.55 205.43 429.49 207.57 427.95 210.32C427.55 211.03 426.98 212.02 426.38 213.06C423.53 218.02 419.95 224.24 418.56 229.54C418.13 231.16 417.91 232.7 417.84 234.13C418.44 234.71 419.09 235.41 419.72 236.15C420.94 237.59 422.11 239.2 422.75 240.48C423.47 241.91 423.55 242.98 423.32 243.79C423.08 244.64 422.53 245.17 422 245.56C421.4 245.99 420.82 246.26 420.11 245.96C419.52 245.71 418.94 245.04 418.31 243.65C417.63 242.15 416.85 239.73 416.65 236.67C416.61 236.02 416.59 235.34 416.61 234.64C416.18 234.25 415.8 233.95 415.5 233.77C415.32 233.66 415.3 233.52 415.28 233.56C415.07 233.91 415.21 235.18 415.38 236.82L415.61 239.08C415.88 241.75 416.17 244.71 416.62 246.31C416.82 247.03 417.11 247.4 420.93 247.62C425.12 247.87 433.24 247.87 449.08 247.87H576V249.07H449.08C433.25 249.07 425.13 249.07 420.85 248.82C416.21 248.55 415.82 247.91 415.46 246.63C414.99 244.94 414.69 241.92 414.42 239.2L414.19 236.95C413.99 235.09 413.84 233.64 414.25 232.95C414.63 232.33 415.21 232.21 416.11 232.75C416.29 232.86 416.48 232.99 416.69 233.16C416.8 231.93 417.02 230.63 417.38 229.27C418.81 223.83 422.43 217.53 425.32 212.5C425.83 211.61 426.32 210.76 426.88 209.77C428.3 207.24 429.28 205.29 429.08 204.06C428.9 202.96 427.58 202.33 424.41 202.18C419.42 201.95 410.2 203.04 401.85 204.02C398.57 204.41 395.43 204.78 392.65 205.05C390.92 205.22 389.46 205.34 388.15 205.45C387.6 205.66 387.1 205.89 386.66 206.14C384.77 207.21 383.83 208.8 383.66 210.8C383.49 212.9 384.15 215.46 385.47 218.37C386.24 220.06 387.22 221.86 388.22 223.69C390.81 228.43 393.52 233.38 393.04 237.41C392.7 240.28 390.76 242.59 388.23 244.46C385.77 246.28 382.75 247.68 380.11 248.77C377.48 249.86 375.22 250.65 373.44 251.01C371.51 251.4 370.07 251.28 369.23 250.49C369.16 250.42 369.09 250.35 369.02 250.27C368.41 249.51 368.28 248.36 368.65 247.07C368.92 246.11 369.46 245.05 370.28 244.02C368.46 243.99 366.63 243.84 364.79 243.51C362.5 243.1 360.18 242.44 357.83 241.43C355.32 240.35 352.76 238.88 350.91 237.35C349.21 235.95 348.07 234.46 348.03 233.11C348.03 233.03 348.03 232.96 348.03 232.89C348.1 231.57 349.17 230.5 350.74 229.75C352.18 229.07 354.08 228.65 355.96 228.59C356.38 228.58 356.8 228.58 357.21 228.6C358.44 228.67 359.62 228.9 360.69 229.23C360.96 228.85 361.25 228.45 361.55 228.02C362.6 226.56 363.87 224.79 365.19 222.62C365.88 221.48 366.64 220.13 367.42 218.73C369.7 214.67 372.18 210.27 374.94 207.81C378.01 205.08 381.29 204.81 387.67 204.28L387.89 204.26C389.24 203.76 390.79 203.36 392.46 202.93C396.33 201.93 400.81 200.77 404.34 197.87C406.84 195.81 408.9 192.85 410.54 189.62C412.66 185.43 414.08 180.79 414.86 177.05C415.17 175.58 415.37 174.25 415.48 173.03C414.13 173.14 412.33 172.48 409.98 170.78C406.86 168.52 402.67 164.4 398.85 160.65C397.1 158.92 395.42 157.28 393.99 155.95C393.43 156.47 392.73 156.85 392 157.07C391.77 157.14 391.53 157.2 391.29 157.24C392.43 158.25 393.36 159.7 393.8 161.7C394.24 163.69 394.19 166.21 393.39 169.38C392.52 172.8 390.75 176.99 388.6 181.4C386.86 184.95 384.87 188.64 382.9 192.19C385.22 194.89 386.54 196.71 387.04 197.68C387.27 198.14 387.36 198.49 387.32 198.75C387.22 199.36 386.83 199.53 386.18 199.29C385.76 199.13 385.05 198.62 384.13 197.79C383.35 197.08 382.38 196.12 381.31 195C378.95 199.17 376.69 203.03 374.62 206.39C372.47 209.86 370.5 212.82 368.77 215.07C367.01 217.36 365.49 218.94 364.09 219.92C362.61 220.96 361.26 221.34 359.91 221.18C358.59 221.03 357.32 220.35 356.19 219.52C355.1 218.72 354.15 217.76 353.43 217L352.98 216.52C352.66 216.18 352.4 215.89 352.18 215.7C351.96 215.5 351.83 215.46 351.71 215.59C351.46 215.87 351.15 216.4 350.74 217.11C350.09 218.24 349.2 219.77 347.86 221.48C346.8 222.83 345.46 224.28 344.17 225.68L343.51 226.4C343.81 227.31 344.07 228.17 344.25 228.93C344.66 230.67 344.69 231.99 344.48 232.97C344.2 234.33 343.49 235.09 342.71 235.45C342.04 235.76 341.32 235.77 340.66 235.57C339.96 235.35 339.32 234.89 338.87 234.32C338.42 233.75 338.15 233.06 338.24 232.16C338.33 231.34 338.73 230.36 339.62 229.12C340.26 228.23 341.16 227.2 342.14 226.12C341.82 225.18 341.45 224.18 341.07 223.14C340.04 220.33 338.9 217.23 338.2 214.25C337.62 211.79 337.33 209.42 337.28 207.34L337.23 207.35C334.97 207.69 331.96 207.09 328.83 206.48C326.95 206.11 325.02 205.73 323.25 205.55C320.96 205.32 318.87 205.41 317.18 205.76C315.52 206.11 314.27 206.69 313.61 207.46C313.01 208.16 312.91 209.06 313.14 210.15C313.39 211.36 314.03 212.78 314.85 214.4C315.22 215.13 315.63 215.91 316.04 216.69C317.51 219.49 319.07 222.43 319.42 224.45C319.68 225.91 319.35 226.91 318.54 227.71C318.24 228 317.89 228.26 317.47 228.5C317.53 228.68 317.57 228.85 317.62 229.02C317.98 230.44 317.87 231.49 317.19 232.39C316.58 233.19 315.51 233.83 314.29 234.26C312.99 234.72 311.5 234.95 310.22 234.91C309.18 234.87 308.25 234.65 307.61 234.32C307.22 234.12 306.92 233.87 306.72 233.59C306.48 233.24 306.41 232.85 306.53 232.44C306.61 232.18 306.77 231.92 307.02 231.68C307.97 230.77 310.46 229.9 312.82 229.08C313.54 228.83 314.25 228.58 314.87 228.35C315.28 228.2 315.66 228.05 316.01 227.9C315.65 226.95 315.14 225.83 314.5 224.49L314.03 223.49C312.01 219.24 309.24 213.41 309.24 209.43C309.24 207.15 310.12 205.47 311.66 204.26C313.14 203.1 315.22 202.39 317.7 202C319.3 201.74 321.04 201.62 322.82 201.49C326.37 201.23 330.07 200.97 332.73 199.65C336.15 197.96 338.01 194.42 339.36 191.87C339.56 191.49 339.75 191.14 339.95 190.77C340.14 190.43 340.33 190.11 340.5 189.8C341.56 187.99 342.19 186.91 341.79 182.63C341.58 180.34 341.07 177.15 340.46 173.79C339.71 169.67 338.78 165.27 338 161.96C337.31 158.99 336.74 156.91 336.13 155.47C335.55 154.11 334.94 153.31 334.12 152.82C333.05 152.18 331.54 151.99 329.81 151.77C329.27 151.7 328.7 151.63 328.12 151.54C327.12 152.98 325.81 154.47 324.22 156.09C323.4 156.92 322.5 157.79 321.59 158.66C318.77 161.38 315.81 164.21 314.74 166.48C314.09 167.86 314.14 169.03 314.62 170.02C315.11 171.07 316.06 171.96 317.15 172.73C318.33 173.56 319.65 174.23 321.07 174.59C322.11 174.85 323.2 174.95 324.32 174.81C324.39 173.95 324.56 172.98 324.97 171.89C325.45 170.61 326.25 169.2 327.1 167.7C328.11 165.92 329.18 164.03 329.8 162.19C330.45 160.26 330.62 158.32 330.76 156.78C330.86 155.61 330.95 154.65 331.22 154C331.39 153.6 331.62 153.31 331.91 153.13C332.22 152.94 332.56 152.89 332.92 153C333.21 153.08 333.51 153.28 333.77 153.57C334.25 154.1 334.69 155.04 334.97 156.39C335.3 158.06 335.39 160.43 335.11 162.87C334.88 164.95 334.38 167.1 333.56 168.91C332.7 170.8 331.49 172.33 330.12 173.47C328.69 174.66 327.08 175.45 325.49 175.82C325.49 176.2 325.51 176.55 325.52 176.88C325.54 177.4 325.57 177.86 325.53 178.28C325.45 179.16 325.15 179.83 324.23 180.36C323.44 180.81 322.17 181.13 320.09 181.39L319.5 181.46C320.6 184.85 319.23 186.47 318.42 187.43C318.24 187.64 318.1 187.74 318.1 187.77C318.1 187.84 318.28 187.82 318.47 187.94C318.81 188.16 319.16 188.38 319.36 188.73C319.73 189.37 319.58 190.1 318.04 190.99C316.53 191.86 313.39 193.1 310.19 194.1C307.37 194.98 304.48 195.69 302.59 195.83C301.81 195.88 301.18 195.84 300.68 195.75C301.15 197.29 301.66 200.09 301.79 203.2C301.89 205.64 301.75 208.27 301.17 210.65C300.03 215.29 297.25 218.89 294.98 221.82C294.47 222.47 294 223.09 293.55 223.71C293.01 224.46 292.55 225.16 292.17 225.81C292.72 225.74 293.2 225.71 293.63 225.73C295 225.77 295.83 226.23 296.12 227.1C296.37 227.85 296.13 228.86 295.63 229.8C295.12 230.75 294.34 231.66 293.55 232.15C293.2 232.37 292.85 232.5 292.5 232.57C291.99 232.67 291.51 232.61 291.08 232.42C290.65 232.23 290.29 231.91 290.03 231.48C289.85 231.19 289.72 230.85 289.65 230.47C289.5 229.65 289.62 228.64 290.07 227.43C289.79 227.5 289.5 227.57 289.19 227.66C288.17 227.94 286.98 228.31 285.68 228.72C282.13 229.83 277.82 231.18 273.32 231.7C270.26 232.05 267.13 232.02 264.25 231.66C261.32 231.29 258.66 230.58 256.63 229.58C256.03 229.28 255.48 228.96 254.98 228.62L255.04 230.1C255.09 231.31 255.14 232.36 255.2 233.28C255.63 233.3 256.31 233.65 256.84 234.22C257.09 234.48 257.31 234.79 257.49 235.13L257.79 235.23C258.75 235.54 260.08 235.83 261.47 236.14C263.75 236.64 266.18 237.17 267.68 237.95C269.01 238.64 269.62 239.51 269.87 240.35C270.12 241.18 270.02 241.91 269.96 242.41C269.77 243.8 269.77 243.8 264.49 243.85H264.47C259.7 243.89 250.18 243.97 245.42 243.81C240.11 243.63 240.09 243.12 240.04 241.12V241.11C240.02 240.36 239.99 239.33 239.73 238.23C239.48 237.17 239.01 236.04 238.11 235.05C237.24 234.09 235.95 233.24 234.67 232.62C234.43 232.51 234.2 232.4 233.96 232.31C233.97 232.95 233.93 233.47 233.8 233.9C233.68 234.32 233.47 234.65 233.2 234.89C232.94 235.13 232.64 235.27 232.31 235.33C232 235.39 231.67 235.36 231.35 235.27C230.92 235.14 230.5 234.88 230.15 234.49C229.67 233.97 229.31 233.21 229.25 232.51C229.22 232.22 229.24 231.94 229.32 231.68C229.4 231.4 229.56 231.14 229.79 230.93C230.08 230.67 230.47 230.49 230.98 230.45C231.44 230.41 232.02 230.47 232.67 230.63L232.57 229.5C232.45 228.25 232.31 226.73 232.2 224.92C232.06 222.48 231.99 219.47 231.96 216.37C231.94 214.21 231.94 212 231.95 209.93C230.46 209.88 229.01 209.86 227.76 209.84C225.91 209.82 224.49 209.83 223.48 210.12C222.61 210.37 222.05 210.86 221.78 211.81C221.36 213.27 221.52 215.8 221.69 218.45C221.78 219.81 221.87 221.21 221.88 222.56C221.9 224.22 221.79 225.75 221.58 227.12C221.62 228.79 221.57 230.23 221.43 231.44C221.23 233.14 220.84 234.39 220.22 235.15C219.72 235.76 219.09 236.05 218.48 236.12C218.12 236.17 217.76 236.13 217.45 236.05C217.12 235.96 216.83 235.82 216.62 235.64C216.36 235.43 216.2 235.17 216.16 234.88C216.08 234.27 216.53 233.88 217.17 233.33C217.71 232.87 218.43 232.24 219 231.3C219.55 230.39 219.97 229.17 220.26 227.7C220.3 227.48 220.34 227.26 220.38 227.04C220.37 226.51 220.35 225.97 220.32 225.4C220.19 222.8 219.89 219.75 219.43 216.98C219.04 214.7 218.55 212.62 217.93 211.16C216.71 208.27 214.98 207.87 213.59 207.56L213.39 207.51C212.55 207.32 211.83 207.11 211.19 206.69C210.53 206.26 210.01 205.62 209.64 204.61C209.26 203.55 209.03 202.05 209.2 200.62C209.34 199.44 209.74 198.3 210.53 197.47C211.33 196.63 212.5 196.13 213.85 195.89C215.4 195.61 217.2 195.65 218.91 195.85C219.24 195.89 219.58 195.94 219.9 195.99C219.44 195.09 219.06 194.09 218.85 193.05C218.68 192.21 218.61 191.36 218.6 190.49C217.76 190.18 217.1 189.62 216.64 188.8C216.1 187.84 215.85 186.53 215.87 184.85C215.89 183.4 216.11 181.65 216.42 179.98C216.8 177.92 217.3 175.97 217.71 174.82C218.23 173.35 218.8 172.9 219.41 173.21C219.83 173.43 220.1 174.18 220.27 175.29C220.42 176.3 220.54 177.7 220.57 179.29C220.6 180.64 220.56 182.11 220.43 183.59C220.36 184.4 220.26 185.22 220.16 186.04C220.02 187.23 219.87 188.41 219.82 189.56C220.66 189.66 221.71 189.57 222.79 189.48C224.17 189.36 225.62 189.23 226.94 189.47C228.26 189.71 229.41 190.32 230.35 191.26C231.26 192.18 231.96 193.41 232.41 194.93C233.23 197.7 233.2 201.38 233.16 206.49L233.14 208.78C233.82 208.81 234.51 208.83 235.18 208.87C237.13 208.97 238.98 209.11 240.39 209.3L240.51 209.32C239.76 205.93 238.91 203.02 238.21 200.62C237.87 199.46 237.57 198.42 237.33 197.52C236.94 196.04 236.7 194.87 236.62 193.77C236.53 192.66 236.59 191.63 236.8 190.46C237.01 189.3 237.37 187.98 237.97 187.1C238.22 186.74 238.52 186.44 238.86 186.25C239.24 186.04 239.66 185.96 240.13 186.04C240.49 186.1 240.87 186.27 241.28 186.55C242.51 187.4 244.08 189.47 245.53 192.19C246.83 194.61 248.05 197.57 248.88 200.65C250.03 204.94 250.42 209.45 250.76 213.46C250.93 215.49 251.1 217.39 251.34 219.06C251.7 221.48 252.22 223.41 253.13 224.94C253.29 225.22 253.47 225.48 253.66 225.73C253.51 220.83 253.39 214.75 253.39 208.84C253.38 202.8 253.49 196.94 253.79 192.72C254.23 186.47 255.08 183.69 256.52 181.45C253.47 181.43 249.77 181.41 246.08 181.41C242.4 181.4 236.71 181.4 232.83 181.4C225 181.4 224.53 181.4 227.59 177.21C228.76 175.6 230.56 173.27 232.39 170.88C234.32 168.37 236.3 165.79 237.63 163.97L238.16 163.24C240.36 160.17 240.75 159.63 245.96 159.28C248.36 159.12 251.88 158.99 255.53 158.91C259.9 158.81 264.46 158.77 267.48 158.8C268.79 158.81 269.83 158.83 270.64 158.92C270.3 158.37 269.63 158.07 268.59 157.78C267.36 157.43 265.67 157.12 263.69 156.87C261.63 156.6 259.27 156.39 256.8 156.25C255.28 156.16 253.76 156.1 252.24 156.04C248.74 155.9 245.21 155.77 242.03 155.32C240.12 155.05 238.32 154.67 236.71 154.18C234.51 156.12 231.49 157.06 227.91 158.18L226.61 158.59C224.33 159.31 221.87 160.14 219.84 161.02C217.87 161.87 216.3 162.76 215.73 163.59C215.67 163.67 215.63 163.76 215.59 163.84C215.45 164.18 215.52 164.53 215.73 164.87C216 165.31 216.49 165.75 217.11 166.17C217.29 166.29 217.48 166.41 217.68 166.53L217.86 166.51C220.48 166.28 223.23 165.91 225.35 165.61L227.24 165.34C230.43 164.88 231.81 164.69 232.18 165.29C232.52 165.84 232.08 166.32 231.51 166.94C231.16 167.32 230.74 167.77 230.53 168.2C230.41 168.44 230.34 168.71 230.27 168.97C230.02 169.91 229.81 170.7 228.25 170.85C227.37 170.94 225.99 170.77 224.43 170.4C222.94 170.05 221.27 169.51 219.68 168.85C218.89 168.52 218.11 168.15 217.41 167.76C214.97 167.96 212.7 168.02 211.25 167.77C209.32 167.44 208.63 166.57 208.9 165.31C209.11 164.3 210.1 163.06 211.63 161.66C213.24 160.18 215.45 158.52 217.52 156.95C218.76 156.02 219.94 155.12 220.91 154.34C220.06 153.83 219.18 153.11 218.31 152.4C217.94 152.09 217.56 151.79 217.19 151.5C216.47 150.95 215.8 150.49 214.99 150.47C214.37 150.45 213.62 150.68 212.64 151.27C212.32 152.53 211.75 154.24 210.98 156.11C210.29 157.79 209.44 159.59 208.48 161.32C207.38 163.29 206.12 165.17 204.81 166.72C203.59 168.17 202.31 169.34 201.06 170.07C199.87 170.76 198.7 171.05 197.7 171.07C196.37 171.1 195.3 170.64 194.84 170.04C194.33 169.38 194.43 168.67 195.19 167.55C195.8 166.65 196.88 165.43 198.51 163.6C200.13 161.78 202.3 159.36 204.51 157.03C206.72 154.71 208.97 152.5 210.72 151.16C211.03 150.92 211.32 150.72 211.6 150.53C211.8 149.65 211.83 149.12 211.69 148.8C211.57 148.54 211.24 148.39 210.7 148.25C210.01 148.08 209.07 147.95 207.68 147.88C206.25 147.8 204.39 147.77 201.89 147.79C200.18 147.8 198.17 147.84 196.08 147.91C195.97 149.21 195.86 150.5 195.75 151.68L195.46 154.97C195.18 158.27 195.08 159.55 194.03 161.8C193.42 163.12 192.47 164.76 191.44 166.26C190.54 167.57 189.56 168.78 188.65 169.59C187.57 170.56 186.56 170.99 185.38 170.77C184.28 170.57 183.1 169.77 181.59 168.29C180.02 166.75 178.07 164.42 176.23 161.78C174.69 159.56 173.22 157.11 172.14 154.7C170.96 152.07 170.24 149.5 169.89 147.01C169.81 146.43 169.75 145.86 169.71 145.29C169.07 145.2 168.48 145.11 167.94 145.04C166.27 144.84 165.11 144.81 164.44 145.31C163.77 145.8 163.46 146.89 163.4 148.94C163.36 150.55 163.49 152.72 163.63 155.18C163.89 159.54 164.2 164.8 163.71 169.59C163.22 174.42 161.92 178.72 160.84 182.3C160.24 184.29 159.71 186.06 159.43 187.52C159.05 189.49 159.12 190.96 159.67 192.09C160.21 193.21 161.24 194.04 162.81 194.74C164.61 195.54 167.11 196.18 169.43 196.76C170.92 197.14 172.33 197.49 173.46 197.87C174.92 197.96 176.25 198.07 177.43 198.23C179.53 198.51 181.16 198.94 182.17 199.69C184.17 201.17 183.73 203.49 182.6 209.49L182.32 210.96C181.68 214.37 180.88 218.86 180.22 223.42C179.56 227.96 179.04 232.54 178.96 236.1C178.88 239.61 179.22 242.12 180.03 243.88C180.09 244.02 180.16 244.15 180.23 244.28C180.87 244.04 181.46 243.81 181.99 243.59C183.2 243.11 184.19 242.72 185.16 242.46C187.88 241.74 190.36 242.08 192.04 242.85C192.65 243.13 193.16 243.46 193.54 243.82C193.96 244.21 194.25 244.65 194.37 245.09C194.48 245.49 194.45 245.89 194.28 246.26C193.79 247.34 191.94 248.15 189.73 248.49C187.66 248.81 185.23 248.76 183.32 248.18C181.81 247.72 180.62 246.94 179.74 245.73C173.91 247.85 163.33 250.72 138.32 251.84C107.76 253.2 55.56 251.92 0.1 250.25V249.04H0ZM182.34 244.69C181.87 244.88 181.37 245.08 180.82 245.29C181.53 246.13 182.44 246.69 183.57 247.03C185.31 247.56 187.54 247.6 189.45 247.3C191.29 247.01 192.77 246.45 193.09 245.76C193.14 245.65 193.15 245.52 193.11 245.39C193.05 245.17 192.88 244.93 192.63 244.69C192.34 244.42 191.94 244.16 191.45 243.94C189.98 243.27 187.79 242.97 185.37 243.62C184.46 243.85 183.51 244.22 182.34 244.69ZM173.13 199.04C172.15 198.98 171.1 198.93 170.01 198.87C167.24 198.73 164.17 198.58 161.4 198.46C158.61 198.34 156.09 198.25 154.43 198.23C153.07 198.21 152.39 198.24 152.25 198.8C152.03 199.68 152.36 201.57 153.03 205.24L153.18 206.08C153.88 209.93 154.85 215.33 155.69 220.65C155.79 218.7 155.8 216.71 155.81 214.82C155.83 211.42 155.84 208.27 156.34 206.06C156.78 204.12 157.58 202.87 158.75 202.08C159.9 201.3 161.35 201 163.14 200.91C164.69 200.84 166.48 200.93 168.22 201.02C170.29 201.13 172.3 201.23 173.65 201.04C174.38 200.94 174.9 200.76 175.17 200.53C175.25 200.47 175.29 200.41 175.3 200.37C175.31 200.33 175.28 200.27 175.23 200.2C175.05 199.94 174.62 199.64 173.93 199.35C173.68 199.24 173.42 199.14 173.13 199.04ZM156.16 234.93C156.11 233.47 155.96 231.69 155.74 229.73C155.26 232.06 154.7 234.08 154.16 235.63C153.46 237.65 152.82 238.85 152.39 239.63C152.17 240.04 152.02 240.32 151.98 240.49C151.97 240.52 152 240.55 152.05 240.58C152.3 240.72 152.77 240.84 153.43 240.96C154 241.07 154.73 241.19 155.22 240.65C155.84 239.97 156.28 238.37 156.16 234.93ZM170.76 144.24C174.12 144.75 178.17 145.36 180.78 144.74C182.25 144.39 183.27 143.63 183.92 142.64C184.69 141.47 184.98 139.94 184.92 138.34C184.86 136.81 184.48 135.21 183.86 133.76C183.25 132.34 182.42 131.07 181.43 130.16C180.43 129.24 179.28 128.68 178.13 128.59C177.09 128.51 176.03 128.82 175.1 129.62C174.1 130.47 173.23 131.87 172.53 133.59C171.78 135.43 171.23 137.63 170.95 139.92C170.78 141.32 170.71 142.76 170.76 144.24ZM194.44 151.81L194.46 151.54C194.56 150.4 194.67 149.17 194.78 147.92L194.42 147.94L194.43 149C194.44 149.95 194.45 150.9 194.44 151.81ZM194.89 146.72C195.11 143.86 195.27 141.1 195.17 139.52C195.15 139.24 195.13 139.01 195.1 138.82C194.92 139.32 194.76 140.08 194.64 141.06C194.46 142.59 194.43 144.6 194.43 146.73L194.89 146.72ZM193.24 149L193.23 147.99L191.81 148.07C189.17 148.22 186.66 148.44 184.73 148.75C182.57 149.09 181.16 149.54 180.35 150.14C179.65 150.65 179.42 151.3 179.52 152.14C179.63 153.12 180.15 154.33 180.94 155.55C181.73 156.77 182.79 157.99 183.99 158.98C185.21 159.99 186.58 160.76 187.86 161.19C189.04 161.59 190.13 161.69 190.93 161.4C191.68 161.13 192.2 160.46 192.55 159.41C192.95 158.24 193.14 156.62 193.21 154.58C193.26 152.9 193.25 150.96 193.24 149ZM209.8 155.62C210.29 154.44 210.69 153.33 211 152.36C209.36 153.68 207.32 155.69 205.3 157.81C203.12 160.1 200.95 162.53 199.33 164.35C197.72 166.16 196.66 167.36 196.1 168.18C195.69 168.78 195.58 169.1 195.72 169.27C195.97 169.6 196.67 169.86 197.6 169.83C198.41 169.81 199.38 169.57 200.38 168.99C201.5 168.34 202.68 167.25 203.82 165.9C205.08 164.41 206.3 162.6 207.36 160.69C208.3 159.02 209.13 157.25 209.8 155.62ZM223.25 153.79C223.43 153.76 223.6 153.71 223.75 153.63C224.17 153.42 224.47 153.06 224.6 152.68C224.62 152.63 224.63 152.57 224.64 152.51C224.66 152.39 224.67 152.28 224.67 152.16C224.38 152.59 223.94 153.13 223.25 153.79ZM225.44 166.79C223.75 167.03 221.68 167.31 219.61 167.53L220.07 167.73C221.59 168.37 223.21 168.88 224.64 169.22C226.08 169.56 227.32 169.72 228.07 169.65C228.8 169.58 228.91 169.15 229.05 168.65C229.13 168.34 229.22 168.01 229.4 167.65C229.69 167.06 230.17 166.54 230.57 166.11C230.79 165.87 231.24 166.13 231.1 165.91C231.06 165.85 229.99 166.14 227.34 166.52L225.44 166.79ZM236.32 152.81C236.41 152.72 236.5 152.62 236.58 152.52C237.66 151.29 238.44 149.67 238.86 148.02C239.31 146.28 239.37 144.52 239.01 143.15C238.69 141.95 238.02 141.06 237.2 140.5C236.29 139.89 235.19 139.66 234.12 139.82C233.09 139.98 232.08 140.51 231.25 141.26C230.41 142.02 229.75 143.01 229.44 144.08C229.13 145.14 229.16 146.28 229.55 147.38C229.93 148.45 230.64 149.48 231.69 150.37C232.76 151.28 234.19 152.04 235.89 152.65L236.32 152.81ZM270.76 162.48C270.89 161.5 270.94 160.73 270.89 160.14C270.18 160.03 269.03 160.01 267.39 160C264.38 159.98 259.84 160.02 255.47 160.11C251.87 160.19 248.38 160.31 245.96 160.48C241.31 160.79 240.97 161.27 239.05 163.94L238.52 164.67C237.22 166.46 235.21 169.07 233.26 171.61C231.41 174.02 229.6 176.37 228.48 177.91C226.81 180.2 227.15 180.2 232.76 180.2C235.6 180.2 239.79 180.2 246.01 180.21C250.05 180.22 254.1 180.23 257.3 180.26C257.75 179.68 258.24 179.11 258.79 178.47L259.62 177.49C261.22 175.58 263.23 173 265.15 170.43C267.24 167.62 269.23 164.83 270.46 162.95L270.76 162.48ZM269.3 169.92C269.67 168.34 270.01 166.76 270.29 165.34C269.12 167.03 267.65 169.08 266.11 171.15C264.19 173.72 262.17 176.32 260.54 178.27C260.17 178.71 259.93 178.99 259.7 179.26C259.39 179.62 259.1 179.96 258.83 180.29L260.15 180.31C265.78 180.38 266.3 180.39 267.28 177.43C267.87 175.59 268.63 172.77 269.3 169.92ZM253.76 230.14C253.73 229.35 253.69 228.5 253.66 227.6C253.02 226.99 252.49 226.3 252.04 225.54C251.05 223.85 250.47 221.79 250.1 219.23C249.85 217.52 249.68 215.61 249.51 213.56C249.17 209.6 248.79 205.14 247.66 200.96C246.86 197.96 245.67 195.1 244.42 192.75C243.05 190.19 241.62 188.28 240.54 187.53C240.28 187.35 240.06 187.25 239.86 187.22C239.67 187.19 239.51 187.22 239.37 187.29C239.2 187.38 239.04 187.55 238.89 187.77C238.4 188.48 238.1 189.63 237.91 190.66C237.72 191.73 237.66 192.66 237.74 193.67C237.82 194.69 238.05 195.8 238.42 197.2C238.66 198.12 238.96 199.14 239.29 200.27C240.02 202.77 240.9 205.81 241.67 209.31L241.72 209.53C242.72 209.76 243.46 210.08 244.04 210.63C244.86 211.41 245.26 212.58 245.52 214.48C245.72 215.96 245.84 217.92 245.96 219.97C246.11 222.5 246.27 225.18 246.61 227.25C246.88 227.63 247.16 227.97 247.44 228.26C248.28 229.14 249.16 229.68 249.98 230.09C250.61 230.4 251.19 230.64 251.69 230.83C252.8 231.28 253.56 231.58 253.56 232.31C253.56 232.35 253.56 232.4 253.55 232.44C253.49 232.86 253.06 233.29 252.44 233.58C251.93 233.81 251.25 233.98 250.54 233.98C250.32 233.98 250.1 233.96 249.87 233.93C248.98 233.79 248.1 233.38 247.32 232.45C246.6 231.58 245.98 230.25 245.58 228.27L245.47 227.71C244.93 226.9 244.42 225.93 243.96 224.73C242.94 222.03 242.2 218.21 241.46 214.39C241.21 213.1 240.96 211.81 240.7 210.55L240.16 210.47C238.77 210.28 236.96 210.15 235.04 210.05C234.39 210.02 233.72 209.99 233.06 209.96C233.05 212.02 233.05 214.21 233.07 216.35C233.1 219.41 233.17 222.4 233.31 224.84C233.41 226.65 233.56 228.14 233.67 229.37C233.73 229.97 233.78 230.5 233.82 230.99C234.24 231.14 234.68 231.33 235.11 231.53C236.52 232.2 237.94 233.15 238.92 234.23C239.98 235.4 240.53 236.71 240.82 237.94C241.1 239.13 241.13 240.25 241.15 241.05V241.06C241.18 242.16 241.19 242.45 245.37 242.59C250.12 242.75 259.6 242.67 264.36 242.63H264.38C268.62 242.59 268.62 242.59 268.67 242.23C268.72 241.84 268.8 241.26 268.63 240.69C268.46 240.12 268.02 239.52 267.03 239.01C265.67 238.31 263.31 237.79 261.11 237.31C259.87 237.04 258.68 236.78 257.7 236.49C257.69 236.95 257.59 237.42 257.43 237.85C257.15 238.61 256.67 239.28 256.25 239.65C255.5 240.31 254.86 240.54 254.42 238.49C254.19 237.28 253.96 234.84 253.76 230.14ZM255.26 235.41C255.37 236.76 255.49 237.66 255.61 238.24C255.67 238.53 255.37 238.85 255.48 238.75C255.77 238.49 256.11 238 256.32 237.43C256.48 237 256.57 236.53 256.48 236.11L256.47 236.05C255.97 235.84 255.57 235.62 255.26 235.41ZM232.68 231.87C232.02 231.68 231.43 231.59 231.01 231.63C230.78 231.65 230.62 231.71 230.52 231.8C230.46 231.86 230.42 231.93 230.39 232.01C230.36 232.12 230.35 232.25 230.36 232.39C230.4 232.83 230.64 233.32 230.95 233.67C231.15 233.89 231.39 234.04 231.62 234.11C231.76 234.15 231.9 234.17 232.02 234.14C232.13 234.12 232.23 234.07 232.32 233.99C232.43 233.89 232.52 233.74 232.58 233.53C232.7 233.16 232.72 232.61 232.68 231.87ZM231.87 208.72L231.89 206.46C231.93 201.46 231.96 197.85 231.19 195.24C230.8 193.92 230.2 192.86 229.43 192.08C228.67 191.31 227.74 190.82 226.66 190.62C225.51 190.41 224.14 190.53 222.83 190.64C221.73 190.74 220.67 190.83 219.74 190.73C219.76 191.44 219.82 192.12 219.96 192.78C220.22 194.05 220.75 195.24 221.38 196.25C222 196.39 222.58 196.54 223.11 196.7C224.38 197.1 225.38 197.59 225.85 198.08C226.17 198.42 226.3 198.78 226.26 199.12C226.23 199.39 226.12 199.63 225.92 199.82C225.75 199.98 225.53 200.1 225.28 200.17C224.74 200.31 223.98 200.23 223.16 199.77C222.34 199.31 221.43 198.43 220.66 197.31C220.04 197.19 219.38 197.08 218.71 197C217.1 196.81 215.42 196.77 214 197.03C212.89 197.23 211.94 197.62 211.33 198.26C210.74 198.88 210.43 199.78 210.32 200.72C210.18 201.96 210.37 203.26 210.7 204.16C210.97 204.9 211.33 205.35 211.78 205.65C212.25 205.96 212.87 206.13 213.59 206.3L213.79 206.35C215.45 206.73 217.51 207.2 218.96 210.66C219.47 211.86 219.9 213.44 220.25 215.18C220.22 213.72 220.27 212.42 220.56 211.45C220.97 210.04 221.79 209.31 223.08 208.94C224.23 208.61 225.75 208.6 227.7 208.62C228.94 208.65 230.39 208.68 231.87 208.72ZM217.62 188.2C217.86 188.62 218.17 188.95 218.57 189.17C218.63 188.08 218.77 186.98 218.9 185.87C219 185.07 219.09 184.27 219.17 183.46C219.3 182 219.33 180.57 219.31 179.29C219.28 177.77 219.17 176.43 219.02 175.44C218.91 174.72 218.83 174.27 218.81 174.25C218.64 174.17 218.98 174.62 218.78 175.19C218.39 176.29 217.9 178.18 217.54 180.17C217.24 181.78 217.03 183.46 217.01 184.84C216.98 186.31 217.18 187.42 217.62 188.2ZM222.57 197.81C222.97 198.22 223.36 198.54 223.74 198.75C224.25 199.04 224.69 199.1 224.97 199.03L225.05 199L224.98 198.92C224.65 198.58 223.84 198.2 222.75 197.86L222.57 197.81ZM219.22 234.38C219.65 233.86 219.94 232.92 220.12 231.62L219.95 231.91C219.28 233.01 218.48 233.71 217.88 234.23C217.59 234.48 217.37 234.65 217.3 234.71C217.39 234.78 217.52 234.84 217.68 234.89C217.85 234.94 218.06 234.95 218.26 234.93C218.59 234.87 218.94 234.72 219.22 234.38ZM217.28 234.73L217.29 234.71L217.28 234.73ZM243.2 211.49C242.9 211.2 242.5 210.99 241.99 210.83C242.21 211.91 242.43 213.04 242.64 214.16C243.36 217.88 244.08 221.61 245.05 224.21C244.93 222.85 244.85 221.42 244.76 220.03C244.64 218 244.52 216.07 244.33 214.63C244.11 213.02 243.79 212.06 243.2 211.49ZM247.17 229.67C247.47 230.56 247.83 231.22 248.23 231.69C248.78 232.36 249.41 232.66 250.04 232.75C250.2 232.77 250.37 232.79 250.53 232.79C251.07 232.79 251.57 232.67 251.93 232.5C252.14 232.41 252.28 232.33 252.33 232.29C252.24 232.23 251.82 232.18 251.23 231.94C250.7 231.73 250.08 231.48 249.43 231.16C248.71 230.8 247.94 230.34 247.17 229.67ZM293.53 226.92C292.96 226.9 292.26 226.97 291.42 227.12C291.34 227.28 291.28 227.44 291.21 227.6C290.76 228.71 290.62 229.59 290.75 230.25C290.79 230.48 290.87 230.69 290.97 230.85C291.1 231.07 291.28 231.23 291.49 231.32C291.7 231.41 291.94 231.44 292.2 231.39C292.41 231.35 292.62 231.27 292.84 231.13C293.45 230.75 294.08 230.01 294.49 229.23C294.85 228.55 295.04 227.88 294.91 227.46C294.8 227.13 294.34 226.94 293.53 226.92ZM317.73 180.42C316.85 178.53 315.4 176.24 313.8 173.96C311.8 171.1 309.53 168.22 307.89 166.13C306.27 164.07 305.26 162.81 304.4 162.01C303.6 161.27 302.91 160.94 301.9 160.7C300.81 160.45 299.37 160.3 297.54 160.22C295.68 160.14 293.44 160.12 290.8 160.12C288.16 160.12 285.11 160.15 282.4 160.25C279.74 160.35 277.44 160.53 276.26 160.84C275.79 160.96 275.61 161.05 275.64 161.15C275.74 161.52 276.26 162.18 277.02 163.12C277.63 163.88 278.38 164.82 279.2 165.98C280.02 167.14 280.9 168.52 281.84 169.98C284.31 173.84 287.14 178.26 289.95 180.44C293.17 182.95 296.52 182.49 300.86 181.89C301.6 181.79 302.37 181.68 303.07 181.6C306.13 181.23 309.67 180.99 312.91 180.77C314.66 180.65 316.3 180.54 317.73 180.42ZM326.04 172.33C325.73 173.15 325.57 173.9 325.5 174.59C326.8 174.23 328.12 173.56 329.3 172.57C330.54 171.53 331.64 170.15 332.42 168.43C333.18 166.74 333.65 164.72 333.87 162.75C334.13 160.44 334.05 158.2 333.74 156.63C333.52 155.5 333.18 154.77 332.83 154.38C332.72 154.25 332.62 154.18 332.54 154.16C332.52 154.15 332.5 154.15 332.49 154.16C332.42 154.2 332.35 154.3 332.29 154.46C332.09 154.94 332.02 155.82 331.92 156.89C331.78 158.49 331.6 160.5 330.9 162.58C330.24 164.53 329.14 166.48 328.1 168.3C327.27 169.76 326.49 171.13 326.04 172.33ZM327.52 150.24C328.37 148.9 328.92 147.62 329.13 146.34C329.35 145.02 329.21 143.68 328.81 142.46C328.38 141.17 327.66 140 326.74 139.1C325.82 138.2 324.71 137.57 323.61 137.38C322.66 137.21 321.72 137.38 320.93 137.99C320.02 138.7 319.29 139.98 318.93 141.41C318.6 142.74 318.61 144.18 319.11 145.36C319.58 146.47 320.51 147.38 321.65 148.11C323.09 149.03 324.87 149.66 326.57 150.05C326.89 150.12 327.21 150.19 327.52 150.24ZM316.43 229.32L316.36 229.04C316.02 229.19 315.65 229.33 315.25 229.48C314.6 229.72 313.89 229.97 313.18 230.22C310.95 231 308.58 231.82 307.82 232.55C307.72 232.65 307.66 232.73 307.64 232.79C307.63 232.83 307.64 232.87 307.67 232.92C307.75 233.04 307.9 233.15 308.11 233.26C308.61 233.52 309.35 233.69 310.21 233.72C311.35 233.76 312.69 233.55 313.85 233.14C314.86 232.78 315.73 232.28 316.19 231.68C316.64 231.1 316.69 230.36 316.43 229.32ZM338.46 205.76C339.13 205.47 339.66 205.06 340.07 204.6C340.91 203.67 341.23 202.53 341.12 201.71C341.07 201.35 340.93 201.07 340.74 200.89C340.63 200.79 340.51 200.73 340.38 200.71C340.25 200.69 340.11 200.72 339.97 200.79C339.7 200.94 339.41 201.26 339.17 201.79C338.78 202.68 338.53 204.06 338.46 205.76ZM343.06 229.21C342.93 228.66 342.76 228.06 342.56 227.43C341.78 228.3 341.08 229.12 340.57 229.83C339.82 230.88 339.48 231.67 339.42 232.29C339.36 232.83 339.53 233.24 339.8 233.59C340.11 233.98 340.54 234.29 341 234.43C341.39 234.55 341.81 234.55 342.2 234.37C342.67 234.15 343.11 233.66 343.3 232.74C343.46 231.92 343.42 230.77 343.06 229.21ZM381.05 193.02L381.43 192.34L380.91 191.75C377.96 188.42 373.66 183.91 369.09 179.26C367.63 177.78 366.15 176.28 364.67 174.81L364.28 175.24C360.25 179.74 356.41 184.53 353.66 188.79C351.03 192.87 349.41 196.47 348.53 199.47C347.47 203.08 347.48 205.81 348.08 207.46C348.27 207.98 348.51 208.38 348.8 208.66C349.11 208.96 349.49 209.11 349.91 209.09C350.38 209.07 350.92 208.85 351.51 208.41C352.44 207.72 353.46 206.52 354.47 204.76C356.59 201.1 358.68 195.07 360.45 189.97C361.27 187.61 362.02 185.45 362.67 183.8C363.79 180.97 364.7 179.53 365.99 179.29C367.27 179.05 368.68 180.07 370.8 182.15C372.58 183.89 374.96 186.47 377.34 189.04C378.62 190.42 379.88 191.78 381.05 193.02ZM382.05 191.23C383.95 187.81 385.86 184.27 387.51 180.88C389.63 176.54 391.36 172.43 392.22 169.09C392.98 166.12 393.03 163.78 392.63 161.97C392.16 159.86 391.08 158.46 389.8 157.62C388.66 156.87 387.36 156.57 385.53 157.13C383.57 157.72 381.04 159.26 377.55 162.18C374.09 165.07 369.73 169.3 365.48 173.93C366.97 175.42 368.47 176.93 369.95 178.43C374.52 183.08 378.84 187.6 381.81 190.96L382.05 191.23ZM382.26 193.3L381.91 193.92C383.06 195.12 384.1 196.16 384.92 196.91C385.1 197.07 385.27 197.22 385.43 197.36C384.81 196.42 383.77 195.08 382.26 193.3ZM385.18 155.98C385.79 155.8 386.35 155.69 386.87 155.65C386.6 155.28 386.38 154.87 386.23 154.46C385.8 153.31 385.79 152.05 386.19 151.28C386.64 150.4 387.47 150.06 388.93 150.66C390.04 151.12 391.61 152.21 393.84 154.2L393.9 154.07C394.32 153.09 394.25 151.72 393.68 149.95C393.08 148.08 391.92 145.78 390.18 143.03C389.88 142.55 389.57 142.08 389.26 141.6C387.61 142.66 385.86 143.39 384.01 143.78C381.45 144.32 378.72 144.19 376.14 143.78C373.58 143.37 371.19 142.67 369.3 142.04C368.8 141.88 368.35 141.72 367.92 141.57C365.17 140.63 363.5 140.06 361.06 140.99C359.64 141.53 357.94 142.56 356.22 143.83C354.36 145.21 352.49 146.87 350.92 148.52C349.53 149.98 348.38 151.43 347.37 152.71C346.67 153.6 346.03 154.41 345.41 155.09L345.55 155.2C347.63 156.83 350.47 159.37 354.5 163.2C357.43 165.98 360.98 169.45 364.64 173.08C368.92 168.42 373.31 164.16 376.79 161.25C380.4 158.22 383.07 156.61 385.18 155.98ZM343.58 155.24C342.31 154.34 341.44 153.93 340.79 153.83C340.43 153.78 340.16 153.83 339.96 153.94C339.84 154.02 339.74 154.12 339.67 154.24C339.59 154.37 339.54 154.52 339.52 154.69C339.47 155.03 339.53 155.4 339.71 155.69L339.79 155.8C340.03 156.11 340.42 156.32 340.91 156.36C341.45 156.41 342.11 156.25 342.79 155.84C342.93 155.75 343.08 155.65 343.24 155.53C343.35 155.43 343.46 155.34 343.58 155.24ZM389.58 139.92C389.84 139.72 390.11 139.51 390.37 139.29C392.42 137.56 394.27 135.22 395.91 132.3C397.72 129.07 399.27 125.14 399.69 121.94C400.01 119.49 399.68 117.5 398.3 116.69C398.13 116.59 397.95 116.51 397.75 116.44C396.06 115.87 393.4 116.34 390.83 117.5C388.23 118.67 385.75 120.55 384.45 122.78C384.2 123.21 383.99 123.65 383.84 124.1C382.26 128.77 386.23 134.81 389.57 139.89L389.58 139.92ZM391.65 155.94C392.19 155.78 392.69 155.51 393.1 155.15C390.95 153.22 389.47 152.18 388.47 151.76C387.76 151.46 387.4 151.54 387.26 151.82C387.01 152.31 387.04 153.18 387.36 154.03C387.63 154.75 388.11 155.42 388.81 155.78L388.99 155.86C389.74 156.2 390.73 156.22 391.65 155.94ZM416.75 171.06C417.04 170.67 417.26 170.15 417.41 169.52C417.76 168.11 417.8 166.22 417.57 164.13C417.33 161.9 416.8 159.46 416.06 157.13C415.32 154.81 414.37 152.59 413.27 150.65C412.22 148.79 411.03 147.18 409.77 145.98C408.51 144.78 407.19 143.99 405.83 143.52C404.47 143.05 403.06 142.89 401.65 142.94C400.22 143 398.76 143.29 397.7 143.49C397.11 143.61 396.63 143.7 396.27 143.71C396.68 144.38 397.3 145.14 398.1 146.01C399.24 147.24 400.74 148.67 402.55 150.34L403.61 151.32C407.11 154.54 411.38 158.46 413.92 162.21C415.35 164.32 416.23 166.38 416.58 168.79C416.69 169.52 416.75 170.27 416.75 171.06ZM395.74 142.44C396.14 142.07 397.01 141.49 398.19 140.8C399.7 139.91 401.78 138.76 404.08 137.55C406.53 136.26 409.23 134.89 411.72 133.63C413.74 132.61 415.62 131.65 417.04 130.91C418.69 130.05 419.88 129.38 420.7 128.72C421.45 128.11 421.89 127.48 422.1 126.66C422.33 125.76 422.3 124.61 422.02 123.49C421.76 122.45 421.3 121.44 420.63 120.68C419.97 119.94 419.11 119.44 418.24 119.19C417.33 118.93 416.41 118.94 415.72 119.24C415.11 119.5 414.65 119.99 414.35 120.56C414 121.23 413.87 122 413.96 122.65C414.03 123.19 414.27 123.64 414.57 124C414.93 124.42 415.37 124.7 415.76 124.8C416.3 124.94 416.81 124.71 417.21 124.53C417.32 124.48 417.43 124.43 417.56 124.38C417.78 124.3 417.98 124.25 418.16 124.24C418.39 124.23 418.59 124.28 418.76 124.4C418.95 124.54 419.07 124.74 419.11 125C419.13 125.14 419.12 125.31 419.08 125.5C419 125.87 418.79 126.37 418.06 127.1C417.41 127.75 416.29 128.63 414.37 129.84C412.44 131.05 409.73 132.58 407 134.11C404.33 135.61 401.65 137.12 399.73 138.32C397.83 139.5 396.68 140.37 396.12 141.13C395.77 141.56 395.67 141.98 395.74 142.44ZM382.46 210.72C382.63 208.67 383.48 206.97 385.13 205.72C380.69 206.13 378.08 206.64 375.74 208.73C373.13 211.05 370.71 215.36 368.47 219.34C367.71 220.69 366.98 222 366.21 223.26C364.86 225.49 363.58 227.27 362.52 228.74L361.85 229.67C362.1 229.77 362.34 229.89 362.58 230C364.3 230.85 365.51 231.98 365.81 233.03C365.87 233.25 365.9 233.48 365.89 233.7C365.86 234.4 365.47 235.01 364.89 235.5C364.37 235.94 363.69 236.27 362.99 236.47C362.45 236.63 361.88 236.7 361.37 236.68C360.99 236.66 360.63 236.59 360.31 236.47C359.75 236.26 359.31 235.9 359.01 235.42C358.72 234.95 358.57 234.38 358.6 233.72C358.62 233.27 358.72 232.79 358.92 232.27C359.15 231.66 359.52 231.01 359.99 230.29C359.11 230.04 358.15 229.87 357.15 229.81C356.76 229.79 356.38 229.79 356 229.8C354.28 229.86 352.55 230.23 351.25 230.85C350.07 231.41 349.27 232.14 349.22 232.97V233.09C349.25 234.05 350.22 235.24 351.66 236.44C353.42 237.89 355.87 239.31 358.3 240.35C360.56 241.32 362.79 241.97 364.99 242.36C367.14 242.74 369.27 242.88 371.37 242.85C371.63 242.6 371.92 242.35 372.22 242.1C373.81 240.81 375.91 239.7 377.95 238.88C380.38 237.9 382.75 237.32 384.12 237.32C384.79 237.32 385.27 237.46 385.59 237.69C385.92 237.93 386.08 238.26 386.09 238.65C386.09 238.96 385.99 239.29 385.78 239.63C385.35 240.31 384.44 241.09 383.19 241.73C381.84 242.43 380.08 242.98 378.1 243.37C376.18 243.75 374.04 243.98 371.87 244.03L371.79 244.11C370.74 245.22 370.08 246.39 369.79 247.41C369.53 248.33 369.58 249.09 369.94 249.54C369.97 249.57 370 249.61 370.03 249.64C370.55 250.13 371.64 250.17 373.18 249.86C374.87 249.52 377.06 248.75 379.63 247.68C382.2 246.61 385.14 245.25 387.49 243.51C389.78 241.82 391.52 239.77 391.82 237.28C392.26 233.63 389.64 228.85 387.14 224.28C386.12 222.42 385.12 220.59 384.35 218.88C382.97 215.79 382.27 213.03 382.46 210.72ZM378.4 239.98C376.59 240.71 374.75 241.66 373.3 242.76C374.89 242.66 376.45 242.46 377.88 242.18C379.75 241.81 381.4 241.3 382.65 240.65C383.7 240.11 384.45 239.49 384.77 238.98C384.86 238.84 384.9 238.73 384.9 238.65L384.89 238.64C384.77 238.55 384.52 238.5 384.12 238.5C382.88 238.52 380.68 239.06 378.4 239.98ZM362.06 231.08C361.78 230.94 361.48 230.81 361.16 230.68C360.65 231.44 360.26 232.1 360.04 232.69C359.89 233.08 359.81 233.44 359.8 233.76C359.78 234.16 359.87 234.51 360.03 234.77C360.19 235.03 360.43 235.22 360.74 235.34C360.94 235.42 361.17 235.46 361.43 235.48C361.81 235.5 362.24 235.44 362.67 235.31C363.22 235.15 363.74 234.9 364.13 234.57C364.46 234.29 364.68 233.97 364.7 233.64C364.7 233.55 364.69 233.46 364.66 233.35C364.46 232.63 363.48 231.78 362.06 231.08ZM417.8 235.86C417.81 236.12 417.82 236.38 417.83 236.63C418.01 239.52 418.75 241.8 419.38 243.2C419.87 244.29 420.24 244.77 420.56 244.91C420.75 244.99 421 244.85 421.29 244.65C421.64 244.39 422.01 244.05 422.15 243.54C422.3 242.99 422.22 242.21 421.66 241.09C421.06 239.9 419.95 238.37 418.79 237C418.46 236.58 418.13 236.21 417.8 235.86Z" fill="black"/>
</svg>
