<svg width="70" height="69" viewBox="0 0 70 69" fill="none" xmlns="http://www.w3.org/2000/svg">
<path d="M35.5843 1.00682C35.2065 0.67873 34.6444 0.680327 34.2685 1.01066L32.1841 2.84239C32.1678 2.85672 32.152 2.87156 32.1368 2.88676C31.8299 3.1937 31.7545 3.6671 31.9577 4.0563L32.9446 5.9466L32.4763 24.3015C30.6841 24.5776 28.5159 25.2259 27.0264 26.7152C26.6478 27.0937 26.3263 27.5148 26.0709 27.9666C24.9224 29.9977 25.1803 32.9959 25.3686 35.185L25.3864 35.3932C25.5114 36.8579 25.2985 37.4107 25.2606 37.4954C25.0502 37.7943 25.0184 38.1879 25.185 38.5196C25.3675 38.8828 25.7516 39.0994 26.1568 39.0677C26.5424 39.0401 27.2568 39.1008 27.555 39.3191C28.1589 39.7611 28.3071 40.7581 28.008 42.3673C27.8902 43.001 27.423 44.0431 26.9407 44.5253C26.8065 44.6596 26.7158 44.7042 26.6922 44.7101C26.2644 44.765 25.7093 44.502 25.549 44.4055C25.1778 44.182 24.7021 44.2212 24.3749 44.5052C24.3567 44.5209 24.3392 44.5373 24.3223 44.5541C24.0363 44.8401 23.947 45.2718 24.1065 45.6485C24.2345 45.9551 24.5474 46.9085 24.4476 47.6021C24.4161 47.8212 24.2266 48.2481 24.0434 48.661C23.4715 49.9495 22.6073 51.8969 23.1029 54.3817C23.6533 57.1412 25.9881 59.4502 28.0577 60.5146C32.1007 62.5935 37.7802 62.5794 42.1905 60.4795C43.0469 60.0718 43.899 59.4568 44.6545 58.7012C45.9584 57.3974 46.8389 55.832 47.1341 54.2935C47.6115 51.805 46.733 49.864 46.1517 48.5797C45.9654 48.1682 45.7728 47.7428 45.7397 47.5239C45.6339 46.8253 45.948 45.8533 46.0663 45.5679C46.2332 45.1655 46.1204 44.7014 45.7875 44.4205C45.4545 44.1396 44.9781 44.1065 44.6095 44.3387C44.4552 44.4331 43.9021 44.7002 43.4687 44.6476C43.1087 44.5604 42.3301 43.2937 42.1409 42.3154C41.8529 40.827 41.9489 39.8675 42.4344 39.382C42.4761 39.3403 42.5217 39.3009 42.5714 39.2639C42.8846 39.0311 43.6354 38.9786 43.9678 39.0022C44.2622 39.0231 44.5445 38.9131 44.7459 38.7117C44.8218 38.6358 44.8863 38.5469 44.9355 38.4471C45.0996 38.1142 45.0649 37.7209 44.8524 37.4235C44.8139 37.3389 44.597 36.7876 44.7111 35.3222L44.7275 35.114C44.8997 32.9235 45.1355 29.9235 43.9723 27.9009C42.6214 25.5521 39.8924 24.6296 37.5604 24.2877L36.9347 5.93184L37.9094 4.03524C38.1198 3.62563 38.0234 3.12521 37.6757 2.82323L35.5843 1.00682ZM34.5955 61.0517C34.692 59.6423 34.9612 55.4207 34.8088 54.1342C34.7477 53.6221 34.5129 53.1477 34.2854 52.6889C34.1293 52.374 33.9822 52.0764 33.9166 51.8098C33.5334 50.2478 33.4174 49.3115 33.3825 48.8996L36.8231 48.8868C36.8244 49.3232 36.7803 50.3597 36.4188 51.8447C36.3925 51.9524 36.2883 52.1506 36.1781 52.3609C35.9423 52.8101 35.6198 53.4253 35.5048 54.1224C35.3057 55.3275 35.4834 59.5061 35.5573 61.0344C35.2351 61.0459 34.9145 61.0589 34.5955 61.0517ZM43.1053 28.3994C44.1486 30.2135 43.8768 33.1582 43.7142 35.2445C43.5427 37.4453 44.0387 38.0047 44.0387 38.0047C44.0387 38.0047 42.7156 37.9107 41.9748 38.4613C41.8851 38.5281 41.8028 38.5994 41.7273 38.6749C40.7563 39.6459 40.9255 41.2981 41.1591 42.5054C41.3604 43.5457 42.2963 45.5128 43.3483 45.6403C44.2467 45.7493 45.1426 45.1848 45.1426 45.1848C45.1426 45.1848 44.5797 46.5423 44.7509 47.6735C44.9317 48.8674 46.7467 51.0048 46.152 54.1051C45.8786 55.5301 45.0229 56.9187 43.9474 57.9941C43.2749 58.6667 42.5163 59.2168 41.7606 59.5767C39.9613 60.4334 37.9971 60.8842 36.0571 61.0116C35.9848 59.503 35.8089 55.348 35.9979 54.2039C36.1001 53.5859 36.4012 53.0121 36.6207 52.5929C36.7564 52.3343 36.8638 52.1302 36.9042 51.9628C37.4107 49.8839 37.3192 48.6662 37.3147 48.6154L37.2961 48.3848L32.8667 48.401L32.8673 48.651C32.8673 48.691 32.8756 49.6668 33.4312 51.9293C33.5092 52.249 33.6691 52.5705 33.8375 52.9109C34.0457 53.3318 34.2619 53.7668 34.3123 54.1929C34.4584 55.4243 34.1903 59.6385 34.0958 61.0218C32.0517 60.9123 30.1073 60.444 28.5151 59.6253C26.5807 58.6305 24.545 56.499 24.0836 54.1862C23.4661 51.0903 25.2655 48.9396 25.4375 47.7445C25.6003 46.612 25.0274 45.2587 25.0274 45.2587C25.0274 45.2587 25.9275 45.8166 26.8251 45.701C27.1132 45.664 27.3915 45.4888 27.6478 45.2325C28.3266 44.5537 28.8506 43.3063 28.9912 42.5501C29.2334 41.247 29.397 39.428 28.1457 38.5121C27.4009 37.967 26.0786 38.0707 26.0786 38.0707C26.0786 38.0707 26.5705 37.5076 26.3828 35.3082C26.2049 33.223 25.9114 30.2805 26.9414 28.4588C27.1613 28.0698 27.4296 27.7263 27.7335 27.4223C29.1465 26.0096 31.3183 25.4629 32.9388 25.2482L32.789 39.2815L37.3365 39.2646L37.1154 25.2377C39.0839 25.4885 41.8549 26.2252 43.1053 28.3994ZM36.5902 25.1784C36.598 25.1791 36.6067 25.1803 36.6145 25.181L36.8289 38.7667L33.2944 38.7802L33.4395 25.1876C33.4443 25.1872 33.4489 25.1869 33.4541 25.1863L33.9389 6.18L35.9423 6.17262L36.5902 25.1784ZM35.9436 5.67267L33.9334 5.68005L32.8442 3.59356L34.9286 1.76183L37.02 3.5782L35.9436 5.67267ZM37.4001 40.7321C38.0719 40.6768 38.5575 41.1504 38.8672 41.7818C39.4263 42.9215 38.5893 45.1945 39.4061 46.6875C39.5713 46.9893 40.0407 47.5637 40.3747 47.4816C40.6519 47.4134 40.7432 47.2428 40.7783 47.1249C40.5763 47.1109 40.415 46.9476 40.4142 46.7419C40.4135 46.5266 40.5873 46.3514 40.8026 46.3506C41.006 46.3499 41.1684 46.5069 41.187 46.7055L41.1919 46.7017C41.1919 46.7017 41.5396 47.677 40.5286 47.9271C40.042 48.0475 39.3476 47.9494 38.7866 47.1377C38.0773 46.1118 38.2926 43.8138 38.2494 42.4193C38.2352 41.9586 38.2218 41.2489 37.518 41.1542C37.3772 41.1353 37.283 41.1697 37.2069 41.2151C37.3217 41.2825 37.4026 41.4017 37.4032 41.5445C37.4039 41.7598 37.23 41.935 37.0147 41.9358C36.7994 41.9366 36.6243 41.7627 36.6235 41.5474C36.6232 41.4767 36.6469 41.4139 36.6795 41.3567L36.6734 41.3555C36.6734 41.3555 36.9459 40.7694 37.4001 40.7321ZM31.1536 47.1657C30.5986 47.9815 29.9049 48.0848 29.4174 47.968C28.4046 47.7252 28.7452 46.7474 28.7452 46.7474L28.7501 46.7512C28.7672 46.5525 28.9285 46.3943 29.1319 46.3935C29.3472 46.3927 29.5223 46.5666 29.5231 46.7819C29.5239 46.9877 29.3638 47.1521 29.1619 47.1676C29.1978 47.2852 29.2903 47.4551 29.568 47.5213C29.9027 47.6009 30.3679 47.0232 30.5308 46.7201C31.3366 45.2211 30.483 42.9543 31.0336 41.8106C31.3387 41.1769 31.8208 40.6997 32.4929 40.7501C32.9474 40.7842 33.2242 41.3681 33.2242 41.3681L33.2182 41.3694C33.2512 41.4264 33.2753 41.489 33.2756 41.5597C33.2764 41.775 33.1026 41.9501 32.8872 41.9509C32.6719 41.9517 32.4967 41.7778 32.496 41.5625C32.4954 41.4197 32.5755 41.3 32.6897 41.2316C32.6133 41.1869 32.5188 41.1531 32.3783 41.1731C31.6751 41.273 31.6669 41.9828 31.6561 42.4436C31.6232 43.8382 31.8553 46.1347 31.1536 47.1657ZM37.3724 44.1895L32.8464 44.2062L33.181 43.6062L36.9602 43.5922L37.3724 44.1895Z" fill="black"/>
</svg>
