<?xml version="1.0" encoding="utf-8"?>
<!-- Generator: Adobe Illustrator 24.1.3, SVG Export Plug-In . SVG Version: 6.00 Build 0)  -->
<svg version="1.1" xmlns="http://www.w3.org/2000/svg" xmlns:xlink="http://www.w3.org/1999/xlink" x="0px" y="0px"
	 viewBox="0 0 70 69" style="enable-background:new 0 0 70 69;" xml:space="preserve">
<style type="text/css">
	.st0{fill:#FCA605;}
</style>
<g id="colour">
	<path class="st0" d="M47.5,49.7c-0.2-0.8-0.8-2.2-0.4-3c0.6-1.4-0.5-3.7-2.3-2.9c-1,0.4-1.4-0.7-1.8-1.6c-0.2-0.4-0.6-1.4-0.5-2.1
		c0.2,0.1,0.3,0.1,0.5,0.2c0.7,0.2,1.5,0.1,2.1-0.3c0.7-0.5,1.2-1.4,0.9-2.3c-0.6-1.9-0.3-3.8-0.5-5.8c-0.2-1.9-0.7-3.7-2.1-5.2
		c-2.3-2.6-6.3-3.5-9.7-3.3c-4,0.2-8.5,1.8-9.2,5.9C24,33.1,23,38.8,25.8,40c0.3,0.1,0.6,0.2,0.9,0.2c0.3,0.8,0.3,2.1,0.2,2.8
		c0,0.1,0,0.2-0.1,0.3c0,0-0.1,0-0.2,0c-0.7,0.1-1.2-0.2-1.9,0.1c-1.3,0.5-1.7,1.7-1.2,2.9c0.4,0.9-0.1,2.1-0.4,2.9
		c-0.3,1-0.6,1.9-0.6,2.9C22.4,54,22.9,56,24,57.7c2.3,3.7,6.4,5.4,10.6,5.5c2.1,0,4.4-0.3,6.4-1.1c2-0.8,3.6-2.3,4.8-4
		c1.2-1.6,1.9-3.6,2.1-5.6C47.8,51.6,47.7,50.7,47.5,49.7z"/>
</g>
<g id="Layer_1">
	<path d="M35.6,1c-0.4-0.3-0.9-0.3-1.3,0l-2.1,1.8c0,0,0,0,0,0c-0.3,0.3-0.4,0.8-0.2,1.2l1,1.9l-0.5,18.4c-1.8,0.3-4,0.9-5.4,2.4
		c-0.4,0.4-0.7,0.8-1,1.3c-1.1,2-0.9,5-0.7,7.2l0,0.2c0.1,1.5-0.1,2-0.1,2.1c-0.2,0.3-0.2,0.7-0.1,1c0.2,0.4,0.6,0.6,1,0.5
		c0.4,0,1.1,0,1.4,0.3c0.6,0.4,0.8,1.4,0.5,3c-0.1,0.6-0.6,1.7-1.1,2.2c-0.1,0.1-0.2,0.2-0.2,0.2c-0.4,0.1-1-0.2-1.1-0.3
		c-0.4-0.2-0.8-0.2-1.2,0.1c0,0,0,0-0.1,0c-0.3,0.3-0.4,0.7-0.2,1.1c0.1,0.3,0.4,1.3,0.3,2c0,0.2-0.2,0.6-0.4,1.1
		c-0.6,1.3-1.4,3.2-0.9,5.7c0.6,2.8,2.9,5.1,5,6.1c4,2.1,9.7,2.1,14.1,0c0.9-0.4,1.7-1,2.5-1.8c1.3-1.3,2.2-2.9,2.5-4.4
		c0.5-2.5-0.4-4.4-1-5.7c-0.2-0.4-0.4-0.8-0.4-1.1c-0.1-0.7,0.2-1.7,0.3-2c0.2-0.4,0.1-0.9-0.3-1.1c-0.3-0.3-0.8-0.3-1.2-0.1
		c-0.2,0.1-0.7,0.4-1.1,0.3c-0.4-0.1-1.1-1.4-1.3-2.3c-0.3-1.5-0.2-2.4,0.3-2.9c0,0,0.1-0.1,0.1-0.1C42.9,39,43.6,39,44,39
		c0.3,0,0.6-0.1,0.8-0.3c0.1-0.1,0.1-0.2,0.2-0.3c0.2-0.3,0.1-0.7-0.1-1c0-0.1-0.3-0.6-0.1-2.1l0-0.2c0.2-2.2,0.4-5.2-0.8-7.2
		c-1.4-2.3-4.1-3.3-6.4-3.6L36.9,5.9l1-1.9c0.2-0.4,0.1-0.9-0.2-1.2L35.6,1z M34.6,61.1c0.1-1.4,0.4-5.6,0.2-6.9
		c-0.1-0.5-0.3-1-0.5-1.4c-0.2-0.3-0.3-0.6-0.4-0.9c-0.4-1.6-0.5-2.5-0.5-2.9l3.4,0c0,0.4,0,1.5-0.4,3c0,0.1-0.1,0.3-0.2,0.5
		c-0.2,0.4-0.6,1.1-0.7,1.8c-0.2,1.2,0,5.4,0.1,6.9C35.2,61,34.9,61.1,34.6,61.1z M43.1,28.4c1,1.8,0.8,4.8,0.6,6.8
		C43.5,37.4,44,38,44,38s-1.3-0.1-2.1,0.5c-0.1,0.1-0.2,0.1-0.2,0.2c-1,1-0.8,2.6-0.6,3.8c0.2,1,1.1,3,2.2,3.1
		c0.9,0.1,1.8-0.5,1.8-0.5s-0.6,1.4-0.4,2.5c0.2,1.2,2,3.3,1.4,6.4c-0.3,1.4-1.1,2.8-2.2,3.9c-0.7,0.7-1.4,1.2-2.2,1.6
		C40,60.4,38,60.9,36.1,61c-0.1-1.5-0.2-5.7-0.1-6.8c0.1-0.6,0.4-1.2,0.6-1.6c0.1-0.3,0.2-0.5,0.3-0.6c0.5-2.1,0.4-3.3,0.4-3.3
		l0-0.2l-4.4,0l0,0.3c0,0,0,1,0.6,3.3c0.1,0.3,0.2,0.6,0.4,1c0.2,0.4,0.4,0.9,0.5,1.3c0.1,1.2-0.1,5.4-0.2,6.8c-2-0.1-4-0.6-5.6-1.4
		c-1.9-1-4-3.1-4.4-5.4c-0.6-3.1,1.2-5.2,1.4-6.4c0.2-1.1-0.4-2.5-0.4-2.5s0.9,0.6,1.8,0.4c0.3,0,0.6-0.2,0.8-0.5
		c0.7-0.7,1.2-1.9,1.3-2.7c0.2-1.3,0.4-3.1-0.8-4c-0.7-0.5-2.1-0.4-2.1-0.4s0.5-0.6,0.3-2.8c-0.2-2.1-0.5-5,0.6-6.8
		c0.2-0.4,0.5-0.7,0.8-1c1.4-1.4,3.6-2,5.2-2.2l-0.1,14l4.5,0l-0.2-14C39.1,25.5,41.9,26.2,43.1,28.4z M36.6,25.2
		C36.6,25.2,36.6,25.2,36.6,25.2l0.2,13.6l-3.5,0l0.1-13.6c0,0,0,0,0,0l0.5-19l2,0L36.6,25.2z M35.9,5.7l-2,0l-1.1-2.1l2.1-1.8
		L37,3.6L35.9,5.7z M37.4,40.7c0.7-0.1,1.2,0.4,1.5,1c0.6,1.1-0.3,3.4,0.5,4.9c0.2,0.3,0.6,0.9,1,0.8c0.3-0.1,0.4-0.2,0.4-0.4
		c-0.2,0-0.4-0.2-0.4-0.4c0-0.2,0.2-0.4,0.4-0.4c0.2,0,0.4,0.2,0.4,0.4l0,0c0,0,0.3,1-0.7,1.2c-0.5,0.1-1.2,0-1.7-0.8
		c-0.7-1-0.5-3.3-0.5-4.7c0-0.5,0-1.2-0.7-1.3c-0.1,0-0.2,0-0.3,0.1c0.1,0.1,0.2,0.2,0.2,0.3c0,0.2-0.2,0.4-0.4,0.4
		c-0.2,0-0.4-0.2-0.4-0.4c0-0.1,0-0.1,0.1-0.2l0,0C36.7,41.4,36.9,40.8,37.4,40.7z M31.2,47.2c-0.6,0.8-1.2,0.9-1.7,0.8
		c-1-0.2-0.7-1.2-0.7-1.2l0,0c0-0.2,0.2-0.4,0.4-0.4c0.2,0,0.4,0.2,0.4,0.4c0,0.2-0.2,0.4-0.4,0.4c0,0.1,0.1,0.3,0.4,0.4
		c0.3,0.1,0.8-0.5,1-0.8c0.8-1.5,0-3.8,0.5-4.9c0.3-0.6,0.8-1.1,1.5-1.1c0.5,0,0.7,0.6,0.7,0.6l0,0c0,0.1,0.1,0.1,0.1,0.2
		c0,0.2-0.2,0.4-0.4,0.4c-0.2,0-0.4-0.2-0.4-0.4c0-0.1,0.1-0.3,0.2-0.3c-0.1,0-0.2-0.1-0.3-0.1c-0.7,0.1-0.7,0.8-0.7,1.3
		C31.6,43.8,31.9,46.1,31.2,47.2z M37.4,44.2l-4.5,0l0.3-0.6l3.8,0L37.4,44.2z"/>
</g>
</svg>
