<?xml version="1.0" encoding="utf-8"?>
<!-- Generator: Adobe Illustrator 24.1.3, SVG Export Plug-In . SVG Version: 6.00 Build 0)  -->
<svg version="1.1" xmlns="http://www.w3.org/2000/svg" xmlns:xlink="http://www.w3.org/1999/xlink" x="0px" y="0px"
	 viewBox="0 0 47 40" style="enable-background:new 0 0 47 40;" xml:space="preserve">
<style type="text/css">
	.st0{fill:#FCA605;}
</style>
<g id="colour">
	<path class="st0" d="M38.7-0.2c-0.8-0.3-1.8-0.2-2.7-0.2c-1,0.1-1.9,0.2-2.8,0.4c-1.6,0.3-3.2,0.8-4.7,1.4c0,0-0.1,0-0.1,0
		c0,0-0.1,0-0.1,0c-1,0.2-1.7,1.5-1.4,2.5c0.3,1,1.2,1.5,2.1,1.4c0.1,0,0.2,0,0.3,0c0,0,0,0,0.1,0c0.8-0.2,1.5-0.3,2.3-0.4
		c0,0,0.1,0,0.1,0c0.3,0,0.6-0.1,0.9-0.2c2-0.4,4.1-0.7,6.1-1.1c0.8-0.1,1.5-1.1,1.5-1.9C40.2,0.7,39.6,0.1,38.7-0.2z"/>
	<path class="st0" d="M44.5,10.9c-0.1,0-0.1,0-0.2,0c-0.1,0-0.2,0-0.3-0.1c-0.1,0-0.3-0.1-0.5-0.2c0.1,0,0.1,0.1,0.2,0.1
		c-0.1,0-0.2-0.1-0.3-0.1c-0.7-0.3-1.4-0.6-2.1-0.8c-0.9-0.2-1.7-0.4-2.6-0.1c-0.6,0.2-1.3,0.5-1.9,0.7c-0.2,0.1-0.4,0.2-0.6,0.3
		c0,0-0.1,0-0.1,0c-1,0-2,0.9-2,2c0.1,1.1,0.9,2,2,2c0.4,0,0.7,0,1.1,0.1c0,0,0,0,0,0c0,0,0,0,0.1,0c0.2,0,0.3,0.1,0.5,0.1
		c0.8,0.1,1.6,0.3,2.4,0.3c1.4,0,2.8-0.2,4.2-0.3c1-0.1,2.1-0.9,2-2C46.4,11.9,45.6,10.9,44.5,10.9z"/>
	<path class="st0" d="M34,12.7c-0.1-0.6-0.1-1.3-0.1-1.9c0-1.2-0.6-2.4-1.8-2.8c-0.7-0.2-1.6-0.1-2.4-0.1C28.9,8,28,8.1,27.2,8.3
		c-0.8,0.2-1.6,0.5-2.2,1.1c-0.8,0.3-1.3,1-1.3,1.9c0,1.2,0.2,2.5,0.4,3.7c0.1,0.5,0.3,1.1,0.5,1.6c0.3,0.8,0.6,1.6,1.5,2
		c0.7,0.4,1.6,0.3,2.4,0.3c0.6,0,1.2-0.1,1.8-0.1c1.5-0.2,3-0.4,3.8-1.7C34.8,15.7,34.3,14.1,34,12.7z"/>
	<path class="st0" d="M17.6,4.5c-1-1-2.4-1.5-3.7-1.9c-1.2-0.4-2.5-0.8-3.8-1.1S7.6,0.9,6.3,0.7c-1.5-0.2-3-0.5-4.5,0
		C1.1,0.9,0.6,1.5,0.4,2.2c0,0,0,0.1,0,0.1c-0.3,1,0.3,2.2,1.4,2.5C4.1,5.4,6.5,6,8.9,6.6c2.4,0.6,4.8,1.3,7.3,1.3
		C17.9,7.9,18.8,5.7,17.6,4.5z"/>
	<path class="st0" d="M21.9,10.1c-0.4-0.7-1.1-0.9-1.7-1.2c-1.4-0.6-2.8-0.9-4.3-1c-0.7-0.1-1.6-0.1-2.3,0.1
		c-1.1,0.4-1.7,1.3-1.9,2.4c-0.1,0.7-0.3,1.5-0.3,2.2c-0.4,1.2-0.6,2.6,0.2,3.7c0.9,1.3,2.5,1.8,3.9,2.3c0.8,0.2,1.6,0.4,2.5,0.5
		c1,0.1,2,0,2.8-0.7c0.8-0.7,0.8-1.7,0.9-2.7c0-0.3,0.1-0.7,0.1-1c0,0,0-0.1,0-0.1c0-0.2,0.1-0.4,0.1-0.5c0.1-0.8,0.4-1.6,0.5-2.4
		C22.3,11.1,22.2,10.6,21.9,10.1z"/>
</g>
<g id="Layer_1">
	<path d="M22.8,21.5c-4.4,0-8,3.6-8,8c0,4.4,3.6,8,8,8s8-3.6,8-8C30.8,25.1,27.2,21.5,22.8,21.5z M22.8,36.9c-4.1,0-7.5-3.4-7.5-7.5
		c0-4.1,3.4-7.5,7.5-7.5s7.5,3.4,7.5,7.5C30.3,33.6,26.9,36.9,22.8,36.9z M42,10.9c-0.5-0.2-1.4-0.7-1.9-0.7c-0.4,0-1.2,0.5-1.6,0.7
		c-0.4,0-0.8,0.1-1.1,0.1l0-3.6l5.4,1l0.2-1L35,6l-0.4-1.9c1.4-0.2,2.6-0.6,3.6-1c1.3-0.6,1.9-1.1,1.8-1.8c-0.2-1.5-4.2-1.4-6.5-1
		c-1.6,0.2-3,0.6-4.1,1.1c-1.3,0.6-1.9,1.1-1.8,1.8c0.1,1,1.8,1.3,3.5,1.3c0.9,0,1.7-0.1,2.5-0.2l0.6,2.6l2.2,0.4l0,4
		c-1.8,0.4-1.8,1-1.8,1.2v0.5c0,0.3,0,0.7,1.9,1.2l0,3.9c-1-0.1-2.4-0.1-3.8,0c0.8-0.2,1.5-0.5,1.7-0.8c0.1-0.2,0.5-0.5,0.3-2.7
		c-0.2-1.6-0.8-5.3-1.7-6C32,7.7,25.5,9,24.5,10.1c-0.5,0.6-0.3,2.2-0.2,3.6H22c0.1-0.4,0.1-0.8,0.1-1.1c0.2-2.2-0.1-2.5-0.3-2.7
		c-0.9-1-7.5-2.1-8.5-1.5c-0.6,0.4-1.1,2.4-1.4,4c-0.1,0.6-0.2,1.4-0.3,2.2c-1.6-0.1-3.3-0.2-4.5-0.1l0.1-5.6L8,8.5L8.6,6
		c0.1,0,0.1,0,0.2,0c0.5,0.1,3.5,0.7,5.8,0.7c1.5,0,2.7-0.2,2.8-1v0c0.4-2-6.9-3.7-7.7-3.9C7.6,1.5,5.6,1.2,4,1.2
		c-1.9,0-2.8,0.3-3,1C0.9,2.9,1.6,3.6,3.3,4.4c1.2,0.5,2.7,1,4.3,1.4l-0.5,2L0,10.9l0.4,0.9l5.8-2.5l-0.1,5.4
		c-0.1,0-0.2,0.1-0.3,0.2c-1,1-2,10.1-0.9,11.4C5,26.3,5.2,26.5,6,26.7L6,32.1l0,0l-5.7,4.1l0.6,0.8l5.6-4l5.1,3.7l-0.8,2.4l0.9,0.3
		l2.1-6.2c1.4,3.5,4.9,6,9,6c4.1,0,7.6-2.6,9-6.2l0.4,1.2l-1,0.7l0.6,0.8l0.7-0.5l1.4,4l0.9-0.3l-1.5-4.3l3.8-2.7l5.4,3.9l0.6-0.8
		l-5.5-4l0-1.9l2.8-4.1l4.3,6.2l0.8-0.6l-4.6-6.7V15h0c0.4-0.1,0.9-0.4,1.2-0.6c4-0.3,4-1.2,4-1.5v-0.5C46,12.1,46,11.4,42,10.9z
		 M28.5,3c0.1-0.4,1.9-1.3,5.1-1.8c1.1-0.2,2-0.2,2.8-0.2c1.4,0,2.3,0.2,2.5,0.4c-0.2,0.4-2,1.3-5.1,1.7C30.7,3.6,28.7,3.3,28.5,3z
		 M2,2.4C2.5,2.1,5.3,2,9.4,2.9c4.2,0.9,6.6,2.1,6.9,2.7C15.8,5.9,13.1,6,9,5.1C4.8,4.2,2.4,2.9,2,2.4z M38.8,11.9l0.1,0l0.1-0.1
		c0.5-0.3,1-0.6,1.2-0.6c0.2,0,0.9,0.3,1.4,0.6l0.2,0.1c1,0.1,2.2,0.4,2.9,0.6c-1.9,0.3-7.3,0.3-8.9,0C36.3,12.2,37.5,12,38.8,11.9z
		 M37.7,19.1C37.7,19.1,37.7,19.1,37.7,19.1c-0.4,0.2-1.3,0.3-2.3,0.3c0-0.3-0.1-0.4-0.1-0.6C36.5,18.9,37.4,18.9,37.7,19.1z
		 M35.6,24.6c0-0.1,0-0.2,0-0.4c1,0,1.9,0,2.3,0.1C37.8,24.4,37.4,24.5,35.6,24.6z M31,24.3c0.1,0,0.2,0,0.4,0c0,0.1,0,0.2,0,0.3
		c-0.1,0-0.2,0-0.2,0C31.1,24.5,31,24.4,31,24.3z M31.9,24.6c0-0.1,0-0.2,0-0.4c1,0,2.2-0.1,3.3-0.1c0,0.1,0,0.3,0,0.4
		C34.3,24.6,33.3,24.6,31.9,24.6z M35.6,23.7c0-0.3,0-0.6,0-0.8l-0.5,0c0,0.3,0,0.5,0,0.8c-1.1,0-2.4,0-3.3,0.1
		c0-0.3-0.1-0.6-0.1-0.9l-0.5,0c0,0.3,0.1,0.6,0.1,0.9c-0.2,0-0.5,0-0.6,0c-0.7-1-1.6-1.8-2.6-2.5c0-0.7,0-1.1,0-1.4
		c0.5,0.1,1.5,0.2,2.6,0.2c0.1,0,0.3,0,0.4,0c0,0.2,0,0.4,0,0.7l0.5,0c0-0.3,0-0.5,0-0.7c1.1,0,2.3-0.1,3.3-0.2c0,0.2,0,0.4,0.1,0.7
		l0.5,0c0-0.3,0-0.5-0.1-0.7c1.1-0.1,2-0.2,2.5-0.3c0.3,1,0.3,3.3,0.1,4.3C37.6,23.8,36.7,23.7,35.6,23.7z M28.1,19.5
		C28.1,19.5,28.1,19.4,28.1,19.5c0.4-0.2,1.6-0.3,3-0.5c0,0.1,0,0.3-0.1,0.6C29.7,19.6,28.5,19.6,28.1,19.5z M34.7,18.9
		c0,0,0.1,0.2,0.1,0.6c-1,0.1-2.2,0.1-3.3,0.1c0-0.3,0-0.5,0.1-0.6C32.7,18.9,33.8,18.9,34.7,18.9z M31.8,17.2
		c-0.9,0.2-1.9,0.4-2.8,0.5c-0.1-0.2-0.1-0.4-0.2-0.6c1-0.2,2.1-0.4,3-0.5C31.8,16.8,31.8,17,31.8,17.2z M28.5,17.8
		c-0.9,0.1-1.7,0.1-2,0c0,0,0-0.1-0.1-0.1c0.2-0.1,0.9-0.3,1.9-0.5C28.3,17.4,28.4,17.6,28.5,17.8z M32.3,17c0-0.2,0-0.3,0-0.6
		c0.7-0.1,1.3-0.1,1.5-0.1c0,0,0,0.1,0,0.1C33.6,16.6,33,16.8,32.3,17z M33.8,15.9c-0.3,0-0.9,0-1.6,0.1c0-0.3-0.1-0.7-0.1-1.1
		L31.6,15c0.1,0.4,0.1,0.8,0.1,1.1c-1,0.1-2.1,0.3-3.1,0.5c-0.1-0.3-0.1-0.6-0.2-0.9l-0.5,0.1c0.1,0.2,0.1,0.5,0.2,0.9
		c-0.9,0.2-1.6,0.4-1.9,0.6c-0.5-1.3-1-4.5-1-5.9c0.4,0,1.1-0.1,1.9-0.2c0,0.3,0.1,0.6,0.1,0.9l0.5-0.1c-0.1-0.4-0.1-0.7-0.1-1
		c1-0.2,2-0.4,3-0.6c0.1,0.3,0.2,0.6,0.3,1.1l0.5-0.1c-0.1-0.4-0.2-0.8-0.3-1.1c0.8-0.2,1.5-0.3,1.7-0.4
		C33.3,11.3,33.9,14.5,33.8,15.9z M27.6,9.9c0.8-0.2,1.6-0.4,2.4-0.5c0.1,0.1,0.2,0.3,0.3,0.6c-0.9,0.2-1.9,0.4-2.8,0.6
		C27.6,10.2,27.6,10,27.6,9.9z M32.4,9.3c0,0,0.1,0.1,0.1,0.2c-0.3,0.1-0.9,0.2-1.7,0.4c-0.1-0.2-0.2-0.4-0.3-0.6
		C31.5,9.2,32.2,9.2,32.4,9.3z M27.1,10c0,0.2,0,0.4,0,0.6c-0.8,0.1-1.4,0.2-1.8,0.2c0-0.1,0-0.1,0-0.1C25.5,10.5,26.2,10.2,27.1,10
		z M24.5,14.7c0.3,1.6,0.7,3.6,1.4,4c0.2,0.1,0.7,0.2,1.2,0.2c0,0,0.1,0,0.1,0c-0.2,0.2-0.3,0.7-0.2,2c-0.9-0.4-1.8-0.7-2.8-0.9
		v-5.3L24.5,14.7C24.5,14.7,24.5,14.7,24.5,14.7z M22.9,14.7h0.3v5.2c-0.1,0-0.2,0-0.3,0V14.7z M21.9,14.7v5.2
		c-1.6,0.1-3,0.7-4.3,1.5c0.1-0.8,0.2-1.7,0.3-2.6c0.4,0,0.8,0.1,1.2,0.1c0.6,0,1.1-0.1,1.3-0.2C21,18.1,21.5,16.3,21.9,14.7
		L21.9,14.7z M12.7,16.3c0,0,0-0.1-0.1-0.1c0.3,0,0.8,0.1,1.4,0.2c0,0.2,0,0.4,0,0.6C13.4,16.7,12.9,16.5,12.7,16.3z M14.6,17.1
		c0-0.2,0-0.4,0-0.6c0.9,0.2,2,0.4,3,0.6c-0.1,0.3-0.2,0.5-0.2,0.6C16.4,17.5,15.4,17.3,14.6,17.1z M17.9,17.7
		c0.1-0.2,0.1-0.4,0.2-0.6c0.9,0.2,1.6,0.4,1.9,0.5c0,0.1-0.1,0.1-0.1,0.1C19.6,17.9,18.8,17.9,17.9,17.7z M21.2,10.7
		c-0.3,0-1-0.1-1.9-0.2c0-0.2,0-0.4,0-0.6c0.9,0.2,1.7,0.5,1.9,0.7C21.2,10.6,21.2,10.6,21.2,10.7z M18.8,9.8c0,0.1,0,0.3,0,0.7
		c-0.9-0.1-1.9-0.3-2.8-0.5c0.1-0.3,0.3-0.5,0.3-0.6C17.1,9.4,18,9.6,18.8,9.8z M15.8,9.3c-0.1,0.1-0.2,0.3-0.3,0.6
		c-0.9-0.2-1.5-0.4-1.7-0.5c0,0,0-0.1,0.1-0.1C14.1,9.2,14.9,9.2,15.8,9.3z M13.6,9.8c0.3,0.2,0.9,0.3,1.7,0.5
		c-0.1,0.3-0.2,0.6-0.3,1l0.5,0.1c0.1-0.4,0.2-0.8,0.3-1.1c0.9,0.2,2,0.4,3,0.5c0,0.3-0.1,0.6-0.1,1l0.5,0.1c0.1-0.4,0.1-0.7,0.1-1
		c0.8,0.1,1.6,0.2,2,0.2c0,0,0,0,0,0c0,1.4-0.5,4.6-1.1,6c-0.3-0.1-1-0.3-2-0.5c0.1-0.3,0.2-0.6,0.2-0.9L18,15.7
		c-0.1,0.3-0.2,0.6-0.2,0.9c-1-0.2-2.1-0.4-3.1-0.6c0-0.3,0.1-0.7,0.1-1l-0.5-0.1c-0.1,0.4-0.1,0.7-0.1,1c-0.6-0.1-1.2-0.2-1.5-0.2
		C12.6,14.3,13.1,11.1,13.6,9.8z M11.7,16.1C10.8,16,9.9,15.9,9,15.9c0-0.2,0.1-0.3,0.1-0.5c0.7,0,1.5,0.1,2.5,0.2
		C11.6,15.7,11.7,15.9,11.7,16.1z M8.7,15.4c0,0.1-0.1,0.3-0.1,0.4c-0.9-0.1-1.7-0.1-2.1-0.1c0-0.1,0.1-0.2,0.1-0.2
		C6.7,15.4,7.4,15.4,8.7,15.4z M6.3,16.2c0.4,0,1.2,0,2.2,0.1c-0.1,0.4-0.2,0.8-0.2,1.3l0.5,0.1c0.1-0.5,0.2-1,0.2-1.3
		c0.9,0.1,1.8,0.1,2.8,0.2c0,0.2,0.1,0.3,0.2,0.4c0.2,0.2,0.6,0.5,1.2,0.7c0,0.1,0,0.2,0,0.4l0.5,0c0-0.1,0-0.1,0-0.2
		c0.9,0.3,2.1,0.6,3.3,0.8c-0.1,1.2-0.3,2.7-0.4,3.5c-1,0.9-1.9,2-2.5,3.2c-0.5,0-0.9-0.1-1.4-0.1c0.1-0.4,0.1-0.8,0.2-1.2l-0.5-0.1
		c-0.1,0.5-0.1,0.9-0.2,1.3c-1.7-0.1-3-0.3-4.1-0.3c0-0.4,0-0.8,0.1-1.3l-0.5,0c0,0.5,0,0.9-0.1,1.3c-1-0.1-1.7-0.1-2.1,0
		C5.3,22.9,5.7,18.1,6.3,16.2z M13.7,26.3c-0.4,0-0.8,0-1.2,0c0-0.2,0.1-0.3,0.1-0.5c0.4,0,0.8,0.1,1.3,0.1
		C13.8,26,13.7,26.1,13.7,26.3z M8.1,25.9c0-0.2,0-0.4,0-0.6c1.1,0.1,2.4,0.2,4,0.3c0,0.2-0.1,0.4-0.1,0.6C10.3,26.1,9,26,8.1,25.9z
		 M5.6,25.3c0.3,0,1,0,2,0c0,0.2,0,0.4,0,0.6c-1.6-0.2-1.9-0.4-1.9-0.4C5.7,25.5,5.6,25.4,5.6,25.3z M11.9,35.6L7,32L7,26.8
		c1.2,0.2,3.2,0.3,6.3,0.5c-0.2,0.7-0.3,1.4-0.3,2.2c0,0.7,0.1,1.3,0.2,2L11.9,35.6z M22.8,38.1c-4.8,0-8.7-3.9-8.7-8.7
		c0-4.8,3.9-8.7,8.7-8.7s8.7,3.9,8.7,8.7C31.5,34.2,27.6,38.1,22.8,38.1z M36.6,30.9L33,33.5l-0.8-2.3c0.1-0.6,0.2-1.2,0.2-1.8
		c0-1.4-0.3-2.6-0.8-3.8c0.1,0,0.2,0,0.3,0c2.2,0,3.6-0.1,4.6-0.1l0,3.2l-1.3,1.9l0.8,0.6l0.5-0.7L36.6,30.9z M37.6,25.4
		c0.7-0.1,0.8-0.2,0.9-0.3c0.5-0.4,0.6-1.9,0.6-3.2c0-1.1-0.1-3.1-0.9-3.7c-0.1-0.1-0.4-0.2-0.8-0.2l0-3.8c0.3,0.1,0.7,0.1,1.1,0.2
		c0.3,0.2,0.9,0.5,1.4,0.6v8.9l-2.3,3.4L37.6,25.4z M41.8,13.4l-0.1,0l-0.1,0.1c-0.5,0.3-1,0.6-1.2,0.6c-0.2,0-0.9-0.3-1.4-0.6
		l-0.2-0.1c-0.9-0.1-1.8-0.3-2.5-0.5c0.1,0,0.2,0,0.2,0c0.8,0.1,2,0.1,3.3,0.1c2.8,0,4.3-0.1,5.1-0.3C44.4,13.1,43.1,13.3,41.8,13.4
		z"/>
</g>
</svg>
