<svg width="47" height="40" viewBox="0 0 47 40" fill="none" xmlns="http://www.w3.org/2000/svg">
<path d="M22.7959 21.4784C18.3945 21.4784 14.8145 25.059 14.8145 29.4603C14.8145 33.8612 18.3945 37.4418 22.7959 37.4418C27.1973 37.4418 30.7773 33.8612 30.7773 29.4603C30.7773 25.059 27.1973 21.4784 22.7959 21.4784ZM22.7959 36.9418C18.6709 36.9418 15.3145 33.5858 15.3145 29.4603C15.3145 25.3349 18.6709 21.9784 22.7959 21.9784C26.9209 21.9784 30.2773 25.3349 30.2773 29.4603C30.2773 33.5858 26.9209 36.9418 22.7959 36.9418ZM42.0381 10.891C41.5859 10.6474 40.6797 10.1703 40.167 10.2094C39.7246 10.2255 38.9678 10.6649 38.5693 10.9164C38.1474 10.9472 37.7791 10.9862 37.4422 11.0296L37.4074 7.41616L42.7744 8.39199L42.9541 7.40859L35.0264 5.96718L34.5787 4.05434C35.9382 3.82162 37.1935 3.48794 38.1455 3.08877C39.4717 2.5331 40.0684 1.93886 39.9707 1.27236C39.7412 -0.274514 35.7754 -0.11387 33.4658 0.22695C31.8984 0.457419 30.4414 0.833396 29.3643 1.28506C28.0381 1.84072 27.4414 2.43496 27.5391 3.10146C27.6836 4.07754 29.3154 4.37343 31.0811 4.37343C31.9391 4.37343 32.8211 4.30208 33.5866 4.2065L34.2021 6.8334L36.4056 7.23403L36.4437 11.1961C34.6119 11.589 34.6035 12.1861 34.6035 12.4193V12.9223C34.6035 13.1861 34.6124 13.6691 36.471 14.0988L36.508 17.9541C35.461 17.8849 34.1045 17.8815 32.7456 17.9354C33.5803 17.6879 34.2307 17.4154 34.4785 17.1527C34.6221 16.9999 34.96 16.641 34.7539 14.4848C34.5996 12.8866 33.9482 9.15517 33.0107 8.48086C31.957 7.72158 25.4707 8.95156 24.5479 10.0844C24.0925 10.6433 24.2005 12.2921 24.3867 13.6591H22.0209C22.0836 13.2431 22.1302 12.8678 22.1592 12.5678C22.3672 10.4032 22.0293 10.0438 21.8838 9.89004C20.9541 8.90371 14.4043 7.76699 13.3398 8.40957C12.6953 8.79726 12.2285 10.7758 11.9502 12.3671C11.8442 12.9746 11.7271 13.7772 11.6696 14.553C10.1133 14.41 8.35608 14.3085 7.16266 14.4124L7.2171 8.80215L8.00195 8.46084L8.57349 6.02547C8.63141 6.03835 8.68597 6.05361 8.74414 6.06631C9.25879 6.17812 12.2344 6.8041 14.5557 6.8041C16.0117 6.8041 17.21 6.55752 17.3789 5.7831V5.78213C17.8154 3.77334 10.4834 2.11416 9.64551 1.93154C7.55762 1.47695 5.55371 1.21572 4.00293 1.19668C2.11621 1.15859 1.16699 1.49746 1.01172 2.21474C0.854492 2.93301 1.58398 3.62295 3.30762 4.38613C4.46094 4.89724 5.96136 5.38289 7.6015 5.79293L7.14258 7.74404L0 10.8505L0.398438 11.7675L6.21277 9.23891L6.16077 14.6004C6.03949 14.6474 5.93512 14.6998 5.87012 14.7641C4.90332 15.7221 3.8623 24.8905 4.92871 26.1591C5.03168 26.2816 5.18896 26.4631 6.04602 26.6518L5.99384 32.0889L5.97559 32.0634L0.3125 36.1259L0.894531 36.9384L6.49768 32.9189L11.5966 36.5767L10.7979 38.9271L11.7451 39.2484L13.8434 33.0732C15.2777 36.6139 18.7473 39.1205 22.7959 39.1205C26.889 39.1205 30.3873 36.5571 31.7919 32.9547L32.2017 34.1609L31.2227 34.8705L31.8086 35.6801L32.5382 35.1512L33.8975 39.1513L34.8447 38.83L33.3859 34.5368L37.1587 31.802L42.5088 35.6801L43.0947 34.8705L37.6314 30.9104L37.6132 29.0015L40.4287 24.935L44.7344 31.1537L45.5566 30.5844L40.9287 23.9002V15.0248H40.8881C41.2935 14.8763 41.7599 14.6051 42.0449 14.4252C46.0098 14.1361 46.0098 13.224 46.0098 12.9223V12.4193C46.0098 12.0795 46.0098 11.3754 42.0381 10.891ZM28.5283 2.99013C28.6436 2.60488 30.4414 1.68301 33.6123 1.21621C34.6924 1.05752 35.6348 0.995017 36.417 0.995017C37.8623 0.995017 38.7607 1.2084 38.9668 1.41982C38.7568 1.82412 36.9727 2.70498 33.8975 3.15761C30.7266 3.62539 28.7393 3.25869 28.5283 2.99013ZM2.02246 2.43545C2.53906 2.10879 5.25879 1.99843 9.43262 2.90908C13.6045 3.81826 16.0312 5.05019 16.3682 5.5624C15.8486 5.88857 13.1299 5.99843 8.95703 5.08877C4.78516 4.17959 2.35742 2.94717 2.02246 2.43545ZM38.7656 11.9052L38.8945 11.8964L39.0039 11.8256C39.4834 11.5141 40.0469 11.2255 40.2021 11.2084C40.3838 11.2094 41.0566 11.4921 41.6416 11.8139L41.8232 11.8725C42.8705 11.9973 44.0711 12.2266 44.6918 12.4375C42.7785 12.7152 37.3738 12.7221 35.7567 12.4389C36.2535 12.2213 37.5133 11.9907 38.7656 11.9052ZM37.6982 19.0888C37.7107 19.0997 37.7215 19.1217 37.7335 19.1361C37.3218 19.2495 36.4418 19.3526 35.3662 19.4347C35.329 19.1699 35.2946 18.9869 35.2647 18.8682C36.4752 18.8698 37.43 18.933 37.6982 19.0888ZM35.6448 24.5759C35.6483 24.4614 35.6505 24.3407 35.651 24.2139C36.6754 24.2213 37.5265 24.2551 37.9107 24.3197C37.8019 24.3683 37.3552 24.4958 35.6448 24.5759ZM30.9734 24.3415C31.0936 24.3328 31.2233 24.3249 31.3539 24.317C31.3674 24.434 31.3805 24.5426 31.3934 24.6421C31.314 24.6417 31.2369 24.6416 31.1556 24.6411C31.0969 24.5398 31.0356 24.4405 30.9734 24.3415ZM31.8973 24.6441C31.8835 24.5415 31.8688 24.4152 31.8542 24.2899C32.8669 24.2407 34.0654 24.2135 35.1483 24.2125C35.1475 24.3599 35.1454 24.4869 35.1417 24.5969C34.3221 24.6264 33.2631 24.6453 31.8973 24.6441ZM35.6472 23.7151C35.6427 23.432 35.6349 23.1555 35.627 22.932L35.127 22.9496C35.1371 23.2348 35.1428 23.4839 35.1463 23.7136C34.0129 23.715 32.7838 23.7473 31.8009 23.7943C31.7729 23.5169 31.7453 23.2252 31.7207 22.9208L31.2227 22.9608C31.2472 23.262 31.274 23.548 31.3013 23.8207C31.0574 23.8349 30.845 23.8501 30.6564 23.8656C29.9631 22.8945 29.0991 22.055 28.1022 21.3966C28.0629 20.7277 28.0591 20.269 28.0715 19.9636C28.5947 20.0784 29.5372 20.1273 30.6543 20.1273C30.7971 20.1273 30.9446 20.1259 31.0923 20.1244C31.0912 20.3369 31.0926 20.5692 31.1006 20.848L31.6006 20.8334C31.5925 20.5543 31.591 20.3244 31.5921 20.1165C32.6907 20.094 33.8679 20.0355 34.9263 19.9556C34.9485 20.158 34.9714 20.3848 34.9951 20.6684L35.4932 20.6264C35.47 20.3478 35.4474 20.1211 35.4251 19.9157C36.5416 19.8207 37.4628 19.7032 37.926 19.5834C38.2007 20.6115 38.2275 22.8369 38.0608 23.8492C37.5989 23.763 36.6965 23.7232 35.6472 23.7151ZM28.1164 19.4825C28.1207 19.4599 28.125 19.4374 28.1289 19.4218C28.527 19.2794 29.7312 19.1363 31.1548 19.0307C31.1337 19.1708 31.1157 19.3631 31.104 19.6203C29.6643 19.6388 28.4852 19.5998 28.1164 19.4825ZM34.7436 18.8716C34.7589 18.9055 34.8049 19.0388 34.8666 19.4699C33.8294 19.5394 32.6752 19.5891 31.6031 19.6114C31.6176 19.3053 31.6423 19.1128 31.6667 18.995C32.6835 18.9286 33.7683 18.8832 34.7436 18.8716ZM31.7967 17.1699C30.9313 17.3778 29.9114 17.5689 28.9848 17.6961C28.916 17.5331 28.8412 17.3287 28.758 17.0549C29.7253 16.8679 30.8238 16.6873 31.7675 16.5537C31.7871 16.7983 31.7957 16.9995 31.7967 17.1699ZM28.4693 17.7612C27.5227 17.8704 26.7454 17.8968 26.4609 17.7816C26.4388 17.7575 26.416 17.7147 26.3935 17.6802C26.5817 17.5403 27.3155 17.3485 28.2659 17.1527C28.332 17.3731 28.4006 17.5804 28.4693 17.7612ZM32.2977 17.0423C32.2928 16.8797 32.2817 16.6929 32.2647 16.4858C32.9637 16.3942 33.5225 16.3387 33.7886 16.3418C33.7766 16.3865 33.7664 16.4372 33.75 16.4672C33.5859 16.6414 33.0293 16.8451 32.2977 17.0423ZM33.8426 15.8603C33.5092 15.8562 32.9271 15.9062 32.215 15.9943C32.178 15.6522 32.1334 15.2871 32.0732 14.8832L31.5791 14.9564C31.6384 15.3566 31.6826 15.7201 31.7191 16.0593C30.7433 16.1923 29.6209 16.377 28.6228 16.578C28.5505 16.3128 28.4764 16.0277 28.4004 15.7074L27.9141 15.8227C27.9702 16.0598 28.0458 16.3658 28.1313 16.6817C27.2514 16.872 26.5264 17.0683 26.1824 17.2398C25.6805 15.9043 25.1687 12.7595 25.2161 11.3502C25.6238 11.3451 26.3075 11.2548 27.1057 11.1204C27.1304 11.406 27.1657 11.7221 27.2119 12.0692L27.708 12.0028C27.6571 11.6208 27.6246 11.3078 27.6017 11.0344C28.5638 10.8613 29.6279 10.6419 30.5521 10.4373C30.6554 10.7249 30.7675 11.0809 30.8867 11.5253L31.3691 11.3954C31.2532 10.9632 31.144 10.6226 31.0396 10.3277C31.8514 10.1426 32.4924 9.98238 32.7634 9.89693C33.2971 11.2636 33.8718 14.4524 33.8426 15.8603ZM27.5814 9.85421C28.3574 9.66061 29.2249 9.48794 30.0156 9.3688C30.1003 9.46328 30.2183 9.64223 30.3625 9.96548C29.4789 10.1578 28.4744 10.3629 27.5683 10.5286C27.556 10.213 27.5649 10.0012 27.5814 9.85421ZM32.4258 9.2914C32.4656 9.32326 32.5071 9.37685 32.5491 9.44259C32.2724 9.52718 31.6473 9.67983 30.8585 9.85635C30.7549 9.61294 30.6606 9.42788 30.5764 9.29208C31.4609 9.18404 32.1758 9.16402 32.4258 9.2914ZM27.0788 9.98617C27.0682 10.1659 27.0679 10.3754 27.0782 10.6161C26.2963 10.7515 25.6407 10.8437 25.2751 10.8543C25.2895 10.8022 25.3035 10.7489 25.3232 10.7162C25.503 10.4953 26.1931 10.2313 27.0788 9.98617ZM24.5439 14.6796C24.8223 16.2699 25.2891 18.247 25.9326 18.6342C26.1494 18.7641 26.5898 18.8207 27.1641 18.8207C27.2096 18.8207 27.2608 18.8182 27.308 18.8175C27.157 19.0417 27.0333 19.5005 27.074 20.8118C26.1956 20.3753 25.2433 20.0712 24.2393 19.9197V14.6591H24.5406C24.5417 14.6654 24.5428 14.6733 24.5439 14.6796ZM22.9473 14.6591H23.2393V19.8222C23.1418 19.8177 23.0455 19.8089 22.9473 19.8074V14.6591ZM21.9473 14.6591V19.8427C20.3765 19.9804 18.9161 20.4978 17.65 21.2992C17.7491 20.5017 17.8521 19.5533 17.9027 18.7285C18.3314 18.7715 18.737 18.7973 19.0928 18.7973C19.7119 18.7973 20.1904 18.726 20.417 18.5629C21.0438 18.1121 21.5424 16.2921 21.8503 14.6591H21.9473ZM12.7363 16.3363C12.7152 16.3015 12.6999 16.2459 12.6848 16.1897C12.9871 16.1988 13.4886 16.2642 14.0923 16.3624C14.074 16.5759 14.0626 16.7647 14.0564 16.9337C13.3859 16.728 12.8836 16.5171 12.7363 16.3363ZM14.5533 17.0771C14.5561 16.9002 14.5656 16.695 14.5865 16.4458C15.5228 16.6099 16.6133 16.8288 17.5814 17.0374C17.4991 17.3049 17.4252 17.5055 17.3577 17.6632C16.4304 17.5222 15.4069 17.3087 14.5533 17.0771ZM17.8713 17.7343C17.9387 17.5597 18.0059 17.3589 18.071 17.1446C18.9514 17.3394 19.663 17.5111 19.9594 17.6022C19.9203 17.6622 19.8818 17.7139 19.8447 17.7436C19.5799 17.8792 18.8105 17.8534 17.8713 17.7343ZM21.1835 10.6993C20.85 10.6989 20.1348 10.6214 19.2759 10.5021C19.2845 10.2644 19.2823 10.0581 19.2696 9.88241C20.2083 10.1083 20.947 10.3513 21.1357 10.5497C21.1558 10.5859 21.1694 10.6434 21.1835 10.6993ZM18.7634 9.76601C18.7812 9.90517 18.7933 10.1118 18.783 10.4318C17.8669 10.2962 16.8533 10.124 15.9717 9.94985C16.1143 9.6235 16.2317 9.4388 16.3184 9.33669C17.1121 9.44265 17.9801 9.59518 18.7634 9.76601ZM15.7567 9.26845C15.6722 9.40871 15.5773 9.6011 15.4741 9.84817C14.6232 9.66775 13.9758 9.49349 13.8004 9.36391C13.8231 9.32925 13.846 9.28634 13.8682 9.26211C14.142 9.15182 14.867 9.17184 15.7567 9.26845ZM13.5898 9.80337C13.9016 9.95907 14.5267 10.1352 15.2994 10.3091C15.1981 10.5979 15.0925 10.9274 14.9805 11.3441L15.4629 11.474C15.5786 11.0445 15.6873 10.6978 15.7879 10.4152C16.7197 10.6092 17.7874 10.7928 18.7527 10.9324C18.7302 11.2162 18.6967 11.5463 18.6426 11.9516L19.1387 12.018C19.189 11.6402 19.224 11.3059 19.2488 11.0011C20.0987 11.1146 20.8248 11.1864 21.2236 11.1864C21.2286 11.1864 21.2314 11.1859 21.2363 11.1859C21.2714 12.6195 20.7008 15.7962 20.1749 17.1487C19.8843 17.0562 19.1413 16.8725 18.21 16.6634C18.2994 16.3355 18.3782 16.0166 18.4365 15.7714L17.9502 15.6561C17.8721 15.9856 17.7951 16.2799 17.7195 16.5546C16.7291 16.3386 15.6105 16.113 14.6378 15.9459C14.6732 15.6235 14.7152 15.2807 14.7705 14.9052L14.2764 14.8319C14.2213 15.2042 14.1791 15.5442 14.1435 15.8648C13.5065 15.7644 12.9691 15.6995 12.6265 15.6947C12.577 14.2786 13.0883 11.1371 13.5898 9.80337ZM11.6696 16.0661C10.7648 15.9838 9.86255 15.9109 9.04816 15.8525C9.09558 15.6651 9.14038 15.5142 9.18268 15.3908C9.87683 15.4161 10.6884 15.4659 11.6341 15.5534C11.6379 15.7357 11.6512 15.9049 11.6696 16.0661ZM8.66833 15.3748C8.62561 15.5116 8.58295 15.6475 8.54163 15.8173C7.63422 15.7562 6.88074 15.7171 6.42078 15.7086C6.45691 15.6282 6.4931 15.5531 6.5293 15.5092C6.70715 15.417 7.44299 15.3507 8.66833 15.3748ZM6.25128 16.2065C6.62 16.2044 7.40576 16.2416 8.43701 16.3106C8.36121 16.6849 8.28674 17.0966 8.21484 17.5927L8.70898 17.6649C8.7876 17.1245 8.86383 16.6979 8.93677 16.345C9.78735 16.4058 10.7587 16.4852 11.7697 16.5785C11.8171 16.7315 11.8761 16.8637 11.9541 16.9594C12.1429 17.1912 12.5676 17.4266 13.1277 17.6485C13.121 17.7671 13.115 17.8833 13.1074 18.0062L13.6055 18.039C13.6105 17.9662 13.6135 17.8985 13.618 17.827C14.567 18.1485 15.7678 18.4262 16.9076 18.6012C16.8404 19.7752 16.6533 21.2544 16.5344 22.118C15.5015 23.0003 14.6616 24.0971 14.0729 25.3374C13.5908 25.2908 13.126 25.2469 12.6829 25.2061C12.7505 24.8358 12.8221 24.4177 12.8955 23.9603L12.4014 23.8812C12.3265 24.3499 12.2526 24.7829 12.1834 25.1607C10.5325 25.012 9.17322 24.9062 8.10815 24.8436C8.12024 24.4853 8.13904 24.0615 8.16895 23.5385L7.66895 23.5102C7.64069 24.0047 7.62299 24.4282 7.61011 24.8165C6.58569 24.7653 5.88763 24.762 5.52686 24.8081C5.32483 22.9085 5.74335 18.086 6.25128 16.2065ZM13.6826 26.2862C13.2599 26.271 12.8561 26.2551 12.4767 26.2385C12.5114 26.0855 12.5493 25.9037 12.5895 25.7002C12.9967 25.7374 13.4208 25.7774 13.8539 25.819C13.7913 25.9721 13.7374 26.1293 13.6826 26.2862ZM8.09406 25.9428C8.09076 25.7861 8.0907 25.5881 8.09491 25.3433C9.16028 25.4089 10.5142 25.5144 12.0889 25.6552C12.0453 25.8747 12.0051 26.0623 11.9691 26.2142C10.2635 26.1322 9.00195 26.0367 8.09406 25.9428ZM5.60718 25.2891C5.88171 25.2484 6.57196 25.2588 7.59515 25.3142C7.59131 25.53 7.59106 25.7191 7.59357 25.887C6.02283 25.7002 5.7243 25.5345 5.69824 25.5209C5.66315 25.4694 5.63354 25.3877 5.60718 25.2891ZM11.9326 35.5877L6.99438 32.0452L7.04443 26.8238C8.25977 26.994 10.2198 27.1568 13.3944 27.2752C13.2309 27.9787 13.1357 28.7079 13.1357 29.4603C13.1357 30.1392 13.2078 30.8012 13.3417 31.4408L11.9326 35.5877ZM22.7959 38.1205C18.0205 38.1205 14.1357 34.2357 14.1357 29.4603C14.1357 24.685 18.0205 20.7997 22.7959 20.7997C27.5713 20.7997 31.4561 24.685 31.4561 29.4603C31.4561 34.2357 27.5713 38.1205 22.7959 38.1205ZM36.6317 30.9497L33.0494 33.5464L32.2787 31.2785C32.3916 30.6889 32.4561 30.0823 32.4561 29.4603C32.4561 28.1048 32.1727 26.815 31.6664 25.6431C31.78 25.6434 31.9047 25.6444 32.0146 25.6444C34.2051 25.6444 35.6346 25.5929 36.5797 25.5202L36.6101 28.6933L35.3008 30.5844L36.123 31.1537L36.6267 30.4263L36.6317 30.9497ZM37.5788 25.4125C38.2513 25.3106 38.4103 25.198 38.5078 25.1264C39.0459 24.7328 39.1553 23.1894 39.1523 21.9638C39.1494 20.8207 39.0332 18.8222 38.2881 18.2811C38.1587 18.1874 37.8825 18.1132 37.509 18.0551L37.473 14.2929C37.804 14.3473 38.164 14.4004 38.5762 14.4506C38.8973 14.6239 39.4531 14.9015 39.9287 15.0425V23.9002L37.5966 27.2686L37.5788 25.4125ZM41.8486 13.4364L41.7197 13.4457L41.6104 13.516C41.1309 13.8275 40.5674 14.1161 40.4121 14.1332C40.2305 14.1327 39.5576 13.8495 38.9727 13.5277L38.791 13.4691C37.9272 13.3662 36.9611 13.1922 36.2977 13.016C36.3759 13.0241 36.4484 13.0327 36.5342 13.0404C37.3691 13.1161 38.542 13.1576 39.8359 13.1576C42.6583 13.1576 44.1274 13.0312 44.9011 12.8794C44.4449 13.1036 43.1461 13.3478 41.8486 13.4364Z" fill="black"/>
</svg>
