<?xml version="1.0" encoding="utf-8"?>
<!-- Generator: Adobe Illustrator 24.1.3, SVG Export Plug-In . SVG Version: 6.00 Build 0)  -->
<svg version="1.1" id="Layer_1" xmlns="http://www.w3.org/2000/svg" xmlns:xlink="http://www.w3.org/1999/xlink" x="0px" y="0px"
	 viewBox="0 0 100 100" style="enable-background:new 0 0 100 100;" xml:space="preserve">
<style type="text/css">
	.st0{fill:#FCA605;}
</style>
<g id="colour">
	<path class="st0" d="M80.7,10.1c-1.6-0.6-3.6-0.4-5.4-0.4c-2,0.2-3.8,0.4-5.6,0.8c-3.2,0.6-6.4,1.6-9.4,2.8h-0.2h-0.2
		c-2,0.4-3.4,3-2.8,5c0.6,2,2.4,3,4.2,2.8c0.2,0,0.4,0,0.6,0c0,0,0,0,0.2,0c1.6-0.4,3-0.6,4.6-0.8h0.2c0.6,0,1.2-0.2,1.8-0.4
		c4-0.8,8.2-1.4,12.2-2.2c1.6-0.2,3-2.2,3-3.8C83.7,11.9,82.5,10.7,80.7,10.1z"/>
	<path class="st0" d="M92.3,32.3c-0.2,0-0.2,0-0.4,0c-0.2,0-0.4,0-0.6-0.2c-0.2,0-0.6-0.2-1-0.4c0.2,0,0.2,0.2,0.4,0.2
		c-0.2,0-0.4-0.2-0.6-0.2c-1.4-0.6-2.8-1.2-4.2-1.6c-1.8-0.4-3.4-0.8-5.2-0.2c-1.2,0.4-2.6,1-3.8,1.4c-0.4,0.2-0.8,0.4-1.2,0.6h-0.2
		c-2,0-4,1.8-4,4c0.2,2.2,1.8,4,4,4c0.8,0,1.4,0,2.2,0.2l0,0c0,0,0,0,0.2,0c0.4,0,0.6,0.2,1,0.2c1.6,0.2,3.2,0.6,4.8,0.6
		c2.8,0,5.6-0.4,8.4-0.6c2-0.2,4.2-1.8,4-4C96.1,34.3,94.5,32.3,92.3,32.3z"/>
	<path class="st0" d="M71.3,35.9c-0.2-1.2-0.2-2.6-0.2-3.8c0-2.4-1.2-4.8-3.6-5.6c-1.4-0.4-3.2-0.2-4.8-0.2c-1.6,0.2-3.4,0.4-5,0.8
		s-3.2,1-4.4,2.2c-1.6,0.6-2.6,2-2.6,3.8c0,2.4,0.4,5,0.8,7.4c0.2,1,0.6,2.2,1,3.2c0.6,1.6,1.2,3.2,3,4c1.4,0.8,3.2,0.6,4.8,0.6
		c1.2,0,2.4-0.2,3.6-0.2c3-0.4,6-0.8,7.6-3.4C72.9,41.9,71.9,38.7,71.3,35.9z"/>
	<path class="st0" d="M38.5,19.5c-2-2-4.8-3-7.4-3.8c-2.4-0.8-5-1.6-7.6-2.2s-5-1.2-7.6-1.6c-3-0.4-6-1-9,0c-1.4,0.4-2.4,1.6-2.8,3
		v0.2c-0.6,2,0.6,4.4,2.8,5c4.6,1.2,9.4,2.4,14.2,3.6s9.6,2.6,14.6,2.6C39.1,26.3,40.9,21.9,38.5,19.5z"/>
	<path class="st0" d="M47.1,30.7c-0.8-1.4-2.2-1.8-3.4-2.4c-2.8-1.2-5.6-1.8-8.6-2c-1.4-0.2-3.2-0.2-4.6,0.2
		c-2.2,0.8-3.4,2.6-3.8,4.8c-0.2,1.4-0.6,3-0.6,4.4c-0.8,2.4-1.2,5.2,0.4,7.4c1.8,2.6,5,3.6,7.8,4.6c1.6,0.4,3.2,0.8,5,1
		c2,0.2,4,0,5.6-1.4s1.6-3.4,1.8-5.4c0-0.6,0.2-1.4,0.2-2v-0.2c0-0.4,0.2-0.8,0.2-1c0.2-1.6,0.8-3.2,1-4.8
		C47.9,32.7,47.7,31.7,47.1,30.7z"/>
</g>
<g id="Layer_1_1_">
	<path d="M48.9,53.5c-8.8,0-16,7.2-16,16s7.2,16,16,16s16-7.2,16-16S57.7,53.5,48.9,53.5z M48.9,84.3c-8.2,0-15-6.8-15-15
		s6.8-15,15-15s15,6.8,15,15C63.9,77.7,57.1,84.3,48.9,84.3z M87.3,32.3c-1-0.4-2.8-1.4-3.8-1.4c-0.8,0-2.4,1-3.2,1.4
		c-0.8,0-1.6,0.2-2.2,0.2v-7.2l10.8,2l0.4-2l-16-2.8l-0.8-3.8c2.8-0.4,5.2-1.2,7.2-2c2.6-1.2,3.8-2.2,3.6-3.6c-0.4-3-8.4-2.8-13-2
		c-3.2,0.4-6,1.2-8.2,2.2c-2.6,1.2-3.8,2.2-3.6,3.6c0.2,2,3.6,2.6,7,2.6c1.8,0,3.4-0.2,5-0.4l1.2,5.2l4.4,0.8v8
		c-3.6,0.8-3.6,2-3.6,2.4v1c0,0.6,0,1.4,3.8,2.4v7.8c-2-0.2-4.8-0.2-7.6,0c1.6-0.4,3-1,3.4-1.6c0.2-0.4,1-1,0.6-5.4
		c-0.4-3.2-1.6-10.6-3.4-12c-2-1.8-15,0.8-17,3c-1,1.2-0.6,4.4-0.4,7.2h-4.6c0.2-0.8,0.2-1.6,0.2-2.2c0.4-4.4-0.2-5-0.6-5.4
		c-1.8-2-15-4.2-17-3c-1.2,0.8-2.2,4.8-2.8,8c-0.2,1.2-0.4,2.8-0.6,4.4c-3.2-0.2-6.6-0.4-9-0.2l0.2-11.2l1.6-0.8l1.2-5
		c0.2,0,0.2,0,0.4,0c1,0.2,7,1.4,11.6,1.4c3,0,5.4-0.4,5.6-2l0,0c0.8-4-13.8-7.4-15.4-7.8c-4.2-0.6-8.2-1.2-11.4-1.2
		c-3.8,0-5.6,0.6-6,2c-0.2,1.4,1.2,2.8,4.6,4.4c2.4,1,5.4,2,8.6,2.8l-1,4L3.3,32.3l0.8,1.8l11.6-5l-0.2,10.8c-0.2,0-0.4,0.2-0.6,0.4
		c-2,2-4,20.2-1.8,22.8c0.2,0,0.6,0.4,2.2,0.8v10.8l0,0L3.9,82.9l1.2,1.6l11.2-8l10.2,7.4l-1.6,4.8l1.8,0.6l4.2-12.4
		c2.8,7,9.8,12,18,12s15.2-5.2,18-12.4l0.8,2.4l-2,1.4l1.2,1.6l1.4-1l2.8,8l1.8-0.6l-3-8.6l7.6-5.4l10.8,7.8l1.2-1.6l-11-8v-3.8
		l5.6-8.2l8.6,12.4l1.6-1.2l-9.2-13.4V40.5l0,0c0.8-0.2,1.8-0.8,2.4-1.2c8-0.6,8-2.4,8-3v-1C95.3,34.7,95.3,33.3,87.3,32.3z
		 M59.6,16.6c0.2-0.9,4.1-2.8,10.9-3.9c2.4-0.4,4.3-0.4,6-0.4c3,0,4.9,0.4,5.3,0.9c-0.4,0.9-4.3,2.8-10.9,3.6
		C64.3,17.9,60,17.3,59.6,16.6z M6.3,15.1c1.1-0.6,7.1-0.9,15.8,1.1c9,1.9,14.1,4.5,14.8,5.8c-1.1,0.6-6.8,0.9-15.6-1.1
		C12.3,18.9,7.2,16.1,6.3,15.1z M80.3,34L80.3,34l0.5-0.2c1.2-0.7,2.4-1.4,2.8-1.4s2.1,0.7,3.3,1.4l0.5,0.2c2.4,0.2,5.2,0.9,6.8,1.4
		c-4.5,0.7-17.2,0.7-21,0C74.4,34.7,77.3,34.3,80.3,34z M79.1,48.5L79.1,48.5c-0.8,0.4-2.7,0.6-4.8,0.6c0-0.6-0.2-0.8-0.2-1.2
		C76.6,48.1,78.4,48.1,79.1,48.5z M74.7,59.9c0-0.2,0-0.4,0-0.8c2.1,0,4,0,4.8,0.2C79.3,59.5,78.4,59.7,74.7,59.9z M65.1,59.3
		c0.2,0,0.4,0,0.8,0c0,0.2,0,0.4,0,0.6c-0.2,0-0.4,0-0.4,0C65.3,59.7,65.1,59.5,65.1,59.3z M67.1,59.7c0-0.2,0-0.4,0-0.8
		c2,0,4.4-0.2,6.6-0.2c0,0.2,0,0.6,0,0.8C71.9,59.7,69.9,59.7,67.1,59.7z M74.7,58.1c0-0.6,0-1.2,0-1.7h-1c0,0.6,0,1,0,1.7
		c-2.3,0-5,0-6.9,0.2c0-0.6-0.2-1.2-0.2-1.9h-1c0,0.6,0.2,1.2,0.2,1.9c-0.4,0-1,0-1.2,0c-1.5-2.1-3.3-3.7-5.4-5.2c0-1.5,0-2.3,0-2.9
		c1,0.2,3.1,0.4,5.4,0.4c0.2,0,0.6,0,0.8,0c0,0.4,0,0.8,0,1.5h1c0-0.6,0-1,0-1.5c2.3,0,4.8-0.2,6.9-0.4c0,0.4,0,0.8,0.2,1.5h1
		c0-0.6,0-1-0.2-1.5c2.3-0.2,4.2-0.4,5.2-0.6c0.6,2.1,0.6,6.9,0.2,8.9C78.9,58.3,77,58.1,74.7,58.1z M59.1,49.3
		C59.1,49.3,59.1,49.1,59.1,49.3c0.8-0.4,3.3-0.6,6.2-1c0,0.2,0,0.6-0.2,1.2C62.4,49.5,59.9,49.5,59.1,49.3z M72.8,48.1
		c0,0,0.2,0.4,0.2,1.2c-2.1,0.2-4.6,0.2-6.9,0.2c0-0.6,0-1,0.2-1.2C68.7,48.1,71,48.1,72.8,48.1z M67.2,45.4c-1.9,0.4-4.1,0.9-6,1.1
		c-0.2-0.4-0.2-0.9-0.4-1.3c2.1-0.4,4.5-0.9,6.4-1.1C67.2,44.6,67.2,45,67.2,45.4z M60.2,46.7c-1.9,0.2-3.6,0.2-4.3,0
		c0,0,0-0.2-0.2-0.2c0.4-0.2,1.9-0.6,4.1-1.1C59.7,45.8,59.9,46.3,60.2,46.7z M68.3,45c0-0.4,0-0.6,0-1.3c1.5-0.2,2.8-0.2,3.2-0.2
		v0.2C71.1,44.1,69.8,44.6,68.3,45z M71.5,42.6c-0.6,0-1.9,0-3.4,0.2c0-0.6-0.2-1.5-0.2-2.4l-1.1,0.2c0.2,0.9,0.2,1.7,0.2,2.4
		c-2.1,0.2-4.5,0.6-6.6,1.1c-0.2-0.6-0.2-1.3-0.4-1.9l-1.1,0.2c0.2,0.4,0.2,1.1,0.4,1.9c-1.9,0.4-3.4,0.9-4.1,1.3
		c-1.1-2.8-2.1-9.6-2.1-12.6c0.9,0,2.4-0.2,4.1-0.4c0,0.6,0.2,1.3,0.2,1.9l1.1-0.2c-0.2-0.9-0.2-1.5-0.2-2.1
		c2.1-0.4,4.3-0.9,6.4-1.3c0.2,0.6,0.4,1.3,0.6,2.4l1.1-0.2c-0.2-0.9-0.4-1.7-0.6-2.4c1.7-0.4,3.2-0.6,3.6-0.9
		C70.4,32.8,71.7,39.6,71.5,42.6z M58.2,29.8c1.7-0.4,3.4-0.9,5.1-1.1c0.2,0.2,0.4,0.6,0.6,1.3c-1.9,0.4-4.1,0.9-6,1.3
		C58.2,30.4,58.2,30,58.2,29.8z M68.5,28.5c0,0,0.2,0.2,0.2,0.4c-0.6,0.2-1.9,0.4-3.6,0.9c-0.2-0.4-0.4-0.9-0.6-1.3
		C66.6,28.3,68.1,28.3,68.5,28.5z M57.2,30c0,0.4,0,0.9,0,1.3c-1.7,0.2-3,0.4-3.9,0.4c0-0.2,0-0.2,0-0.2
		C53.7,31.1,55.2,30.4,57.2,30z M52.3,39.9c0.6,3.2,1.4,7.2,2.8,8c0.4,0.2,1.4,0.4,2.4,0.4h0.2c-0.4,0.4-0.6,1.4-0.4,4
		c-1.8-0.8-3.6-1.4-5.6-1.8V39.9H52.3L52.3,39.9z M49.1,39.9h0.6v10.4c-0.2,0-0.4,0-0.6,0V39.9z M47.1,39.9v10.4
		c-3.2,0.2-6,1.4-8.6,3c0.2-1.6,0.4-3.4,0.6-5.2c0.8,0,1.6,0.2,2.4,0.2c1.2,0,2.2-0.2,2.6-0.4C45.3,46.7,46.3,43.1,47.1,39.9
		L47.1,39.9z M28.1,43.5c0,0,0-0.2-0.2-0.2c0.6,0,1.7,0.2,3,0.4c0,0.4,0,0.9,0,1.3C29.6,44.3,28.5,43.9,28.1,43.5z M32.2,45.2
		c0-0.4,0-0.9,0-1.3c1.9,0.4,4.3,0.9,6.4,1.3c-0.2,0.6-0.4,1.1-0.4,1.3C36,46.1,33.9,45.6,32.2,45.2z M39.2,46.5
		c0.2-0.4,0.2-0.9,0.4-1.3c1.9,0.4,3.4,0.9,4.1,1.1c0,0.2-0.2,0.2-0.2,0.2C42.9,46.9,41.2,46.9,39.2,46.5z M46.3,31.5
		c-0.6,0-2.1-0.2-4.1-0.4c0-0.4,0-0.9,0-1.3c1.9,0.4,3.6,1.1,4.1,1.5C46.3,31.3,46.3,31.3,46.3,31.5z M41.2,29.6c0,0.2,0,0.6,0,1.5
		c-1.9-0.2-4.1-0.6-6-1.1c0.2-0.6,0.6-1.1,0.6-1.3C37.5,28.7,39.4,29.1,41.2,29.6z M34.7,28.5c-0.2,0.2-0.4,0.6-0.6,1.3
		c-1.9-0.4-3.2-0.9-3.6-1.1c0,0,0-0.2,0.2-0.2C31.1,28.3,32.8,28.3,34.7,28.5z M30,29.6c0.6,0.4,1.9,0.6,3.6,1.1
		c-0.2,0.6-0.4,1.3-0.6,2.1l1.1,0.2c0.2-0.9,0.4-1.7,0.6-2.4c1.9,0.4,4.3,0.9,6.4,1.1c0,0.6-0.2,1.3-0.2,2.1l1.1,0.2
		c0.2-0.9,0.2-1.5,0.2-2.1c1.7,0.2,3.4,0.4,4.3,0.4l0,0c0,3-1.1,9.8-2.4,12.8c-0.6-0.2-2.1-0.6-4.3-1.1c0.2-0.6,0.4-1.3,0.4-1.9
		h-0.9c-0.2,0.6-0.4,1.3-0.4,1.9c-2.1-0.4-4.5-0.9-6.6-1.3c0-0.6,0.2-1.5,0.2-2.1l-1.1-0.2c-0.2,0.9-0.2,1.5-0.2,2.1
		c-1.3-0.2-2.6-0.4-3.2-0.4C27.9,39.2,29,32.4,30,29.6z M26.4,42c-1.9-0.2-3.7-0.4-5.6-0.4c0-0.4,0.2-0.6,0.2-1
		c1.5,0,3.1,0.2,5.2,0.4C26.2,41.2,26.4,41.6,26.4,42z M20.2,40.6c0,0.2-0.2,0.6-0.2,0.8c-1.9-0.2-3.5-0.2-4.4-0.2
		c0-0.2,0.2-0.4,0.2-0.4C16,40.6,17.4,40.6,20.2,40.6z M15.2,42.2c0.8,0,2.5,0,4.6,0.2c-0.2,0.8-0.4,1.7-0.4,2.7l1,0.2
		c0.2-1,0.4-2.1,0.4-2.7c1.9,0.2,3.7,0.2,5.8,0.4c0,0.4,0.2,0.6,0.4,0.8c0.4,0.4,1.2,1,2.5,1.5c0,0.2,0,0.4,0,0.8h1
		c0-0.2,0-0.2,0-0.4c1.9,0.6,4.4,1.2,6.9,1.7c-0.2,2.5-0.6,5.6-0.8,7.3c-2.1,1.9-4,4.2-5.2,6.7c-1,0-1.9-0.2-2.9-0.2
		c0.2-0.8,0.2-1.7,0.4-2.5l-1-0.2c-0.2,1-0.2,1.9-0.4,2.7c-3.5-0.2-6.2-0.6-8.5-0.6c0-0.8,0-1.7,0.2-2.7h-1c0,1,0,1.9-0.2,2.7
		c-2.1-0.2-3.5-0.2-4.4,0C13.1,56.2,13.9,46.2,15.2,42.2z M30.6,63.2c-0.8,0-1.7,0-2.5,0c0-0.4,0.2-0.6,0.2-1c0.8,0,1.7,0.2,2.7,0.2
		C30.8,62.6,30.6,62.8,30.6,63.2z M18.9,62.4c0-0.4,0-0.8,0-1.2c2.3,0.2,5,0.4,8.3,0.6c0,0.4-0.2,0.8-0.2,1.2
		C23.5,62.8,20.8,62.6,18.9,62.4z M13.7,61.2c0.6,0,2.1,0,4.2,0c0,0.4,0,0.8,0,1.2c-3.3-0.4-4-0.8-4-0.8S13.7,61.4,13.7,61.2z
		 M27.1,81.7l-9.8-7.2V64.1c2.4,0.4,6.4,0.6,12.6,1c-0.4,1.4-0.6,2.8-0.6,4.4c0,1.4,0.2,2.6,0.4,4L27.1,81.7z M48.9,86.7
		c-9.6,0-17.4-7.8-17.4-17.4s7.8-17.4,17.4-17.4s17.4,7.8,17.4,17.4S58.5,86.7,48.9,86.7z M76.5,72.3l-7.2,5.2l-1.6-4.6
		c0.2-1.2,0.4-2.4,0.4-3.6c0-2.8-0.6-5.2-1.6-7.6c0.2,0,0.4,0,0.6,0c4.4,0,7.2-0.2,9.2-0.2v6.4l-2.6,3.8l1.6,1.2l1-1.4L76.5,72.3z
		 M78.5,61.3c1.4-0.2,1.6-0.4,1.8-0.6c1-0.8,1.2-3.8,1.2-6.4c0-2.2-0.2-6.2-1.8-7.4c-0.2-0.2-0.8-0.4-1.6-0.4v-7.6
		c0.6,0.2,1.4,0.2,2.2,0.4c0.6,0.4,1.8,1,2.8,1.2v17.8l-4.6,6.8V61.3z M87.4,37.6L87.4,37.6l-0.5,0.2c-1.2,0.7-2.4,1.4-2.8,1.4
		s-2.1-0.7-3.3-1.4l-0.5-0.2c-2.1-0.2-4.2-0.7-5.9-1.2c0.2,0,0.5,0,0.5,0c1.9,0.2,4.7,0.2,7.8,0.2c6.6,0,10.1-0.2,12-0.7
		C93.6,36.9,90.5,37.3,87.4,37.6z"/>
</g>
</svg>
