<?xml version="1.0" encoding="utf-8"?>
<!-- Generator: Adobe Illustrator 24.1.3, SVG Export Plug-In . SVG Version: 6.00 Build 0)  -->
<svg version="1.1" xmlns="http://www.w3.org/2000/svg" xmlns:xlink="http://www.w3.org/1999/xlink" x="0px" y="0px"
	 viewBox="0 0 74 74" style="enable-background:new 0 0 74 74;" xml:space="preserve">
<style type="text/css">
	.st0{fill:#FCA605;}
</style>
<g id="colour">
	<path class="st0" d="M35.8,49.1c-1.1,0.4-2.2,0.8-3.3,1.1c-0.9,0.2-0.9-0.3-1.4-0.9c-1-1.3-2.6-1.9-3.6-3.1c0-0.2,0-0.4,0.1-0.6
		c0.1-0.2,0.2-0.4,0.3-0.6c0.2-0.3,0.4-0.5,0.6-0.7c0.8-0.7,0.7-2.1,0-2.8c-0.8-0.8-2-0.7-2.8,0c-0.2,0.2-0.4,0.4-0.6,0.6
		c-0.1,0-0.1,0.1-0.2,0.1c-2,1.8-4.2,3.3-6.6,4.6c-2.2,1.2-5.1,2.4-4.4,5.5c0.3,1.2,1.3,2.2,2.2,3c1,0.9,2,1.8,2.8,2.9
		c1.7,2.1,2.5,4.8,2.5,7.5c0,1.8,2.1,2.5,3.4,1.4c1.3-1.1,1.7-3,2.3-4.5c0.6-1.6,0.9-3.3,1.6-4.9c0.7-1.4,2.3-1.8,3.6-2.4
		c1.7-0.7,3.3-1.5,4.9-2.5C39.3,51.6,38,48.3,35.8,49.1z"/>
</g>
<g id="Layer_1">
	<path d="M28.3,61.7l0-0.1c1-3,1.4-4.2,2.2-5c0.7-0.6,1.8-1.1,3-1.6c0.3-0.1,0.6-0.2,0.8-0.3c1.1-0.5,2.1-1.2,3-2
		c0.9-0.9,2.1-3,1-4.1c-0.9-1-1.8-0.3-2.3,0.1c-0.1,0.1-0.2,0.2-0.3,0.2l-0.1,0.1c-1,0.5-2.2,1-3.3,0c-0.5-0.5-0.8-1.1-0.9-1.8
		l24-25.1c0.3-0.3,0.7-0.6,1.2-0.7c0.5-0.1,1.2,0,1.4,0c0.1,0,0.1,0,0.2,0c0.1,0,0.1-0.1,0.2-0.1l0.9-1c0.7-0.8,1.6-2.1,2.4-3.2
		l0.6-0.8c0.8-1.1,2.4-0.9,2.4-0.9c0.4,0.1,0.8-0.2,1.1-1.2c0.2-0.8,0.3-1.8-0.6-2.7c-0.8-0.8-1.7-0.6-2-0.4c0,0-0.2,0.1-0.5,0.3
		l-0.3-0.5l0.3-0.2c0.1-0.1,0.1-0.1,0.1-0.2s0-0.2,0-0.3l-0.5-1c0-0.1-0.1-0.1-0.2-0.2c-0.1,0-0.2-0.1-0.2-0.1l-0.6,0
		C61.1,9,61,9,61,9.1l-0.5,0.5c-0.1,0.1-0.1,0.1-0.1,0.2c0,0.1,0,0.2,0,0.2l0.5,1c0,0,0,0.1,0.1,0.1c0,0.1,0.1,0.1,0.2,0.1
		c0.1,0,0.1,0,0.2,0l0.3-0.1l0.3,0.5c-0.4,0.2-0.9,0.5-1.5,0.8l-0.4-0.7l0.3-0.2c0.1-0.1,0.1-0.1,0.1-0.2c0-0.1,0-0.2,0-0.3l-0.5-1
		c0-0.1-0.1-0.1-0.2-0.2c-0.1,0-0.2-0.1-0.2-0.1l-0.6,0c-0.1,0-0.2,0-0.3,0.1l-0.5,0.5c-0.1,0.1-0.1,0.1-0.1,0.2c0,0.1,0,0.2,0,0.2
		l0.5,1c0,0.1,0.1,0.2,0.2,0.2c0.1,0,0.2,0.1,0.3,0l0.3-0.1l0.4,0.8c-0.5,0.3-0.9,0.5-1.4,0.8L58,13.1l0.3-0.2
		c0.1-0.1,0.1-0.1,0.1-0.2s0-0.2,0-0.3l-0.5-1c0-0.1-0.1-0.1-0.2-0.2c-0.1,0-0.2-0.1-0.2-0.1l-0.6,0c-0.1,0-0.2,0-0.3,0.1L56,11.8
		c-0.1,0.1-0.1,0.1-0.1,0.2c0,0.1,0,0.2,0,0.2l0.5,1c0,0,0,0.1,0.1,0.1c0,0.1,0.1,0.1,0.2,0.1c0.1,0,0.1,0,0.2,0l0.3-0.1l0.4,0.7
		c-0.5,0.3-1,0.5-1.4,0.8l-0.3-0.6l0.3-0.2c0.1-0.1,0.1-0.1,0.1-0.2c0-0.1,0-0.2,0-0.3l-0.5-1c0-0.1-0.1-0.1-0.2-0.2
		c-0.1,0-0.2-0.1-0.2-0.1l-0.6,0c-0.1,0-0.2,0-0.3,0.1L53.9,13c-0.1,0.1-0.1,0.1-0.1,0.2c0,0.1,0,0.2,0,0.2l0.5,1
		c0,0.1,0.1,0.2,0.2,0.2c0.1,0,0.2,0.1,0.3,0l0.3-0.1l0.3,0.6c-0.5,0.3-1,0.6-1.4,0.8l-0.3-0.5l0.3-0.2c0.1-0.1,0.1-0.1,0.1-0.2
		c0-0.1,0-0.2,0-0.3l-0.5-1c0-0.1-0.1-0.1-0.2-0.2c-0.1,0-0.2-0.1-0.2-0.1l-0.6,0c-0.1,0-0.2,0-0.3,0.1l-0.5,0.5
		c-0.1,0.1-0.1,0.1-0.1,0.2c0,0.1,0,0.2,0,0.2l0.5,1c0,0.1,0.1,0.2,0.2,0.2c0.1,0,0.2,0.1,0.3,0l0.3-0.1l0.3,0.5
		c-0.2,0.1-0.3,0.2-0.3,0.2c-0.6,0.3-0.7,0.7-0.6,1.4c0.1,0.5-0.1,0.6-0.2,0.7L29.3,40.4c-2.3-0.6-1.9-3.6-0.6-5
		c1.1-1.1,1.3-1.8,0.6-2.5c-0.4-0.4-2.8-1.5-5.8,1.5c-1.5,1.5-2.2,3-2.9,4.5c-0.6,1.3-1.2,2.5-2.2,3.6c-1.5,1.5-3.5,2.2-5.3,2.8
		c-0.9,0.3-1.8,0.6-2.6,1.1c-2.2,1.2-2.9,1.6-4.2,2.9c-1.3,1.3-3.8,5.3,2.5,13.3c0.6,0.7,1.2,1.4,1.8,2c1.4,1.4,3.1,2.8,4.6,3.8
		c2.8,1.8,5.7,1.9,8,0.4C25.7,67.1,27.2,65,28.3,61.7z M61.7,10.4l-0.2,0.1L61.2,10l0.2-0.2l0.2,0l0.2,0.5L61.7,10.4z M59.4,11.4
		l-0.2,0.1l-0.2-0.5l0.2-0.2l0.2,0l0.2,0.5L59.4,11.4z M57.3,12.6L57,12.6l-0.2-0.5L57,12l0.2,0l0.2,0.5L57.3,12.6z M55.2,13.8
		l-0.2,0.1l-0.2-0.5l0.2-0.2l0.2,0l0.2,0.5L55.2,13.8z M53.1,15l-0.2,0.1l-0.2-0.5l0.2-0.2l0.2,0l0.2,0.5L53.1,15z M29.6,48.4
		c0.3,0.7,0.7,1.3,1.2,1.8c2.3,2.3,4.5,1,5.5,0.5c0.1,0,0.2-0.1,0.3-0.1c-0.1,0.2-0.4,0.6-1,1.2c-1,1-2.1,1.4-3.3,1.8
		c-1.2,0.4-2.4,0.9-3.3,1.9c-1,1-1.6,2.8-2.3,4.7c-0.7,1.9-1.3,3.8-2.3,4.7c-1,1-1.2,0.8-1.3,0.7c-0.2-0.2-0.3-0.8-0.3-2.3
		c-0.1-2-0.8-3.7-2.3-5.3c0.2-0.2,0.3-0.4,0.3-0.7c0-0.3-0.1-0.5-0.3-0.7l-0.2-0.2l1.4-1.4l0,0c0.2,0.2,0.5,0.3,0.7,0.3
		c0.3,0,0.5-0.1,0.7-0.3l0.5-0.5c0.2-0.2,0.3-0.5,0.3-0.7c0-0.3-0.1-0.5-0.3-0.7L23.6,53l5-5.1C29,48.1,29.3,48.3,29.6,48.4z
		 M15.9,53.4c-0.9-1-0.7-2.4,0.6-3.6c0.8-0.8,2.2-1.4,3.6-2c1.6-0.7,3.2-1.4,4.2-2.4c0.8-0.8,1.5-1.7,2.1-2.7
		c0.2-0.3,0.4-0.6,0.4-0.7c0.1,0,0.1,0.1,0.1,0.1c0.1,0.1,0.2,0.2,0.3,0.4l-1.6,1.5c-0.1,0.1-0.1,0.1-0.1,0.2c0,0.1,0,0.1,0,0.2
		c0.1,0.4,0.3,0.7,0.6,1.1l-5.1,5l-0.2-0.2c-0.2-0.2-0.5-0.3-0.7-0.3c-0.3,0-0.5,0.1-0.7,0.3l-0.5,0.5c-0.2,0.2-0.3,0.5-0.3,0.7
		s0.1,0.5,0.3,0.7l0.1,0.1l-1.4,1.4l-0.3-0.3c-0.2-0.2-0.4-0.3-0.7-0.3C16.3,53.1,16.1,53.2,15.9,53.4z M54.7,18.8
		c0.1,0,0.1,0,0.2,0L27.6,45.8c-0.1-0.1-0.2-0.3-0.3-0.4L54.7,18.8z M28.6,46.8c-0.1-0.1-0.3-0.2-0.4-0.4L58,16.8c0,0,0.1,0,0.1,0
		L28.6,46.8z M21.6,53.9l-0.5-0.5l0.9-0.9l0.5,0.5L21.6,53.9z M23.1,53.6L23.1,53.6c0.1,0.1,0.1,0.1,0.1,0.1c0,0,0,0.1,0,0.1
		c0,0,0,0.1,0,0.1c0,0,0,0.1,0,0.1l-0.5,0.5c0,0,0,0-0.1,0c0,0-0.1,0-0.1,0c0,0-0.1,0-0.1,0c0,0-0.1,0-0.1,0l-0.1-0.1L23.1,53.6z
		 M21,51.5l0.4,0.4l-0.9,0.9l-0.4-0.4L21,51.5z M19.6,51.8l-0.1-0.1c0,0,0,0,0-0.1c0,0,0-0.1,0-0.1c0,0,0-0.1,0-0.1s0-0.1,0-0.1
		l0.5-0.5c0,0,0,0,0.1,0c0,0,0.1,0,0.1,0s0.1,0,0.1,0c0,0,0.1,0,0.1,0l0.1,0.1L19.6,51.8z M20,53.4l-1.4,1.4l-0.4-0.4l1.4-1.4
		L20,53.4z M20.6,54l0.5,0.5l-1.4,1.4l-0.5-0.5L20.6,54z M22.6,52l5-5c0.2,0.1,0.3,0.3,0.4,0.4l-5,5.1L22.6,52z M27,46.4l-5,5
		L21.6,51l5.1-5C26.8,46.2,26.9,46.3,27,46.4z M16.4,54c0,0,0.1-0.1,0.2-0.1s0.1,0,0.2,0.1l0.3,0.3l-0.4,0.4c-0.1,0-0.2,0-0.3,0
		c-0.1,0-0.2,0.1-0.3,0.2C16,54.9,15.9,55,15.9,55c0,0.1,0,0.2,0,0.2s0,0.2,0.1,0.2c0,0.1,0.1,0.1,0.1,0.2c0.1,0.1,0.1,0.1,0.2,0.1
		c0.1,0,0.2,0,0.2,0c0.1,0,0.2,0,0.2,0c0.1,0,0.1-0.1,0.2-0.1c0.1-0.1,0.1-0.2,0.2-0.3l0.5-0.5l0.4,0.4l-0.4,0.4c-0.1,0-0.2,0-0.3,0
		c-0.1,0-0.2,0.1-0.2,0.1C17,56,17,56.1,17,56.1c0,0.1,0,0.2,0,0.2c0,0.1,0,0.2,0,0.2c0,0.1,0.1,0.1,0.1,0.2
		c0.1,0.1,0.1,0.1,0.2,0.1c0.1,0,0.2,0,0.2,0.1c0.1,0,0.2,0,0.2,0c0.1,0,0.1-0.1,0.2-0.1c0.1-0.1,0.1-0.1,0.1-0.2c0-0.1,0-0.2,0-0.3
		l0.4-0.4l0.5,0.5l-0.4,0.4c-0.1,0-0.2,0-0.3,0c-0.1,0-0.2,0.1-0.2,0.1c-0.1,0.1-0.1,0.1-0.1,0.2c0,0.1,0,0.2,0,0.2
		c0,0.1,0,0.2,0.1,0.2c0,0.1,0.1,0.1,0.1,0.2c0.1,0.1,0.1,0.1,0.2,0.1c0.1,0,0.2,0,0.2,0.1c0.1,0,0.2,0,0.2,0c0.1,0,0.1-0.1,0.2-0.1
		c0.1-0.1,0.1-0.1,0.1-0.2c0-0.1,0-0.2,0-0.3l0.4-0.4l0.2,0.2c0,0,0.1,0.1,0.1,0.2c0,0.1,0,0.1-0.1,0.2l-1.3,1.3
		c0,0-0.1,0.1-0.1,0.1c0,0-0.1,0-0.1-0.1l-3.2-3.2c0,0-0.1-0.1-0.1-0.2c0-0.1,0-0.1,0.1-0.2L16.4,54z M16.3,55.2l0.2,0.3
		C16.4,55.6,16.2,55.3,16.3,55.2C16.3,55.2,16.3,55.2,16.3,55.2z M17.4,56.3l0.3,0.3C17.5,56.6,17.3,56.4,17.4,56.3L17.4,56.3z
		 M18.8,57.6c-0.1,0.1-0.4-0.1-0.3-0.3L18.8,57.6L18.8,57.6z M52.7,19.4c0.2-0.2,0.6-0.6,0.5-1.4c-0.1-0.5-0.1-0.5,0.2-0.6
		c0.4-0.2,10.1-5.5,10.2-5.5c0.1,0,0.5-0.3,1,0.2c0.6,0.6,0.6,1.3,0.4,2c0,0.2-0.1,0.4-0.2,0.6c-0.4-0.1-2.1-0.2-3.1,1.2l-0.6,0.8
		c-0.8,1.1-1.7,2.3-2.4,3.1L58,20.5c-0.4-0.1-1-0.1-1.6,0c-0.6,0.1-1.1,0.5-1.5,0.9L29.7,47.6c-0.2-0.1-0.3-0.2-0.5-0.3l32-32.5
		c0.1,0,0.3,0.1,0.4,0c0.1,0,0.3-0.1,0.4-0.2c0.1-0.1,0.2-0.2,0.2-0.4c0-0.1,0-0.3,0-0.4c0-0.1-0.1-0.3-0.2-0.4
		c-0.1-0.1-0.2-0.2-0.4-0.2c-0.1,0-0.3,0-0.4,0c-0.1,0-0.3,0.1-0.4,0.2c-0.1,0.1-0.2,0.2-0.2,0.3c0,0.1,0,0.3,0,0.4L59,16
		c0-0.1,0-0.2-0.1-0.3c-0.1-0.1-0.1-0.2-0.2-0.3c-0.1-0.1-0.2-0.1-0.3-0.2c-0.1,0-0.2,0-0.3,0c-0.1,0-0.2,0.1-0.3,0.1
		c-0.1,0.1-0.2,0.2-0.2,0.3c-0.1,0.1-0.1,0.2-0.1,0.3c0,0.1,0,0.2,0,0.3l-1.7,1.7c0-0.2-0.1-0.4-0.2-0.5c-0.2-0.2-0.4-0.2-0.6-0.2
		c-0.2,0-0.4,0.1-0.6,0.2c-0.1,0.1-0.2,0.2-0.2,0.4c0,0.1,0,0.3,0,0.4L26.7,44.8c-0.1-0.2-0.2-0.3-0.3-0.5L52.7,19.4z M22.9,68
		c-2.8,1.9-5.9,0.3-7.1-0.4c-2.2-1.4-4.9-3.9-6.2-5.6C3.6,54.6,5.8,51,7,49.8c1.2-1.2,1.9-1.6,4-2.7c0.8-0.4,1.6-0.7,2.5-1
		c1.9-0.7,4-1.4,5.6-3c1.1-1.1,1.7-2.4,2.4-3.8c0.7-1.4,1.3-2.9,2.7-4.3c2.5-2.5,4.4-1.7,4.7-1.5c0.2,0.2,0.4,0.4-0.6,1.4
		c-1.4,1.4-1.9,4.1-0.4,5.6c0.3,0.3,0.6,0.5,0.9,0.6l-0.8,0.8c-0.1-0.1-0.2-0.3-0.3-0.4c-0.1-0.1-0.2-0.2-0.3-0.3
		c-0.1-0.1-0.3-0.1-0.4-0.1c-0.4,0-0.7,0.4-1.1,1c-0.6,0.9-1.2,1.8-2,2.5c-0.9,0.9-2.4,1.6-3.9,2.3c-1.5,0.7-3,1.3-3.8,2.2
		c-1.9,1.9-1.6,3.7-0.6,4.8l-0.7,0.7c-0.2,0.2-0.3,0.5-0.3,0.7c0,0.3,0.1,0.5,0.3,0.7l3.2,3.2c0.2,0.2,0.4,0.3,0.7,0.3
		c0.3,0,0.5-0.1,0.7-0.3l0.7-0.7c1.4,1.5,2,2.9,2.1,4.7c0.1,1.7,0.1,2.4,0.6,2.8c0.7,0.7,1.5,0.3,2.4-0.7c1.1-1.1,1.8-3.1,2.5-5
		c0.6-1.7,1.3-3.6,2.1-4.4c0.9-0.9,1.9-1.3,3.1-1.7c1.2-0.5,2.5-0.9,3.5-2c0.5-0.5,1.8-1.8,1-2.5C37,49.5,36.5,49.7,36,50
		c-1.1,0.6-2.7,1.5-4.6-0.3c-0.4-0.5-0.8-1-1.1-1.6l0.4-0.4c0.2,0.6,0.6,1.2,1,1.7c1.6,1.6,3.6,0.5,4.3,0.2l0.1-0.1
		c0.1-0.1,0.3-0.2,0.4-0.3c0.6-0.4,0.9-0.6,1.2-0.2c0.6,0.6-0.3,2.3-1,3C36,52.9,35.1,53.5,34,54c-0.3,0.1-0.5,0.2-0.8,0.3
		c-1.2,0.5-2.5,1-3.2,1.7c-0.9,0.9-1.4,2.2-2.4,5.3l0,0.1C26.5,64.6,25.1,66.5,22.9,68z"/>
</g>
</svg>
