<svg width="74" height="74" viewBox="0 0 74 74" fill="none" xmlns="http://www.w3.org/2000/svg">
<path d="M28.3209 61.7055L28.3559 61.6002C29.3436 58.6097 29.7522 57.372 30.5437 56.6255C31.1958 56.01 32.3767 55.5237 33.5194 55.0531C33.8025 54.9365 34.0825 54.8213 34.3533 54.7045C35.4793 54.2433 36.4911 53.5481 37.3227 52.6643C38.2099 51.7772 39.4277 49.6561 38.37 48.5365C37.4704 47.5762 36.556 48.2319 36.072 48.5871C35.9712 48.6655 35.8654 48.7375 35.7553 48.8026L35.6533 48.8584C34.6738 49.4004 33.4115 49.886 32.3406 48.8151C31.8391 48.3285 31.5067 47.6948 31.3937 47.0097L55.4424 21.9597C55.7597 21.6153 56.1714 21.3718 56.628 21.2583C57.101 21.1334 57.8333 21.2369 58.0759 21.2873C58.1447 21.3016 58.2156 21.2979 58.2818 21.2765C58.348 21.2551 58.4072 21.2169 58.4537 21.1655L59.338 20.1821C60.066 19.3726 60.974 18.1181 61.7753 17.012L62.3384 16.2363C63.1629 15.1098 64.7517 15.3742 64.7676 15.3768C65.1229 15.4395 65.6169 15.1722 65.8398 14.2142C66.0257 13.4157 66.1231 12.383 65.2179 11.4778C64.4321 10.6921 63.5544 10.8915 63.217 11.0968C63.1676 11.1235 62.9794 11.225 62.688 11.3823L62.4021 10.8533L62.6722 10.632C62.7427 10.5743 62.7909 10.4938 62.8088 10.404C62.8267 10.3142 62.8132 10.2204 62.7707 10.1381L62.249 9.12834C62.212 9.05657 62.1546 8.99706 62.0842 8.95745C62.0138 8.91783 61.9336 8.89991 61.8538 8.90597L61.2126 8.95378C61.1177 8.96091 61.0289 9.00144 60.9621 9.06819L60.4512 9.57914C60.3926 9.63754 60.354 9.71303 60.3407 9.79516C60.3274 9.87729 60.34 9.96201 60.3768 10.0376L60.8807 11.0776C60.9007 11.1191 60.9277 11.1571 60.9604 11.1897C61.0103 11.2397 61.0721 11.276 61.1397 11.2951C61.2074 11.3143 61.2785 11.3156 61.3461 11.2989L61.6872 11.2152L61.9831 11.7628C61.5522 11.9955 61.0348 12.2748 60.466 12.582L60.0634 11.8366L60.3333 11.6155C60.4037 11.5577 60.4519 11.4773 60.4698 11.3875C60.4877 11.2977 60.4743 11.2039 60.4318 11.1216L59.9103 10.1121C59.8733 10.0404 59.8159 9.98095 59.7455 9.94134C59.6751 9.90174 59.5949 9.88377 59.5152 9.88972L58.874 9.93754C58.779 9.94467 58.6903 9.98519 58.6235 10.0519L58.1128 10.5626C58.0544 10.621 58.0158 10.6964 58.0024 10.7785C57.9891 10.8605 58.0016 10.9452 58.0382 11.0208L58.5415 12.0607C58.5825 12.1454 58.6513 12.2139 58.7362 12.2543C58.8211 12.2947 58.9169 12.3046 59.0072 12.2824L59.3486 12.1986L59.7612 12.9626C59.2981 13.2128 58.816 13.4732 58.3302 13.7358L57.966 13.0616L58.2362 12.8402C58.3066 12.7825 58.3548 12.702 58.3727 12.6122C58.3906 12.5224 58.3772 12.4286 58.3347 12.3463L57.8132 11.3369C57.7762 11.2651 57.7188 11.2057 57.6484 11.1661C57.578 11.1265 57.4978 11.1085 57.4181 11.1145L56.7769 11.1623C56.6819 11.1694 56.5932 11.2099 56.5264 11.2767L56.0154 11.7876C55.9569 11.846 55.9183 11.9215 55.905 12.0037C55.8917 12.0858 55.9043 12.1705 55.9411 12.2461L56.445 13.2861C56.465 13.3276 56.4919 13.3656 56.5246 13.3982C56.5745 13.4482 56.6363 13.4846 56.704 13.5037C56.7716 13.5229 56.8428 13.5241 56.9104 13.5074L57.2512 13.4236L57.6255 14.1167C57.1373 14.3806 56.6565 14.6406 56.1984 14.8885L55.8782 14.2956L56.1481 14.0745C56.2186 14.0168 56.2668 13.9364 56.2847 13.8466C56.3026 13.7567 56.2892 13.6629 56.2466 13.5806L55.7249 12.5709C55.6877 12.4992 55.6303 12.4399 55.56 12.4003C55.4896 12.3607 55.4095 12.3427 55.3297 12.3485L54.6888 12.3966C54.5939 12.4037 54.5051 12.4442 54.4383 12.511L53.9276 13.0217C53.8692 13.0801 53.8306 13.1555 53.8173 13.2375C53.8039 13.3196 53.8164 13.4042 53.853 13.4798L54.3564 14.5198C54.3973 14.6045 54.4661 14.6729 54.551 14.7133C54.636 14.7538 54.7317 14.7637 54.822 14.7414L55.1634 14.6576L55.494 15.2698C54.9503 15.5643 54.462 15.829 54.0641 16.0452L53.7808 15.5206L54.051 15.2993C54.1214 15.2415 54.1696 15.1611 54.1875 15.0713C54.2054 14.9815 54.192 14.8877 54.1495 14.8054L53.6281 13.7959C53.5909 13.7242 53.5336 13.6648 53.4632 13.6252C53.3928 13.5856 53.3127 13.5676 53.2329 13.5735L52.5917 13.6213C52.4968 13.6285 52.408 13.669 52.3412 13.7357L51.8302 14.2467C51.7718 14.3051 51.7333 14.3805 51.7199 14.4626C51.7065 14.5446 51.719 14.6293 51.7557 14.7048L52.259 15.7448C52.2999 15.8295 52.3687 15.8979 52.4537 15.9384C52.5386 15.9788 52.6344 15.9887 52.7247 15.9665L53.066 15.8825L53.3608 16.4284C53.1787 16.528 53.0607 16.5932 53.0218 16.6159C52.4216 16.9652 52.2905 17.2746 52.4117 18.0567C52.4831 18.5162 52.291 18.6774 52.221 18.7328L29.3476 40.4328C27.0732 39.8558 27.4116 36.82 28.7638 35.4678C29.9072 34.3244 30.0665 33.6336 29.3523 32.9193C28.9223 32.4893 26.5354 31.4032 23.5305 34.4081C22.0631 35.8755 21.3488 37.4104 20.6574 38.8953C20.0521 40.1958 19.4802 41.4247 18.4389 42.4659C16.9837 43.9212 14.9613 44.6448 13.1767 45.2838C12.2898 45.5762 11.4247 45.9285 10.5874 46.3382C8.37499 47.5034 7.65212 47.9631 6.40443 49.2107C5.05847 50.5567 2.61179 54.5461 8.9498 62.5006C9.52355 63.2073 10.1355 63.8823 10.7828 64.5225C12.1583 65.8979 13.8525 67.347 15.3741 68.2889C18.2093 70.0432 21.119 70.1914 23.3562 68.6966C25.7452 67.0995 27.2299 65.009 28.3209 61.7055ZM61.697 10.3783L61.4601 10.4363L61.2269 9.95521L61.4345 9.74763L61.6589 9.73077L61.9052 10.2078L61.697 10.3783ZM59.358 11.3618L59.1215 11.42L58.8886 10.9387L59.0959 10.7314L59.3203 10.7145L59.5662 11.1913L59.358 11.3618ZM57.261 12.5865L57.0244 12.6448L56.7912 12.1637L56.9988 11.9561L57.2232 11.9393L57.4692 12.416L57.261 12.5865ZM55.1729 13.8208L54.936 13.8788L54.7034 13.3977L54.9107 13.1904L55.1348 13.1733L55.3811 13.6503L55.1729 13.8208ZM53.0758 15.0456L52.8387 15.1039L52.606 14.6228L52.8136 14.4152L53.038 14.3983L53.284 14.8751L53.0758 15.0456ZM29.618 48.4303C29.9083 49.1103 30.3224 49.7322 30.839 50.2638C33.1014 52.5262 35.3125 51.3089 36.3755 50.7234C36.4617 50.676 36.5565 50.624 36.6441 50.578C36.5407 50.7826 36.2892 51.1472 35.6836 51.7528C34.7323 52.7041 33.6046 53.1332 32.4106 53.5877C31.2462 54.031 30.0419 54.4895 29.0631 55.4683C28.0837 56.4477 27.4441 58.2572 26.7674 60.1729C26.1129 62.0249 25.4367 63.939 24.4739 64.9018C23.4945 65.8812 23.3181 65.7049 23.1894 65.5761C22.9745 65.3612 22.9194 64.7364 22.8703 63.3259C22.8006 61.3172 22.0736 59.6757 20.5467 58.0515C20.7183 57.8584 20.8088 57.6058 20.7996 57.345C20.7904 57.0842 20.6823 56.8349 20.4973 56.6478L20.2605 56.411L21.6363 55.0143L21.6836 55.0616C21.8789 55.2564 22.142 55.3673 22.4154 55.3699C22.6887 55.3725 22.9499 55.2666 23.1416 55.0754L23.691 54.5261C23.8822 54.3343 23.9881 54.0731 23.9855 53.7998C23.9829 53.5264 23.872 53.2633 23.6771 53.068L23.6148 53.0057L28.6607 47.8831C28.9564 48.1045 29.278 48.2883 29.618 48.4303ZM15.9068 53.3613C15.026 52.3235 15.2246 50.9811 16.4857 49.7201C17.2668 48.9389 18.6361 48.3284 20.0858 47.6824C21.6376 46.9906 23.2429 46.275 24.2493 45.2686C25.0515 44.4626 25.76 43.5684 26.362 42.6025C26.5573 42.302 26.7784 41.9611 26.8078 41.9154C26.8586 41.9436 26.9042 41.9805 26.9423 42.0245C27.0576 42.1456 27.1666 42.2726 27.269 42.4048L25.6669 43.9247C25.6134 43.9756 25.5752 44.0407 25.5568 44.1127C25.5383 44.1847 25.5402 44.2607 25.5623 44.3324C25.7088 44.7149 25.9121 45.0741 26.1652 45.3976L21.0212 50.4121L20.8653 50.2561C20.67 50.0613 20.4068 49.9504 20.1335 49.9478C19.8602 49.9452 19.599 50.0511 19.4072 50.2423L18.8579 50.7916C18.6667 50.9834 18.5608 51.2446 18.5634 51.5179C18.566 51.7912 18.6768 52.0544 18.8717 52.2497L19.0023 52.3802L17.5984 53.7489L17.2802 53.4307C17.0976 53.2508 16.8558 53.144 16.6019 53.1312C16.3481 53.1184 16.1003 53.2004 15.9068 53.3613ZM54.6663 18.7512C54.7169 18.7667 54.7688 18.7772 54.8213 18.7827L27.5783 45.8469C27.4569 45.7172 27.3489 45.5953 27.2491 45.4785L54.6663 18.7512ZM28.5807 46.8036C28.4466 46.6904 28.3053 46.5654 28.1539 46.4232L58.0185 16.7545C58.0625 16.7673 58.1074 16.7764 58.1527 16.7818L28.5807 46.8036ZM21.6214 53.8687L21.1419 53.3892L22.0077 52.5292L22.4778 52.9993L21.6214 53.8687ZM23.0538 53.5753L23.1118 53.6333C23.1328 53.6543 23.1496 53.6791 23.1611 53.7064C23.1726 53.7337 23.1787 53.7629 23.179 53.7923C23.1793 53.8217 23.1738 53.8508 23.1629 53.8779C23.1519 53.9049 23.1356 53.9295 23.115 53.9501L22.5657 54.4994C22.5451 54.52 22.5205 54.5363 22.4935 54.5473C22.4664 54.5583 22.4373 54.5638 22.4079 54.5635C22.3785 54.5632 22.3493 54.5571 22.322 54.5455C22.2947 54.534 22.2699 54.5172 22.2489 54.4962L22.1974 54.4447L23.0538 53.5753ZM21.0247 51.5463L21.4317 51.9532L20.566 52.8133L20.1508 52.3981L21.0247 51.5463ZM19.5748 51.8221L19.437 51.6844C19.416 51.6634 19.3993 51.6385 19.3877 51.6113C19.3762 51.584 19.3701 51.5548 19.3698 51.5254C19.3695 51.496 19.375 51.4669 19.386 51.4398C19.397 51.4127 19.4132 51.3882 19.4338 51.3676L19.9831 50.8182C20.0038 50.7976 20.0283 50.7814 20.0554 50.7704C20.0825 50.7594 20.1116 50.7539 20.141 50.7542C20.1704 50.7545 20.1996 50.7606 20.2269 50.7722C20.2541 50.7837 20.279 50.8004 20.2999 50.8215L20.4487 50.9702L19.5748 51.8221ZM19.9988 53.3768L18.608 54.7584L18.1744 54.3248L19.5783 52.9563L19.9988 53.3768ZM20.5747 53.9527L21.0604 54.4383L19.6846 55.835L19.1839 55.3344L20.5747 53.9527ZM22.5748 51.9657L27.589 46.9845C27.7398 47.1267 27.8831 47.2568 28.0194 47.3735L23.0389 52.4297L22.5748 51.9657ZM27.0136 46.4079L21.9989 51.3898L21.5972 50.9881L26.677 46.0362C26.7794 46.1547 26.8921 46.2786 27.0136 46.4079ZM16.3975 53.9933C16.4392 53.9516 16.496 53.9285 16.5555 53.929C16.615 53.9295 16.6723 53.9536 16.7148 53.996L17.0258 54.307L16.6278 54.695C16.5207 54.6615 16.4071 54.6572 16.2989 54.6827C16.1907 54.7081 16.0919 54.7624 16.0128 54.8398C15.9548 54.8976 15.9089 54.9666 15.8779 55.0427C15.8468 55.1187 15.8312 55.2005 15.8319 55.2832C15.8326 55.3659 15.8496 55.448 15.882 55.5247C15.9143 55.6015 15.9613 55.6714 16.0204 55.7304C16.0794 55.7894 16.1493 55.8365 16.226 55.8688C16.3028 55.9011 16.3848 55.9181 16.4676 55.9188C16.5503 55.9195 16.632 55.9039 16.7081 55.8729C16.7842 55.8419 16.8532 55.796 16.911 55.738C16.9989 55.6457 17.055 55.5275 17.0712 55.4002L17.6018 54.883L18.0408 55.3219L17.5981 55.7617C17.5077 55.7517 17.4166 55.7616 17.3312 55.7909C17.2458 55.8201 17.1682 55.8679 17.1039 55.9309C17.0459 55.9887 17 56.0577 16.9689 56.1338C16.9379 56.21 16.9223 56.2917 16.923 56.3745C16.9237 56.4572 16.9407 56.5393 16.973 56.6161C17.0054 56.6928 17.0524 56.7627 17.1115 56.8218C17.1705 56.8808 17.2405 56.9279 17.3172 56.9602C17.394 56.9926 17.4761 57.0096 17.5588 57.0103C17.6416 57.011 17.7233 56.9954 17.7994 56.9643C17.8756 56.9333 17.9445 56.8874 18.0024 56.8294C18.065 56.7656 18.1126 56.6887 18.142 56.604C18.1714 56.5194 18.1818 56.429 18.1725 56.3391L18.6167 55.8978L19.1235 56.4047L18.6832 56.8517C18.5937 56.8428 18.5037 56.8535 18.4195 56.883C18.3353 56.9124 18.2588 56.96 18.1953 57.0223C18.1373 57.0801 18.0914 57.1491 18.0604 57.2252C18.0293 57.3013 18.0137 57.383 18.0144 57.4657C18.0151 57.5484 18.0321 57.6305 18.0645 57.7073C18.0968 57.784 18.1438 57.8539 18.2029 57.9129C18.2619 57.9719 18.3318 58.019 18.4085 58.0513C18.4853 58.0836 18.5673 58.1007 18.6501 58.1014C18.7328 58.1021 18.8145 58.0864 18.8906 58.0554C18.9667 58.0244 19.0357 57.9785 19.0935 57.9205C19.1567 57.856 19.2046 57.7781 19.2338 57.6923C19.263 57.6065 19.2728 57.515 19.2624 57.4243L19.6995 56.9806L19.9319 57.2131C19.9743 57.2556 19.9984 57.3129 19.9989 57.3724C19.9994 57.4319 19.9763 57.4887 19.9346 57.5304L18.6775 58.7875C18.6427 58.8223 18.5953 58.8416 18.5456 58.8412C18.4959 58.8408 18.4481 58.8207 18.4126 58.7853L15.169 55.5418C15.1267 55.4992 15.1026 55.4419 15.1021 55.3825C15.1016 55.323 15.1247 55.2661 15.1664 55.2244L16.3975 53.9933ZM16.3383 55.1607L16.5877 55.416C16.4495 55.5521 16.1973 55.2998 16.3351 55.162C16.3359 55.1612 16.3374 55.1616 16.3383 55.1607ZM17.4272 56.2532L17.6791 56.507C17.5407 56.6434 17.2889 56.3904 17.4265 56.2534L17.4272 56.2532ZM18.7712 57.5982C18.6336 57.7358 18.3819 57.4844 18.5171 57.346L18.7718 57.5968L18.7712 57.5982ZM52.722 19.3701C52.9613 19.2186 53.3336 18.7484 53.2092 17.9476C53.1381 17.4895 53.1381 17.4895 53.4373 17.3151C53.8411 17.0801 63.513 11.8615 63.6231 11.8015C63.6746 11.7724 64.1413 11.5319 64.6525 12.0431C65.2661 12.6567 65.2077 13.3546 65.0534 14.0174C65.0234 14.2209 64.9396 14.4117 64.8106 14.5701C64.4089 14.5185 62.6829 14.3874 61.6842 15.7522L61.1184 16.5306C60.3289 17.6215 59.4338 18.8574 58.7334 19.636L57.9952 20.4569C57.642 20.404 56.9557 20.3333 56.4085 20.4778C55.8135 20.6261 55.2765 20.9424 54.861 21.3892L29.707 47.5904C29.5431 47.5043 29.3844 47.4084 29.2318 47.3033L61.2486 14.7995C61.3861 14.847 61.5331 14.857 61.6744 14.8286C61.8157 14.8002 61.9461 14.7344 62.0521 14.638C62.1582 14.5416 62.2359 14.4181 62.2774 14.2803C62.3188 14.1425 62.3224 13.9954 62.2879 13.8544C62.2533 13.7133 62.1818 13.5833 62.0807 13.478C61.9796 13.3726 61.8527 13.2957 61.7132 13.2552C61.5736 13.2146 61.4264 13.212 61.2868 13.2475C61.1473 13.283 61.0205 13.3554 60.9196 13.4572C60.8288 13.5505 60.7628 13.6651 60.7275 13.791C60.6921 13.9168 60.6884 14.05 60.7167 14.1788L58.9587 15.9635C58.9567 15.8454 58.9289 15.7288 58.8772 15.6217C58.8256 15.5146 58.7514 15.4196 58.6598 15.3434C58.5682 15.2672 58.4615 15.2116 58.347 15.1805C58.2326 15.1494 58.1132 15.1436 57.9972 15.1635C57.8812 15.1833 57.7714 15.2283 57.6755 15.2954C57.5796 15.3624 57.4999 15.4499 57.4419 15.5517C57.384 15.6534 57.3492 15.7671 57.34 15.8846C57.3309 16.0021 57.3475 16.1207 57.3888 16.232L55.6793 17.9303C55.667 17.7362 55.5847 17.5519 55.4478 17.4115C55.2936 17.2577 55.0858 17.1702 54.8699 17.1682C54.6541 17.1661 54.4479 17.2498 54.2965 17.4008C54.2007 17.4991 54.1325 17.6211 54.0984 17.7547C54.0644 17.8884 54.0657 18.0292 54.1022 18.1635L26.7457 44.8316C26.6307 44.6682 26.5258 44.498 26.4318 44.3218L52.722 19.3701ZM22.8992 68.0231C20.1074 69.8886 16.9973 68.3519 15.7896 67.6046C13.5476 66.2184 10.9152 63.6843 9.57763 62.0044C3.64781 54.563 5.78568 50.9814 6.98037 49.7867C8.17948 48.5876 8.84929 48.1731 10.9741 47.0539C11.7787 46.662 12.6095 46.3246 13.461 46.044C15.3239 45.3773 17.4349 44.6219 19.0149 43.0418C20.1544 41.9023 20.7548 40.6124 21.3907 39.2465C22.0528 37.824 22.7373 36.3532 24.1064 34.984C26.6266 32.4638 28.5398 33.2374 28.7869 33.4846C29.0128 33.7104 29.191 33.8887 28.1879 34.8918C26.7719 36.3079 26.2943 38.9981 27.7749 40.4787C28.0363 40.7323 28.3458 40.9308 28.6843 41.0621L27.8481 41.8554C27.7365 41.7214 27.6309 41.5825 27.5076 41.4591C27.4154 41.3494 27.3 41.2615 27.1699 41.202C27.0399 41.1425 26.8986 41.1129 26.7566 41.1156C26.3307 41.1557 26.0866 41.532 25.6825 42.1548C25.1099 43.074 24.4361 43.9251 23.6734 44.6926C22.7697 45.5964 21.2323 46.2817 19.746 46.944C18.2278 47.6208 16.7936 48.2603 15.9097 49.1442C14.0297 51.0242 14.3556 52.7993 15.3258 53.9131L14.5904 54.6485C14.399 54.8402 14.2929 55.1015 14.2954 55.375C14.2979 55.6484 14.4088 55.9117 14.6037 56.1071L17.8472 59.3507C18.0356 59.5386 18.2895 59.6454 18.5531 59.6478C18.8167 59.6502 19.0686 59.548 19.2535 59.3634L19.9909 58.626C21.37 60.1 22.0014 61.5299 22.0639 63.3387C22.1233 65.06 22.1836 65.701 22.624 66.1414C23.3552 66.8726 24.1228 66.4047 25.0498 65.4777C26.1385 64.389 26.8454 62.3886 27.5289 60.4542C28.1468 58.7058 28.7855 56.8978 29.639 56.0443C30.4991 55.1841 31.5733 54.7754 32.7098 54.343C33.9291 53.8784 35.1895 53.3987 36.2595 52.3288C36.7906 51.7977 38.0344 50.5539 37.2948 49.8143C36.9559 49.4754 36.5238 49.7135 35.9761 50.0149C34.8831 50.6168 33.2317 51.5258 31.4043 49.6985C30.9545 49.236 30.5956 48.6935 30.347 48.1L30.733 47.6979C30.9393 48.3329 31.2971 48.9106 31.7753 49.3805C33.4192 51.0244 35.4022 49.9268 36.0541 49.5662L36.1481 49.5144C36.2903 49.4323 36.4269 49.341 36.557 49.241C37.1351 48.8165 37.4078 48.6686 37.7884 49.0856C38.3795 49.7109 37.4501 51.3851 36.7467 52.0884C35.9857 52.9023 35.0569 53.5412 34.0221 53.9626C33.7557 54.0772 33.479 54.1913 33.1998 54.3063C31.9917 54.8041 30.7425 55.3182 29.9844 56.033C29.0481 56.9164 28.6211 58.2096 27.5889 61.3346L27.5539 61.4398C26.5229 64.5626 25.1306 66.5313 22.8992 68.0231Z" fill="black"/>
</svg>
