<svg width="49" height="32" viewBox="0 0 49 32" fill="none" xmlns="http://www.w3.org/2000/svg">
<path d="M48.4676 1.0321L48.15 0.610291C47.8622 0.228149 47.4047 0 46.9261 0C46.6575 0 46.3923 0.071228 46.1595 0.205994L2.11467 25.6882C1.93425 25.574 1.77629 25.5352 1.65007 25.5182C1.58238 25.509 1.51457 25.5046 1.44731 25.5046C0.963854 25.5045 0.514086 25.7286 0.244372 26.104C-0.000928476 26.4454 -0.0651985 26.8683 0.0681023 27.2641C0.258593 27.8301 0.592699 28.5082 1.06102 29.2795C1.56261 30.1054 1.89415 30.5988 2.1696 30.9292C2.37346 31.1738 2.67992 31.3143 3.01024 31.3143C3.45256 31.3143 3.96172 31.0546 4.2484 30.6827C4.4265 30.4518 4.51445 30.1789 4.50279 29.9078L48.0437 3.25989C48.4112 3.03491 48.6682 2.66315 48.7488 2.23981C48.8293 1.81653 48.7269 1.37628 48.4676 1.0321ZM35.7261 7.39752L41.9215 3.81317L42.7902 5.30267L36.6843 9.03967L35.7261 7.39752ZM36.2579 9.3006L33.9936 10.6863L32.9965 8.97675L35.2934 7.64783L36.2579 9.3006ZM42.3541 3.56287L44.8678 2.10858L45.6944 3.52527L43.2166 5.04169L42.3541 3.56287ZM3.26982 29.49C3.26982 29.49 3.46569 29.7966 3.50041 29.9288C3.54393 30.0943 3.18144 30.3143 3.01024 30.3143C2.97783 30.3143 2.95232 30.3064 2.93767 30.2888C2.65575 29.9507 2.28856 29.3742 1.91582 28.7604C1.5529 28.1628 1.20684 27.5126 1.0158 26.9451C0.935839 26.7076 1.18132 26.5045 1.44731 26.5046C1.47014 26.5046 1.49315 26.506 1.5161 26.5092C1.67174 26.5302 1.93517 26.9474 1.93517 26.9474L32.5639 9.22705L33.5672 10.9473L10.9336 24.7996L10.6567 24.2874C10.9032 24.1107 11.0747 23.8359 11.0747 23.51C11.0747 22.9739 10.6382 22.5374 10.1015 22.5374C9.56542 22.5374 9.12889 22.9739 9.12889 23.51C9.12889 24.0466 9.56542 24.4832 10.1015 24.4832C10.1313 24.4832 10.1565 24.4688 10.1856 24.4661L10.5069 25.0607L8.27587 26.4261L7.96892 25.8583C8.15709 25.6807 8.27782 25.4331 8.27782 25.1545C8.27782 24.6184 7.8413 24.1819 7.30467 24.1819C6.76854 24.1819 6.33202 24.6184 6.33202 25.1545C6.33202 25.6912 6.76854 26.1277 7.30467 26.1277C7.38207 26.1277 7.45073 26.1006 7.52294 26.0835L7.84929 26.6873L5.59777 28.0652L5.23033 27.3856C5.41832 27.2081 5.53905 26.9606 5.53905 26.6824C5.53905 26.1462 5.10253 25.7097 4.56639 25.7097C4.03026 25.7097 3.59374 26.1462 3.59374 26.6824C3.59374 27.2185 4.03026 27.655 4.56639 27.655C4.64366 27.655 4.71227 27.628 4.78441 27.6108L5.17119 28.3264L3.26982 29.49ZM9.62889 23.51C9.62889 23.2493 9.84081 23.0374 10.1015 23.0374C10.3623 23.0374 10.5747 23.2493 10.5747 23.51C10.5747 23.7708 10.3623 23.9832 10.1015 23.9832C9.84081 23.9832 9.62889 23.7708 9.62889 23.51ZM7.30467 25.6277C7.04393 25.6277 6.83202 25.4153 6.83202 25.1545C6.83202 24.8938 7.04393 24.6819 7.30467 24.6819C7.56542 24.6819 7.77782 24.8938 7.77782 25.1545C7.77782 25.4153 7.56542 25.6277 7.30467 25.6277ZM4.56639 27.155C4.30565 27.155 4.09374 26.9431 4.09374 26.6824C4.09374 26.4216 4.30565 26.2097 4.56639 26.2097C4.82714 26.2097 5.03905 26.4216 5.03905 26.6824C5.03905 26.9431 4.82714 27.155 4.56639 27.155ZM47.5217 2.40692L46.1208 3.26428L45.3004 1.85828L46.6603 1.07153C46.7437 1.02325 46.8354 1 46.9261 1C47.0884 1 47.2475 1.07422 47.3512 1.21185L47.6688 1.63361C47.8576 1.88434 47.7893 2.2431 47.5217 2.40692ZM15.312 21.5325C15.8486 21.5325 16.2851 21.0959 16.2851 20.5598C16.2851 20.0232 15.8486 19.5867 15.312 19.5867C14.7759 19.5867 14.3393 20.0232 14.3393 20.5598C14.3393 21.0959 14.7759 21.5325 15.312 21.5325ZM15.312 20.0867C15.5727 20.0867 15.7851 20.2991 15.7851 20.5598C15.7851 20.8206 15.5727 21.0325 15.312 21.0325C15.0513 21.0325 14.8393 20.8206 14.8393 20.5598C14.8393 20.2991 15.0513 20.0867 15.312 20.0867ZM19.104 19.3C19.6401 19.3 20.0766 18.8635 20.0766 18.3269C20.0766 17.7908 19.6401 17.3542 19.104 17.3542C18.5679 17.3542 18.1313 17.7908 18.1313 18.3269C18.1313 18.8635 18.5679 19.3 19.104 19.3ZM19.104 17.8542C19.3647 17.8542 19.5766 18.0662 19.5766 18.3269C19.5766 18.5876 19.3647 18.8 19.104 18.8C18.8432 18.8 18.6313 18.5876 18.6313 18.3269C18.6313 18.0662 18.8432 17.8542 19.104 17.8542ZM21.0259 18.1521C21.562 18.1521 21.9985 17.7156 21.9985 17.1794C21.9985 16.6433 21.562 16.2068 21.0259 16.2068C20.4897 16.2068 20.0532 16.6433 20.0532 17.1794C20.0532 17.7156 20.4897 18.1521 21.0259 18.1521ZM21.0259 16.7068C21.2866 16.7068 21.4985 16.9187 21.4985 17.1794C21.4985 17.4402 21.2866 17.6521 21.0259 17.6521C20.7651 17.6521 20.5532 17.4402 20.5532 17.1794C20.5532 16.9187 20.7651 16.7068 21.0259 16.7068ZM22.9477 17.1052C23.4839 17.1052 23.9204 16.6687 23.9204 16.1326C23.9204 15.5964 23.4839 15.1599 22.9477 15.1599C22.4116 15.1599 21.9751 15.5964 21.9751 16.1326C21.9751 16.6687 22.4116 17.1052 22.9477 17.1052ZM22.9477 15.6599C23.2085 15.6599 23.4204 15.8718 23.4204 16.1326C23.4204 16.3933 23.2085 16.6052 22.9477 16.6052C22.687 16.6052 22.4751 16.3933 22.4751 16.1326C22.4751 15.8718 22.687 15.6599 22.9477 15.6599ZM24.7793 15.9592C25.3159 15.9592 25.7524 15.5227 25.7524 14.9866C25.7524 14.4504 25.3159 14.0139 24.7793 14.0139C24.2432 14.0139 23.8066 14.4504 23.8066 14.9866C23.8066 15.5227 24.2432 15.9592 24.7793 15.9592ZM24.7793 14.5139C25.04 14.5139 25.2524 14.7258 25.2524 14.9866C25.2524 15.2473 25.04 15.4592 24.7793 15.4592C24.5185 15.4592 24.3066 15.2473 24.3066 14.9866C24.3066 14.7258 24.5185 14.5139 24.7793 14.5139ZM26.6113 14.8845C27.1474 14.8845 27.584 14.448 27.584 13.9119C27.584 13.3757 27.1474 12.9392 26.6113 12.9392C26.0752 12.9392 25.6387 13.3757 25.6387 13.9119C25.6387 14.448 26.0752 14.8845 26.6113 14.8845ZM26.6113 13.4392C26.8721 13.4392 27.084 13.6511 27.084 13.9119C27.084 14.1726 26.8721 14.3845 26.6113 14.3845C26.3506 14.3845 26.1387 14.1726 26.1387 13.9119C26.1387 13.6511 26.3506 13.4392 26.6113 13.4392ZM28.4536 13.8127C28.9897 13.8127 29.4263 13.3762 29.4263 12.8396C29.4263 12.3035 28.9897 11.8669 28.4536 11.8669C27.9175 11.8669 27.4809 12.3035 27.4809 12.8396C27.4809 13.3762 27.9175 13.8127 28.4536 13.8127ZM28.4536 12.3669C28.7143 12.3669 28.9263 12.5789 28.9263 12.8396C28.9263 13.1003 28.7143 13.3127 28.4536 13.3127C28.1929 13.3127 27.9809 13.1003 27.9809 12.8396C27.9809 12.5789 28.1929 12.3669 28.4536 12.3669ZM30.2876 12.7053C30.8237 12.7053 31.2602 12.2688 31.2602 11.7327C31.2602 11.196 30.8237 10.7595 30.2876 10.7595C29.751 10.7595 29.3144 11.196 29.3144 11.7327C29.3144 12.2688 29.751 12.7053 30.2876 12.7053ZM30.2876 11.2595C30.5483 11.2595 30.7602 11.4719 30.7602 11.7327C30.7602 11.9934 30.5483 12.2053 30.2876 12.2053C30.0268 12.2053 29.8144 11.9934 29.8144 11.7327C29.8144 11.4719 30.0268 11.2595 30.2876 11.2595ZM17.208 20.4617C17.7441 20.4617 18.1807 20.0251 18.1807 19.489C18.1807 18.9529 17.7441 18.5164 17.208 18.5164C16.6719 18.5164 16.2353 18.9529 16.2353 19.489C16.2353 20.0251 16.6719 20.4617 17.208 20.4617ZM17.208 19.0164C17.4687 19.0164 17.6807 19.2283 17.6807 19.489C17.6807 19.7498 17.4687 19.9617 17.208 19.9617C16.9473 19.9617 16.7353 19.7498 16.7353 19.489C16.7353 19.2283 16.9473 19.0164 17.208 19.0164ZM44.2941 3.60132C44.2941 3.82495 44.1128 4.00623 43.8891 4.00623C43.6655 4.00623 43.4842 3.82495 43.4842 3.60132C43.4842 3.37769 43.6655 3.19641 43.8891 3.19641C44.1128 3.19641 44.2941 3.37769 44.2941 3.60132Z" fill="black"/>
</svg>
