<?xml version="1.0" encoding="utf-8"?>
<!-- Generator: Adobe Illustrator 24.1.3, SVG Export Plug-In . SVG Version: 6.00 Build 0)  -->
<svg version="1.1" xmlns="http://www.w3.org/2000/svg" xmlns:xlink="http://www.w3.org/1999/xlink" x="0px" y="0px"
	 viewBox="0 0 49 32" style="enable-background:new 0 0 49 32;" xml:space="preserve">
<style type="text/css">
	.st0{fill:#FCA605;}
</style>
<g id="colour">
	<path class="st0" d="M36.3,7.5c-0.5-1-1.6-1.6-2.8-1c-5.6,2.9-11,6.1-16.3,9.4c-2.6,1.6-5.3,3.3-7.9,4.9C7.2,22.1,5,23.4,3,24.9
		c0,0-0.1,0-0.1,0.1c-0.1,0.1-0.3,0.2-0.4,0.3c0,0,0,0,0,0c0,0,0,0,0,0c0,0-0.1,0-0.1,0.1c-1.5-0.7-3.4,0.9-2.6,2.8l1.3,3
		c0.4,1,1.9,1.2,2.7,0.7c1-0.6,1.1-1.7,0.7-2.7c0-0.1,0-0.1-0.1-0.2c5.1-2,9.6-5.1,14.3-8c5.7-3.5,11.5-6.8,17.3-10.1
		C37.5,10,37.2,8.3,36.3,7.5z"/>
</g>
<g id="Layer_1">
	<path d="M48.5,1l-0.3-0.4C47.9,0.2,47.4,0,46.9,0c-0.3,0-0.5,0.1-0.8,0.2l-44,25.5c-0.2-0.1-0.3-0.2-0.5-0.2c-0.1,0-0.1,0-0.2,0
		c-0.5,0-0.9,0.2-1.2,0.6c-0.2,0.3-0.3,0.8-0.2,1.2c0.2,0.6,0.5,1.2,1,2c0.5,0.8,0.8,1.3,1.1,1.6c0.2,0.2,0.5,0.4,0.8,0.4
		c0.4,0,1-0.3,1.2-0.6c0.2-0.2,0.3-0.5,0.3-0.8L48,3.3c0.4-0.2,0.6-0.6,0.7-1C48.8,1.8,48.7,1.4,48.5,1z M35.7,7.4l6.2-3.6l0.9,1.5
		L36.7,9L35.7,7.4z M36.3,9.3L34,10.7L33,9l2.3-1.3L36.3,9.3z M42.4,3.6l2.5-1.5l0.8,1.4L43.2,5L42.4,3.6z M3.3,29.5
		c0,0,0.2,0.3,0.2,0.4c0,0.2-0.3,0.4-0.5,0.4c0,0-0.1,0-0.1,0c-0.3-0.3-0.6-0.9-1-1.5c-0.4-0.6-0.7-1.2-0.9-1.8
		c-0.1-0.2,0.2-0.4,0.4-0.4c0,0,0,0,0.1,0c0.2,0,0.4,0.4,0.4,0.4L32.6,9.2l1,1.7L10.9,24.8l-0.3-0.5c0.2-0.2,0.4-0.5,0.4-0.8
		c0-0.5-0.4-1-1-1c-0.5,0-1,0.4-1,1c0,0.5,0.4,1,1,1c0,0,0.1,0,0.1,0l0.3,0.6l-2.2,1.4L8,25.9c0.2-0.2,0.3-0.4,0.3-0.7
		c0-0.5-0.4-1-1-1c-0.5,0-1,0.4-1,1c0,0.5,0.4,1,1,1c0.1,0,0.1,0,0.2,0l0.3,0.6l-2.3,1.4l-0.4-0.7c0.2-0.2,0.3-0.4,0.3-0.7
		c0-0.5-0.4-1-1-1c-0.5,0-1,0.4-1,1c0,0.5,0.4,1,1,1c0.1,0,0.1,0,0.2,0l0.4,0.7L3.3,29.5z M9.6,23.5c0-0.3,0.2-0.5,0.5-0.5
		c0.3,0,0.5,0.2,0.5,0.5c0,0.3-0.2,0.5-0.5,0.5C9.8,24,9.6,23.8,9.6,23.5z M7.3,25.6c-0.3,0-0.5-0.2-0.5-0.5c0-0.3,0.2-0.5,0.5-0.5
		c0.3,0,0.5,0.2,0.5,0.5C7.8,25.4,7.6,25.6,7.3,25.6z M4.6,27.2c-0.3,0-0.5-0.2-0.5-0.5c0-0.3,0.2-0.5,0.5-0.5
		c0.3,0,0.5,0.2,0.5,0.5C5,26.9,4.8,27.2,4.6,27.2z M47.5,2.4l-1.4,0.9l-0.8-1.4l1.4-0.8C46.7,1,46.8,1,46.9,1
		c0.2,0,0.3,0.1,0.4,0.2l0.3,0.4C47.9,1.9,47.8,2.2,47.5,2.4z M15.3,21.5c0.5,0,1-0.4,1-1c0-0.5-0.4-1-1-1c-0.5,0-1,0.4-1,1
		C14.3,21.1,14.8,21.5,15.3,21.5z M15.3,20.1c0.3,0,0.5,0.2,0.5,0.5c0,0.3-0.2,0.5-0.5,0.5c-0.3,0-0.5-0.2-0.5-0.5
		C14.8,20.3,15.1,20.1,15.3,20.1z M19.1,19.3c0.5,0,1-0.4,1-1c0-0.5-0.4-1-1-1s-1,0.4-1,1C18.1,18.9,18.6,19.3,19.1,19.3z
		 M19.1,17.9c0.3,0,0.5,0.2,0.5,0.5s-0.2,0.5-0.5,0.5c-0.3,0-0.5-0.2-0.5-0.5S18.8,17.9,19.1,17.9z M21,18.2c0.5,0,1-0.4,1-1
		c0-0.5-0.4-1-1-1c-0.5,0-1,0.4-1,1C20.1,17.7,20.5,18.2,21,18.2z M21,16.7c0.3,0,0.5,0.2,0.5,0.5c0,0.3-0.2,0.5-0.5,0.5
		c-0.3,0-0.5-0.2-0.5-0.5C20.6,16.9,20.8,16.7,21,16.7z M22.9,17.1c0.5,0,1-0.4,1-1c0-0.5-0.4-1-1-1c-0.5,0-1,0.4-1,1
		C22,16.7,22.4,17.1,22.9,17.1z M22.9,15.7c0.3,0,0.5,0.2,0.5,0.5c0,0.3-0.2,0.5-0.5,0.5c-0.3,0-0.5-0.2-0.5-0.5
		C22.5,15.9,22.7,15.7,22.9,15.7z M24.8,16c0.5,0,1-0.4,1-1c0-0.5-0.4-1-1-1c-0.5,0-1,0.4-1,1C23.8,15.5,24.2,16,24.8,16z
		 M24.8,14.5c0.3,0,0.5,0.2,0.5,0.5c0,0.3-0.2,0.5-0.5,0.5c-0.3,0-0.5-0.2-0.5-0.5C24.3,14.7,24.5,14.5,24.8,14.5z M26.6,14.9
		c0.5,0,1-0.4,1-1c0-0.5-0.4-1-1-1s-1,0.4-1,1C25.6,14.4,26.1,14.9,26.6,14.9z M26.6,13.4c0.3,0,0.5,0.2,0.5,0.5
		c0,0.3-0.2,0.5-0.5,0.5c-0.3,0-0.5-0.2-0.5-0.5C26.1,13.7,26.4,13.4,26.6,13.4z M28.5,13.8c0.5,0,1-0.4,1-1c0-0.5-0.4-1-1-1
		s-1,0.4-1,1C27.5,13.4,27.9,13.8,28.5,13.8z M28.5,12.4c0.3,0,0.5,0.2,0.5,0.5c0,0.3-0.2,0.5-0.5,0.5S28,13.1,28,12.8
		C28,12.6,28.2,12.4,28.5,12.4z M30.3,12.7c0.5,0,1-0.4,1-1c0-0.5-0.4-1-1-1c-0.5,0-1,0.4-1,1C29.3,12.3,29.8,12.7,30.3,12.7z
		 M30.3,11.3c0.3,0,0.5,0.2,0.5,0.5c0,0.3-0.2,0.5-0.5,0.5c-0.3,0-0.5-0.2-0.5-0.5C29.8,11.5,30,11.3,30.3,11.3z M17.2,20.5
		c0.5,0,1-0.4,1-1s-0.4-1-1-1s-1,0.4-1,1S16.7,20.5,17.2,20.5z M17.2,19c0.3,0,0.5,0.2,0.5,0.5c0,0.3-0.2,0.5-0.5,0.5
		s-0.5-0.2-0.5-0.5C16.7,19.2,16.9,19,17.2,19z M44.3,3.6c0,0.2-0.2,0.4-0.4,0.4c-0.2,0-0.4-0.2-0.4-0.4s0.2-0.4,0.4-0.4
		C44.1,3.2,44.3,3.4,44.3,3.6z"/>
</g>
</svg>
