<svg width="49" height="36" viewBox="0 0 49 36" fill="none" xmlns="http://www.w3.org/2000/svg">
<path d="M45.0723 11.5833L44.282 6.49707C44.1335 5.66992 43.7873 3.38184 43.9646 2.73193C44.2244 1.77881 44.0544 0.34082 44.0471 0.279785L44.0134 0L40.7161 0.808105L40.8137 1.07129C40.8328 1.12305 41.2942 2.34668 42.2122 3.08984C42.5535 3.36621 42.8635 5.05762 42.9758 6.18115L43.5251 9.99261C40.8694 7.61121 38.0163 6.56927 34.1031 6.56921C33.9105 6.56921 33.7149 6.57172 33.5153 6.57684C31.0736 6.63922 29.1712 7.62347 28.1492 8.15222C27.9819 8.23877 27.7814 8.34253 27.6681 8.39276C27.5998 8.38232 27.496 8.36188 27.4144 8.34583C27.1235 8.28851 26.7251 8.21002 26.2747 8.21002C25.1238 8.21002 24.1289 8.72528 23.3176 9.74152C22.3534 10.9492 22.3813 12.1053 22.3998 12.8704C22.4076 13.1964 22.4151 13.5043 22.3389 13.644C20.5608 16.9036 20.5322 20.3091 21.0983 22.4094C21.2934 23.1331 21.7048 23.9389 22.22 24.748C19.8593 22.9063 17.3865 20.5106 16.2194 17.8983C15.4189 16.1068 15.1386 14.4062 15.4301 13.11C15.4545 13.0015 15.4871 12.8713 15.5234 12.7256C15.8865 11.2694 16.1902 9.76361 15.5845 8.75897C15.3271 8.33197 14.9347 8.04321 14.4501 7.92389C14.323 7.89258 14.1901 7.87677 14.055 7.87677C10.7084 7.87677 3.58513 20.4593 3.51592 20.5864C3.46288 20.6837 -1.7212 30.3862 0.595877 32.7571C0.9298 33.0988 1.34984 33.2794 1.81072 33.2794C2.81951 33.2794 3.69256 32.4207 4.61687 31.5115C4.93719 31.1965 5.26836 30.8707 5.56768 30.624C6.24987 30.0615 6.80981 29.8589 7.25982 29.696C7.4118 29.641 7.54851 29.5908 7.6693 29.5388C8.64959 29.1172 9.90087 28.9035 11.3884 28.9035C12.2114 28.9035 13.0926 28.966 14.0822 29.0946C16.5758 29.4186 19.6363 30.7988 22.5962 32.1335C25.6138 33.4943 28.4639 34.7796 30.9305 35.1177C31.5839 35.2073 32.3088 35.2547 33.0268 35.2547C34.9004 35.2547 37.7288 34.9377 40.5626 33.4274C43.3052 31.9658 46.8759 29.0598 48.3115 23.5161C48.9654 20.9912 48.5631 15.7729 45.0723 11.5833ZM42.5266 2.70117C41.9543 2.23779 41.5715 1.53369 41.3948 1.15674L43.5774 0.621582C43.6125 1.07471 43.6526 1.97656 43.4822 2.6001C43.2434 3.47607 43.7331 6.26953 43.7888 6.57959L44.4592 10.8942C44.3432 10.7715 44.2294 10.6479 44.1075 10.5276L43.4719 6.12061C43.4241 5.63867 43.1526 3.20801 42.5266 2.70117ZM24.0991 10.3654C24.8431 9.43341 25.6128 9.21002 26.2747 9.21002C26.7655 9.21002 27.1912 9.32855 27.5092 9.3764C28.0137 9.54486 28.9033 9.98468 29.343 11.0962C29.4485 11.3633 29.4368 11.7754 29.4236 12.2119C29.3977 13.1118 29.365 14.231 30.4709 14.5698C31.0505 14.7471 32.4602 14.8018 33.9807 14.8018C35.5964 14.8018 37.3354 14.7399 38.3373 14.6975C38.1808 14.9099 38.0843 15.1653 38.0633 15.4434C37.3512 15.4529 35.0774 15.4755 32.5315 15.4321C31.3918 15.4126 30.4075 15.3955 29.698 15.0635C28.7615 14.6255 28.7136 13.8223 28.6579 12.8921C28.5945 11.8276 28.5227 10.6211 26.8747 10.1553C26.4363 10.0317 25.7038 10.0498 25.0925 10.5127C24.6916 10.8159 24.2141 11.4165 24.2141 12.5562C24.2141 13.8301 24.9685 15.4121 26.6545 16.0747C27.5378 16.4214 29.3259 16.6528 31.969 16.7612C33.0115 16.8037 34.1252 16.8184 35.1462 16.8184C36.853 16.8184 38.2891 16.7785 38.7181 16.7656C38.9438 16.9113 39.2109 16.998 39.4988 16.998C39.7732 16.998 40.0275 16.917 40.2463 16.7838C40.2663 16.7924 40.278 16.8127 40.3005 16.8159C40.5832 16.8564 40.594 17.209 40.593 17.2793C40.5908 17.4941 40.5095 17.6164 40.4575 17.6411C40.2017 17.4127 39.868 17.2695 39.4988 17.2695C39.242 17.2695 39.0041 17.3425 38.7949 17.4603C38.2339 17.45 33.6583 17.3643 31.0139 17.2695C28.3245 17.1738 26.8113 16.9727 25.9543 16.5967C23.5876 15.5576 23.4148 13.3989 23.4084 13.3076L23.401 13.3081C23.4263 12.4844 23.1992 11.4925 24.0991 10.3654ZM42.7356 18.9991C43.084 19.0184 43.7473 19.0715 44.387 19.217C44.7241 19.2938 45.0461 19.4143 45.3173 19.521C45.3558 19.8035 45.3816 20.0697 45.3978 20.3276C45.1224 20.3941 44.7779 20.466 44.4175 20.4906C43.7698 20.5349 43.0898 20.4857 42.7356 20.452V18.9991ZM44.4175 18.7665C43.7698 18.8108 43.0898 18.7617 42.7356 18.728V17.275C43.084 17.2944 43.7473 17.3475 44.387 17.493C44.5698 17.5345 44.7486 17.5892 44.918 17.6476C45.02 17.9902 45.1009 18.3246 45.1699 18.6521C44.9393 18.7015 44.688 18.748 44.4175 18.7665ZM44.4175 17.0425C43.7698 17.0867 43.0898 17.0376 42.7356 17.0039V15.7847H41.262V22.1313H42.7356V20.7231C43.084 20.7425 43.7473 20.7956 44.387 20.9411C44.7655 21.0272 45.1247 21.1667 45.4133 21.2816C45.3992 21.6104 45.3729 21.9131 45.324 22.1499C44.8625 24.3833 43.9587 26.0928 42.303 27.8657C39.6898 30.6628 36.7758 31.2851 35.0301 31.3765C36.7555 30.6904 37.707 29.3261 38.0281 28.3315C38.3977 27.186 38.2952 25.9897 37.7537 25.1309C37.2131 24.2734 36.282 23.7505 34.9851 23.5757C32.845 23.2852 31.5188 24.2583 30.4529 25.0391C29.7454 25.5562 29.1301 26.0049 28.4631 25.9673C28.0017 25.9424 27.6955 25.772 27.5535 25.46C27.3098 24.9253 27.5603 24.0791 27.9324 23.6016C28.4656 22.9185 30.0227 22.9023 30.5901 22.9517L39.0853 23.2606C39.2172 23.3004 39.3541 23.3281 39.4988 23.3281C40.2966 23.3281 40.9455 22.6792 40.9455 21.8813C40.9455 21.6088 40.8653 21.3564 40.7338 21.1385C40.9493 20.9998 41.0893 20.7103 41.093 20.355C41.0969 19.9863 40.9446 19.688 40.6992 19.5228C40.8546 19.2922 40.9455 19.0147 40.9455 18.7163C40.9455 18.4695 40.8777 18.2405 40.7683 18.037C40.9622 17.8898 41.0895 17.6189 41.093 17.2847C41.0971 16.8908 40.9258 16.5745 40.6496 16.4185C40.8328 16.1761 40.9455 15.8779 40.9455 15.5513C40.9455 14.7534 40.2966 14.1045 39.4988 14.1045C39.3666 14.1045 39.2409 14.1281 39.1191 14.1614C38.8057 14.1769 31.9916 14.5123 30.6174 14.0913C29.9275 13.8804 29.8948 13.2158 29.9236 12.2266C29.9377 11.7373 29.9514 11.2749 29.8079 10.9126C29.7252 10.7037 29.6257 10.5213 29.5202 10.3508C31.7883 9.42133 34.0569 9.20624 35.345 9.42529C38.8469 10.0181 41.533 11.6504 43.3284 14.2773C43.937 15.1677 44.3718 16.0976 44.6959 17.0073C44.603 17.0195 44.5135 17.0359 44.4175 17.0425ZM42.2356 16.2847V21.6313H41.762V16.2847H42.2356ZM25.6371 27.4295C25.133 26.6323 24.2347 24.9231 24.7024 23.4634C25.5144 20.9292 27.5242 20.5039 28.3508 20.4385C29.4182 20.355 31.1081 20.5142 31.1247 20.5156L31.1248 20.5151C31.2605 20.5377 31.3558 20.5408 31.3655 20.541L38.5286 20.686C38.53 20.686 38.532 20.686 38.5334 20.686C38.6692 20.686 38.7805 20.5776 38.7834 20.4409C38.7864 20.3032 38.6765 20.189 38.5383 20.186L31.3728 20.041C31.3674 20.041 30.8245 20.0259 30.4954 19.6748C30.301 19.4668 30.2121 19.1724 30.2327 18.7998C30.2649 18.215 30.7687 17.863 30.9264 17.7665C30.9508 17.7674 30.9717 17.7687 30.9963 17.7695C33.246 17.8497 36.8855 17.9237 38.2767 17.9506C38.1368 18.1733 38.0525 18.4344 38.0525 18.7163C38.0525 18.7427 38.0589 18.7675 38.0603 18.7936L31.4568 18.6543C31.4548 18.6543 31.4529 18.6543 31.4514 18.6543C31.3157 18.6543 31.2043 18.7627 31.2014 18.8989C31.1985 19.0371 31.3079 19.1514 31.446 19.1543L38.1599 19.2959C38.1619 19.2959 38.1638 19.2959 38.1653 19.2959C38.1685 19.2959 38.1705 19.2926 38.1737 19.2925C38.3969 19.804 38.9062 20.1631 39.4988 20.1631C39.8073 20.1631 40.0922 20.0643 40.3273 19.8991C40.5778 19.9613 40.5939 20.2822 40.593 20.3496C40.5906 20.5825 40.4929 20.7212 40.4431 20.7275C40.4233 20.7299 40.413 20.748 40.3951 20.7546C40.1479 20.5574 39.8389 20.4346 39.4988 20.4346C38.8499 20.4346 38.3058 20.8671 38.1233 21.4571C37.2987 21.4363 34.7387 21.3725 33.6472 21.3525C33.0085 21.3408 32.3835 21.3208 31.7976 21.3027C30.1804 21.252 28.9016 21.2109 28.3533 21.3613C27.2571 21.6606 26.4387 22.2476 25.9866 23.0586C25.593 23.7642 25.5076 24.5977 25.7458 25.4053C26.6262 28.3936 28.7327 29.1948 30.156 29.7363C30.5007 29.8672 31.3669 30.0415 32.3645 30.0415C33.616 30.0415 35.074 29.7671 35.9665 28.7886C36.6355 28.0552 36.8401 26.9546 36.4641 26.1123C36.26 25.6553 35.6975 24.9116 34.2546 24.9019C33.4709 24.9082 32.5618 25.46 31.5989 26.0439C30.9353 26.4463 30.2493 26.8623 29.6023 27.0972C28.2019 27.6045 26.9158 26.7061 26.7864 26.6118C26.5681 26.2261 26.3777 25.7808 26.2253 25.2637C26.0256 24.5859 26.0959 23.8896 26.4231 23.3022C26.8083 22.6113 27.5217 22.1069 28.4851 21.8438C28.9612 21.7139 30.2683 21.7544 31.782 21.8022C32.3699 21.8208 32.9968 21.8403 33.6379 21.8525C34.7053 21.8721 37.1814 21.9337 38.06 21.9558C38.0751 22.2458 38.1737 22.5123 38.3353 22.7327L30.6223 22.4526C30.5286 22.4434 28.3479 22.2544 27.5378 23.2939C27.0725 23.8911 26.7605 24.9263 27.0984 25.6675C27.2537 26.0073 27.6116 26.4224 28.4368 26.4663C29.2703 26.5122 29.9963 25.9927 30.7483 25.4424C31.7942 24.6772 32.9822 23.814 34.9187 24.0708C36.0613 24.2251 36.8728 24.6714 37.3303 25.3975C37.7937 26.1323 37.8767 27.1719 37.5525 28.1782C37.0124 29.8477 34.843 32.3013 30.1228 30.9058C27.8187 30.2234 25.7392 27.562 25.6371 27.4295ZM25.7532 17.0547C26.5774 17.4162 27.9325 17.6246 30.1925 17.7347C29.9697 17.978 29.7587 18.3193 29.7336 18.7725C29.7074 19.2482 29.8262 19.6382 30.0741 19.9409C29.5169 19.9131 28.8486 19.8976 28.3118 19.9404C26.5368 20.0805 25.112 21.1642 24.4043 22.8588C24.0258 22.2294 23.3712 20.7661 23.6472 18.437C23.7573 17.5136 23.9329 16.7094 24.1579 15.9614C24.5528 16.3694 25.07 16.7547 25.7532 17.0547ZM40.4455 18.7163C40.4455 19.2383 40.0207 19.6631 39.4988 19.6631C38.9768 19.6631 38.5525 19.2383 38.5525 18.7163C38.5525 18.1943 38.9768 17.7695 39.4988 17.7695C40.0207 17.7695 40.4455 18.1943 40.4455 18.7163ZM38.5525 21.8813C38.5525 21.3594 38.9768 20.9346 39.4988 20.9346C40.0207 20.9346 40.4455 21.3594 40.4455 21.8813C40.4455 22.4033 40.0207 22.8281 39.4988 22.8281C38.9768 22.8281 38.5525 22.4033 38.5525 21.8813ZM27.4314 27.5137C28.0383 27.7427 28.8762 27.8931 29.7722 27.5669C30.4661 27.3154 31.1736 26.8867 31.8581 26.4717C32.7605 25.9243 33.613 25.4072 34.2585 25.4019C35.1545 25.4121 35.7371 25.7104 36.0076 26.3159C36.3 26.9722 36.1277 27.8701 35.5974 28.4517C34.1858 29.9985 31.0168 29.5298 30.3039 29.2573C29.4163 28.9199 28.3176 28.502 27.4314 27.5137ZM24.7141 12.5562C24.7141 11.8169 24.949 11.248 25.3938 10.9116C25.8303 10.5825 26.3845 10.5376 26.739 10.6367C26.9911 10.708 27.1847 10.8038 27.3525 10.911C26.3389 11.5613 25.5085 12.3197 24.8992 13.1792C24.8696 13.2209 24.845 13.2656 24.8164 13.3079C24.7448 13.0272 24.7141 12.767 24.7141 12.5562ZM25.3074 13.4683C25.9038 12.6265 26.7269 11.8823 27.7446 11.2494C28.0854 11.6901 28.1207 12.2784 28.1589 12.9219C28.2156 13.8735 28.28 14.9526 29.4861 15.5166C30.2922 15.8936 31.3259 15.9116 32.5227 15.9321C35.1294 15.9773 37.4515 15.9525 38.1132 15.9431C38.1469 16.0619 38.1945 16.174 38.2556 16.2782C37.0842 16.3083 34.3544 16.3595 31.9895 16.2612C29.4021 16.1553 27.6687 15.936 26.8371 15.6089C25.88 15.2329 25.3326 14.5596 25.0315 13.8976C25.1185 13.7521 25.2082 13.6077 25.3074 13.4683ZM38.5525 15.5513C38.5525 15.0293 38.9768 14.6045 39.4988 14.6045C40.0207 14.6045 40.4455 15.0293 40.4455 15.5513C40.4455 16.0732 40.0207 16.498 39.4988 16.498C38.9768 16.498 38.5525 16.0732 38.5525 15.5513ZM22.0638 22.149C21.5663 20.3033 21.5845 17.2563 23.1308 14.3023C23.2571 14.6589 23.4574 15.0773 23.7672 15.4974C23.4828 16.3564 23.2792 17.2977 23.1511 18.3784C22.7983 21.3534 23.8732 23.025 24.1923 23.4474C23.9545 24.3254 24.1112 25.2443 24.394 26.0394C23.359 24.7463 22.3734 23.2976 22.0638 22.149ZM47.3434 23.2654C46.1236 27.9757 43.1481 30.9164 40.0922 32.5449C37.5508 33.8994 34.966 34.2547 33.0268 34.2547C32.2574 34.2547 31.5893 34.1987 31.0663 34.127C26.3003 33.4736 19.363 28.7723 14.2111 28.103C13.2983 27.9844 12.3399 27.9036 11.3884 27.9036C9.93786 27.9036 8.50359 28.0915 7.27428 28.6202C6.77685 28.834 5.96422 29.001 4.93157 29.8524C3.85485 30.7401 2.6787 32.2794 1.81072 32.2794C1.62951 32.2794 1.46166 32.2122 1.31103 32.0581C-0.0440768 30.6715 2.95806 23.701 4.39409 21.0648C5.91784 18.2673 11.8939 8.87677 14.055 8.87677C14.1094 8.87677 14.1617 8.88275 14.2111 8.8949C15.5295 9.21942 14.677 11.9012 14.4545 12.8907C14.1016 14.4597 14.4545 16.3997 15.3063 18.3062C17.3681 22.9206 23.1028 26.7944 25.837 28.4406C26.6622 29.3538 28.2338 30.8678 29.9812 31.3853C30.9905 31.6841 31.8933 31.8125 32.6975 31.812C32.9369 31.812 33.1493 31.7789 33.3712 31.7573L33.3611 31.8096C33.3757 31.812 33.8103 31.8916 34.5237 31.8916C36.2654 31.8916 39.6682 31.4189 42.6682 28.207C44.3913 26.3618 45.3323 24.5811 45.8132 22.2515C45.8603 22.024 45.8909 21.7504 45.9101 21.4532C45.9249 21.4556 45.9527 21.4673 45.9642 21.4673C46.4067 21.4673 46.7654 21.1827 46.7654 20.8317C46.7654 20.4807 46.4067 20.1962 45.9642 20.1962C45.9519 20.1962 45.9155 20.2062 45.8957 20.2096C45.8846 20.0455 45.8794 19.889 45.8599 19.7161C45.8939 19.7247 45.9419 19.7432 45.9642 19.7432C46.4067 19.7432 46.7654 19.4587 46.7654 19.1077C46.7654 18.7567 46.4067 18.4721 45.9642 18.4721C45.9182 18.4721 45.8035 18.5008 45.6636 18.5368C45.6172 18.3177 45.5585 18.0926 45.4981 17.8666C45.71 17.9509 45.8841 18.0192 45.9642 18.0192C46.4067 18.0192 46.7654 17.7346 46.7654 17.3836C46.7654 17.0326 46.4067 16.748 45.9642 16.748C45.8765 16.748 45.5786 16.8387 45.201 16.9214C44.8603 15.9509 44.3972 14.9551 43.741 13.9951C41.866 11.252 39.0691 9.54883 35.428 8.93213C34.0526 8.70026 31.6114 8.92676 29.2107 9.9361C28.925 9.60376 28.6117 9.35846 28.313 9.18909C29.2278 8.73181 31.0751 7.63953 33.5408 7.57648C33.7317 7.57159 33.9188 7.56921 34.1031 7.56921C38.5138 7.56934 41.0466 8.95618 43.297 11.126C47.3902 15.0729 48.0201 20.6525 47.3434 23.2654Z" fill="black"/>
</svg>
