<?xml version="1.0" encoding="utf-8"?>
<!-- Generator: Adobe Illustrator 24.1.3, SVG Export Plug-In . SVG Version: 6.00 Build 0)  -->
<svg version="1.1" id="Layer_1" xmlns="http://www.w3.org/2000/svg" xmlns:xlink="http://www.w3.org/1999/xlink" x="0px" y="0px"
	 viewBox="0 0 100 100" style="enable-background:new 0 0 100 100;" xml:space="preserve">
<style type="text/css">
	.st0{fill:#75A1CE;}
</style>
<g id="colour">
	<path class="st0" d="M78.4,25.8c-3-2.8-7.6-2.8-11-0.8c-0.2,0.2-1,0.6-1.6,1.2c-0.4-1.8-1.4-3.8-2-5.6c-1.6-4-4-7.8-7.4-10.4
		C53,7.4,49,5.8,45,4.4C40.6,2.8,35.8,2.6,33,7c-1,1.6-0.6,3.6,0.6,4.8c2,17.4,4.8,33.4,6.2,50.6c0.2,4,0.8,10,0.2,14
		c-0.2,1.4-0.2,3.4-1.2,4.4c-1.4,1.4-2.6,1-3.8,2.8c-5,9.2,6.6,11.4,12.4,12c3.4,0.4,11,0.2,14-1.4c4-2.2,1.6-4.4,2-8.2
		c1.2-8.4,4.8-16.8,7.8-24.4c1.6-4.2,2-7.2,3.8-12c0.8-2.2,1.8-5.4,2.8-8.2c0.4-1.8,1.4-3.2,1.8-5C80.8,32.6,81.6,28.8,78.4,25.8z
		 M50.4,78.2C50.2,77.8,50,77.4,50,77c-0.4-1-0.6-1.8-0.8-2.8c-1-3.8-1.4-7-1.8-10.6c0-0.6-0.2-1.2-0.6-1.8c-0.8-10-2-20-3-30.2
		c0.4-0.6,0.6-1.2,0.6-2c0-1.2,0-2.4,0.2-3.8c0-0.4,0-0.8,0-1.4v-0.8c0-0.4,0.2-0.8,0.2-1.2l0.2-0.8c0.2-0.2,0.2-0.6,0.4-0.8
		c0,0.2,0.6-0.2,0.2-0.2c3.2-1,5.8,3.6,7.4,6c2.4,3.8,3.6,8.6,7.6,11c2.2,1.2,5,1.6,7.4,0.6c1.2-0.6,2-1.2,3-2
		c0.2-0.2,0.4-0.2,0.6-0.4c-0.2,0.4-0.2,1-0.4,1.4s-0.2,1-0.4,1.4c-0.4,0.6-0.6,1.4-0.6,2.2V41c-0.2,0.8-0.4,1.6-0.6,2.4
		c-0.4,1.8-0.8,3.4-1.2,5.2c-0.6,1.2-1,2.4-1.6,3.4c-1.6,3.8-3.2,7.4-4.8,11.2c-1.2,2.6-2.2,5.2-3.4,7.6c-0.8,1.4-1.6,2.8-2.4,4.2
		c-1,1.6-2.2,3.2-3.4,4.8c0.2,0.6-0.2,1-0.4,1.4c0,0.2-0.2,0.2-0.4,0.4c-0.4-0.8-0.8-1.6-1.2-2.4C50.8,79.2,50.6,78.4,50.4,78.2z"/>
</g>
<g id="Layer_1_1_">
	<path d="M76.2,25.2c-1-0.4-2-0.8-2.8-0.8c-2.8,0-4.8,2-6.2,3.6c-0.6,0.6-1.4,1.4-1.8,1.6c-0.6-0.6-1.4-3-2-4.8
		c-0.6-2-1.4-4.2-2.4-6.2C55.8,8.6,47.8,6.4,45.8,6c-1-0.6-2.8-1.6-5.2-1.6C37,4.4,35.2,6.8,35,7l-0.6,0.8l0.2,0.8
		c0,0,2,9.2,2.4,12.2c1.6,12.4,3.6,50,3.6,50.4C40.8,76,40.2,81,39.4,82c0,0.2-0.8,0.4-1.2,0.4c-1.2,0.4-3,0.8-3.4,2.6
		c-0.6,2.4,0,5.4,0,5.8v0.4l0.2,0.4c0.8,1,3.4,2.8,13.6,3.2c1,0,2,0,3,0c5.2,0,8.6-0.6,9.8-1.8l0.4-0.6v-0.8l0.2-5.4L79.8,33
		C80.4,31.2,80.4,27.2,76.2,25.2z M77.8,32.4L60,85.8l-0.2,5.6c0,0-1.2,1.2-8.4,1.2c-0.8,0-1.8,0-2.8,0c-10.6-0.4-12-2.4-12-2.4
		s-0.6-3,0-4.8c0.4-1.2,3.4-1,4.4-2.2c2-2.4,1.6-12.2,1.6-12.2s-2-38-3.6-50.6c-0.2-3-2.4-12.2-2.4-12.2s1.4-1.8,4-1.8
		C43,6.4,44.8,8,44.8,8S53.6,9,59,19.8c2.6,4.8,3.2,11.8,5.8,12l0,0c2.6,0,4.6-5.4,8.2-5.4c0.6,0,1.2,0.2,2,0.6
		C79,28.8,77.8,32.4,77.8,32.4z M75.2,29.4c-0.8-0.4-1.8,0-2.4,1.2l-0.2,0.2c-2.4,5.2-5.4,7.8-8.2,7.2c-4.8-0.8-7-6-9-10.8
		c-0.6-1.4-1.2-2.8-1.8-3.8c-1-2.4-3.2-5.2-5.8-5.4c-1,0-2,0.2-2.6,1c-2,2-1.4,6.6-1.4,6.8s0.8,12.4,1.2,25.8
		c0.4,8.8,1.4,19.8,2.6,26.4l0,0l0,0c0.4,2.4,0.8,4.2,1.4,5c1.4,3,4.4,3,4.6,3l0,0H54l19-45.4c0,0,2.4-6.2,3.2-8.2
		C76.6,30.6,76,29.6,75.2,29.4z M73.4,31.6c0,0.2,0,0.6-0.2,0.8c-1.4,2.6-3.6,6.2-5.8,10.2l-0.2-4.2C69.2,38,71.4,36,73.4,31.6z
		 M66.2,39l0.2,5.4c-0.2,0.4-0.4,0.8-0.6,1.2L65.4,39C65.6,39,66,39,66.2,39z M56.4,64.2c0.4-0.8,0.8-1.4,1.2-2.2l0.6,10.8L56.8,76
		L56.4,64.2z M56,78l-1.2,2.8L54,68c0.4-0.8,0.8-1.4,1.2-2.2L56,78z M58.6,60.4c0.2-0.4,0.6-1,0.8-1.4l0.6,9.8l-0.8,1.8L58.6,60.4z
		 M58.4,58.4l-1.6-26c0.4,0.6,0.6,1.2,1,1.6l1.4,23C59,57.6,58.8,58,58.4,58.4z M60.2,57.4c0.4-0.8,0.8-1.4,1.2-2.2l0.6,8.6
		l-1.2,2.8L60.2,57.4z M62.4,53.6c0.4-0.6,0.6-1,1-1.6l0.4,7.6L63,61.8L62.4,53.6z M64.8,47.2c-0.2,0.4-0.6,0.8-0.8,1.4l-0.6-9.8
		c0.2,0,0.6,0.2,0.8,0.2L64.8,47.2z M63.2,50.2c-0.4,0.6-0.6,1-1,1.6L61.4,38c0.4,0.2,0.6,0.4,1,0.6L63.2,50.2z M64.2,50.4
		c0.2-0.4,0.6-0.8,0.8-1.4l0.4,6.6l-0.8,1.8L64.2,50.4z M66,47.4c0.2-0.4,0.4-0.8,0.6-1.2l0.2,6l-0.6,1.2L66,47.4z M60.4,37.2
		l1,16.2c-0.4,0.8-0.8,1.4-1.2,2.2l-1.2-20C59.4,36.2,59.8,36.8,60.4,37.2z M55.8,30.2l1.8,30c-0.4,0.8-0.8,1.6-1.2,2.2l-2-35.2
		c0,0.2,0.2,0.2,0.2,0.4C55,28.6,55.4,29.4,55.8,30.2z M53.4,24.8l2,39.2c-0.4,0.8-0.8,1.6-1.2,2.2L51.6,22c0.4,0.6,1,1.4,1.2,2
		C53,24.2,53.2,24.6,53.4,24.8z M50,75.2c0.4-0.6,0.6-1.2,1-1.8l0.8,11.2c-0.4-0.2-0.8-0.4-1.2-0.8L50,75.2z M49.8,73.4l-3.6-54
		c0.2-0.2,0.6-0.4,1-0.4L51,71.6C50.6,72.2,50.2,73,49.8,73.4z M48.2,19c0.8,0.2,1.6,0.8,2.4,1.6l2.6,47.2c-0.4,0.8-1,1.6-1.4,2.4
		L48.2,19z M45.8,51.4c-0.4-13.4-1.2-25.8-1.2-25.8c0-1,0-3.6,0.6-5.2L49,75c-0.4,0.6-0.6,1-0.8,1.4C47.2,69.8,46.2,59.6,45.8,51.4z
		 M48.4,78c0.2-0.2,0.4-0.6,0.6-1.2l0.4,5.2C49.2,81.2,48.8,79.8,48.4,78z M53.2,85H53l-1-13c0.4-0.8,0.8-1.6,1.2-2.4L54,83L53.2,85
		z M75,32.2c-0.8,2-3,8-3.2,8l-4.2,10l-0.2-5.6C70,40,72.4,35.8,74,33c0.4-0.6,0.4-1.2,0.2-1.8c0-0.2-0.2-0.4-0.4-0.6
		c0.2-0.4,0.6-0.4,0.8-0.4C75.2,30.4,75.4,31.2,75,32.2z"/>
</g>
</svg>
