<svg width="23" height="46" viewBox="0 0 23 46" fill="none" xmlns="http://www.w3.org/2000/svg">
<path d="M20.9014 10.3586C20.4264 10.1171 19.9441 9.99462 19.468 9.99462C18.0655 9.99462 17.1068 11.0034 16.3365 11.814C16.0726 12.0915 15.6477 12.5387 15.4248 12.6467C15.1255 12.3258 14.7316 11.1086 14.4655 10.2861C14.1445 9.294 13.7807 8.16955 13.2745 7.18762C10.6693 2.13397 6.73656 1.03503 5.65312 0.822933C5.22514 0.537715 4.26573 0 3.11479 0C1.30058 0 0.40416 1.15277 0.307968 1.28424L0.0396577 1.65069L0.139023 2.09381C0.149338 2.13964 1.16911 6.69384 1.37395 8.1975C2.21489 14.3697 3.16899 33.2353 3.17857 33.4252C3.24437 35.823 2.96312 38.3535 2.57591 38.8179C2.4912 38.8851 2.11015 38.9845 1.88243 39.0439C1.24712 39.2097 0.376999 39.4367 0.147751 40.308C-0.157364 41.4673 0.0997774 43.003 0.130112 43.1743L0.168259 43.3896L0.292709 43.5694C0.661484 44.1017 2.03288 45.0231 7.07463 45.2122C7.60576 45.2321 8.08867 45.241 8.52794 45.241C11.1715 45.241 12.87 44.918 13.4399 44.3071L13.6883 44.0406L13.7072 43.6769L13.848 40.9676L22.6988 14.347C22.9947 13.4269 22.9952 11.4232 20.9014 10.3586ZM21.7499 14.0316L12.8564 40.7805L12.7085 43.625C12.7085 43.625 12.134 44.241 8.52794 44.241C8.09996 44.241 7.6295 44.2323 7.11211 44.2129C1.81737 44.0143 1.11479 43 1.11479 43C1.11479 43 0.856796 41.5428 1.11479 40.5625C1.27104 39.9687 2.82164 40.0848 3.34398 39.4583C4.31456 38.2942 4.17729 33.375 4.17729 33.375C4.17729 33.375 3.22124 14.3488 2.36479 8.0625C2.15178 6.49884 1.11479 1.875 1.11479 1.875C1.11479 1.875 1.75542 1 3.11479 1C4.28667 1 5.2606 1.77081 5.2606 1.77081C5.2606 1.77081 9.61479 2.27081 12.3856 7.64581C13.6378 10.0749 13.9971 13.5935 15.3231 13.6667C15.3397 13.6676 15.3564 13.668 15.3729 13.668C16.6441 13.668 17.6751 10.9946 19.468 10.9946C19.7713 10.9946 20.0963 11.0711 20.4481 11.25C22.3356 12.2097 21.7499 14.0316 21.7499 14.0316ZM20.44 12.479C20.0865 12.3286 19.5704 12.48 19.2725 13.0684L19.2149 13.187C17.9707 15.7852 16.5435 17.0386 15.0904 16.8154C12.7129 16.4482 11.586 13.8013 10.5914 11.4653C10.2915 10.7617 10.0083 10.0967 9.70952 9.54687C9.05424 8.34472 7.99467 6.88916 6.66606 6.78222C6.13188 6.73486 5.68413 6.89648 5.34233 7.25097C4.37309 8.25586 4.62553 10.5259 4.63579 10.6074C4.63921 10.6689 4.9937 16.8369 5.23979 23.5303C5.40263 27.9511 5.91643 33.4185 6.51012 36.7012C6.50664 36.7073 6.49809 36.7222 6.49809 36.7222L6.51555 36.7322C6.73186 37.9224 6.95836 38.8295 7.18266 39.2783C7.93169 40.7759 9.38823 40.8125 9.52641 40.8125C9.53032 40.8125 9.53325 40.8125 9.5352 40.8125L9.69878 40.8101L19.2222 18.0913C19.2344 18.061 20.4332 15.0142 20.7876 14.0215C21.106 13.1299 20.7994 12.6333 20.44 12.479ZM19.546 13.6401C19.5643 13.7551 19.5338 13.897 19.439 14.064C18.7063 15.3505 17.6739 17.1603 16.5082 19.2023L16.425 17.145C17.3765 16.7743 18.47 15.7961 19.546 13.6401ZM15.93 17.2905L16.0405 20.0215C15.9281 20.2183 15.8138 20.4183 15.6997 20.6182L15.5027 17.34C15.6399 17.336 15.7829 17.319 15.93 17.2905ZM10.9865 29.8765C11.1989 29.5049 11.4141 29.1282 11.6344 28.7428L11.9647 34.1111L11.2887 35.7236L10.9865 29.8765ZM10.8433 36.7861L10.2442 38.2151L9.89238 31.7909C10.0979 31.4314 10.3092 31.0616 10.5276 30.6794L10.8433 36.7861ZM12.0866 27.9514C12.2152 27.7264 12.3451 27.4991 12.4753 27.2712L12.7743 32.1799L12.4015 33.0692L12.0866 27.9514ZM12.0306 27.0417L11.23 14.0323C11.3835 14.3176 11.5459 14.5964 11.7195 14.8639L12.4198 26.3605C12.2894 26.5889 12.1598 26.8156 12.0306 27.0417ZM12.9279 26.479C13.1322 26.1215 13.3373 25.7624 13.5433 25.4019L13.7955 29.744L13.2116 31.1368L12.9279 26.479ZM13.9978 24.6063C14.1535 24.3337 14.3089 24.0616 14.4643 23.7895L14.6852 27.6217L14.2353 28.6949L13.9978 24.6063ZM15.2465 21.4119C15.1202 21.6329 14.994 21.8542 14.8663 22.0776L14.5862 17.2159C14.7205 17.2523 14.8576 17.2839 14.9999 17.3065L15.2465 21.4119ZM14.4115 22.8739C14.2565 23.1454 14.1006 23.4182 13.9446 23.6913L13.5419 16.7572C13.7127 16.863 13.8887 16.9609 14.0754 17.0409L14.4115 22.8739ZM14.9191 22.9933C15.047 22.7693 15.1744 22.5464 15.3013 22.3242L15.5024 25.6722L15.1254 26.5718L14.9191 22.9933ZM15.7545 21.5306C15.8633 21.3402 15.9711 21.1514 16.0785 20.9633L16.2014 24.0049L15.9405 24.6273L15.7545 21.5306ZM13.0191 16.3788L13.4902 24.4869C13.2839 24.8481 13.0779 25.2086 12.8724 25.5683L12.2662 15.6171C12.4975 15.8979 12.7488 16.1525 13.0191 16.3788ZM10.6575 12.8675L11.5784 27.8331C11.3619 28.212 11.1488 28.5849 10.9387 28.9527L10.0332 11.4352C10.0663 11.5125 10.098 11.5831 10.1314 11.6616C10.2978 12.0523 10.472 12.4592 10.6575 12.8675ZM9.46867 10.1926L10.4799 29.7556C10.2621 30.1368 10.0491 30.5095 9.84203 30.8718L8.63127 8.76715C8.87181 9.10137 9.08867 9.45306 9.27007 9.78613C9.3369 9.90869 9.40257 10.0576 9.46867 10.1926ZM7.80339 35.4456C7.96214 35.1678 8.14165 34.8538 8.33586 34.514L8.73174 40.1204C8.52434 40.0288 8.30235 39.8932 8.09373 39.691L7.80339 35.4456ZM7.74187 34.5464L5.89055 7.4757C6.04076 7.37432 6.21532 7.3161 6.41447 7.30267L8.27257 33.6178C8.08409 33.9476 7.90514 34.2607 7.74187 34.5464ZM6.91887 7.34393C7.34251 7.46191 7.73851 7.7434 8.09502 8.11413L9.3853 31.671C9.15306 32.0773 8.93065 32.4665 8.71898 32.8369L6.91887 7.34393ZM5.73979 23.5117C5.49321 16.8135 5.13823 10.6401 5.13383 10.564C5.07616 10.0733 5.05058 8.83355 5.42699 8.02868L7.29405 35.3297C7.14287 35.5942 7.0081 35.83 6.89732 36.0238C6.35716 32.7286 5.88976 27.592 5.73979 23.5117ZM7.03093 36.7966C7.10277 36.671 7.21117 36.4814 7.35558 36.2288L7.53227 38.8126C7.36473 38.3738 7.19548 37.6858 7.03093 36.7966ZM9.36967 40.3013C9.33403 40.2969 9.28972 40.2893 9.24461 40.2811L8.78227 33.7332C8.98729 33.3744 9.20616 32.9915 9.43559 32.59L9.80156 39.2711L9.36967 40.3013ZM20.3169 13.8535C19.9649 14.8389 18.7691 17.8779 18.7593 17.9033L16.6582 22.9153L16.5462 20.1441C17.8729 17.8203 19.0591 15.7414 19.8736 14.311C20.0557 13.9912 20.105 13.6963 20.0201 13.4351C19.9758 13.2987 19.9017 13.2028 19.8282 13.1276C19.9698 12.9492 20.1315 12.89 20.2427 12.9385C20.4156 13.0127 20.4966 13.3506 20.3169 13.8535Z" fill="black"/>
</svg>
