<?xml version="1.0" encoding="utf-8"?>
<!-- Generator: Adobe Illustrator 24.1.3, SVG Export Plug-In . SVG Version: 6.00 Build 0)  -->
<svg version="1.1" xmlns="http://www.w3.org/2000/svg" xmlns:xlink="http://www.w3.org/1999/xlink" x="0px" y="0px"
	 viewBox="0 0 23 46" style="enable-background:new 0 0 23 46;" xml:space="preserve">
<style type="text/css">
	.st0{fill:#75A1CE;}
</style>
<g id="colour">
	<path class="st0" d="M22,10.7c-1.5-1.4-3.8-1.4-5.5-0.4c-0.1,0.1-0.5,0.3-0.8,0.6c-0.2-0.9-0.7-1.9-1-2.8c-0.8-2-2-3.9-3.7-5.2
		C9.3,1.5,7.3,0.7,5.3,0c-2.2-0.8-4.6-0.9-6,1.3c-0.5,0.8-0.3,1.8,0.3,2.4C0.6,12.4,2,20.4,2.7,29C2.8,31,3.1,34,2.8,36
		c-0.1,0.7-0.1,1.7-0.6,2.2c-0.7,0.7-1.3,0.5-1.9,1.4c-2.5,4.6,3.3,5.7,6.2,6c1.7,0.2,5.5,0.1,7-0.7c2-1.1,0.8-2.2,1-4.1
		c0.6-4.2,2.4-8.4,3.9-12.2c0.8-2.1,1-3.6,1.9-6c0.4-1.1,0.9-2.7,1.4-4.1c0.2-0.9,0.7-1.6,0.9-2.5C23.2,14.1,23.6,12.2,22,10.7z
		 M8,36.9c-0.1-0.2-0.2-0.4-0.2-0.6c-0.2-0.5-0.3-0.9-0.4-1.4c-0.5-1.9-0.7-3.5-0.9-5.3c0-0.3-0.1-0.6-0.3-0.9c-0.4-5-1-10-1.5-15.1
		C4.9,13.3,5,13,5,12.6c0-0.6,0-1.2,0.1-1.9c0-0.2,0-0.4,0-0.7c0,0,0-0.4,0-0.4c0-0.2,0.1-0.4,0.1-0.6c0,0,0.1-0.4,0.1-0.4
		c0.1-0.1,0.1-0.3,0.2-0.4c0,0.1,0.3-0.1,0.1-0.1c1.6-0.5,2.9,1.8,3.7,3c1.2,1.9,1.8,4.3,3.8,5.5c1.1,0.6,2.5,0.8,3.7,0.3
		c0.6-0.3,1-0.6,1.5-1c0.1-0.1,0.2-0.1,0.3-0.2c-0.1,0.2-0.1,0.5-0.2,0.7c-0.1,0.2-0.1,0.5-0.2,0.7c-0.2,0.3-0.3,0.7-0.3,1.1
		c0,0,0,0.1,0,0.1c-0.1,0.4-0.2,0.8-0.3,1.2c-0.2,0.9-0.4,1.7-0.6,2.6c-0.3,0.6-0.5,1.2-0.8,1.7c-0.8,1.9-1.6,3.7-2.4,5.6
		c-0.6,1.3-1.1,2.6-1.7,3.8c-0.4,0.7-0.8,1.4-1.2,2.1c-0.5,0.8-1.1,1.6-1.7,2.4C9.3,38,9.1,38.2,9,38.4c0,0.1-0.1,0.1-0.2,0.2
		c-0.2-0.4-0.4-0.8-0.6-1.2C8.2,37.4,8.1,37,8,36.9z"/>
</g>
<g id="Layer_1">
	<path d="M20.9,10.4c-0.5-0.2-1-0.4-1.4-0.4c-1.4,0-2.4,1-3.1,1.8c-0.3,0.3-0.7,0.7-0.9,0.8c-0.3-0.3-0.7-1.5-1-2.4
		c-0.3-1-0.7-2.1-1.2-3.1C10.7,2.1,6.7,1,5.7,0.8C5.2,0.5,4.3,0,3.1,0C1.3,0,0.4,1.2,0.3,1.3L0,1.7l0.1,0.4c0,0,1,4.6,1.2,6.1
		c0.8,6.2,1.8,25,1.8,25.2c0.1,2.4-0.2,4.9-0.6,5.4C2.5,38.9,2.1,39,1.9,39c-0.6,0.2-1.5,0.4-1.7,1.3c-0.3,1.2,0,2.7,0,2.9l0,0.2
		l0.1,0.2C0.7,44.1,2,45,7.1,45.2c0.5,0,1,0,1.5,0c2.6,0,4.3-0.3,4.9-0.9l0.2-0.3l0-0.4l0.1-2.7l8.9-26.6C23,13.4,23,11.4,20.9,10.4
		z M21.7,14l-8.9,26.7l-0.1,2.8c0,0-0.6,0.6-4.2,0.6c-0.4,0-0.9,0-1.4,0c-5.3-0.2-6-1.2-6-1.2s-0.3-1.5,0-2.4
		c0.2-0.6,1.7-0.5,2.2-1.1c1-1.2,0.8-6.1,0.8-6.1s-1-19-1.8-25.3C2.2,6.5,1.1,1.9,1.1,1.9S1.8,1,3.1,1c1.2,0,2.1,0.8,2.1,0.8
		s4.4,0.5,7.1,5.9c1.3,2.4,1.6,5.9,2.9,6c0,0,0,0,0,0c1.3,0,2.3-2.7,4.1-2.7c0.3,0,0.6,0.1,1,0.3C22.3,12.2,21.7,14,21.7,14z
		 M20.4,12.5c-0.4-0.2-0.9,0-1.2,0.6l-0.1,0.1c-1.2,2.6-2.7,3.9-4.1,3.6c-2.4-0.4-3.5-3-4.5-5.4c-0.3-0.7-0.6-1.4-0.9-1.9
		C9.1,8.3,8,6.9,6.7,6.8c-0.5,0-1,0.1-1.3,0.5c-1,1-0.7,3.3-0.7,3.4c0,0.1,0.4,6.2,0.6,12.9c0.2,4.4,0.7,9.9,1.3,13.2c0,0,0,0,0,0
		l0,0c0.2,1.2,0.4,2.1,0.7,2.5c0.7,1.5,2.2,1.5,2.3,1.5c0,0,0,0,0,0l0.2,0l9.5-22.7c0,0,1.2-3.1,1.6-4.1
		C21.1,13.1,20.8,12.6,20.4,12.5z M19.5,13.6c0,0.1,0,0.3-0.1,0.4c-0.7,1.3-1.8,3.1-2.9,5.1l-0.1-2.1C17.4,16.8,18.5,15.8,19.5,13.6
		z M15.9,17.3L16,20c-0.1,0.2-0.2,0.4-0.3,0.6l-0.2-3.3C15.6,17.3,15.8,17.3,15.9,17.3z M11,29.9c0.2-0.4,0.4-0.7,0.6-1.1l0.3,5.4
		l-0.7,1.6L11,29.9z M10.8,36.8l-0.6,1.4l-0.4-6.4c0.2-0.4,0.4-0.7,0.6-1.1L10.8,36.8z M12.1,28c0.1-0.2,0.3-0.5,0.4-0.7l0.3,4.9
		l-0.4,0.9L12.1,28z M12,27l-0.8-13c0.2,0.3,0.3,0.6,0.5,0.8l0.7,11.5C12.3,26.6,12.2,26.8,12,27z M12.9,26.5
		c0.2-0.4,0.4-0.7,0.6-1.1l0.3,4.3l-0.6,1.4L12.9,26.5z M14,24.6c0.2-0.3,0.3-0.5,0.5-0.8l0.2,3.8l-0.4,1.1L14,24.6z M15.2,21.4
		c-0.1,0.2-0.3,0.4-0.4,0.7l-0.3-4.9c0.1,0,0.3,0.1,0.4,0.1L15.2,21.4z M14.4,22.9c-0.2,0.3-0.3,0.5-0.5,0.8l-0.4-6.9
		c0.2,0.1,0.3,0.2,0.5,0.3L14.4,22.9z M14.9,23c0.1-0.2,0.3-0.4,0.4-0.7l0.2,3.3l-0.4,0.9L14.9,23z M15.8,21.5
		c0.1-0.2,0.2-0.4,0.3-0.6l0.1,3l-0.3,0.6L15.8,21.5z M13,16.4l0.5,8.1c-0.2,0.4-0.4,0.7-0.6,1.1l-0.6-10
		C12.5,15.9,12.7,16.2,13,16.4z M10.7,12.9l0.9,15c-0.2,0.4-0.4,0.8-0.6,1.1L10,11.4c0,0.1,0.1,0.1,0.1,0.2
		C10.3,12.1,10.5,12.5,10.7,12.9z M9.5,10.2l1,19.6c-0.2,0.4-0.4,0.8-0.6,1.1L8.6,8.8c0.2,0.3,0.5,0.7,0.6,1
		C9.3,9.9,9.4,10.1,9.5,10.2z M7.8,35.4c0.2-0.3,0.3-0.6,0.5-0.9l0.4,5.6c-0.2-0.1-0.4-0.2-0.6-0.4L7.8,35.4z M7.7,34.5L5.9,7.5
		C6,7.4,6.2,7.3,6.4,7.3l1.9,26.3C8.1,33.9,7.9,34.3,7.7,34.5z M6.9,7.3c0.4,0.1,0.8,0.4,1.2,0.8l1.3,23.6c-0.2,0.4-0.5,0.8-0.7,1.2
		L6.9,7.3z M5.7,23.5c-0.2-6.7-0.6-12.9-0.6-12.9C5.1,10.1,5.1,8.8,5.4,8l1.9,27.3C7.1,35.6,7,35.8,6.9,36
		C6.4,32.7,5.9,27.6,5.7,23.5z M7,36.8c0.1-0.1,0.2-0.3,0.3-0.6l0.2,2.6C7.4,38.4,7.2,37.7,7,36.8z M9.4,40.3c0,0-0.1,0-0.1,0
		l-0.5-6.5C9,33.4,9.2,33,9.4,32.6l0.4,6.7L9.4,40.3z M20.3,13.9c-0.4,1-1.5,4-1.6,4l-2.1,5l-0.1-2.8c1.3-2.3,2.5-4.4,3.3-5.8
		c0.2-0.3,0.2-0.6,0.1-0.9c0-0.1-0.1-0.2-0.2-0.3c0.1-0.2,0.3-0.2,0.4-0.2C20.4,13,20.5,13.4,20.3,13.9z"/>
</g>
</svg>
