<svg width="48" height="29" viewBox="0 0 48 29" fill="none" xmlns="http://www.w3.org/2000/svg">
<path d="M44.7222 0H2.2915C1.02783 0 0 1.02832 0 2.29199V26.292C0 27.5557 1.02783 28.5835 2.2915 28.5835H44.7222C45.9858 28.5835 47.0142 27.5557 47.0142 26.292V2.29199C47.0142 1.02832 45.9858 0 44.7222 0ZM44.4722 27.5835H42.4307V13.8335H44.4722V27.5835ZM41.9307 27.5835H39.9932V22.771H40.915V13.8335H41.9307V27.5835ZM39.4932 22.771V27.5835H37.5869V22.771H38.165V13.8335H39.2588V22.771H39.4932ZM37.0869 22.771V27.5835H35.2432V22.771H35.3812V13.8335H36.5088V22.771H37.0869ZM34.7432 22.771V27.5835H32.8784V13.8335H33.7249V22.771H34.7432ZM32.3784 27.5835H30.5142V22.771H31.277V13.8335H32.3784V27.5835ZM30.0142 22.771V27.5835H28.0557V22.771H28.2692V13.8335H29.6208V22.771H30.0142ZM27.5557 22.771V27.5835H25.6909V13.8335H26.613V22.771H27.5557ZM25.1909 27.5835H23.3267V22.771H24.2875V13.8335H25.1909V27.5835ZM22.8267 22.771V27.5835H20.8994V22.6772H21.4775V13.8335H22.6312V22.771H22.8267ZM20.3994 22.6772V27.5835H18.4829V22.6772H18.7142V13.8335H19.8213V22.6772H20.3994ZM17.9829 22.6772V27.5835H16.1392V13.8335H17.058V22.6772H17.9829ZM15.6392 27.5835H13.7222V22.6772H14.5267V13.8335H15.6392V27.5835ZM13.2222 22.6772V27.5835H11.3057V22.6252H11.7432V13.8335H12.8705V22.6772H13.2222ZM10.8057 22.6252V27.5835H8.84717V13.8335H10.0869V22.6252H10.8057ZM46.0142 26.292C46.0142 26.9153 45.561 27.4127 44.9722 27.5329V13.3335H8.34717V27.5835H2.2915C1.57959 27.5835 1 27.0039 1 26.292V2.29199C1 1.57959 1.57959 1 2.2915 1H44.7222C45.4346 1 46.0142 1.57959 46.0142 2.29199V26.292ZM7.13379 16.4897H6.41504C6.04443 16.4897 5.74316 16.791 5.74316 17.1616V22.6929C5.74316 23.0635 6.04443 23.3647 6.41504 23.3647H7.13379C7.50439 23.3647 7.80566 23.0635 7.80566 22.6929V17.1616C7.80566 16.791 7.50439 16.4897 7.13379 16.4897ZM7.30566 22.6929C7.30566 22.7876 7.22852 22.8647 7.13379 22.8647H6.41504C6.32031 22.8647 6.24316 22.7876 6.24316 22.6929V17.1616C6.24316 17.0669 6.32031 16.9897 6.41504 16.9897H7.13379C7.22852 16.9897 7.30566 17.0669 7.30566 17.1616V22.6929ZM3.82129 16.4897H3.10254C2.73193 16.4897 2.43066 16.791 2.43066 17.1616V22.6929C2.43066 23.0635 2.73193 23.3647 3.10254 23.3647H3.82129C4.19189 23.3647 4.49316 23.0635 4.49316 22.6929V17.1616C4.49316 16.791 4.19189 16.4897 3.82129 16.4897ZM3.99316 22.6929C3.99316 22.7876 3.91602 22.8647 3.82129 22.8647H3.10254C3.00781 22.8647 2.93066 22.7876 2.93066 22.6929V17.1616C2.93066 17.0669 3.00781 16.9897 3.10254 16.9897H3.82129C3.91602 16.9897 3.99316 17.0669 3.99316 17.1616V22.6929ZM6.05566 4.11475H11.1494V1.98975H6.05566V4.11475ZM6.55566 2.48975H10.6494V3.61475H6.55566V2.48975ZM42.5967 5.30762C43.458 5.30762 44.1592 4.60645 44.1592 3.74512C44.1592 2.88379 43.458 2.18262 42.5967 2.18262C41.7354 2.18262 41.0342 2.88379 41.0342 3.74512C41.0342 4.60645 41.7354 5.30762 42.5967 5.30762ZM42.5967 2.68262C43.1826 2.68262 43.6592 3.15918 43.6592 3.74512C43.6592 4.33105 43.1826 4.80762 42.5967 4.80762C42.0107 4.80762 41.5342 4.33105 41.5342 3.74512C41.5342 3.15918 42.0107 2.68262 42.5967 2.68262ZM4.42188 2.52588C3.84961 2.52588 3.38379 2.9917 3.38379 3.56396C3.38379 4.13623 3.84961 4.60205 4.42188 4.60205C4.99414 4.60205 5.45996 4.13623 5.45996 3.56396C5.45996 2.9917 4.99414 2.52588 4.42188 2.52588ZM4.42188 4.10205C4.125 4.10205 3.88379 3.86084 3.88379 3.56396C3.88379 3.26709 4.125 3.02588 4.42188 3.02588C4.71875 3.02588 4.95996 3.26709 4.95996 3.56396C4.95996 3.86084 4.71875 4.10205 4.42188 4.10205ZM4.42188 7.29443C3.84961 7.29443 3.38379 7.76025 3.38379 8.33301C3.38379 8.90527 3.84961 9.37109 4.42188 9.37109C4.99414 9.37109 5.45996 8.90527 5.45996 8.33301C5.45996 7.76025 4.99414 7.29443 4.42188 7.29443ZM4.42188 8.87109C4.125 8.87109 3.88379 8.62988 3.88379 8.33301C3.88379 8.03613 4.125 7.79443 4.42188 7.79443C4.71875 7.79443 4.95996 8.03613 4.95996 8.33301C4.95996 8.62988 4.71875 8.87109 4.42188 8.87109ZM7.1665 7.29443C6.59424 7.29443 6.12842 7.76025 6.12842 8.33301C6.12842 8.90527 6.59424 9.37109 7.1665 9.37109C7.73926 9.37109 8.20508 8.90527 8.20508 8.33301C8.20508 7.76025 7.73926 7.29443 7.1665 7.29443ZM7.1665 8.87109C6.86963 8.87109 6.62842 8.62988 6.62842 8.33301C6.62842 8.03613 6.86963 7.79443 7.1665 7.79443C7.46338 7.79443 7.70508 8.03613 7.70508 8.33301C7.70508 8.62988 7.46338 8.87109 7.1665 8.87109ZM9.84326 7.29443C9.271 7.29443 8.80518 7.76025 8.80518 8.33301C8.80518 8.90527 9.271 9.37109 9.84326 9.37109C10.4155 9.37109 10.8813 8.90527 10.8813 8.33301C10.8813 7.76025 10.4155 7.29443 9.84326 7.29443ZM9.84326 8.87109C9.54639 8.87109 9.30518 8.62988 9.30518 8.33301C9.30518 8.03613 9.54639 7.79443 9.84326 7.79443C10.1401 7.79443 10.3813 8.03613 10.3813 8.33301C10.3813 8.62988 10.1401 8.87109 9.84326 8.87109ZM12.9102 7.29443C12.3379 7.29443 11.8721 7.76025 11.8721 8.33301C11.8721 8.90527 12.3379 9.37109 12.9102 9.37109C13.4829 9.37109 13.9487 8.90527 13.9487 8.33301C13.9487 7.76025 13.4829 7.29443 12.9102 7.29443ZM12.9102 8.87109C12.6133 8.87109 12.3721 8.62988 12.3721 8.33301C12.3721 8.03613 12.6133 7.79443 12.9102 7.79443C13.207 7.79443 13.4487 8.03613 13.4487 8.33301C13.4487 8.62988 13.207 8.87109 12.9102 8.87109ZM17.5859 7.29443C17.0137 7.29443 16.5479 7.76025 16.5479 8.33301C16.5479 8.90527 17.0137 9.37109 17.5859 9.37109C18.1582 9.37109 18.624 8.90527 18.624 8.33301C18.624 7.76025 18.1582 7.29443 17.5859 7.29443ZM17.5859 8.87109C17.2891 8.87109 17.0479 8.62988 17.0479 8.33301C17.0479 8.03613 17.2891 7.79443 17.5859 7.79443C17.8828 7.79443 18.124 8.03613 18.124 8.33301C18.124 8.62988 17.8828 8.87109 17.5859 8.87109ZM20.6211 7.29443C20.0488 7.29443 19.583 7.76025 19.583 8.33301C19.583 8.90527 20.0488 9.37109 20.6211 9.37109C21.1934 9.37109 21.6592 8.90527 21.6592 8.33301C21.6592 7.76025 21.1934 7.29443 20.6211 7.29443ZM20.6211 8.87109C20.3242 8.87109 20.083 8.62988 20.083 8.33301C20.083 8.03613 20.3242 7.79443 20.6211 7.79443C20.918 7.79443 21.1592 8.03613 21.1592 8.33301C21.1592 8.62988 20.918 8.87109 20.6211 8.87109ZM22.8926 2.47363C22.3198 2.47363 21.854 2.93945 21.854 3.51221C21.854 4.08447 22.3198 4.55029 22.8926 4.55029C23.4648 4.55029 23.9307 4.08447 23.9307 3.51221C23.9307 2.93945 23.4648 2.47363 22.8926 2.47363ZM22.8926 4.05029C22.5957 4.05029 22.354 3.80908 22.354 3.51221C22.354 3.21533 22.5957 2.97363 22.8926 2.97363C23.1895 2.97363 23.4307 3.21533 23.4307 3.51221C23.4307 3.80908 23.1895 4.05029 22.8926 4.05029ZM20.5 4.55029C21.0728 4.55029 21.5386 4.08447 21.5386 3.51221C21.5386 2.93945 21.0728 2.47363 20.5 2.47363C19.9277 2.47363 19.4619 2.93945 19.4619 3.51221C19.4619 4.08447 19.9277 4.55029 20.5 4.55029ZM20.5 2.97363C20.7969 2.97363 21.0386 3.21533 21.0386 3.51221C21.0386 3.80908 20.7969 4.05029 20.5 4.05029C20.2031 4.05029 19.9619 3.80908 19.9619 3.51221C19.9619 3.21533 20.2031 2.97363 20.5 2.97363ZM18.082 2.47363C17.5098 2.47363 17.0439 2.93945 17.0439 3.51221C17.0439 4.08447 17.5098 4.55029 18.082 4.55029C18.6548 4.55029 19.1206 4.08447 19.1206 3.51221C19.1206 2.93945 18.6548 2.47363 18.082 2.47363ZM18.082 4.05029C17.7852 4.05029 17.5439 3.80908 17.5439 3.51221C17.5439 3.21533 17.7852 2.97363 18.082 2.97363C18.3789 2.97363 18.6206 3.21533 18.6206 3.51221C18.6206 3.80908 18.3789 4.05029 18.082 4.05029ZM15.6943 2.47363C15.1221 2.47363 14.6562 2.93945 14.6562 3.51221C14.6562 4.08447 15.1221 4.55029 15.6943 4.55029C16.2666 4.55029 16.7324 4.08447 16.7324 3.51221C16.7324 2.93945 16.2666 2.47363 15.6943 2.47363ZM15.6943 4.05029C15.3975 4.05029 15.1562 3.80908 15.1562 3.51221C15.1562 3.21533 15.3975 2.97363 15.6943 2.97363C15.9912 2.97363 16.2324 3.21533 16.2324 3.51221C16.2324 3.80908 15.9912 4.05029 15.6943 4.05029ZM13.2422 2.47363C12.6694 2.47363 12.2036 2.93945 12.2036 3.51221C12.2036 4.08447 12.6694 4.55029 13.2422 4.55029C13.8145 4.55029 14.2803 4.08447 14.2803 3.51221C14.2803 2.93945 13.8145 2.47363 13.2422 2.47363ZM13.2422 4.05029C12.9453 4.05029 12.7036 3.80908 12.7036 3.51221C12.7036 3.21533 12.9453 2.97363 13.2422 2.97363C13.5391 2.97363 13.7803 3.21533 13.7803 3.51221C13.7803 3.80908 13.5391 4.05029 13.2422 4.05029ZM27.4409 3.94727C28.0098 3.94727 28.4722 3.48486 28.4722 2.91602C28.4722 2.34717 28.0098 1.88477 27.4409 1.88477C26.8721 1.88477 26.4097 2.34717 26.4097 2.91602C26.4097 3.48486 26.8721 3.94727 27.4409 3.94727ZM27.4409 2.38477C27.7339 2.38477 27.9722 2.62305 27.9722 2.91602C27.9722 3.20898 27.7339 3.44727 27.4409 3.44727C27.1479 3.44727 26.9097 3.20898 26.9097 2.91602C26.9097 2.62305 27.1479 2.38477 27.4409 2.38477ZM27.4409 4.26562C26.8721 4.26562 26.4097 4.72803 26.4097 5.29688C26.4097 5.86572 26.8721 6.32812 27.4409 6.32812C28.0098 6.32812 28.4722 5.86572 28.4722 5.29688C28.4722 4.72803 28.0098 4.26562 27.4409 4.26562ZM27.4409 5.82812C27.1479 5.82812 26.9097 5.58984 26.9097 5.29688C26.9097 5.00391 27.1479 4.76562 27.4409 4.76562C27.7339 4.76562 27.9722 5.00391 27.9722 5.29688C27.9722 5.58984 27.7339 5.82812 27.4409 5.82812ZM30.894 1.88477C30.3252 1.88477 29.8628 2.34717 29.8628 2.91602C29.8628 3.48486 30.3252 3.94727 30.894 3.94727C31.4629 3.94727 31.9253 3.48486 31.9253 2.91602C31.9253 2.34717 31.4629 1.88477 30.894 1.88477ZM30.894 3.44727C30.6011 3.44727 30.3628 3.20898 30.3628 2.91602C30.3628 2.62305 30.6011 2.38477 30.894 2.38477C31.187 2.38477 31.4253 2.62305 31.4253 2.91602C31.4253 3.20898 31.187 3.44727 30.894 3.44727ZM30.894 4.26562C30.3252 4.26562 29.8628 4.72803 29.8628 5.29688C29.8628 5.86572 30.3252 6.32812 30.894 6.32812C31.4629 6.32812 31.9253 5.86572 31.9253 5.29688C31.9253 4.72803 31.4629 4.26562 30.894 4.26562ZM30.894 5.82812C30.6011 5.82812 30.3628 5.58984 30.3628 5.29688C30.3628 5.00391 30.6011 4.76562 30.894 4.76562C31.187 4.76562 31.4253 5.00391 31.4253 5.29688C31.4253 5.58984 31.187 5.82812 30.894 5.82812ZM36.1626 1.88477C35.5938 1.88477 35.1313 2.34717 35.1313 2.91602C35.1313 3.48486 35.5938 3.94727 36.1626 3.94727C36.7314 3.94727 37.1938 3.48486 37.1938 2.91602C37.1938 2.34717 36.7314 1.88477 36.1626 1.88477ZM36.1626 3.44727C35.8696 3.44727 35.6313 3.20898 35.6313 2.91602C35.6313 2.62305 35.8696 2.38477 36.1626 2.38477C36.4556 2.38477 36.6938 2.62305 36.6938 2.91602C36.6938 3.20898 36.4556 3.44727 36.1626 3.44727ZM36.1626 4.26562C35.5938 4.26562 35.1313 4.72803 35.1313 5.29688C35.1313 5.86572 35.5938 6.32812 36.1626 6.32812C36.7314 6.32812 37.1938 5.86572 37.1938 5.29688C37.1938 4.72803 36.7314 4.26562 36.1626 4.26562ZM36.1626 5.82812C35.8696 5.82812 35.6313 5.58984 35.6313 5.29688C35.6313 5.00391 35.8696 4.76562 36.1626 4.76562C36.4556 4.76562 36.6938 5.00391 36.6938 5.29688C36.6938 5.58984 36.4556 5.82812 36.1626 5.82812ZM38.7954 1.88477C38.2266 1.88477 37.7642 2.34717 37.7642 2.91602C37.7642 3.48486 38.2266 3.94727 38.7954 3.94727C39.3643 3.94727 39.8267 3.48486 39.8267 2.91602C39.8267 2.34717 39.3643 1.88477 38.7954 1.88477ZM38.7954 3.44727C38.5024 3.44727 38.2642 3.20898 38.2642 2.91602C38.2642 2.62305 38.5024 2.38477 38.7954 2.38477C39.0884 2.38477 39.3267 2.62305 39.3267 2.91602C39.3267 3.20898 39.0884 3.44727 38.7954 3.44727ZM38.7954 4.26562C38.2266 4.26562 37.7642 4.72803 37.7642 5.29688C37.7642 5.86572 38.2266 6.32812 38.7954 6.32812C39.3643 6.32812 39.8267 5.86572 39.8267 5.29688C39.8267 4.72803 39.3643 4.26562 38.7954 4.26562ZM38.7954 5.82812C38.5024 5.82812 38.2642 5.58984 38.2642 5.29688C38.2642 5.00391 38.5024 4.76562 38.7954 4.76562C39.0884 4.76562 39.3267 5.00391 39.3267 5.29688C39.3267 5.58984 39.0884 5.82812 38.7954 5.82812ZM40.8682 7.146C40.2993 7.146 39.8369 7.6084 39.8369 8.17725C39.8369 8.74609 40.2993 9.2085 40.8682 9.2085C41.437 9.2085 41.8994 8.74609 41.8994 8.17725C41.8994 7.6084 41.437 7.146 40.8682 7.146ZM40.8682 8.7085C40.5752 8.7085 40.3369 8.47021 40.3369 8.17725C40.3369 7.88428 40.5752 7.646 40.8682 7.646C41.1611 7.646 41.3994 7.88428 41.3994 8.17725C41.3994 8.47021 41.1611 8.7085 40.8682 8.7085ZM43.2397 7.146C42.6709 7.146 42.2085 7.6084 42.2085 8.17725C42.2085 8.74609 42.6709 9.2085 43.2397 9.2085C43.8086 9.2085 44.271 8.74609 44.271 8.17725C44.271 7.6084 43.8086 7.146 43.2397 7.146ZM43.2397 8.7085C42.9468 8.7085 42.7085 8.47021 42.7085 8.17725C42.7085 7.88428 42.9468 7.646 43.2397 7.646C43.5327 7.646 43.771 7.88428 43.771 8.17725C43.771 8.47021 43.5327 8.7085 43.2397 8.7085ZM29.1963 8.42725H29.4775V9.11475H29.1963V10.6616H28.6494V9.11475H28.3682V8.42725H28.6494V6.92725H29.1963V8.42725ZM31.0791 8.42725H31.3682V9.11475H31.0791V10.6616H30.5322V9.11475H30.2588V8.42725H30.5322V6.92725H31.0791V8.42725ZM32.9567 8.42725H33.2432V9.11475H32.9567V10.6616H32.4098V9.11475H32.1338V8.42725H32.4098V6.92725H32.9567V8.42725ZM34.8265 8.42725H35.1077V9.11475H34.8265V10.6616H34.2796V9.11475H33.9984V8.42725H34.2796V6.92725H34.8265V8.42725Z" fill="black"/>
</svg>
