<?xml version="1.0" encoding="utf-8"?>
<!-- Generator: Adobe Illustrator 24.1.3, SVG Export Plug-In . SVG Version: 6.00 Build 0)  -->
<svg version="1.1" xmlns="http://www.w3.org/2000/svg" xmlns:xlink="http://www.w3.org/1999/xlink" x="0px" y="0px"
	 viewBox="0 0 48 29" style="enable-background:new 0 0 48 29;" xml:space="preserve">
<style type="text/css">
	.st0{fill:#75A1CE;}
</style>
<g id="colour">
	<path class="st0" d="M47.5,5.8c0-1.7,0.2-2.8-0.1-4.4c-0.3-1.5-2-1.9-3.4-2c-2-0.2-4.1,0-6.1-0.1c-8.3,0-16.5-0.1-24.8-0.1
		c-2,0-4,0-5.9,0c-1,0-2,0-3,0c-0.9,0-2.2,0-3,0.4c-1.6,0.8-1,3-1,4.5c0.1,2.1,0.2,4.2,0.2,6.4c0.1,4.6-0.1,9.1-0.4,13.7
		c-0.1,1.6,0,3.5,1.8,4.2c0.8,0.3,1.8,0.2,2.6,0.2c1.1,0,2.1,0,3.2-0.1c0.8,0,1.5-0.7,1.5-1.5C9,22.7,8.9,18.4,9,14
		c10.6-0.1,21.2-0.2,31.8-0.3c1.2,0.1,2.5,0.2,3.7,0.1c0,1.7-0.1,3.4-0.1,5.1c-0.1,2.7-0.1,5.5-0.2,8.2c0,1.9,3,1.9,3,0
		c0.1-2.9,0.1-5.7,0.2-8.6c0-2.2,0.1-4.4,0-6.6C47.3,9.2,47.5,7.4,47.5,5.8z"/>
</g>
<g id="Layer_1">
	<path d="M44.7,0H2.3C1,0,0,1,0,2.3v24c0,1.3,1,2.3,2.3,2.3h42.4c1.3,0,2.3-1,2.3-2.3v-24C47,1,46,0,44.7,0z M44.5,27.6h-2V13.8h2
		V27.6z M41.9,27.6H40v-4.8h0.9v-8.9h1V27.6z M39.5,22.8v4.8h-1.9v-4.8h0.6v-8.9h1.1v8.9H39.5z M37.1,22.8v4.8h-1.8v-4.8h0.1v-8.9
		h1.1v8.9H37.1z M34.7,22.8v4.8h-1.9V13.8h0.8v8.9H34.7z M32.4,27.6h-1.9v-4.8h0.8v-8.9h1.1V27.6z M30,22.8v4.8h-2v-4.8h0.2v-8.9
		h1.4v8.9H30z M27.6,22.8v4.8h-1.9V13.8h0.9v8.9H27.6z M25.2,27.6h-1.9v-4.8h1v-8.9h0.9V27.6z M22.8,22.8v4.8h-1.9v-4.9h0.6v-8.8
		h1.2v8.9H22.8z M20.4,22.7v4.9h-1.9v-4.9h0.2v-8.8h1.1v8.8H20.4z M18,22.7v4.9h-1.8V13.8h0.9v8.8H18z M15.6,27.6h-1.9v-4.9h0.8
		v-8.8h1.1V27.6z M13.2,22.7v4.9h-1.9v-5h0.4v-8.8h1.1v8.8H13.2z M10.8,22.6v5h-2V13.8h1.2v8.8H10.8z M46,26.3c0,0.6-0.5,1.1-1,1.2
		V13.3H8.3v14.3H2.3C1.6,27.6,1,27,1,26.3v-24C1,1.6,1.6,1,2.3,1h42.4C45.4,1,46,1.6,46,2.3V26.3z M7.1,16.5H6.4
		c-0.4,0-0.7,0.3-0.7,0.7v5.5c0,0.4,0.3,0.7,0.7,0.7h0.7c0.4,0,0.7-0.3,0.7-0.7v-5.5C7.8,16.8,7.5,16.5,7.1,16.5z M7.3,22.7
		c0,0.1-0.1,0.2-0.2,0.2H6.4c-0.1,0-0.2-0.1-0.2-0.2v-5.5c0-0.1,0.1-0.2,0.2-0.2h0.7c0.1,0,0.2,0.1,0.2,0.2V22.7z M3.8,16.5H3.1
		c-0.4,0-0.7,0.3-0.7,0.7v5.5c0,0.4,0.3,0.7,0.7,0.7h0.7c0.4,0,0.7-0.3,0.7-0.7v-5.5C4.5,16.8,4.2,16.5,3.8,16.5z M4,22.7
		c0,0.1-0.1,0.2-0.2,0.2H3.1c-0.1,0-0.2-0.1-0.2-0.2v-5.5C2.9,17.1,3,17,3.1,17h0.7C3.9,17,4,17.1,4,17.2V22.7z M6.1,4.1h5.1V2H6.1
		V4.1z M6.6,2.5h4.1v1.1H6.6V2.5z M42.6,5.3c0.9,0,1.6-0.7,1.6-1.6s-0.7-1.6-1.6-1.6c-0.9,0-1.6,0.7-1.6,1.6S41.7,5.3,42.6,5.3z
		 M42.6,2.7c0.6,0,1.1,0.5,1.1,1.1c0,0.6-0.5,1.1-1.1,1.1c-0.6,0-1.1-0.5-1.1-1.1C41.5,3.2,42,2.7,42.6,2.7z M4.4,2.5
		c-0.6,0-1,0.5-1,1c0,0.6,0.5,1,1,1c0.6,0,1-0.5,1-1C5.5,3,5,2.5,4.4,2.5z M4.4,4.1c-0.3,0-0.5-0.2-0.5-0.5C3.9,3.3,4.1,3,4.4,3
		C4.7,3,5,3.3,5,3.6C5,3.9,4.7,4.1,4.4,4.1z M4.4,7.3c-0.6,0-1,0.5-1,1c0,0.6,0.5,1,1,1c0.6,0,1-0.5,1-1C5.5,7.8,5,7.3,4.4,7.3z
		 M4.4,8.9c-0.3,0-0.5-0.2-0.5-0.5c0-0.3,0.2-0.5,0.5-0.5C4.7,7.8,5,8,5,8.3C5,8.6,4.7,8.9,4.4,8.9z M7.2,7.3c-0.6,0-1,0.5-1,1
		c0,0.6,0.5,1,1,1c0.6,0,1-0.5,1-1C8.2,7.8,7.7,7.3,7.2,7.3z M7.2,8.9c-0.3,0-0.5-0.2-0.5-0.5c0-0.3,0.2-0.5,0.5-0.5
		c0.3,0,0.5,0.2,0.5,0.5C7.7,8.6,7.5,8.9,7.2,8.9z M9.8,7.3c-0.6,0-1,0.5-1,1c0,0.6,0.5,1,1,1c0.6,0,1-0.5,1-1
		C10.9,7.8,10.4,7.3,9.8,7.3z M9.8,8.9c-0.3,0-0.5-0.2-0.5-0.5c0-0.3,0.2-0.5,0.5-0.5c0.3,0,0.5,0.2,0.5,0.5
		C10.4,8.6,10.1,8.9,9.8,8.9z M12.9,7.3c-0.6,0-1,0.5-1,1c0,0.6,0.5,1,1,1c0.6,0,1-0.5,1-1C13.9,7.8,13.5,7.3,12.9,7.3z M12.9,8.9
		c-0.3,0-0.5-0.2-0.5-0.5c0-0.3,0.2-0.5,0.5-0.5c0.3,0,0.5,0.2,0.5,0.5C13.4,8.6,13.2,8.9,12.9,8.9z M17.6,7.3c-0.6,0-1,0.5-1,1
		c0,0.6,0.5,1,1,1c0.6,0,1-0.5,1-1C18.6,7.8,18.2,7.3,17.6,7.3z M17.6,8.9c-0.3,0-0.5-0.2-0.5-0.5c0-0.3,0.2-0.5,0.5-0.5
		c0.3,0,0.5,0.2,0.5,0.5C18.1,8.6,17.9,8.9,17.6,8.9z M20.6,7.3c-0.6,0-1,0.5-1,1c0,0.6,0.5,1,1,1s1-0.5,1-1
		C21.7,7.8,21.2,7.3,20.6,7.3z M20.6,8.9c-0.3,0-0.5-0.2-0.5-0.5c0-0.3,0.2-0.5,0.5-0.5s0.5,0.2,0.5,0.5C21.2,8.6,20.9,8.9,20.6,8.9
		z M22.9,2.5c-0.6,0-1,0.5-1,1c0,0.6,0.5,1,1,1c0.6,0,1-0.5,1-1C23.9,2.9,23.5,2.5,22.9,2.5z M22.9,4.1c-0.3,0-0.5-0.2-0.5-0.5
		c0-0.3,0.2-0.5,0.5-0.5c0.3,0,0.5,0.2,0.5,0.5C23.4,3.8,23.2,4.1,22.9,4.1z M20.5,4.6c0.6,0,1-0.5,1-1c0-0.6-0.5-1-1-1
		c-0.6,0-1,0.5-1,1C19.5,4.1,19.9,4.6,20.5,4.6z M20.5,3C20.8,3,21,3.2,21,3.5c0,0.3-0.2,0.5-0.5,0.5S20,3.8,20,3.5
		C20,3.2,20.2,3,20.5,3z M18.1,2.5c-0.6,0-1,0.5-1,1c0,0.6,0.5,1,1,1c0.6,0,1-0.5,1-1C19.1,2.9,18.7,2.5,18.1,2.5z M18.1,4.1
		c-0.3,0-0.5-0.2-0.5-0.5c0-0.3,0.2-0.5,0.5-0.5c0.3,0,0.5,0.2,0.5,0.5C18.6,3.8,18.4,4.1,18.1,4.1z M15.7,2.5c-0.6,0-1,0.5-1,1
		c0,0.6,0.5,1,1,1c0.6,0,1-0.5,1-1C16.7,2.9,16.3,2.5,15.7,2.5z M15.7,4.1c-0.3,0-0.5-0.2-0.5-0.5c0-0.3,0.2-0.5,0.5-0.5
		c0.3,0,0.5,0.2,0.5,0.5C16.2,3.8,16,4.1,15.7,4.1z M13.2,2.5c-0.6,0-1,0.5-1,1c0,0.6,0.5,1,1,1c0.6,0,1-0.5,1-1
		C14.3,2.9,13.8,2.5,13.2,2.5z M13.2,4.1c-0.3,0-0.5-0.2-0.5-0.5c0-0.3,0.2-0.5,0.5-0.5s0.5,0.2,0.5,0.5C13.8,3.8,13.5,4.1,13.2,4.1
		z M27.4,3.9c0.6,0,1-0.5,1-1c0-0.6-0.5-1-1-1c-0.6,0-1,0.5-1,1C26.4,3.5,26.9,3.9,27.4,3.9z M27.4,2.4c0.3,0,0.5,0.2,0.5,0.5
		c0,0.3-0.2,0.5-0.5,0.5c-0.3,0-0.5-0.2-0.5-0.5C26.9,2.6,27.1,2.4,27.4,2.4z M27.4,4.3c-0.6,0-1,0.5-1,1c0,0.6,0.5,1,1,1
		c0.6,0,1-0.5,1-1C28.5,4.7,28,4.3,27.4,4.3z M27.4,5.8c-0.3,0-0.5-0.2-0.5-0.5c0-0.3,0.2-0.5,0.5-0.5C27.7,4.8,28,5,28,5.3
		C28,5.6,27.7,5.8,27.4,5.8z M30.9,1.9c-0.6,0-1,0.5-1,1c0,0.6,0.5,1,1,1c0.6,0,1-0.5,1-1C31.9,2.3,31.5,1.9,30.9,1.9z M30.9,3.4
		c-0.3,0-0.5-0.2-0.5-0.5c0-0.3,0.2-0.5,0.5-0.5c0.3,0,0.5,0.2,0.5,0.5C31.4,3.2,31.2,3.4,30.9,3.4z M30.9,4.3c-0.6,0-1,0.5-1,1
		c0,0.6,0.5,1,1,1c0.6,0,1-0.5,1-1C31.9,4.7,31.5,4.3,30.9,4.3z M30.9,5.8c-0.3,0-0.5-0.2-0.5-0.5c0-0.3,0.2-0.5,0.5-0.5
		c0.3,0,0.5,0.2,0.5,0.5C31.4,5.6,31.2,5.8,30.9,5.8z M36.2,1.9c-0.6,0-1,0.5-1,1c0,0.6,0.5,1,1,1c0.6,0,1-0.5,1-1
		C37.2,2.3,36.7,1.9,36.2,1.9z M36.2,3.4c-0.3,0-0.5-0.2-0.5-0.5c0-0.3,0.2-0.5,0.5-0.5c0.3,0,0.5,0.2,0.5,0.5
		C36.7,3.2,36.5,3.4,36.2,3.4z M36.2,4.3c-0.6,0-1,0.5-1,1c0,0.6,0.5,1,1,1c0.6,0,1-0.5,1-1C37.2,4.7,36.7,4.3,36.2,4.3z M36.2,5.8
		c-0.3,0-0.5-0.2-0.5-0.5c0-0.3,0.2-0.5,0.5-0.5c0.3,0,0.5,0.2,0.5,0.5C36.7,5.6,36.5,5.8,36.2,5.8z M38.8,1.9c-0.6,0-1,0.5-1,1
		c0,0.6,0.5,1,1,1c0.6,0,1-0.5,1-1C39.8,2.3,39.4,1.9,38.8,1.9z M38.8,3.4c-0.3,0-0.5-0.2-0.5-0.5c0-0.3,0.2-0.5,0.5-0.5
		c0.3,0,0.5,0.2,0.5,0.5C39.3,3.2,39.1,3.4,38.8,3.4z M38.8,4.3c-0.6,0-1,0.5-1,1c0,0.6,0.5,1,1,1c0.6,0,1-0.5,1-1
		C39.8,4.7,39.4,4.3,38.8,4.3z M38.8,5.8c-0.3,0-0.5-0.2-0.5-0.5c0-0.3,0.2-0.5,0.5-0.5c0.3,0,0.5,0.2,0.5,0.5
		C39.3,5.6,39.1,5.8,38.8,5.8z M40.9,7.1c-0.6,0-1,0.5-1,1c0,0.6,0.5,1,1,1c0.6,0,1-0.5,1-1C41.9,7.6,41.4,7.1,40.9,7.1z M40.9,8.7
		c-0.3,0-0.5-0.2-0.5-0.5c0-0.3,0.2-0.5,0.5-0.5c0.3,0,0.5,0.2,0.5,0.5C41.4,8.5,41.2,8.7,40.9,8.7z M43.2,7.1c-0.6,0-1,0.5-1,1
		c0,0.6,0.5,1,1,1c0.6,0,1-0.5,1-1C44.3,7.6,43.8,7.1,43.2,7.1z M43.2,8.7c-0.3,0-0.5-0.2-0.5-0.5c0-0.3,0.2-0.5,0.5-0.5
		c0.3,0,0.5,0.2,0.5,0.5C43.8,8.5,43.5,8.7,43.2,8.7z M29.2,8.4h0.3v0.7h-0.3v1.5h-0.5V9.1h-0.3V8.4h0.3V6.9h0.5V8.4z M31.1,8.4h0.3
		v0.7h-0.3v1.5h-0.5V9.1h-0.3V8.4h0.3V6.9h0.5V8.4z M33,8.4h0.3v0.7H33v1.5h-0.5V9.1h-0.3V8.4h0.3V6.9H33V8.4z M34.8,8.4h0.3v0.7
		h-0.3v1.5h-0.5V9.1H34V8.4h0.3V6.9h0.5V8.4z"/>
</g>
</svg>
