<svg width="50" height="50" viewBox="0 0 50 50" fill="none" xmlns="http://www.w3.org/2000/svg">
<path d="M0.0868187 35.345C0.517891 31.983 3.85283 27.4961 7.22481 25.7427C9.55541 24.5311 12.2355 23.9213 14.3458 23.703C14.3533 23.7015 14.3598 23.6995 14.3673 23.6985C14.4244 23.6925 14.4795 23.6895 14.536 23.6845C14.6647 23.6725 14.7909 23.662 14.9145 23.653C14.9761 23.6485 15.0377 23.6434 15.0988 23.6399C15.4477 23.6179 15.7772 23.6059 16.0771 23.6059C16.1066 23.6059 16.1307 23.6084 16.1597 23.6084C16.396 23.6094 16.6243 23.6149 16.8346 23.6289C17.0579 23.6434 17.2752 23.6575 17.488 23.6705C17.505 23.6715 17.5225 23.6725 17.54 23.6735C17.7248 23.6845 17.906 23.6945 18.0838 23.7035C18.2054 23.7095 18.3286 23.7135 18.4512 23.7185C18.5329 23.7215 18.6165 23.7256 18.6971 23.7281C18.8978 23.7341 19.0971 23.7376 19.2914 23.7376C19.2969 23.7376 19.3034 23.7381 19.3089 23.7381C20.7528 23.7381 21.7366 23.5498 22.398 23.1533C22.4315 23.1333 22.4681 23.1152 22.5001 23.0937C22.5917 23.0326 22.6804 22.9716 22.7685 22.911C22.7885 22.8975 22.809 22.8834 22.8286 22.8699C22.8376 22.8634 22.8466 22.8574 22.8561 22.8514L22.9838 22.7638H22.9843C23.559 22.3713 24.1153 22.0253 24.7742 22.0253C24.8142 22.0253 24.8538 22.0308 24.8938 22.0333L36.9694 10.6397C37.0495 10.5641 37.1661 10.555 37.2588 10.6051C37.9296 9.81706 38.2611 8.6495 38.3512 8.0452C38.4538 7.35678 38.6216 7.05939 39.0727 6.51016L38.9951 6.43256C38.8263 6.56723 38.6316 6.64584 38.4428 6.64584C38.2851 6.64584 38.1479 6.59277 38.0468 6.49163C37.9206 6.36547 37.8691 6.18322 37.9021 5.97845C37.9327 5.7887 38.0338 5.59995 38.1865 5.44725C38.5044 5.12882 38.9856 5.06273 39.2309 5.30706C39.357 5.43323 39.4086 5.61547 39.3756 5.82024C39.3515 5.97194 39.2714 6.11764 39.1668 6.25031L39.2339 6.3174C39.2569 6.29037 39.2759 6.26684 39.3 6.2383C39.4542 6.05605 39.8712 5.57942 40.4084 4.96811L40.3614 4.92104C40.1927 5.05572 39.9979 5.13433 39.8096 5.13433C39.6514 5.13433 39.5143 5.08126 39.4136 4.98012C39.2875 4.85396 39.2359 4.67171 39.2689 4.46694C39.2995 4.27769 39.4006 4.08894 39.5533 3.93573C39.8722 3.61681 40.3529 3.55122 40.5977 3.79605C40.824 4.02235 40.7905 4.42789 40.5391 4.74481L40.5737 4.77936C40.9361 4.36731 41.3427 3.9062 41.7557 3.43757L41.7272 3.40903C41.5585 3.54371 41.3637 3.62232 41.175 3.62232C41.0173 3.62232 40.8796 3.56925 40.7789 3.46811C40.6528 3.34194 40.6012 3.1597 40.6342 2.95493C40.6648 2.76568 40.7659 2.57693 40.9186 2.42372C41.237 2.1048 41.7187 2.03921 41.963 2.28404C42.0892 2.41021 42.1407 2.59245 42.1077 2.79722C42.0837 2.94842 42.0036 3.09462 41.8989 3.22729L41.9215 3.24982C42.327 2.79021 42.7335 2.3301 43.105 1.90954L43.0935 1.89802C42.9248 2.0327 42.73 2.11131 42.5418 2.11131C42.3836 2.11131 42.2464 2.05824 42.1458 1.9571C42.0196 1.83094 41.968 1.64869 42.0011 1.44392C42.0316 1.25467 42.1327 1.06592 42.2854 0.912714C42.6039 0.59379 43.0855 0.528203 43.3298 0.773028C43.5546 0.997827 43.5231 1.40036 43.2758 1.71678C44.0648 0.824096 44.6586 0.153204 44.6756 0.134679L44.7943 0L48.345 1.49849L49.844 5.04972L49.7088 5.16887C49.6898 5.1854 49.0169 5.78169 48.1217 6.57274L48.1512 6.60228C48.4642 6.35796 48.8787 6.32291 49.1 6.5437C49.2262 6.66987 49.2777 6.85211 49.2447 7.05689C49.2142 7.24614 49.113 7.43489 48.9603 7.58809C48.7736 7.77534 48.5373 7.88248 48.3125 7.88248C48.1542 7.88248 48.0171 7.82891 47.9159 7.72778C47.7898 7.60161 47.7382 7.41937 47.7712 7.2146C47.7953 7.06339 47.8754 6.9172 47.98 6.78452L47.934 6.73846C47.5134 7.10996 47.0533 7.5165 46.5937 7.92254L46.6397 7.9686C46.9531 7.72427 47.3672 7.68873 47.5885 7.91002C47.7147 8.03619 47.7662 8.21843 47.7332 8.4232C47.7026 8.61246 47.6015 8.80121 47.4488 8.95441C47.2621 9.14166 47.0257 9.2488 46.8009 9.2488C46.6427 9.2488 46.5056 9.19523 46.4044 9.0941C46.2783 8.96793 46.2267 8.78569 46.2597 8.58091C46.2838 8.42971 46.3639 8.28352 46.4685 8.15084L46.4059 8.08826C45.9378 8.50131 45.4762 8.90785 45.0641 9.27033L45.1282 9.33442C45.4411 9.09009 45.8557 9.05454 46.077 9.27584C46.2032 9.40201 46.2547 9.58425 46.2217 9.78902C46.1911 9.97827 46.09 10.167 45.9373 10.3202C45.7505 10.5075 45.5142 10.6146 45.2894 10.6146C45.1312 10.6146 44.994 10.561 44.8929 10.4599C44.7667 10.3337 44.7152 10.1515 44.7482 9.94673C44.7722 9.79553 44.8524 9.64933 44.957 9.51666L44.8759 9.43555C44.2646 9.97276 43.7879 10.3898 43.6057 10.544C43.5772 10.5681 43.5536 10.5876 43.5266 10.6101L43.6167 10.7002C43.9306 10.4549 44.3447 10.4204 44.5655 10.6417C44.6916 10.7678 44.7432 10.9501 44.7102 11.1548C44.6796 11.3441 44.5785 11.5328 44.4258 11.686C44.239 11.8733 44.0027 11.9804 43.7779 11.9804C43.6197 11.9804 43.4825 11.9269 43.3814 11.8257C43.1551 11.5999 43.1881 11.1944 43.4395 10.8765L43.3333 10.7703C42.7841 11.2214 42.4867 11.3891 41.7983 11.4918C41.197 11.5814 40.0375 11.9103 39.2494 12.5747L39.328 12.6533C39.4231 12.749 39.4261 12.9032 39.3335 13.0013L27.9764 25.1124C28.0235 25.8759 27.5874 26.5138 27.1343 27.1716C27.0607 27.2793 26.9851 27.3884 26.9105 27.5006C26.0839 28.7407 26.2381 31.0919 26.3743 33.1661C26.53 35.5373 25.9347 39.5566 24.26 42.7764C22.5071 46.1479 18.0197 49.4833 14.6577 49.9144C14.2146 49.971 13.7505 50 13.2789 50C9.85581 50 6.24901 48.519 3.86534 46.1354C1.1287 43.4002 -0.389816 39.0635 0.0868187 35.345ZM19.3099 24.2377C18.5329 24.2377 17.7143 24.1882 16.802 24.1281C16.1287 24.084 15.291 24.1081 14.4334 24.1947C12.3556 24.5416 10.778 25.4819 10.2143 26.71C9.90037 27.3939 9.93842 28.0924 10.3249 28.7297C10.8146 29.5373 11.2637 29.6349 11.9431 29.7821C12.6946 29.9448 13.6218 30.1456 14.8935 31.3552C14.9916 31.2606 15.1283 31.1324 15.3181 30.9537C16.6604 29.6925 20.2251 26.342 22.3069 24.2628C22.4451 24.1251 22.5787 23.8818 22.6939 23.5633C21.9504 24.0235 20.8705 24.2377 19.3099 24.2377ZM9.43375 30.1065C9.25651 30.3444 8.52604 31.3121 7.80608 32.0797C8.69577 31.6231 9.75217 31.1244 10.0135 31.0017C10.1222 30.8555 10.4411 30.433 10.8371 29.9513C10.6924 29.8732 10.5517 29.7696 10.412 29.6394C9.95494 29.8607 9.57594 30.04 9.43375 30.1065ZM23.3458 23.1223C23.3097 23.271 23.2621 23.4457 23.1996 23.6304L24.2755 22.6156C23.9696 22.7197 23.6672 22.9045 23.3458 23.1223ZM37.1361 11.1709L20.162 27.1842L20.3057 27.2653L37.3033 11.3381L37.1361 11.1709ZM6.85131 44.4021C6.94394 44.4501 7.02805 44.5117 7.10164 44.5853C7.12668 44.6103 7.14571 44.6394 7.16773 44.6659L14.9846 37.5509L14.2587 36.825L6.85131 44.0035C6.87685 44.1352 6.87735 44.2709 6.85131 44.4021ZM14.7904 35.9408L21.8598 28.7182L21.1243 28.3026L14.0624 35.2123L14.7904 35.9408ZM21.4968 27.9382L22.2223 28.3477L38.0949 12.1296L37.8766 11.9113L21.4968 27.9382ZM37.6993 11.7341L37.4805 11.5153L20.534 27.3939L21.27 27.8095L37.6993 11.7341ZM22.4476 28.4754L23.163 28.8794L38.4909 12.5257L38.2721 12.3069L22.4476 28.4754ZM22.0851 28.8454L14.9676 36.118L15.6961 36.8465L22.8105 29.2554L22.0851 28.8454ZM14.0814 36.6477L13.3555 35.9218L6.26003 43.243C6.30058 43.263 6.34213 43.2816 6.37918 43.3066C6.40872 43.3246 6.43676 43.3456 6.47531 43.3747C6.48983 43.3842 6.51686 43.4007 6.57294 43.4568C6.60148 43.4853 6.619 43.5134 6.62952 43.5299C6.65305 43.5604 6.67608 43.5905 6.6906 43.6145C6.71814 43.6556 6.73866 43.6996 6.75969 43.7427L14.0814 36.6477ZM13.1782 35.745L12.4523 35.0191L5.3363 42.837C5.36333 42.8585 5.39237 42.8775 5.4174 42.9026C5.491 42.9762 5.55309 43.0603 5.60065 43.1524C5.73232 43.1264 5.86851 43.1279 5.99868 43.1529L13.1782 35.745ZM13.8852 35.0356L20.897 28.1745L20.151 27.7529L13.1562 34.3066L13.8852 35.0356ZM38.0012 10.4444C37.8425 10.6977 37.6618 10.9335 37.4575 11.1383L37.4866 11.1674L37.5336 11.1228L37.6568 11.2545L40.444 7.78836C40.4235 7.80488 40.4014 7.8184 40.3794 7.83142L40.3809 7.83292L38.0012 10.4444ZM40.3168 7.10895C40.2542 7.04637 40.1706 7.01183 40.0815 7.01183C39.9929 7.01183 39.9093 7.04637 39.8467 7.10895C39.717 7.23813 39.717 7.44891 39.8467 7.57858C39.9724 7.70475 40.1912 7.70375 40.3163 7.57858C40.4465 7.44891 40.4465 7.23813 40.3168 7.10895ZM39.0536 5.4848C38.9866 5.41821 38.8974 5.40369 38.8344 5.40369C38.6776 5.40369 38.5014 5.4863 38.3632 5.62448C38.2476 5.74064 38.171 5.88032 38.1484 6.0185C38.1289 6.14167 38.1554 6.24681 38.223 6.3149C38.2901 6.38149 38.3792 6.39601 38.4423 6.39601C38.599 6.39601 38.7753 6.3134 38.9135 6.17521C39.0291 6.05906 39.1057 5.91937 39.1282 5.78119C39.1478 5.65803 39.1217 5.55289 39.0536 5.4848ZM40.42 3.97328C40.3529 3.9062 40.2638 3.89218 40.2007 3.89218C40.0445 3.89218 39.8682 3.97479 39.73 4.11297C39.5052 4.33777 39.4412 4.65419 39.5904 4.80339C39.6574 4.86998 39.7466 4.8845 39.8096 4.8845C39.9659 4.8845 40.1421 4.80189 40.2803 4.6637C40.5046 4.4384 40.5692 4.12248 40.42 3.97328ZM41.7863 2.46177C41.7192 2.39469 41.6301 2.38067 41.567 2.38067C41.4108 2.38067 41.2345 2.46328 41.0964 2.60146C40.9807 2.71761 40.9041 2.8573 40.8816 2.99548C40.862 3.11865 40.8886 3.22379 40.9562 3.29188C41.0233 3.35897 41.1124 3.37299 41.1755 3.37299C41.3322 3.37299 41.5084 3.29038 41.6466 3.15219C41.7622 3.03604 41.8388 2.89585 41.8614 2.75817C41.8804 2.635 41.8544 2.52986 41.7863 2.46177ZM43.1526 0.950264C43.086 0.883175 42.9964 0.869156 42.9333 0.869156C42.7771 0.869156 42.6009 0.951766 42.4627 1.08995C42.347 1.2061 42.2704 1.34579 42.2479 1.48397C42.2284 1.60714 42.2549 1.71228 42.3225 1.78037C42.3896 1.84746 42.4787 1.86148 42.5418 1.86148C42.698 1.86148 42.8742 1.77887 43.0124 1.64068C43.2372 1.41538 43.3018 1.09946 43.1526 0.950264ZM48.0932 7.55104C48.1603 7.61813 48.2499 7.63215 48.3125 7.63215C48.4687 7.63215 48.6449 7.54954 48.7831 7.41136C48.8987 7.2952 48.9753 7.15552 48.9979 7.01733C49.0174 6.89417 48.9909 6.78903 48.9233 6.72094C48.8562 6.65385 48.7671 6.63983 48.704 6.63983C48.5473 6.63983 48.371 6.72244 48.2329 6.86062C48.1172 6.97678 48.0406 7.11697 48.0181 7.25465C47.9985 7.37781 48.0251 7.48295 48.0932 7.55104ZM46.5812 8.91736C46.6482 8.98445 46.7374 8.99847 46.8004 8.99847C46.9567 8.99847 47.1329 8.91586 47.2711 8.77768C47.3867 8.66152 47.4633 8.52183 47.4859 8.38365C47.5054 8.26049 47.4788 8.15535 47.4113 8.08726C47.3442 8.02017 47.2551 8.00615 47.192 8.00615C47.0353 8.00615 46.859 8.08876 46.7208 8.22694C46.6052 8.3431 46.5286 8.48328 46.5061 8.62097C46.487 8.74413 46.5131 8.84927 46.5812 8.91736ZM45.0696 10.2837C45.1367 10.3508 45.2259 10.3648 45.2889 10.3648C45.4451 10.3648 45.6214 10.2822 45.7596 10.144C45.8752 10.0278 45.9518 9.88815 45.9743 9.74997C45.9939 9.6268 45.9673 9.52166 45.8997 9.45357C45.8327 9.38648 45.7435 9.37247 45.6805 9.37247C45.5237 9.37247 45.3475 9.45508 45.2093 9.59326C45.0937 9.70941 45.0171 9.8496 44.9945 9.98728C44.9755 10.1104 45.0021 10.2156 45.0696 10.2837ZM43.5581 11.65C43.6252 11.7171 43.7143 11.7311 43.7774 11.7311C43.9336 11.7311 44.1099 11.6485 44.2481 11.5103C44.3637 11.3942 44.4403 11.2545 44.4628 11.1163C44.4824 10.9931 44.4558 10.888 44.3882 10.8199C44.3211 10.7528 44.232 10.7388 44.1689 10.7388C44.0122 10.7388 43.836 10.8214 43.6978 10.9596C43.473 11.1849 43.4089 11.5008 43.5581 11.65ZM41.7252 10.9981C42.3926 10.8985 42.5673 10.7673 43.2818 10.1625C43.9346 9.61028 48.4051 5.65502 49.2422 4.91354L47.9625 1.881L44.9305 0.6013C44.1895 1.43891 40.2332 5.90936 39.6815 6.56173C39.0767 7.27668 38.945 7.45091 38.8454 8.1188C38.7818 8.54737 38.6431 9.07908 38.4258 9.60578L39.9764 7.90451C39.8617 7.88298 39.7536 7.83893 39.6695 7.75481C39.4427 7.52751 39.4427 7.15852 39.6695 6.93122C39.8893 6.71143 40.2723 6.71143 40.4936 6.93122C40.6723 7.10996 40.7048 7.37481 40.6017 7.5916L41.6541 6.28286C41.596 6.30188 41.5359 6.3184 41.4729 6.3184C41.3172 6.3184 41.171 6.25782 41.0613 6.14818C40.8345 5.92138 40.8345 5.55188 41.0613 5.32458C41.2811 5.10479 41.6646 5.10479 41.8849 5.32458C42.0146 5.45476 42.0616 5.62999 42.0426 5.80021L42.9278 4.69925C42.9063 4.70175 42.8867 4.71177 42.8647 4.71177C42.709 4.71177 42.5628 4.65119 42.4532 4.54154C42.343 4.43139 42.2819 4.2852 42.2819 4.12949C42.2819 3.97379 42.343 3.82809 42.4532 3.71794C42.673 3.49815 43.0565 3.49815 43.2768 3.71794C43.3744 3.81557 43.4215 3.94124 43.435 4.06891L44.2165 3.09712C44.0763 3.08761 43.9446 3.03454 43.8445 2.9344C43.6177 2.7071 43.6177 2.33761 43.8445 2.11081C44.0643 1.89102 44.4478 1.89102 44.6681 2.11081C44.8914 2.3341 44.8924 2.69508 44.6756 2.92289L44.6771 2.92439L37.845 11.4202L37.7038 11.3065L37.6643 11.3436L37.8791 11.5584L37.9236 11.5148L38.0989 11.6936L38.0563 11.7351L38.2711 11.9499L38.3127 11.9078L38.4083 12.0015L38.3307 11.9048L46.8255 5.07375L46.8265 5.07525C47.0478 4.86497 47.4218 4.86597 47.6386 5.08276C47.8654 5.31006 47.8654 5.67905 47.6386 5.90636C47.5284 6.0165 47.3822 6.07708 47.227 6.07708C47.0718 6.07708 46.9251 6.0165 46.8155 5.90636C46.7123 5.80272 46.6623 5.66954 46.6527 5.53386L45.6754 6.31941C45.8066 6.33142 45.9358 6.37798 46.0319 6.47411C46.2587 6.70091 46.2587 7.0704 46.0319 7.29771C45.9218 7.40785 45.7756 7.46793 45.6204 7.46793C45.4652 7.46793 45.3185 7.40735 45.2088 7.29771C45.0787 7.16753 45.0321 6.9918 45.0511 6.82157L43.9416 7.71376C44.1159 7.69273 44.2976 7.73729 44.4258 7.86546C44.6526 8.09276 44.6526 8.46226 44.4258 8.68906C44.3156 8.7992 44.1694 8.85928 44.0142 8.85928C43.859 8.85928 43.7123 8.7987 43.6022 8.68906C43.442 8.52884 43.4009 8.29804 43.467 8.09577L42.1387 9.16369C42.358 9.05254 42.6399 9.07858 42.8187 9.25681C43.0455 9.48411 43.0455 9.85311 42.8187 10.0804C42.7085 10.1906 42.5623 10.2506 42.4071 10.2506C42.2519 10.2506 42.1052 10.1901 41.9956 10.0804C41.9094 9.99379 41.8664 9.88565 41.8459 9.7735L39.8447 11.5979C40.4916 11.2745 41.1885 11.0777 41.7252 10.9981ZM41.7082 5.97144C41.8378 5.84227 41.8378 5.63149 41.7082 5.50182C41.6456 5.43923 41.562 5.40469 41.4734 5.40469C41.3847 5.40469 41.3011 5.43923 41.2385 5.50182C41.1089 5.63149 41.1089 5.84227 41.2385 5.97144C41.3637 6.09661 41.583 6.09661 41.7082 5.97144ZM43.0995 4.3643C43.2292 4.23513 43.2292 4.02435 43.0995 3.89468C43.0369 3.8321 42.9533 3.79755 42.8647 3.79755C42.7761 3.79755 42.6925 3.8321 42.6299 3.89468C42.5668 3.95726 42.5323 4.04087 42.5323 4.12899C42.5323 4.21711 42.5668 4.30072 42.6299 4.3638C42.7551 4.48947 42.9744 4.48947 43.0995 4.3643ZM44.4904 2.28854C44.4278 2.22596 44.3442 2.19141 44.2556 2.19141C44.1669 2.19141 44.0833 2.22596 44.0207 2.28854C43.8911 2.41772 43.8911 2.6285 44.0207 2.75817C44.1459 2.88333 44.3652 2.88333 44.4904 2.75817C44.62 2.6285 44.62 2.41772 44.4904 2.28854ZM43.7784 8.51132C43.9031 8.63649 44.1229 8.63699 44.2481 8.51132C44.3777 8.38215 44.3777 8.17137 44.2481 8.0417C44.1855 7.97911 44.1019 7.94457 44.0132 7.94457C43.9241 7.94457 43.8405 7.97911 43.7779 8.0417C43.6493 8.17137 43.6493 8.38215 43.7784 8.51132ZM45.3856 7.12047C45.5107 7.24564 45.73 7.24564 45.8552 7.12047C45.9849 6.9908 45.9849 6.78002 45.8552 6.65085C45.7926 6.58826 45.709 6.55372 45.6204 6.55372C45.5318 6.55372 45.4481 6.58826 45.3856 6.65085C45.2564 6.78002 45.2564 6.9908 45.3856 7.12047ZM46.9922 5.72912C47.1174 5.85479 47.3367 5.85479 47.4618 5.72912C47.5915 5.59995 47.5915 5.38917 47.4618 5.2595C47.3992 5.19691 47.3156 5.16237 47.227 5.16237C47.1384 5.16237 47.0548 5.19691 46.9922 5.2595C46.8625 5.38867 46.8625 5.59945 46.9922 5.72912ZM42.1718 9.90317C42.297 10.0283 42.5162 10.0283 42.6414 9.90317C42.7711 9.774 42.7711 9.56322 42.6414 9.43355C42.5788 9.37096 42.4952 9.33642 42.4066 9.33642C42.318 9.33642 42.2344 9.37096 42.1718 9.43355C42.0426 9.56272 42.0426 9.7735 42.1718 9.90317ZM41.9175 9.36946L41.9195 9.37146C41.9335 9.34843 41.9465 9.3254 41.964 9.30438L38.4864 12.1006L38.4809 12.0936L38.4473 12.1276L38.6621 12.3424L38.7007 12.3014L38.7502 12.3479C38.7512 12.3469 38.7527 12.3459 38.7537 12.3449L38.7082 12.2949L41.9175 9.36946ZM38.8028 12.8376L38.6681 12.7029L23.3873 29.0061L23.5595 29.1032L38.8028 12.8376ZM13.2789 49.5013C13.7295 49.5013 14.1721 49.4738 14.5941 49.4197C17.8174 49.0067 22.1271 45.7954 23.8159 42.5476C25.446 39.4129 26.0253 35.5052 25.8741 33.2012C25.7259 30.9422 25.5727 28.606 26.4934 27.2247C26.569 27.1106 26.6461 26.9994 26.7217 26.8898C27.0076 26.4747 27.2565 26.1112 27.3861 25.7437L24.3471 28.9846L23.7933 29.5884C23.7448 29.6414 23.6777 29.6695 23.6091 29.6695C23.567 29.6695 23.5245 29.6589 23.4859 29.6374L23.0348 29.3826L15.8728 37.0237L18.0822 39.2332L17.3743 39.9411L15.1614 37.7282L7.30341 44.8802C7.48315 45.2657 7.41857 45.7378 7.10064 46.0558C7.09464 46.0618 7.08863 46.0678 7.08212 46.0738C7.32294 46.4733 7.27137 47.0015 6.92691 47.346C6.81827 47.4546 6.6881 47.5332 6.54791 47.5843C8.5671 48.7969 10.9658 49.5013 13.2789 49.5013ZM3.0112 44.1923L5.81093 46.992C6.0142 47.1953 6.37017 47.1953 6.57344 46.992C6.78372 46.7817 6.78372 46.4398 6.54891 46.211C6.48683 46.1559 6.45629 46.0733 6.4678 45.9907C6.47882 45.9081 6.53039 45.8365 6.60448 45.7999C6.66306 45.7709 6.71012 45.7388 6.74717 45.7018C6.95695 45.492 6.95695 45.1495 6.74717 44.9398C6.67558 44.8682 6.58446 44.8186 6.48282 44.7961C6.40722 44.7796 6.34314 44.7285 6.31009 44.6584C6.27705 44.5883 6.27855 44.5067 6.3136 44.4376C6.40121 44.2679 6.3862 44.0596 6.27004 43.8869C6.25953 43.8698 6.24701 43.8543 6.242 43.8473C6.23349 43.8378 6.21547 43.8098 6.20896 43.7993C6.20245 43.7952 6.1674 43.7702 6.1614 43.7657C6.14687 43.7547 6.13235 43.7437 6.10832 43.7282C6.0152 43.6656 5.90956 43.6325 5.80141 43.6325C5.7183 43.6325 5.6392 43.6516 5.5661 43.6891C5.49701 43.7247 5.41541 43.7262 5.34581 43.6931C5.27522 43.6606 5.22465 43.597 5.20763 43.5214C5.1851 43.4192 5.13503 43.3276 5.06393 43.256C4.86066 43.0523 4.50469 43.0533 4.30242 43.256C4.26537 43.2936 4.23283 43.3401 4.20379 43.3992C4.16674 43.4738 4.08614 43.5129 4.00402 43.5239C3.91841 43.5379 3.82879 43.4923 3.77422 43.4303C3.57145 43.2275 3.21598 43.2265 3.01221 43.4303C2.91057 43.5324 2.8545 43.6676 2.8545 43.8118C2.853 43.955 2.90907 44.0906 3.0112 44.1923ZM2.41642 43.4608C2.46748 43.3181 2.54659 43.1864 2.65673 43.0763C2.98867 42.7438 3.5374 42.6838 3.92892 42.9206C3.93493 42.9141 3.94094 42.9081 3.94695 42.9021C4.25336 42.5962 4.7355 42.5321 5.11951 42.7028L12.275 34.8418L10.0621 32.6289L10.4161 32.2749L10.77 31.921L12.979 34.1299L19.9227 27.6242L19.6984 27.4976C18.0853 29.0406 16.4696 30.5591 15.661 31.3192C15.3251 31.6351 15.1128 31.8343 15.0742 31.8724C15.0722 31.8749 15.0697 31.8769 15.0672 31.8794C15.0182 31.9285 14.9541 31.9525 14.89 31.9525C14.8259 31.9525 14.7618 31.928 14.7128 31.8794C13.4556 30.6222 12.5955 30.436 11.8369 30.2718C11.6607 30.2337 11.4905 30.1967 11.3248 30.1481C10.8046 30.7739 10.3865 31.3392 10.378 31.3502L10.3405 31.4018L10.2829 31.4288C10.2568 31.4408 7.68292 32.6474 6.96146 33.118C6.56443 33.3764 6.21196 33.5021 5.88252 33.5021C5.53506 33.5021 5.21363 33.3574 4.92876 33.072C4.79558 32.9388 4.72248 32.7621 4.72248 32.5738C4.72248 32.3856 4.79558 32.2088 4.92876 32.0757C5.19461 31.8093 5.65923 31.8093 5.92508 32.0757C6.05826 32.2088 6.13136 32.3856 6.13136 32.5743C6.13136 32.6149 6.12785 32.6544 6.12134 32.6935C6.27905 32.6694 6.42975 32.6114 6.57745 32.5182C7.42107 31.988 9.05174 29.7816 9.06876 29.7596L9.10631 29.708L9.16389 29.681C9.1739 29.6765 9.55991 29.4952 10.0711 29.2484C10.0125 29.1678 9.95394 29.0867 9.89636 28.9906C9.42674 28.216 9.37817 27.3324 9.75918 26.5023C10.0796 25.8038 10.6799 25.1915 11.486 24.7074C10.1417 25.0373 8.74333 25.5184 7.45562 26.1878C4.2083 27.8771 0.997025 32.1858 0.583477 35.4091C0.291588 37.6846 0.799767 40.7727 2.41642 43.4608ZM5.63069 32.5728C5.63069 32.5182 5.60966 32.4672 5.57111 32.4286C5.49401 32.3515 5.35983 32.3515 5.28273 32.4286C5.24417 32.4672 5.22314 32.5182 5.22314 32.5728C5.22314 32.6274 5.24417 32.6785 5.28273 32.717C5.32528 32.7591 5.36734 32.7966 5.4099 32.8292L5.54057 32.732C5.55259 32.7225 5.5656 32.7145 5.57011 32.7145C5.57161 32.7145 5.57211 32.715 5.57161 32.7165C5.60966 32.6785 5.63069 32.6274 5.63069 32.5728Z" fill="black"/>
<path d="M18.5749 39.7203L18.602 39.6627L18.6535 39.6252C18.6761 39.6087 20.882 37.978 21.4132 37.1339C21.5068 36.9852 21.5644 36.8355 21.5884 36.6773C21.3691 36.7158 21.1323 36.6427 20.9706 36.481C20.8374 36.3478 20.7643 36.1711 20.7643 35.9828C20.7643 35.7946 20.8374 35.6179 20.9706 35.4847C21.2365 35.2183 21.7011 35.2183 21.9669 35.4847C22.5257 36.0429 22.5407 36.7078 22.013 37.5174C21.5429 38.2388 20.3363 40.8133 20.3243 40.8393L20.2972 40.8969L20.2456 40.9344C20.2231 40.9509 18.0172 42.5821 17.486 43.4252C17.3929 43.5734 17.3348 43.7236 17.3112 43.8818C17.5315 43.8438 17.7668 43.9164 17.9286 44.0786C18.0617 44.2118 18.1348 44.3885 18.1348 44.5768C18.1348 44.765 18.0617 44.9418 17.9286 45.0749C17.7954 45.2081 17.6187 45.2817 17.4304 45.2817C17.2422 45.2817 17.0654 45.2086 16.9322 45.0749C16.3735 44.5162 16.3585 43.8513 16.8862 43.0422C17.3563 42.3208 18.5624 39.7463 18.5749 39.7203ZM21.7251 35.9643C21.6906 35.9203 21.652 35.8787 21.612 35.8386C21.5349 35.7615 21.4007 35.761 21.3236 35.8386C21.285 35.8772 21.264 35.9283 21.264 35.9828C21.264 36.0374 21.285 36.0885 21.3236 36.127C21.4007 36.2041 21.5514 36.1851 21.5954 36.1466L21.7251 35.9643ZM19.8962 40.5689C20.0193 40.3076 20.518 39.2522 20.9741 38.362C20.2066 39.082 19.2383 39.8124 19.0015 39.9897C18.8783 40.251 18.3797 41.3069 17.9236 42.1966C18.6911 41.4771 19.6594 40.7462 19.8962 40.5689ZM17.2857 44.7205C17.3628 44.7976 17.497 44.7981 17.5741 44.7205C17.6126 44.6819 17.6337 44.6308 17.6337 44.5763C17.6337 44.5217 17.6126 44.4706 17.5741 44.4321C17.5355 44.3935 17.484 44.372 17.4299 44.372C17.3758 44.372 17.3243 44.393 17.3022 44.4126L17.1731 44.5953C17.2081 44.6394 17.2462 44.6804 17.2857 44.7205Z" fill="black"/>
</svg>
