<?xml version="1.0" encoding="utf-8"?>
<!-- Generator: Adobe Illustrator 24.1.3, SVG Export Plug-In . SVG Version: 6.00 Build 0)  -->
<svg version="1.1" xmlns="http://www.w3.org/2000/svg" xmlns:xlink="http://www.w3.org/1999/xlink" x="0px" y="0px"
	 viewBox="0 0 50 50" style="enable-background:new 0 0 50 50;" xml:space="preserve">
<style type="text/css">
	.st0{fill:#75A1CE;}
</style>
<g id="colour">
	<path class="st0" d="M27.3,22c-0.3-0.2-0.6-0.3-0.9-0.4c-0.4-0.5-1.1-0.8-1.8-0.3c-1.8,1.4-3.8,1.9-6.1,1.7
		c-2.1-0.1-4.1-0.1-6.2,0.2c-3.8,0.7-7.4,2.6-9.8,5.6c-2.3,2.9-3.5,6.7-3,10.4c0.3,1.9,1.1,3.7,2.2,5.3c1.2,1.7,2.7,3.5,4.5,4.6
		c3.8,2.2,8.3,1.3,12-0.4c1.9-0.9,3.8-1.9,5.1-3.5c1.2-1.5,2-3.3,2.4-5.2c0.5-2.3,0.5-4.6,0.5-6.9c0-2.3-0.1-4.2,1.1-6.2
		C28.4,25.4,29,23.2,27.3,22z"/>
</g>
<g id="Layer_1">
	<path d="M0.1,35.3c0.4-3.4,3.8-7.8,7.1-9.6c2.3-1.2,5-1.8,7.1-2c0,0,0,0,0,0c0.1,0,0.1,0,0.2,0c0.1,0,0.3,0,0.4,0
		c0.1,0,0.1,0,0.2,0c0.3,0,0.7,0,1,0c0,0,0.1,0,0.1,0c0.2,0,0.5,0,0.7,0c0.2,0,0.4,0,0.7,0c0,0,0,0,0.1,0c0.2,0,0.4,0,0.5,0
		c0.1,0,0.2,0,0.4,0c0.1,0,0.2,0,0.2,0c0.2,0,0.4,0,0.6,0c0,0,0,0,0,0c1.4,0,2.4-0.2,3.1-0.6c0,0,0.1,0,0.1-0.1
		c0.1-0.1,0.2-0.1,0.3-0.2c0,0,0,0,0.1,0c0,0,0,0,0,0l0.1-0.1h0c0.6-0.4,1.1-0.7,1.8-0.7c0,0,0.1,0,0.1,0L37,10.6
		c0.1-0.1,0.2-0.1,0.3,0c0.7-0.8,1-2,1.1-2.6c0.1-0.7,0.3-1,0.7-1.5L39,6.4c-0.2,0.1-0.4,0.2-0.6,0.2c-0.2,0-0.3-0.1-0.4-0.2
		c-0.1-0.1-0.2-0.3-0.1-0.5c0-0.2,0.1-0.4,0.3-0.5c0.3-0.3,0.8-0.4,1-0.1c0.1,0.1,0.2,0.3,0.1,0.5c0,0.2-0.1,0.3-0.2,0.4l0.1,0.1
		c0,0,0-0.1,0.1-0.1c0.2-0.2,0.6-0.7,1.1-1.3l0,0c-0.2,0.1-0.4,0.2-0.6,0.2c-0.2,0-0.3-0.1-0.4-0.2c-0.1-0.1-0.2-0.3-0.1-0.5
		c0-0.2,0.1-0.4,0.3-0.5c0.3-0.3,0.8-0.4,1-0.1c0.2,0.2,0.2,0.6-0.1,0.9l0,0c0.4-0.4,0.8-0.9,1.2-1.3l0,0c-0.2,0.1-0.4,0.2-0.6,0.2
		c-0.2,0-0.3-0.1-0.4-0.2c-0.1-0.1-0.2-0.3-0.1-0.5c0-0.2,0.1-0.4,0.3-0.5c0.3-0.3,0.8-0.4,1-0.1c0.1,0.1,0.2,0.3,0.1,0.5
		c0,0.2-0.1,0.3-0.2,0.4l0,0c0.4-0.5,0.8-0.9,1.2-1.3l0,0c-0.2,0.1-0.4,0.2-0.6,0.2c-0.2,0-0.3-0.1-0.4-0.2C42,1.8,42,1.6,42,1.4
		c0-0.2,0.1-0.4,0.3-0.5c0.3-0.3,0.8-0.4,1-0.1c0.2,0.2,0.2,0.6-0.1,0.9c0.8-0.9,1.4-1.6,1.4-1.6L44.8,0l3.6,1.5L49.8,5l-0.1,0.1
		c0,0-0.7,0.6-1.6,1.4l0,0c0.3-0.2,0.7-0.3,0.9-0.1c0.1,0.1,0.2,0.3,0.1,0.5c0,0.2-0.1,0.4-0.3,0.5c-0.2,0.2-0.4,0.3-0.6,0.3
		c-0.2,0-0.3-0.1-0.4-0.2c-0.1-0.1-0.2-0.3-0.1-0.5c0-0.2,0.1-0.3,0.2-0.4l0,0c-0.4,0.4-0.9,0.8-1.3,1.2l0,0
		c0.3-0.2,0.7-0.3,0.9-0.1c0.1,0.1,0.2,0.3,0.1,0.5c0,0.2-0.1,0.4-0.3,0.5c-0.2,0.2-0.4,0.3-0.6,0.3c-0.2,0-0.3-0.1-0.4-0.2
		c-0.1-0.1-0.2-0.3-0.1-0.5c0-0.2,0.1-0.3,0.2-0.4l-0.1-0.1c-0.5,0.4-0.9,0.8-1.3,1.2l0.1,0.1c0.3-0.2,0.7-0.3,0.9-0.1
		c0.1,0.1,0.2,0.3,0.1,0.5c0,0.2-0.1,0.4-0.3,0.5c-0.2,0.2-0.4,0.3-0.6,0.3c-0.2,0-0.3-0.1-0.4-0.2c-0.1-0.1-0.2-0.3-0.1-0.5
		c0-0.2,0.1-0.3,0.2-0.4l-0.1-0.1c-0.6,0.5-1.1,1-1.3,1.1c0,0-0.1,0-0.1,0.1l0.1,0.1c0.3-0.2,0.7-0.3,0.9-0.1
		c0.1,0.1,0.2,0.3,0.1,0.5c0,0.2-0.1,0.4-0.3,0.5C44.2,11.9,44,12,43.8,12c-0.2,0-0.3-0.1-0.4-0.2c-0.2-0.2-0.2-0.6,0.1-0.9
		l-0.1-0.1c-0.5,0.5-0.8,0.6-1.5,0.7c-0.6,0.1-1.8,0.4-2.5,1.1l0.1,0.1c0.1,0.1,0.1,0.2,0,0.3L28,25.1c0,0.8-0.4,1.4-0.8,2.1
		c-0.1,0.1-0.1,0.2-0.2,0.3c-0.8,1.2-0.7,3.6-0.5,5.7c0.2,2.4-0.4,6.4-2.1,9.6c-1.8,3.4-6.2,6.7-9.6,7.1C14.2,50,13.8,50,13.3,50
		c-3.4,0-7-1.5-9.4-3.9C1.1,43.4-0.4,39.1,0.1,35.3z M19.3,24.2c-0.8,0-1.6,0-2.5-0.1c-0.7,0-1.5,0-2.4,0.1
		c-2.1,0.3-3.7,1.3-4.2,2.5c-0.3,0.7-0.3,1.4,0.1,2c0.5,0.8,0.9,0.9,1.6,1.1c0.8,0.2,1.7,0.4,3,1.6c0.1-0.1,0.2-0.2,0.4-0.4
		c1.3-1.3,4.9-4.6,7-6.7c0.1-0.1,0.3-0.4,0.4-0.7C22,24,20.9,24.2,19.3,24.2z M9.4,30.1c-0.2,0.2-0.9,1.2-1.6,2
		c0.9-0.5,1.9-1,2.2-1.1c0.1-0.1,0.4-0.6,0.8-1.1c-0.1-0.1-0.3-0.2-0.4-0.3C10,29.9,9.6,30,9.4,30.1z M23.3,23.1
		c0,0.1-0.1,0.3-0.1,0.5l1.1-1C24,22.7,23.7,22.9,23.3,23.1z M37.1,11.2l-17,16l0.1,0.1l17-15.9L37.1,11.2z M6.9,44.4
		c0.1,0,0.2,0.1,0.3,0.2c0,0,0,0.1,0.1,0.1l7.8-7.1l-0.7-0.7L6.9,44C6.9,44.1,6.9,44.3,6.9,44.4z M14.8,35.9l7.1-7.2l-0.7-0.4
		l-7.1,6.9L14.8,35.9z M21.5,27.9l0.7,0.4l15.9-16.2l-0.2-0.2L21.5,27.9z M37.7,11.7l-0.2-0.2L20.5,27.4l0.7,0.4L37.7,11.7z
		 M22.4,28.5l0.7,0.4l15.3-16.4l-0.2-0.2L22.4,28.5z M22.1,28.8L15,36.1l0.7,0.7l7.1-7.6L22.1,28.8z M14.1,36.6l-0.7-0.7l-7.1,7.3
		c0,0,0.1,0,0.1,0.1c0,0,0.1,0,0.1,0.1c0,0,0,0,0.1,0.1c0,0,0,0.1,0.1,0.1c0,0,0,0.1,0.1,0.1c0,0,0,0.1,0.1,0.1L14.1,36.6z
		 M13.2,35.7L12.5,35l-7.1,7.8c0,0,0.1,0,0.1,0.1c0.1,0.1,0.1,0.2,0.2,0.2c0.1,0,0.3,0,0.4,0L13.2,35.7z M13.9,35l7-6.9l-0.7-0.4
		l-7,6.6L13.9,35z M38,10.4c-0.2,0.3-0.3,0.5-0.5,0.7l0,0l0,0l0.1,0.1l2.8-3.5c0,0,0,0-0.1,0l0,0L38,10.4z M40.3,7.1
		C40.3,7,40.2,7,40.1,7c-0.1,0-0.2,0-0.2,0.1c-0.1,0.1-0.1,0.3,0,0.5c0.1,0.1,0.3,0.1,0.5,0C40.4,7.4,40.4,7.2,40.3,7.1z M39.1,5.5
		c-0.1-0.1-0.2-0.1-0.2-0.1c-0.2,0-0.3,0.1-0.5,0.2c-0.1,0.1-0.2,0.3-0.2,0.4c0,0.1,0,0.2,0.1,0.3c0.1,0.1,0.2,0.1,0.2,0.1
		c0.2,0,0.3-0.1,0.5-0.2c0.1-0.1,0.2-0.3,0.2-0.4C39.1,5.7,39.1,5.6,39.1,5.5z M40.4,4c-0.1-0.1-0.2-0.1-0.2-0.1
		c-0.2,0-0.3,0.1-0.5,0.2c-0.2,0.2-0.3,0.5-0.1,0.7c0.1,0.1,0.2,0.1,0.2,0.1c0.2,0,0.3-0.1,0.5-0.2C40.5,4.4,40.6,4.1,40.4,4z
		 M41.8,2.5c-0.1-0.1-0.2-0.1-0.2-0.1c-0.2,0-0.3,0.1-0.5,0.2C41,2.7,40.9,2.9,40.9,3c0,0.1,0,0.2,0.1,0.3c0.1,0.1,0.2,0.1,0.2,0.1
		c0.2,0,0.3-0.1,0.5-0.2c0.1-0.1,0.2-0.3,0.2-0.4C41.9,2.6,41.9,2.5,41.8,2.5z M43.2,1c-0.1-0.1-0.2-0.1-0.2-0.1
		c-0.2,0-0.3,0.1-0.5,0.2c-0.1,0.1-0.2,0.3-0.2,0.4c0,0.1,0,0.2,0.1,0.3c0.1,0.1,0.2,0.1,0.2,0.1c0.2,0,0.3-0.1,0.5-0.2
		C43.2,1.4,43.3,1.1,43.2,1z M48.1,7.6c0.1,0.1,0.2,0.1,0.2,0.1c0.2,0,0.3-0.1,0.5-0.2C48.9,7.3,49,7.2,49,7c0-0.1,0-0.2-0.1-0.3
		c-0.1-0.1-0.2-0.1-0.2-0.1c-0.2,0-0.3,0.1-0.5,0.2C48.1,7,48,7.1,48,7.3C48,7.4,48,7.5,48.1,7.6z M46.6,8.9C46.6,9,46.7,9,46.8,9
		c0.2,0,0.3-0.1,0.5-0.2c0.1-0.1,0.2-0.3,0.2-0.4c0-0.1,0-0.2-0.1-0.3C47.3,8,47.3,8,47.2,8c-0.2,0-0.3,0.1-0.5,0.2
		c-0.1,0.1-0.2,0.3-0.2,0.4C46.5,8.7,46.5,8.8,46.6,8.9z M45.1,10.3c0.1,0.1,0.2,0.1,0.2,0.1c0.2,0,0.3-0.1,0.5-0.2
		C45.9,10,46,9.9,46,9.7c0-0.1,0-0.2-0.1-0.3c-0.1-0.1-0.2-0.1-0.2-0.1c-0.2,0-0.3,0.1-0.5,0.2C45.1,9.7,45,9.8,45,10
		C45,10.1,45,10.2,45.1,10.3z M43.6,11.6c0.1,0.1,0.2,0.1,0.2,0.1c0.2,0,0.3-0.1,0.5-0.2c0.1-0.1,0.2-0.3,0.2-0.4
		c0-0.1,0-0.2-0.1-0.3c-0.1-0.1-0.2-0.1-0.2-0.1c-0.2,0-0.3,0.1-0.5,0.2C43.5,11.2,43.4,11.5,43.6,11.6z M41.7,11
		c0.7-0.1,0.8-0.2,1.6-0.8c0.7-0.6,5.1-4.5,6-5.2l-1.3-3l-3-1.3c-0.7,0.8-4.7,5.3-5.2,6c-0.6,0.7-0.7,0.9-0.8,1.6
		c-0.1,0.4-0.2,1-0.4,1.5L40,7.9c-0.1,0-0.2-0.1-0.3-0.1c-0.2-0.2-0.2-0.6,0-0.8c0.2-0.2,0.6-0.2,0.8,0c0.2,0.2,0.2,0.4,0.1,0.7
		l1.1-1.3c-0.1,0-0.1,0-0.2,0c-0.2,0-0.3-0.1-0.4-0.2c-0.2-0.2-0.2-0.6,0-0.8c0.2-0.2,0.6-0.2,0.8,0C42,5.5,42.1,5.6,42,5.8l0.9-1.1
		c0,0,0,0-0.1,0c-0.2,0-0.3-0.1-0.4-0.2c-0.1-0.1-0.2-0.3-0.2-0.4c0-0.2,0.1-0.3,0.2-0.4c0.2-0.2,0.6-0.2,0.8,0
		c0.1,0.1,0.1,0.2,0.2,0.4l0.8-1c-0.1,0-0.3-0.1-0.4-0.2c-0.2-0.2-0.2-0.6,0-0.8c0.2-0.2,0.6-0.2,0.8,0c0.2,0.2,0.2,0.6,0,0.8l0,0
		l-6.8,8.5l-0.1-0.1l0,0l0.2,0.2l0,0l0.2,0.2l0,0l0.2,0.2l0,0l0.1,0.1l-0.1-0.1l8.5-6.8l0,0c0.2-0.2,0.6-0.2,0.8,0
		c0.2,0.2,0.2,0.6,0,0.8c-0.1,0.1-0.3,0.2-0.4,0.2c-0.2,0-0.3-0.1-0.4-0.2c-0.1-0.1-0.2-0.2-0.2-0.4l-1,0.8c0.1,0,0.3,0.1,0.4,0.2
		c0.2,0.2,0.2,0.6,0,0.8c-0.1,0.1-0.3,0.2-0.4,0.2s-0.3-0.1-0.4-0.2C45.1,7.2,45,7,45.1,6.8l-1.1,0.9c0.2,0,0.4,0,0.5,0.2
		c0.2,0.2,0.2,0.6,0,0.8c-0.1,0.1-0.3,0.2-0.4,0.2c-0.2,0-0.3-0.1-0.4-0.2c-0.2-0.2-0.2-0.4-0.1-0.6l-1.3,1.1
		c0.2-0.1,0.5-0.1,0.7,0.1c0.2,0.2,0.2,0.6,0,0.8c-0.1,0.1-0.3,0.2-0.4,0.2s-0.3-0.1-0.4-0.2c-0.1-0.1-0.1-0.2-0.1-0.3l-2,1.8
		C40.5,11.3,41.2,11.1,41.7,11z M41.7,6c0.1-0.1,0.1-0.3,0-0.5c-0.1-0.1-0.1-0.1-0.2-0.1c-0.1,0-0.2,0-0.2,0.1
		c-0.1,0.1-0.1,0.3,0,0.5C41.4,6.1,41.6,6.1,41.7,6z M43.1,4.4c0.1-0.1,0.1-0.3,0-0.5C43,3.8,43,3.8,42.9,3.8s-0.2,0-0.2,0.1
		C42.6,4,42.5,4,42.5,4.1s0,0.2,0.1,0.2C42.8,4.5,43,4.5,43.1,4.4z M44.5,2.3c-0.1-0.1-0.1-0.1-0.2-0.1c-0.1,0-0.2,0-0.2,0.1
		c-0.1,0.1-0.1,0.3,0,0.5c0.1,0.1,0.3,0.1,0.5,0C44.6,2.6,44.6,2.4,44.5,2.3z M43.8,8.5c0.1,0.1,0.3,0.1,0.5,0
		c0.1-0.1,0.1-0.3,0-0.5C44.2,8,44.1,7.9,44,7.9c-0.1,0-0.2,0-0.2,0.1C43.6,8.2,43.6,8.4,43.8,8.5z M45.4,7.1c0.1,0.1,0.3,0.1,0.5,0
		C46,7,46,6.8,45.9,6.7c-0.1-0.1-0.1-0.1-0.2-0.1s-0.2,0-0.2,0.1C45.3,6.8,45.3,7,45.4,7.1z M47,5.7c0.1,0.1,0.3,0.1,0.5,0
		c0.1-0.1,0.1-0.3,0-0.5c-0.1-0.1-0.1-0.1-0.2-0.1s-0.2,0-0.2,0.1C46.9,5.4,46.9,5.6,47,5.7z M42.2,9.9c0.1,0.1,0.3,0.1,0.5,0
		c0.1-0.1,0.1-0.3,0-0.5c-0.1-0.1-0.1-0.1-0.2-0.1s-0.2,0-0.2,0.1C42,9.6,42,9.8,42.2,9.9z M41.9,9.4L41.9,9.4
		C41.9,9.3,41.9,9.3,41.9,9.4l-3.4,2.7l0,0l0,0l0.2,0.2l0,0l0,0c0,0,0,0,0,0l0-0.1L41.9,9.4z M38.8,12.8l-0.1-0.1L23.4,29l0.2,0.1
		L38.8,12.8z M13.3,49.5c0.5,0,0.9,0,1.3-0.1c3.2-0.4,7.5-3.6,9.2-6.9c1.6-3.1,2.2-7,2.1-9.3c-0.1-2.3-0.3-4.6,0.6-6
		c0.1-0.1,0.2-0.2,0.2-0.3c0.3-0.4,0.5-0.8,0.7-1.1l-3,3.2l-0.6,0.6c0,0.1-0.1,0.1-0.2,0.1c0,0-0.1,0-0.1,0L23,29.4L15.9,37l2.2,2.2
		l-0.7,0.7l-2.2-2.2l-7.9,7.2c0.2,0.4,0.1,0.9-0.2,1.2c0,0,0,0,0,0c0.2,0.4,0.2,0.9-0.2,1.3c-0.1,0.1-0.2,0.2-0.4,0.2
		C8.6,48.8,11,49.5,13.3,49.5z M3,44.2L5.8,47c0.2,0.2,0.6,0.2,0.8,0c0.2-0.2,0.2-0.6,0-0.8c-0.1-0.1-0.1-0.1-0.1-0.2
		c0-0.1,0.1-0.2,0.1-0.2c0.1,0,0.1-0.1,0.1-0.1c0.2-0.2,0.2-0.6,0-0.8c-0.1-0.1-0.2-0.1-0.3-0.1c-0.1,0-0.1-0.1-0.2-0.1
		c0-0.1,0-0.2,0-0.2c0.1-0.2,0.1-0.4,0-0.6c0,0,0,0,0,0c0,0,0,0,0,0c0,0,0,0,0,0c0,0,0,0-0.1,0c-0.1-0.1-0.2-0.1-0.3-0.1
		c-0.1,0-0.2,0-0.2,0.1c-0.1,0-0.2,0-0.2,0c-0.1,0-0.1-0.1-0.1-0.2c0-0.1-0.1-0.2-0.1-0.3c-0.2-0.2-0.6-0.2-0.8,0
		c0,0-0.1,0.1-0.1,0.1c0,0.1-0.1,0.1-0.2,0.1c-0.1,0-0.2,0-0.2-0.1c-0.2-0.2-0.6-0.2-0.8,0c-0.1,0.1-0.2,0.2-0.2,0.4
		C2.9,44,2.9,44.1,3,44.2z M2.4,43.5c0.1-0.1,0.1-0.3,0.2-0.4c0.3-0.3,0.9-0.4,1.3-0.2c0,0,0,0,0,0c0.3-0.3,0.8-0.4,1.2-0.2l7.2-7.9
		l-2.2-2.2l0.4-0.4l0.4-0.4l2.2,2.2l6.9-6.5l-0.2-0.1c-1.6,1.5-3.2,3.1-4,3.8c-0.3,0.3-0.5,0.5-0.6,0.6c0,0,0,0,0,0
		c0,0-0.1,0.1-0.2,0.1c-0.1,0-0.1,0-0.2-0.1c-1.3-1.3-2.1-1.4-2.9-1.6c-0.2,0-0.3-0.1-0.5-0.1c-0.5,0.6-0.9,1.2-0.9,1.2l0,0.1
		l-0.1,0c0,0-2.6,1.2-3.3,1.7c-0.4,0.3-0.7,0.4-1.1,0.4c-0.3,0-0.7-0.1-1-0.4c-0.1-0.1-0.2-0.3-0.2-0.5c0-0.2,0.1-0.4,0.2-0.5
		c0.3-0.3,0.7-0.3,1,0c0.1,0.1,0.2,0.3,0.2,0.5c0,0,0,0.1,0,0.1c0.2,0,0.3-0.1,0.5-0.2c0.8-0.5,2.5-2.7,2.5-2.8l0-0.1l0.1,0
		c0,0,0.4-0.2,0.9-0.4C10,29.2,10,29.1,9.9,29c-0.5-0.8-0.5-1.7-0.1-2.5c0.3-0.7,0.9-1.3,1.7-1.8c-1.3,0.3-2.7,0.8-4,1.5
		c-3.2,1.7-6.5,6-6.9,9.2C0.3,37.7,0.8,40.8,2.4,43.5z M5.6,32.6c0-0.1,0-0.1-0.1-0.1c-0.1-0.1-0.2-0.1-0.3,0c0,0-0.1,0.1-0.1,0.1
		s0,0.1,0.1,0.1c0,0,0.1,0.1,0.1,0.1l0.1-0.1c0,0,0,0,0,0c0,0,0,0,0,0C5.6,32.7,5.6,32.6,5.6,32.6z"/>
	<path d="M18.6,39.7L18.6,39.7L18.6,39.7c0.1-0.1,2.3-1.7,2.8-2.6c0.1-0.1,0.2-0.3,0.2-0.5c-0.2,0-0.5,0-0.6-0.2
		c-0.1-0.1-0.2-0.3-0.2-0.5c0-0.2,0.1-0.4,0.2-0.5c0.3-0.3,0.7-0.3,1,0c0.6,0.6,0.6,1.2,0,2c-0.5,0.7-1.7,3.3-1.7,3.3l0,0.1l-0.1,0
		c0,0-2.2,1.6-2.8,2.5c-0.1,0.1-0.2,0.3-0.2,0.5c0.2,0,0.5,0,0.6,0.2c0.1,0.1,0.2,0.3,0.2,0.5c0,0.2-0.1,0.4-0.2,0.5
		c-0.1,0.1-0.3,0.2-0.5,0.2c-0.2,0-0.4-0.1-0.5-0.2c-0.6-0.6-0.6-1.2,0-2C17.4,42.3,18.6,39.7,18.6,39.7z M21.7,36
		c0,0-0.1-0.1-0.1-0.1c-0.1-0.1-0.2-0.1-0.3,0c0,0-0.1,0.1-0.1,0.1c0,0.1,0,0.1,0.1,0.1c0.1,0.1,0.2,0.1,0.3,0L21.7,36z M19.9,40.6
		c0.1-0.3,0.6-1.3,1.1-2.2c-0.8,0.7-1.7,1.5-2,1.6c-0.1,0.3-0.6,1.3-1.1,2.2C18.7,41.5,19.7,40.7,19.9,40.6z M17.3,44.7
		c0.1,0.1,0.2,0.1,0.3,0c0,0,0.1-0.1,0.1-0.1c0-0.1,0-0.1-0.1-0.1c0,0-0.1-0.1-0.1-0.1s-0.1,0-0.1,0l-0.1,0.2
		C17.2,44.6,17.2,44.7,17.3,44.7z"/>
</g>
</svg>
