<?xml version="1.0" encoding="utf-8"?>
<!-- Generator: Adobe Illustrator 24.1.3, SVG Export Plug-In . SVG Version: 6.00 Build 0)  -->
<svg version="1.1" id="Layer_1" xmlns="http://www.w3.org/2000/svg" xmlns:xlink="http://www.w3.org/1999/xlink" x="0px" y="0px"
	 viewBox="0 0 100 100" style="enable-background:new 0 0 100 100;" xml:space="preserve">
<style type="text/css">
	.st0{fill:#75A1CE;}
</style>
<g id="colour">
	<path class="st0" d="M54.9,44c-0.6-0.4-1.2-0.6-1.8-0.8c-0.8-1-2.2-1.6-3.4-0.6c-3.4,2.6-7.2,3.6-11.8,3.2c-4-0.2-7.8-0.2-12,0.4
		c-7.2,1.4-14.2,5-18.8,10.8c-4.4,5.6-6.8,12.8-5.8,20c0.6,3.6,2.2,7.2,4.2,10.2c2.4,3.2,5.2,6.8,8.6,8.8c7.2,4.2,16,2.4,23-0.8
		c3.6-1.8,7.2-3.6,9.8-6.8c2.4-2.8,3.8-6.4,4.6-10c1-4.4,1-8.8,1-13.2c0-4.4-0.2-8,2.2-12C56.9,50.6,58.1,46.4,54.9,44z"/>
</g>
<g id="Layer_1_1_">
	<path d="M2.7,69.6c0.8-6.6,7.2-15,13.6-18.4c4.4-2.4,9.6-3.4,13.6-3.8l0,0c0.2,0,0.2,0,0.4,0c0.2,0,0.6,0,0.8,0c0.2,0,0.2,0,0.4,0
		c0.6,0,1.4,0,2,0h0.2c0.4,0,1,0,1.4,0s0.8,0,1.4,0c0,0,0,0,0.2,0c0.4,0,0.8,0,1,0s0.4,0,0.8,0c0.2,0,0.4,0,0.4,0c0.4,0,0.8,0,1.2,0
		l0,0c2.6,0,4.6-0.4,6-1.2c0,0,0.2,0,0.2-0.2c0.2-0.2,0.4-0.2,0.6-0.4c0,0,0,0,0.2,0l0,0l0.2-0.2l0,0c1.2-0.8,2.2-1.4,3.4-1.4h-0.2
		l23-21.8c0.2-0.2,0.4-0.2,0.6,0c1.4-1.6,2-3.8,2.2-5c0.2-1.4,0.6-2,1.4-2.8l-0.2-0.2c-0.4,0.2-0.8,0.4-1.2,0.4s-0.6-0.2-0.8-0.4
		c-0.2-0.2-0.4-0.6-0.2-1c0-0.4,0.2-0.8,0.6-1c0.6-0.6,1.6-0.8,2-0.2c0.2,0.2,0.4,0.6,0.2,1c0,0.4-0.2,0.6-0.4,0.8l0.2,0.2
		c0,0,0-0.2,0.2-0.2c0.4-0.4,1.2-1.4,2.2-2.4l0,0c-0.4,0.2-0.8,0.4-1.2,0.4s-0.6-0.2-0.8-0.4c-0.2-0.2-0.4-0.6-0.2-1
		c0-0.4,0.2-0.8,0.6-1c0.6-0.6,1.6-0.8,2-0.2c0.4,0.4,0.4,1.2-0.2,1.8l0,0c0.8-0.8,1.6-1.8,2.4-2.4l0,0C82.5,8.8,82.1,9,81.7,9
		s-0.6-0.2-0.8-0.4c-0.4-0.4-0.6-0.8-0.4-1.2c0-0.4,0.2-0.8,0.6-1c0.6-0.6,1.6-0.8,2-0.2c0.2,0.2,0.4,0.6,0.2,1
		c0,0.4-0.2,0.6-0.4,0.8l0,0c0.8-1,1.6-1.8,2.4-2.4l0,0c-0.6,0-1,0.2-1.4,0.2s-0.6-0.2-0.8-0.4c0-0.2,0-0.6,0-1s0.2-0.8,0.6-1
		c0.6-0.6,1.6-0.8,2-0.2c0.4,0.4,0.4,1.2-0.2,1.8c1.6-1.8,2.6-3,2.6-3l0.4-0.2l7,2.8l2.6,6.8l-0.2,0.2c0,0-1.4,1.2-3,2.6l0,0
		c0.6-0.2,1.2-0.4,1.6-0.2c0.2,0.2,0.4,0.6,0.2,1c0,0.4-0.2,0.8-0.6,1c-0.4,0.4-0.8,0.6-1.2,0.6s-0.4-0.2-0.6-0.4s-0.4-0.6-0.2-1
		c0-0.4,0.2-0.6,0.4-0.8l0,0c-0.8,0.8-1.8,1.6-2.4,2.4l0,0c0.6-0.4,1.4-0.6,1.8-0.2c0.2,0.2,0.4,0.6,0.2,1c0,0.4-0.2,0.8-0.6,1
		c-0.4,0.4-0.8,0.6-1.2,0.6s-0.6-0.2-0.8-0.4c-0.2-0.2-0.4-0.6-0.2-1c0-0.4,0.2-0.6,0.4-0.8l-0.2-0.2c-1,0.8-1.8,1.6-2.4,2.4
		l0.2,0.2c0.6-0.4,1.4-0.6,1.8-0.2c0.2,0.2,0.4,0.6,0.2,1c0,0.4-0.2,0.8-0.6,1c-0.4,0.4-0.8,0.6-1.2,0.6c-0.4,0-0.6-0.2-0.8-0.4
		c-0.2-0.2-0.4-0.6-0.2-1c0-0.4,0.2-0.6,0.4-0.8l-0.4-0.4c-1.2,1-2.2,2-2.4,2.2c0,0-0.2,0-0.2,0.2l0.2,0.2c0.6-0.4,1.4-0.6,1.8-0.2
		c0.2,0.2,0.4,0.6,0.2,1c0,0.4-0.2,0.8-0.6,1c0,1.2-0.4,1.4-0.8,1.4s-0.6-0.2-0.8-0.4c-0.4-0.4-0.4-1.2,0.2-1.8l-0.2-0.2
		c-1,1-1.6,1.2-2.8,1.4c-1.2,0.2-3.4,0.8-4.8,2.2l0.2,0.2c0.2,0.2,0.2,0.4,0,0.6l-22,23.2c0,1.6-0.8,2.6-1.6,4
		c-0.2,0.2-0.2,0.4-0.4,0.6c-1.6,2.4-1.4,7-1,11c0.4,4.6-0.8,12.2-4,18.4c-3.4,6.6-12,12.8-18.4,13.6c-1.2,0.2-2,0.2-2.8,0.2
		c-6.6,0-13.4-2.8-18-7.4C4.5,85.2,1.7,76.8,2.7,69.6z M39.2,48.9c-1.6,0-2.9,0-4.7-0.2c-1.4,0-2.7,0-4.5,0.2
		c-3.9,0.6-7,2.3-7.8,4.7c-0.6,1.4-0.6,2.5,0.2,3.7c1,1.6,1.7,1.7,2.9,2.1c1.6,0.4,3.1,0.8,5.6,2.9c0.2-0.2,0.4-0.4,0.8-0.8
		c2.3-2.3,9.1-8.5,13-12.4c0.2-0.2,0.6-0.8,0.8-1.4C44.2,48.5,42.1,48.9,39.2,48.9z M20.8,60c-0.4,0.4-1.7,2.3-2.9,3.7
		c1.7-1,3.5-1.9,4.1-2.1c0.2-0.2,0.8-1.2,1.6-2.1c-0.2-0.2-0.6-0.4-0.8-0.6C21.9,59.6,21.1,59.8,20.8,60z M47.3,46.2
		c0,0.2-0.2,0.6-0.2,1l2.2-2C48.5,45.4,47.9,45.8,47.3,46.2z M73.7,23.4L41.1,54l0.2,0.2l32.6-30.6L73.7,23.4z M15.7,87
		c0.2,0,0.4,0.2,0.6,0.4c0,0,0,0.2,0.2,0.2l15-13.6l-1.4-1.4L15.7,86.2C15.7,86.6,15.7,86.8,15.7,87z M30.9,70.8L44.5,57l-1.4-0.8
		L29.5,69.4L30.9,70.8z M43.7,55.4l1.4,0.8L75.7,25l-0.4-0.4L43.7,55.4z M74.9,24.2l-0.4-0.4L41.9,54.4l1.4,0.8L74.9,24.2z
		 M45.5,56.6l1.4,0.8l29.4-31.6l-0.4-0.4L45.5,56.6z M44.9,57.2l-13.6,14l1.4,1.4L46.3,58L44.9,57.2z M29.5,72l-1.4-1.4l-13.6,14
		c0,0,0.2,0,0.2,0.2c0,0,0.2,0,0.2,0.2c0,0,0,0,0.2,0.2c0,0,0,0.2,0.2,0.2c0,0,0,0.2,0.2,0.2c0,0,0,0.2,0.2,0.2L29.5,72z M27.9,70.4
		L26.5,69L12.9,84c0,0,0.2,0,0.2,0.2c0.2,0.2,0.2,0.4,0.4,0.4s0.6,0,0.8,0L27.9,70.4z M29.1,69l13.4-13.2L41.1,55L27.7,67.6L29.1,69
		z M75.5,21.8c-0.4,0.6-0.6,1-1,1.4l0,0l0,0l0.2,0.2l5.4-6.8c0,0,0,0-0.2,0l0,0L75.5,21.8z M79.9,15.4c0-0.2-0.2-0.2-0.4-0.2
		c-0.2,0-0.4,0-0.4,0.2c-0.2,0.2-0.2,0.6,0,1c0.2,0.2,0.6,0.2,1,0C80.1,16,80.1,15.6,79.9,15.4z M77.5,12.4
		c-0.2-0.2-0.4-0.2-0.4-0.2c-0.4,0-0.6,0.2-1,0.4c-0.2,0.2-0.4,0.6-0.4,0.8s0,0.4,0.2,0.6c0.2,0.2,0.4,0.2,0.4,0.2
		c0.4,0,0.6-0.2,1-0.4c0.2-0.2,0.4-0.6,0.4-0.8C77.5,12.8,77.5,12.6,77.5,12.4z M80.1,9.4c-0.2-0.2-0.4-0.2-0.4-0.2
		c-0.4,0-0.6,0.2-1,0.4c-0.4,0.4-0.6,1-0.2,1.4c0.2,0.2,0.4,0.2,0.4,0.2c0.4,0,0.6-0.2,1-0.4C80.3,10.2,80.5,9.6,80.1,9.4z
		 M82.7,6.6c-0.2-0.2-0.4-0.2-0.4-0.2c-0.4,0-0.6,0.2-1,0.4c-0.2,0.2-0.4,0.6-0.4,0.8s0,0.4,0.2,0.6s0.4,0.2,0.4,0.2
		c0.4,0,0.6-0.2,1-0.4c0.2-0.2,0.4-0.6,0.4-0.8C82.9,6.8,82.9,6.6,82.7,6.6z M85.5,3.8c-0.2-0.2-0.4-0.2-0.4-0.2
		c-0.4,0-0.6,0.2-1,0.4c-0.2,0.2-0.4,0.6-0.4,0.8c0,0.2,0,0.4,0.2,0.6s0.4,0.2,0.4,0.2c0.4,0,0.6-0.2,1-0.4
		C85.5,4.4,85.7,4,85.5,3.8z M94.9,16.4c0.2,0.2,0.4,0.2,0.4,0.2c0.4,0,0.6-0.2,1-0.4c0-0.4,0.2-0.6,0.2-1c0-0.2,0-0.4-0.2-0.6
		s-0.4-0.2-0.4-0.2c-0.4,0-0.6,0.2-1,0.4c-0.2,0.4-0.4,0.6-0.4,1C94.7,16,94.7,16.2,94.9,16.4z M91.9,18.8c0,0.2,0.2,0.2,0.4,0.2
		c0.4,0,0.6-0.2,1-0.4c0.2-0.2,0.4-0.6,0.4-0.8c0-0.2,0-0.4-0.2-0.6S93.3,17,93.1,17c-0.4,0-0.6,0.2-1,0.4c-0.2,0.2-0.4,0.6-0.4,0.8
		C91.7,18.6,91.7,18.8,91.9,18.8z M89.1,21.6c0.2,0.2,0.4,0.2,0.4,0.2c0.4,0,0.6-0.2,1-0.4c0.2-0.4,0.4-0.6,0.4-1
		c0-0.2,0-0.4-0.2-0.6s-0.4-0.2-0.4-0.2c-0.4,0-0.6,0.2-1,0.4c-0.2,0.4-0.4,0.6-0.4,1C88.9,21.2,88.9,21.4,89.1,21.6z M86.1,24
		c0.2,0.2,0.4,0.2,0.4,0.2c0.4,0,0.6-0.2,1-0.4c0.2-0.2,0.4-0.6,0.4-0.8s0-0.4-0.2-0.6s-0.4-0.2-0.4-0.2c-0.4,0-0.6,0.2-1,0.4
		C85.9,23.4,85.9,23.8,86.1,24z M82.6,22.8c1.4-0.2,1.6-0.4,2.9-1.6s9.6-8.4,11.4-9.8l-2.4-5.7l-5.7-2.4C87.5,5,80,13.4,79,14.8
		c-1.2,1.4-1.4,1.8-1.6,2.9c-0.2,0.8-0.4,2-0.8,2.7l2.5-3.5c-0.2,0-0.4-0.2-0.6-0.2c-0.4-0.4-0.4-1.2,0-1.6c0.4-0.4,1.2-0.4,1.6,0
		c0.4,0.4,0.4,0.8,0.2,1.4l2.2-2.5c-0.2,0-0.2,0-0.4,0c-0.4,0-0.6-0.2-0.8-0.4c-0.4-0.4-0.4-1.2,0-1.6c0.4-0.2,1.2-0.2,1.6,0.2
		c0.2,0.2,0.4,0.4,0.2,0.8l1.8-2.2c0,0,0,0-0.2,0c-0.4,0-0.6-0.2-0.8-0.4c-0.2-0.2-0.4-0.6-0.4-0.8c0-0.4,0.2-0.6,0.4-0.8
		c0.4-0.4,1.2-0.4,1.6,0c0.2,0.2,0.2,0.4,0.4,0.8l1.6-2c-0.2,0-0.6-0.2-0.8-0.4c-0.4-0.4-0.4-1.2,0-1.6c0.4-0.4,1.2-0.4,1.6,0
		c0.4,0.4,0.4,1.2,0,1.6l0,0L75.5,23.4l-0.2-0.2l0,0l0.4,0.4l0,0l0.4,0.4l0,0l0.4,0.4l0,0l0.2,0.2l-0.2-0.2l16.1-12.7l0,0
		c0.4-0.4,1.2-0.4,1.6,0c0.4,0.4,0.4,1.2,0,1.6c-0.2,0.2-0.6,0.4-0.8,0.4c-0.4,0-0.6-0.2-0.8-0.4c-0.2-0.2-0.4-0.4-0.4-0.8l-2,1.6
		c0.2,0,0.6,0.2,0.8,0.4c0.4,0.4,0.4,1.2,0,1.6c-0.2,0.2-0.6,0.4-0.8,0.4s-0.8-0.4-1-0.6c-0.2-0.2-0.4-0.6-0.2-1l-2.2,1.8
		c0.4,0,0.8,0,1,0.4c0.4,0.4,0.4,1.2,0,1.6c-0.2,0.2-0.6,0.4-0.8,0.4c-0.4,0-0.6-0.2-0.8-0.4c-0.4-0.4-0.4-0.8-0.2-1.2l-2.4,2.2
		c0.4-0.2,1-0.2,1.4,0.2c0.4,0.4,0.4,1.2,0,1.6c-0.2,0.2-0.6,0.4-0.8,0.4s-0.6-0.2-0.8-0.4s-0.2-0.4-0.2-0.6L79.6,24
		C80.4,23.4,81.6,23,82.6,22.8z M82.5,13.4c0.2-0.2,0.2-0.6,0-1c-0.2-0.2-0.2-0.2-0.4-0.2s-0.4,0-0.4,0.2c-0.2,0.2-0.2,0.6,0,1
		C81.9,13.6,82.3,13.6,82.5,13.4z M85.3,10.2c0.2-0.2,0.2-0.6,0-1C85.1,9,85.1,9,84.9,9s-0.4,0-0.4,0.2c-0.2,0.2-0.4,0.2-0.4,0.4
		s0,0.4,0.2,0.4C84.7,10.4,85.1,10.4,85.3,10.2z M87.9,6.2C87.7,6,87.7,6,87.5,6s-0.4,0-0.4,0.2c-0.2,0.2-0.2,0.6,0,1
		c0.2,0.2,0.6,0.2,1,0C88.1,6.8,88.1,6.4,87.9,6.2z M86.5,18.2c0.2,0.2,0.6,0.2,1,0c0.2-0.2,0.2-0.6,0-1c-0.2,0-0.4-0.2-0.6-0.2
		s-0.4,0-0.4,0.2C86.1,17.6,86.1,18,86.5,18.2z M89.7,15.4c0.2,0.2,0.6,0.2,1,0c0.2-0.2,0.2-0.6,0-0.8s-0.2-0.2-0.4-0.2
		s-0.4,0-0.4,0.2C89.5,14.8,89.5,15.2,89.7,15.4z M92.7,12.8c0.2,0.2,0.6,0.2,1,0c0.2-0.2,0.2-0.6,0-1c-0.2-0.2-0.2-0.2-0.4-0.2
		s-0.4,0-0.4,0.2C92.5,12.2,92.5,12.6,92.7,12.8z M83.5,20.8c0.2,0.2,0.6,0.2,1,0c0.2-0.2,0.2-0.6,0-1c-0.2-0.2-0.2-0.2-0.4-0.2
		c-0.2,0-0.4,0-0.4,0.2C83.1,20.2,83.1,20.6,83.5,20.8z M82.9,19.8L82.9,19.8C82.9,19.6,82.9,19.6,82.9,19.8L76.3,25l0,0l0,0
		l0.4,0.4l0,0l0,0l0,0v-0.2L82.9,19.8z M76.9,26.4L76.9,26.4l-29.6,31l0.4,0.2L76.9,26.4z M27.9,96.1c1,0,1.7,0,2.3-0.2
		c6-0.8,14-6.8,17.1-12.8c2.9-5.8,4.1-13,3.9-17.3c-0.2-4.3-0.6-8.5,1.2-11.3c0.2-0.2,0.4-0.4,0.4-0.6c0.6-0.8,1-1.6,1.4-2.1l-5.6,6
		L47.3,59c0,0.2-0.2,0.2-0.4,0.2h-0.2l-1-0.6L32.6,72.8l4.1,4.1l-1.4,1.4l-4.1-4.1L16.9,87.5c0.4,0.8,0.2,1.7-0.4,2.3l0,0
		c0.4,0.8,0.4,1.6-0.4,2.3c-0.2,0.2-0.4,0.4-0.8,0.4C19.2,94.9,23.7,96.1,27.9,96.1z M8.9,86.2l5.2,5.2c0.4,0.4,1.2,0.4,1.6,0
		c0.4-0.4,0.4-1.2,0-1.6c-0.2-0.2-0.2-0.2-0.2-0.4s0.2-0.4,0.2-0.4c0.2,0,0.2-0.2,0.2-0.2c0.4-0.4,0.4-1.2,0-1.6c-0.4,0-0.6,0-0.8,0
		c-0.2,0-0.2-0.2-0.4-0.2c0-0.2,0-0.4,0-0.4c0.2-0.4,0.2-0.8,0-1.2l0,0l0,0l0,0c0,0,0,0-0.2,0c-0.2-0.2-0.4-0.2-0.6-0.2
		c-0.2,0-0.4,0-0.4,0.2c-0.2,0-0.4,0-0.4,0c-0.2,0-0.2-0.2-0.2-0.4c0-0.2-0.2-0.4-0.2-0.6c-0.4-0.4-1.2-0.4-1.6,0l-0.2,0.2
		c0,0.2-0.2,0.2-0.4,0.2c-0.2,0-0.4,0-0.4-0.2c-0.4-0.4-1.2-0.4-1.6,0c-0.2,0.2-0.4,0.4-0.4,0.8C8.7,86,8.7,86.2,8.9,86.2z M7.8,85
		C8,84.8,8,84.4,8.2,84.2c0.6-0.6,1.7-0.8,2.3-0.4l0,0c0.6-0.6,1.6-0.8,2.3-0.4l13.4-14.7l-4.1-4.1l0.8-0.8l0.8-0.8l4.1,4.1l12.8-12
		l-0.4-0.2c-2.9,2.7-6,5.8-7.4,7c-0.6,0.6-1,1-1.2,1.2l0,0c0,0-0.2,0.2-0.4,0.2c-0.2,0-0.2,0-0.4-0.2c-2.3-2.3-3.9-2.5-5.4-2.9
		c-0.4,0-0.6-0.2-1-0.2c-1,1.2-1.7,2.3-1.7,2.3v0.2l0,0c0,0-4.9,2.3-6.2,3.1c-0.8,0.6-1.4,0.8-2.1,0.8c-0.6,0-1.4-0.2-1.9-0.8
		c-0.2-0.2-0.4-0.6-0.4-1s0.2-0.8,0.4-1c0.6-0.6,1.4-0.6,1.9,0c0.2,0.2,0.4,0.6,0.4,1v0.2c0.4,0,0.6-0.2,1-0.4c1.6-1,4.7-5,4.7-5.2
		V59h0.2c0,0,0.8-0.4,1.7-0.8c-0.4,0-0.4-0.2-0.6-0.4c-1-1.6-1-3.1-0.2-4.7c0.6-1.4,1.7-2.3,3.1-3.3c-2.3,0.6-5,1.6-7.4,2.7
		c-6,3.1-12,11.3-12.8,17.1C3.9,74.1,4.7,80,7.8,85z M13.3,64.4C13.3,64.2,13.3,64.2,13.3,64.4c-0.4-0.4-0.6-0.4-0.8-0.2l-0.2,0.2
		c0,0,0,0.2,0.2,0.2l0.2,0.2l0.2-0.2l0,0l0,0C13.3,64.6,13.3,64.4,13.3,64.4z"/>
	<path d="M38.1,78L38.1,78L38.1,78c0.2-0.2,4.4-3.2,5.4-5c0.2-0.2,0.4-0.6,0.4-1c-0.4,0-1,0-1.2-0.4c-0.2,0-0.2-0.4-0.2-0.8
		s0.2-0.8,0.4-1c0.6-0.6,1.4-0.6,2,0c1.2,1.2,1.2,2.4,0,3.8c-1,1.4-3.2,6.4-3.2,6.4v0.2h-0.2c0,0-4.2,3-5.4,4.8
		c-0.2,0.2-0.4,0.6-0.4,1c0.4,0,1,0,1.2,0.4c0.2,0.2,0.4,0.6,0.4,1s-0.2,0.8-0.4,1s-0.6,0.4-1,0.4s-0.8-0.2-1-0.4
		c-1.2-1.2-1.2-2.4,0-3.8C35.9,83,38.1,78,38.1,78z M44.1,71L44.1,71c-0.4-0.4-0.6-0.4-0.8-0.2L43.1,71c0,0.2,0,0.2,0.2,0.2
		C43.5,71.4,43.7,71.4,44.1,71L44.1,71z M40.7,79.8c0.2-0.6,1.2-2.4,2.2-4.2c-1.6,1.4-3.2,2.8-3.8,3c-0.2,0.6-1.2,2.4-2.2,4.2
		C38.3,81.6,40.3,80,40.7,79.8z M35.7,87.6c0.2,0.2,0.4,0.2,0.6,0l0.2-0.2c0-0.2,0-0.2-0.2-0.2L36.1,87h-0.2L35.7,87.6
		C35.5,87.4,35.5,87.6,35.7,87.6z"/>
</g>
</svg>
