<?xml version="1.0" encoding="utf-8"?>
<!-- Generator: Adobe Illustrator 24.1.3, SVG Export Plug-In . SVG Version: 6.00 Build 0)  -->
<svg version="1.1" xmlns="http://www.w3.org/2000/svg" xmlns:xlink="http://www.w3.org/1999/xlink" x="0px" y="0px"
	 viewBox="0 0 13 36" style="enable-background:new 0 0 13 36;" xml:space="preserve">
<style type="text/css">
	.st0{fill:#75A1CE;}
	.st1{fill-rule:evenodd;clip-rule:evenodd;}
</style>
<g id="colour">
	<path class="st0" d="M12.7,4.1c-0.5-1.4-1.3-2.6-2.6-3.5c-2.3-1.7-5.6-1.8-8-0.2C-0.4,2.2-2,6.1,0.1,8.8c0.2,0.2,0.4,0.4,0.7,0.6
		C0.9,9.5,1,9.6,1.1,9.7c0.7,0.4,1.6,0.4,2.4,0.4c1.6,0,3.2,0,4.9-0.1c1.5-0.1,3.5,0.1,4.3-1.5C13.3,7.2,13.1,5.4,12.7,4.1z"/>
</g>
<g id="Layer_1">
	<path class="st1" d="M6.8,27.4c0,0.4,0,0.8,0,1.2c0,0.2,0,0.3,0.1,0.5c0.1,0.2,0.2,0.4,0.3,0.5c0.1,0.1,0.3,0.3,0.5,0.3
		c0.1,0,0.3,0.1,0.4,0.1c0.1,0,0.2,0,0.2,0c0,0,0.1,0,0.1,0c0.3,0,0.5,0.1,0.8,0.2c0.4,0.2,0.7,0.4,0.9,0.7c0.2,0.3,0.4,0.5,0.5,0.9
		c0.1,0.3,0.1,0.6,0.1,0.8c0,0.7,0,1.4,0,2.1c0,0,0,0.1,0,0.1c0,0.1-0.1,0.2-0.1,0.3c0,0-0.1,0.1-0.1,0.1c-0.2,0.1-0.4,0.1-0.5,0
		c-0.1,0-0.1-0.1-0.1-0.1c-0.1,0-0.1-0.1-0.1-0.2c0-0.1,0-0.1,0-0.2c0,0,0,0,0-0.1c0-0.7,0-1.4,0-2.1c0-0.2,0-0.3-0.1-0.5
		c-0.1-0.4-0.5-0.7-0.9-0.9c-0.1,0-0.3-0.1-0.4-0.1c-0.1,0-0.2,0-0.2,0c0,0-0.1,0-0.1,0c-0.3,0-0.5-0.1-0.8-0.2
		c-0.4-0.1-0.7-0.4-0.9-0.7c-0.2-0.3-0.4-0.6-0.5-0.9c-0.1-0.3-0.1-0.6-0.2-0.8c0-0.4,0-0.8,0-1.2H3.8c0,0,0,0-0.1,0
		c0,0-0.1,0-0.1,0c-0.1,0-0.3-0.1-0.3-0.3c0,0,0-0.1,0-0.1c0,0,0,0,0-0.1c0,0-2.4-17.6-2.4-17.6c0,0,0,0-0.1-0.1
		c0-0.1-0.1-0.1-0.1-0.2C0.5,8.6,0.3,8.2,0.2,7.8c-0.3-1.1-0.3-2.3,0-3.4C0.4,3.9,0.6,3.5,0.9,3C1.2,2.5,1.6,2,2,1.6
		c0.5-0.4,1.1-0.8,1.7-1.1c0.5-0.2,1.1-0.4,1.6-0.5C5.6,0,5.8,0,6.1,0c0.1,0,0.1,0,0.2,0C6.5,0,6.8,0,7,0.1c0.6,0.1,1.1,0.2,1.6,0.5
		c0.6,0.3,1.2,0.6,1.7,1.1C10.8,2,11.2,2.5,11.5,3c0.3,0.4,0.5,0.9,0.6,1.4c0.3,1.1,0.3,2.3,0,3.4c-0.1,0.5-0.3,0.9-0.6,1.3l0,0
		c0,0,0,0.1-0.1,0.1C11.4,9.3,9,27,9,27c0,0,0,0,0,0.1c0,0,0,0.1,0,0.1c-0.1,0.1-0.2,0.2-0.3,0.3c0,0-0.1,0-0.1,0c0,0,0,0-0.1,0H6.8
		z M9.8,12.5H2.5l1.8,13.8H8L9.8,12.5z M10,11.4l0.2-1.9H2.1l0.2,1.9C4.9,11.4,7.4,11.3,10,11.4z M6.1,1.1c-0.2,0-0.4,0-0.6,0
		C5,1.2,4.6,1.3,4.2,1.5C3.7,1.7,3.3,2,2.9,2.3c-0.4,0.3-0.7,0.7-1,1.1C1.7,3.8,1.5,4.2,1.4,4.6C1.1,5.5,1,6.4,1.3,7.3
		C1.3,7.7,1.5,8,1.6,8.4l0,0h9c0-0.1,0.1-0.1,0.1-0.2c0.2-0.3,0.3-0.7,0.3-1.1c0.2-0.8,0.1-1.7-0.1-2.5c-0.1-0.4-0.3-0.8-0.5-1.1
		c-0.3-0.4-0.6-0.8-1-1.2C9.1,2,8.7,1.8,8.2,1.5C7.8,1.4,7.4,1.2,6.9,1.2c-0.2,0-0.4,0-0.6-0.1C6.2,1.1,6.2,1.1,6.1,1.1z M3.2,6.7
		c0.2,0,0.4,0.2,0.4,0.4S3.4,7.5,3.2,7.5S2.8,7.3,2.8,7.1S3,6.7,3.2,6.7z M4.7,6.7C4.9,6.7,5,6.9,5,7.1S4.9,7.5,4.7,7.5
		S4.3,7.3,4.3,7.1S4.5,6.7,4.7,6.7z M6.2,6.7c0.2,0,0.4,0.2,0.4,0.4S6.4,7.5,6.2,7.5S5.8,7.3,5.8,7.1S6,6.7,6.2,6.7z M7.7,6.7
		C7.9,6.7,8,6.9,8,7.1S7.9,7.5,7.7,7.5c-0.2,0-0.4-0.2-0.4-0.4S7.4,6.7,7.7,6.7z M9.1,6.7c0.2,0,0.4,0.2,0.4,0.4S9.4,7.5,9.1,7.5
		c-0.2,0-0.4-0.2-0.4-0.4S8.9,6.7,9.1,6.7z M3.2,5.6c0.2,0,0.4,0.2,0.4,0.4c0,0.2-0.2,0.4-0.4,0.4S2.8,6.2,2.8,6
		C2.8,5.8,3,5.6,3.2,5.6z M4.7,5.6C4.9,5.6,5,5.8,5,6c0,0.2-0.2,0.4-0.4,0.4S4.3,6.2,4.3,6C4.3,5.8,4.5,5.6,4.7,5.6z M6.2,5.6
		c0.2,0,0.4,0.2,0.4,0.4c0,0.2-0.2,0.4-0.4,0.4S5.8,6.2,5.8,6C5.8,5.8,6,5.6,6.2,5.6z M7.7,5.6C7.9,5.6,8,5.8,8,6
		c0,0.2-0.2,0.4-0.4,0.4C7.4,6.3,7.3,6.2,7.3,6C7.3,5.8,7.4,5.6,7.7,5.6z M9.1,5.6c0.2,0,0.4,0.2,0.4,0.4c0,0.2-0.2,0.4-0.4,0.4
		C8.9,6.3,8.8,6.2,8.8,6C8.8,5.8,8.9,5.6,9.1,5.6z M3.2,4.5c0.2,0,0.4,0.2,0.4,0.4S3.4,5.2,3.2,5.2S2.8,5.1,2.8,4.9S3,4.5,3.2,4.5z
		 M4.7,4.5C4.9,4.5,5,4.6,5,4.9S4.9,5.2,4.7,5.2S4.3,5.1,4.3,4.9S4.5,4.5,4.7,4.5z M6.2,4.5c0.2,0,0.4,0.2,0.4,0.4S6.4,5.2,6.2,5.2
		S5.8,5.1,5.8,4.9S6,4.5,6.2,4.5z M7.7,4.5C7.9,4.5,8,4.6,8,4.9S7.9,5.2,7.7,5.2c-0.2,0-0.4-0.2-0.4-0.4S7.4,4.5,7.7,4.5z M9.1,4.5
		c0.2,0,0.4,0.2,0.4,0.4S9.4,5.2,9.1,5.2c-0.2,0-0.4-0.2-0.4-0.4S8.9,4.5,9.1,4.5z M3.2,3.4c0.2,0,0.4,0.2,0.4,0.4
		c0,0.2-0.2,0.4-0.4,0.4S2.8,3.9,2.8,3.7C2.8,3.5,3,3.4,3.2,3.4z M4.7,3.4C4.9,3.4,5,3.5,5,3.7c0,0.2-0.2,0.4-0.4,0.4
		S4.3,3.9,4.3,3.7C4.3,3.5,4.5,3.4,4.7,3.4z M6.2,3.4c0.2,0,0.4,0.2,0.4,0.4c0,0.2-0.2,0.4-0.4,0.4S5.8,3.9,5.8,3.7
		C5.8,3.5,6,3.4,6.2,3.4z M7.7,3.4C7.9,3.4,8,3.5,8,3.7c0,0.2-0.2,0.4-0.4,0.4c-0.2,0-0.4-0.2-0.4-0.4C7.3,3.5,7.4,3.4,7.7,3.4z
		 M9.1,3.4c0.2,0,0.4,0.2,0.4,0.4c0,0.2-0.2,0.4-0.4,0.4c-0.2,0-0.4-0.2-0.4-0.4C8.8,3.5,8.9,3.4,9.1,3.4z M4.7,2.2
		C4.9,2.2,5,2.4,5,2.6S4.9,3,4.7,3S4.3,2.8,4.3,2.6S4.5,2.2,4.7,2.2z M6.2,2.2c0.2,0,0.4,0.2,0.4,0.4S6.4,3,6.2,3S5.8,2.8,5.8,2.6
		S6,2.2,6.2,2.2z M7.7,2.2C7.9,2.2,8,2.4,8,2.6S7.9,3,7.7,3C7.4,3,7.3,2.8,7.3,2.6S7.4,2.2,7.7,2.2z"/>
</g>
</svg>
