<svg width="13" height="36" viewBox="0 0 13 36" fill="none" xmlns="http://www.w3.org/2000/svg">
<path fill-rule="evenodd" clip-rule="evenodd" d="M6.7819 27.4425C6.77817 27.8502 6.77369 28.2576 6.78639 28.6649C6.79311 28.824 6.82335 28.9808 6.87898 29.1301C6.95328 29.3303 7.07127 29.514 7.22248 29.6652C7.36959 29.8123 7.54694 29.9276 7.74109 30.0027C7.86617 30.0509 7.99759 30.0822 8.13089 30.0953C8.21377 30.1035 8.29629 30.102 8.37917 30.1046C8.4236 30.1065 8.46804 30.1095 8.51209 30.1132C8.78204 30.1386 9.04639 30.2028 9.29617 30.3085C9.65386 30.4597 9.97607 30.6916 10.2341 30.982C10.4577 31.2344 10.6321 31.5298 10.7445 31.8479C10.8389 32.1163 10.8867 32.3982 10.8919 32.6827C10.8964 33.3783 10.8923 34.0743 10.8923 34.7699C10.8905 34.8121 10.8875 34.8531 10.8781 34.8946C10.8565 34.9898 10.8094 35.079 10.7426 35.1507C10.7049 35.1918 10.6605 35.2269 10.6123 35.2549C10.4532 35.3467 10.2546 35.3542 10.0892 35.2743C10.0388 35.2504 9.99213 35.2183 9.95106 35.1806C9.89991 35.1328 9.85771 35.0756 9.82747 35.0129C9.8032 34.9625 9.78678 34.9088 9.77819 34.8535C9.77296 34.8165 9.77333 34.8072 9.77221 34.7699C9.77221 34.0724 9.78491 33.375 9.77147 32.6775C9.76661 32.5155 9.73749 32.3553 9.68149 32.203C9.53401 31.7997 9.2103 31.4723 8.8093 31.3196C8.68198 31.2714 8.54868 31.2408 8.41315 31.2288C8.33586 31.2221 8.25858 31.2236 8.18129 31.221C8.13835 31.2191 8.09541 31.2165 8.05248 31.2132C7.78626 31.1881 7.52565 31.1262 7.27848 31.0239C6.92229 30.8764 6.60007 30.6494 6.34133 30.3634C6.11208 30.1102 5.93324 29.8123 5.81824 29.4904C5.72042 29.2179 5.67076 28.9311 5.66516 28.6418C5.66292 28.2419 5.66367 27.8424 5.66441 27.4425H3.82632C3.80578 27.4414 3.78487 27.4414 3.76434 27.4391C3.72327 27.4347 3.68294 27.4253 3.64374 27.4119C3.50597 27.3645 3.39022 27.2629 3.32526 27.1326C3.30696 27.0956 3.2924 27.0568 3.28269 27.0165C3.27747 26.9963 3.27485 26.9758 3.27112 26.9556C3.27112 26.9556 0.903963 9.34868 0.879321 9.31919C0.851318 9.28558 0.846837 9.2755 0.823688 9.23891C0.790459 9.18067 0.757975 9.12242 0.726238 9.0638C0.506324 8.64787 0.331216 8.20991 0.209125 7.75515C-0.0839695 6.66006 -0.0690397 5.48843 0.254298 4.40192C0.397298 3.92252 0.599291 3.46066 0.853929 3.03017C1.16793 2.49924 1.56184 2.0161 2.01847 1.60128C2.51318 1.15138 3.08108 0.782487 3.6934 0.514409C4.20492 0.290387 4.74667 0.137306 5.29926 0.0596457C5.55838 0.0234289 5.81899 0.00550719 6.08034 0.000280026C6.15987 -9.33422e-05 6.15987 -9.33422e-05 6.2394 0.000280026C6.50076 0.00550719 6.76137 0.0234289 7.02049 0.0596457C7.57307 0.137306 8.11483 0.290387 8.62634 0.514409C9.23904 0.782487 9.80657 1.15138 10.3013 1.60128C10.7579 2.0161 11.1518 2.49924 11.4658 3.03017C11.7204 3.46066 11.9224 3.92252 12.0654 4.40192C12.3936 5.50485 12.4041 6.69478 12.0972 7.80331C11.9673 8.27376 11.7802 8.72553 11.545 9.15267L11.5203 9.19672C11.4961 9.23929 11.4718 9.28148 11.4404 9.31919C11.4158 9.34868 9.04862 26.9556 9.04862 26.9556C9.04489 26.9758 9.04228 26.9963 9.03705 27.0165C9.02734 27.0568 9.01316 27.0956 8.99449 27.1326C8.92952 27.2629 8.81377 27.3645 8.676 27.4119C8.63717 27.4253 8.59647 27.4347 8.5554 27.4391C8.53487 27.4414 8.51433 27.4414 8.49342 27.4425H6.7819ZM9.82001 12.5078H2.49974L4.31767 26.3224H8.00207L9.82001 12.5078ZM9.96786 11.3835L10.2132 9.52081H2.10696L2.35226 11.3873C4.89079 11.3806 7.43119 11.2958 9.96786 11.3835ZM6.09454 1.12039C5.8806 1.12449 5.66702 1.13943 5.45495 1.16892C5.02334 1.22941 4.60031 1.34627 4.19894 1.51616C3.71356 1.72188 3.26104 2.00415 2.86228 2.34952C2.4807 2.68032 2.14877 3.06825 1.88107 3.4965C1.66489 3.84262 1.4909 4.21524 1.3647 4.60317C1.08243 5.47237 1.0436 6.41587 1.2512 7.30561C1.33857 7.68047 1.46999 8.04301 1.63875 8.38875L1.64473 8.4007H10.675C10.7015 8.34731 10.7269 8.29354 10.7516 8.23941C10.9031 7.90113 11.0196 7.5483 11.0951 7.18501C11.2683 6.35128 11.2269 5.47536 10.9737 4.66216C10.8524 4.27236 10.6829 3.8975 10.4704 3.5484C10.2083 3.11641 9.88087 2.72475 9.50302 2.38947C9.10874 2.03962 8.65995 1.75175 8.17718 1.54043C7.77842 1.36606 7.35764 1.24397 6.92752 1.17826C6.71619 1.14578 6.50374 1.1286 6.29018 1.12151C6.22484 1.12039 6.15987 1.12001 6.09454 1.12039ZM3.17292 6.72054C3.37902 6.72054 3.54629 6.88781 3.54629 7.09391C3.54629 7.30001 3.37902 7.46728 3.17292 7.46728C2.96682 7.46728 2.79955 7.30001 2.79955 7.09391C2.79955 6.88781 2.96682 6.72054 3.17292 6.72054ZM4.6664 6.72054C4.8725 6.72054 5.03976 6.88781 5.03976 7.09391C5.03976 7.30001 4.8725 7.46728 4.6664 7.46728C4.4603 7.46728 4.29303 7.30001 4.29303 7.09391C4.29303 6.88781 4.4603 6.72054 4.6664 6.72054ZM6.15987 6.72054C6.36597 6.72054 6.53324 6.88781 6.53324 7.09391C6.53324 7.30001 6.36597 7.46728 6.15987 7.46728C5.95377 7.46728 5.7865 7.30001 5.7865 7.09391C5.7865 6.88781 5.95377 6.72054 6.15987 6.72054ZM7.65335 6.72054C7.85944 6.72054 8.02671 6.88781 8.02671 7.09391C8.02671 7.30001 7.85944 7.46728 7.65335 7.46728C7.44725 7.46728 7.27998 7.30001 7.27998 7.09391C7.27998 6.88781 7.44725 6.72054 7.65335 6.72054ZM9.14682 6.72054C9.35292 6.72054 9.52019 6.88781 9.52019 7.09391C9.52019 7.30001 9.35292 7.46728 9.14682 7.46728C8.94072 7.46728 8.77345 7.30001 8.77345 7.09391C8.77345 6.88781 8.94072 6.72054 9.14682 6.72054ZM3.17292 5.60044C3.37902 5.60044 3.54629 5.76771 3.54629 5.9738C3.54629 6.1799 3.37902 6.34717 3.17292 6.34717C2.96682 6.34717 2.79955 6.1799 2.79955 5.9738C2.79955 5.76771 2.96682 5.60044 3.17292 5.60044ZM4.6664 5.60044C4.8725 5.60044 5.03976 5.76771 5.03976 5.9738C5.03976 6.1799 4.8725 6.34717 4.6664 6.34717C4.4603 6.34717 4.29303 6.1799 4.29303 5.9738C4.29303 5.76771 4.4603 5.60044 4.6664 5.60044ZM6.15987 5.60044C6.36597 5.60044 6.53324 5.76771 6.53324 5.9738C6.53324 6.1799 6.36597 6.34717 6.15987 6.34717C5.95377 6.34717 5.7865 6.1799 5.7865 5.9738C5.7865 5.76771 5.95377 5.60044 6.15987 5.60044ZM7.65335 5.60044C7.85944 5.60044 8.02671 5.76771 8.02671 5.9738C8.02671 6.1799 7.85944 6.34717 7.65335 6.34717C7.44725 6.34717 7.27998 6.1799 7.27998 5.9738C7.27998 5.76771 7.44725 5.60044 7.65335 5.60044ZM9.14682 5.60044C9.35292 5.60044 9.52019 5.76771 9.52019 5.9738C9.52019 6.1799 9.35292 6.34717 9.14682 6.34717C8.94072 6.34717 8.77345 6.1799 8.77345 5.9738C8.77345 5.76771 8.94072 5.60044 9.14682 5.60044ZM3.17292 4.48033C3.37902 4.48033 3.54629 4.6476 3.54629 4.8537C3.54629 5.0598 3.37902 5.22707 3.17292 5.22707C2.96682 5.22707 2.79955 5.0598 2.79955 4.8537C2.79955 4.6476 2.96682 4.48033 3.17292 4.48033ZM4.6664 4.48033C4.8725 4.48033 5.03976 4.6476 5.03976 4.8537C5.03976 5.0598 4.8725 5.22707 4.6664 5.22707C4.4603 5.22707 4.29303 5.0598 4.29303 4.8537C4.29303 4.6476 4.4603 4.48033 4.6664 4.48033ZM6.15987 4.48033C6.36597 4.48033 6.53324 4.6476 6.53324 4.8537C6.53324 5.0598 6.36597 5.22707 6.15987 5.22707C5.95377 5.22707 5.7865 5.0598 5.7865 4.8537C5.7865 4.6476 5.95377 4.48033 6.15987 4.48033ZM7.65335 4.48033C7.85944 4.48033 8.02671 4.6476 8.02671 4.8537C8.02671 5.0598 7.85944 5.22707 7.65335 5.22707C7.44725 5.22707 7.27998 5.0598 7.27998 4.8537C7.27998 4.6476 7.44725 4.48033 7.65335 4.48033ZM9.14682 4.48033C9.35292 4.48033 9.52019 4.6476 9.52019 4.8537C9.52019 5.0598 9.35292 5.22707 9.14682 5.22707C8.94072 5.22707 8.77345 5.0598 8.77345 4.8537C8.77345 4.6476 8.94072 4.48033 9.14682 4.48033ZM3.17292 3.36022C3.37902 3.36022 3.54629 3.52749 3.54629 3.73359C3.54629 3.93969 3.37902 4.10696 3.17292 4.10696C2.96682 4.10696 2.79955 3.93969 2.79955 3.73359C2.79955 3.52749 2.96682 3.36022 3.17292 3.36022ZM4.6664 3.36022C4.8725 3.36022 5.03976 3.52749 5.03976 3.73359C5.03976 3.93969 4.8725 4.10696 4.6664 4.10696C4.4603 4.10696 4.29303 3.93969 4.29303 3.73359C4.29303 3.52749 4.4603 3.36022 4.6664 3.36022ZM6.15987 3.36022C6.36597 3.36022 6.53324 3.52749 6.53324 3.73359C6.53324 3.93969 6.36597 4.10696 6.15987 4.10696C5.95377 4.10696 5.7865 3.93969 5.7865 3.73359C5.7865 3.52749 5.95377 3.36022 6.15987 3.36022ZM7.65335 3.36022C7.85944 3.36022 8.02671 3.52749 8.02671 3.73359C8.02671 3.93969 7.85944 4.10696 7.65335 4.10696C7.44725 4.10696 7.27998 3.93969 7.27998 3.73359C7.27998 3.52749 7.44725 3.36022 7.65335 3.36022ZM9.14682 3.36022C9.35292 3.36022 9.52019 3.52749 9.52019 3.73359C9.52019 3.93969 9.35292 4.10696 9.14682 4.10696C8.94072 4.10696 8.77345 3.93969 8.77345 3.73359C8.77345 3.52749 8.94072 3.36022 9.14682 3.36022ZM4.6664 2.24012C4.8725 2.24012 5.03976 2.40739 5.03976 2.61349C5.03976 2.81959 4.8725 2.98686 4.6664 2.98686C4.4603 2.98686 4.29303 2.81959 4.29303 2.61349C4.29303 2.40739 4.4603 2.24012 4.6664 2.24012ZM6.15987 2.24012C6.36597 2.24012 6.53324 2.40739 6.53324 2.61349C6.53324 2.81959 6.36597 2.98686 6.15987 2.98686C5.95377 2.98686 5.7865 2.81959 5.7865 2.61349C5.7865 2.40739 5.95377 2.24012 6.15987 2.24012ZM7.65335 2.24012C7.85944 2.24012 8.02671 2.40739 8.02671 2.61349C8.02671 2.81959 7.85944 2.98686 7.65335 2.98686C7.44725 2.98686 7.27998 2.81959 7.27998 2.61349C7.27998 2.40739 7.44725 2.24012 7.65335 2.24012Z" fill="black"/>
</svg>
