<?xml version="1.0" encoding="utf-8"?>
<!-- Generator: Adobe Illustrator 24.1.3, SVG Export Plug-In . SVG Version: 6.00 Build 0)  -->
<svg version="1.1" id="Layer_1" xmlns="http://www.w3.org/2000/svg" xmlns:xlink="http://www.w3.org/1999/xlink" x="0px" y="0px"
	 viewBox="0 0 100 100" style="enable-background:new 0 0 100 100;" xml:space="preserve">
<style type="text/css">
	.st0{fill:#75A1CE;}
	.st1{fill-rule:evenodd;clip-rule:evenodd;}
</style>
<g id="colour">
	<path class="st0" d="M79.2,31.9c0.7-3.8,0.7-7.6-0.9-11.4C75.6,13.6,68.4,8.9,61,8.9c-8,0.4-16.9,6.9-16,15.7
		c0.2,0.8,0.3,1.4,0.7,2.3c0.1,0.3,0.2,0.8,0.3,1.1c1,1.8,3,3.1,4.7,4.2c3.6,2.2,7.1,4.5,10.9,6.7c3.5,2,7.7,5.1,11.6,2.6
		C76.1,39.7,78.2,35.3,79.2,31.9z"/>
</g>
<g id="Layer_1_1_">
	<path class="st1" d="M33.7,75.2c-0.5,0.8-1.1,1.7-1.7,2.7c-0.3,0.5-0.4,0.7-0.6,1.3c-0.2,0.6,0,1.2-0.1,1.6
		c0.1,0.3,0.3,1.1,0.8,1.4c0.2,0.1,0.6,0.6,0.7,0.7c0.2,0.1,0.5,0.3,0.5,0.3l0.2,0.1c0.7,0.4,1.1,0.9,1.4,1.6c0.5,1,1,1.8,1.1,2.8
		s0.1,1.7-0.1,2.8c-0.3,0.8-0.7,1.5-0.9,1.8c-1,1.5-1.9,3-2.9,4.6L32,97c-0.1,0.2-0.5,0.4-0.6,0.6l-0.3,0.1c-0.6-0.2-1-0.4-1.2-0.7
		c-0.2-0.1-0.1-0.3-0.1-0.3c-0.2-0.1-0.1-0.3,0.2-0.6c0.1-0.2,0.1-0.2,0.3-0.5c0,0,0,0,0.1-0.2c1-1.5,1.9-3,2.9-4.6
		c0.3-0.5,0.4-0.7,0.6-1.3c0.4-1-0.2-2.3-0.8-3.3c-0.2-0.1-0.6-0.6-0.7-0.7c-0.2-0.1-0.5-0.3-0.5-0.3L31.8,85
		c-0.7-0.4-1.1-0.9-1.4-1.6c-0.7-0.7-1-1.8-1.1-2.8s0-1.9,0.1-2.8s0.7-1.5,0.6-2c0.5-0.8,1.1-1.7,1.7-2.7l-4.2-2.7c0,0,0,0-0.2-0.1
		l-0.2-0.1c-0.2-0.1-0.6-0.6-0.3-1.1L27,69c0,0,0,0,0.1-0.2l19.2-42.1c0,0,0,0-0.1-0.3c0.1-0.2-0.1-0.3,0.2-0.6
		c-0.2-0.8,0-1.9,0.2-2.9c0.8-2.8,2.5-5.5,4.7-7.4c1.3-0.9,2.1-1.5,3.4-2.1c1.3-0.6,3-1.4,4.4-1.7c1.7-0.1,3.4-0.2,5.2,0
		c1.5,0.2,2.9,0.6,4.3,1.1c0.7,0.4,1.2,0.7,1.7,1.1c0.2,0.1,0.2,0.1,0.5,0.3c0.5,0.3,1.2,0.7,1.4,1.1c1.2,1,2,2,2.8,3.4
		c0.9,1.5,1.9,3.1,2.2,4.7c0.8,1.4,1,3,0.9,4.6c0.1,1.3-0.1,2.8-0.6,3.9c-0.8,2.8-2.5,5.5-4.7,7.4c-0.9,1.1-2,1.6-3.2,2l0,0
		c0,0-0.1,0.2-0.3,0.1c-0.1,0.2-30,36-30,36s0,0-0.1,0.2l-0.1,0.2c-0.3,0.1-0.8,0.2-1.1,0.3l0-0.3c0,0,0,0-0.2-0.1l-3.7-2.3l0,0
		L33.7,75.2z M62.2,46.3L45.2,35.7L29.2,70.2l8.5,5.4L62.2,46.3z M63.8,44.9l3.4-4.1L48.3,28.9L46,33.8C52,37.4,57.9,40.9,63.8,44.9
		z M69.5,15.9C69,15.6,68.7,15.4,68,15c-1.4-0.6-2.5-0.8-3.6-1.1c-1.6-0.2-2.9-0.1-4.1-0.1c-1.4,0.1-2.6,0.6-3.9,1.1
		c-1.1,0.5-2,1.3-3,2.1c-2.1,1.7-3.5,3.6-4.1,6.1c-0.5,0.8-0.5,1.9-0.8,2.9l0,0l20.8,13.1c0.1-0.2,0.3-0.1,0.5-0.4
		c0.9-0.4,1.7-1.2,2.3-2c1.7-1.5,2.6-3.8,3.5-6c0.4-1.1,0.4-2.2,0.3-3.3c-0.1-1.4-0.3-2.6-0.5-4.3c-0.3-1.2-0.8-2.2-1.7-3.6
		c-0.7-0.4-1.4-1.4-2.4-2c-0.5-0.3-0.8-0.5-1.3-1.1C69.8,16.1,69.8,16.1,69.5,15.9z M54.7,24.6c0.5,0.3,0.5,1,0.3,1.4
		c-0.2,0.3-1,0.5-1.4,0.3c-0.5-0.3-0.5-1-0.3-1.4S54.2,24.3,54.7,24.6z M57.9,26.6c0.5,0.3,0.4,0.9,0.1,1.3
		c-0.3,0.5-0.7,0.7-1.2,0.4s-0.5-1-0.3-1.4C56.8,26.6,57.4,26.3,57.9,26.6z M61.3,28.7c0.5,0.3,0.5,1,0.3,1.4
		c-0.2,0.3-1,0.5-1.4,0.3c-0.5-0.3-0.5-1-0.3-1.4S60.8,28.4,61.3,28.7z M64.5,30.8c0.5,0.3,0.4,0.9,0.1,1.3
		c-0.3,0.5-0.7,0.7-1.2,0.4s-0.5-1-0.3-1.4C63.4,30.7,63.9,30.3,64.5,30.8z M67.6,32.7c0.5,0.3,0.5,1,0.3,1.4
		c-0.2,0.3-0.7,0.7-1.4,0.3c-0.5-0.3-0.5-1-0.3-1.4C66.4,32.7,67.2,32.5,67.6,32.7z M56.2,22.2c0.5,0.3,0.5,1,0.3,1.4
		c-0.2,0.3-1,0.5-1.4,0.3c-0.5-0.3-0.5-1-0.3-1.4C55,21.9,55.7,21.9,56.2,22.2z M59.4,24.2c0.5,0.3,0.4,0.9,0.1,1.3
		c-0.3,0.5-1,0.5-1.4,0.3S57.6,25,58,24.5S58.9,23.9,59.4,24.2z M62.8,26.4c0.5,0.3,0.5,1,0.3,1.4c-0.2,0.3-1,0.5-1.4,0.3
		c-0.5-0.3-0.5-1-0.3-1.4C61.6,26.1,62.3,26,62.8,26.4z M66,28.4c0.5,0.3,0.4,0.9,0.1,1.3c-0.3,0.5-1,0.5-1.4,0.3
		c-0.4-0.5-0.4-0.9-0.1-1.3C65,28.2,65.4,28,66,28.4z M69.1,30.3c0.5,0.3,0.5,1,0.3,1.4s-1,0.5-1.4,0.3c-0.4-0.5-0.4-0.9-0.1-1.3
		C68.2,30.2,68.7,30.1,69.1,30.3z M57.7,19.8c0.5,0.3,0.5,1,0.3,1.4c-0.2,0.3-0.9,0.4-1.3,0.1c-0.5-0.3-0.8-1-0.6-1.3
		C56.5,19.5,57.2,19.5,57.7,19.8z M60.9,21.9c0.5,0.3,0.6,0.6,0.1,1.3s-0.6,0.6-1.1,0.3s-0.6-0.9-0.4-1.2
		C59.9,21.7,60.4,21.5,60.9,21.9z M64.3,24c0.5,0.3,0.5,1,0.3,1.4c-0.2,0.3-0.9,0.4-1.3,0.1c-0.5-0.3-0.7-0.7-0.4-1.2
		C63.1,23.7,63.8,23.7,64.3,24z M67.5,26c0.5,0.3,0.6,0.6,0.1,1.3s-0.6,0.6-1.1,0.3c-0.5-0.3-0.5-1-0.3-1.4
		C66.6,25.7,66.8,25.6,67.5,26z M70.6,27.9c0.5,0.3,0.5,1,0.3,1.4s-0.6,0.6-1.3,0.1c-0.5-0.3-0.5-1-0.3-1.4
		C69.6,27.6,70.2,27.7,70.6,27.9z M59.3,17.3c0.5,0.3,0.5,1,0.3,1.4c-0.3,0.5-1,0.5-1.4,0.3c-0.5-0.3-0.4-1.2-0.1-1.7
		C58.1,17,58.8,17,59.3,17.3z M62.5,19.3c0.5,0.3,0.6,0.6,0.3,1.1s-1,0.5-1.4,0.3s-0.5-0.8-0.1-1.3C61.5,19.1,62,19,62.5,19.3z
		 M65.9,21.5c0.5,0.3,0.5,1,0.3,1.4c-0.3,0.5-1,0.5-1.4,0.3c-0.5-0.3-0.4-1.2-0.1-1.7C64.7,21.2,65.4,21.1,65.9,21.5z M69.1,23.5
		c0.5,0.3,0.6,0.6,0.3,1.1c-0.3,0.5-1,0.5-1.4,0.3s-0.5-1-0.3-1.4C68.1,23.3,68.4,23.1,69.1,23.5z M72.2,25.4c0.5,0.3,0.5,1,0.3,1.4
		c-0.3,0.5-1,0.5-1.4,0.3s-0.5-1-0.3-1.4C71.3,25.3,71.8,25.2,72.2,25.4z M64.1,16.8c0.5,0.3,0.4,0.9,0.1,1.3s-0.7,0.7-1.2,0.4
		c-0.5-0.3-0.5-1-0.3-1.4S63.6,16.5,64.1,16.8z M67.5,18.9c0.5,0.3,0.5,1,0.3,1.4c-0.3,0.5-1,0.5-1.4,0.3c-0.5-0.3-0.5-1-0.3-1.4
		S67,18.6,67.5,18.9z M70.7,20.9c0.5,0.3,0.4,0.9,0.1,1.3s-0.7,0.7-1.2,0.4c-0.7-0.4-0.5-1-0.3-1.4C69.6,20.9,70,20.5,70.7,20.9z"/>
</g>
</svg>
