<?xml version="1.0" encoding="utf-8"?>
<!-- Generator: Adobe Illustrator 24.1.3, SVG Export Plug-In . SVG Version: 6.00 Build 0)  -->
<svg version="1.1" xmlns="http://www.w3.org/2000/svg" xmlns:xlink="http://www.w3.org/1999/xlink" x="0px" y="0px"
	 viewBox="0 0 48 35" style="enable-background:new 0 0 48 35;" xml:space="preserve">
<style type="text/css">
	.st0{fill:#75A1CE;}
</style>
<g id="colour">
	<path class="st0" d="M40.4,25.3c-3-1.9-6.9-5-9.8-7c-3.1-2.2-4.9-3.5-8.1-5.6c-0.7-0.5-1.4-1.1-2.3-1.1c-0.8,0-1.3,0.4-1.8,1
		c-0.8,0.9-1.3,2.1-1.2,3.3c-0.3,0.6-0.2,1.4,0.5,1.9c6.3,4.5,12.7,8.9,19.1,13.3c0.8,0.5,1.6,0.1,2-0.6c0.4-0.5,0.4-1.5,0.7-2.1
		c0.2-0.3,0.3-0.6,0.5-0.9c0.1-0.1,0.1-0.2,0.2-0.3C41.1,26.7,41.3,25.9,40.4,25.3z"/>
</g>
<g id="Layer_1">
	<path d="M20.4,16.1c-0.1,0.4-0.4,0.6-0.6,0.5c-0.2-0.1-0.3-0.4-0.2-0.8c0.1-0.4,0.4-0.6,0.6-0.5C20.4,15.3,20.5,15.7,20.4,16.1z
		 M29,21.4c-0.2-0.1-0.4,0.1-0.5,0.4c-0.1,0.3,0,0.5,0.2,0.6c0.2,0.1,0.4-0.1,0.5-0.4C29.2,21.8,29.2,21.5,29,21.4z M47,33.6
		c-0.3,0.5-0.7,0.7-1.1,0.7c-0.3,0-0.5-0.1-0.7-0.2l-2.8-2c-0.4,0.2-1,0.5-1.7,0.5c-0.4,0-0.8-0.1-1.2-0.2c-0.7-0.3-1.3-1-1.5-1.4
		l-7.2-4.8c0,0.1,0,0.2,0,0.2c0,0,0,0,0,0.1l0.8,0.6c0.2,0.2,0.3,0.5,0.1,0.7c-0.1,0.1-0.2,0.2-0.4,0.2c-0.1,0-0.2,0-0.3-0.1l-3-2.2
		c-0.2-0.2-0.3-0.5-0.1-0.7c0.2-0.2,0.5-0.3,0.7-0.1l0.8,0.6c0-0.1,0-0.1,0-0.2l-7.8-5.3l-0.8-0.5l0,0.3L24,22
		c0.2,0.2,0.3,0.5,0.1,0.7c-0.1,0.1-0.2,0.2-0.4,0.2c-0.1,0-0.2,0-0.3-0.1l-4.5-3.3c-0.2-0.2-0.3-0.5-0.1-0.7
		c0.2-0.2,0.5-0.3,0.7-0.1l0.4,0.3l0-0.2L3.9,8.2c-0.1,0-0.1,0-0.2,0c-0.6,0-1.5-0.1-2.2-0.6C0.8,7,0,5.7,0,4.1C0,2.9,0.5,1.8,1.5,1
		c0.8-0.7,1.7-1,2.6-1h0c1.5,0,2.6,0.9,3.2,1.7C7.5,2,7.7,2.5,7.8,2.9l16.4,11.6l16.7,11.7c0.5,0.1,1.5,0.4,2.1,0.9
		c0.8,0.7,0.9,1.7,0.9,2.5l3,2.2c0.2,0.1,0.4,0.4,0.4,0.6C47.4,32.7,47.4,33.1,47,33.6z M41.3,29.5c0.3-0.4,0.7-0.4,0.9-0.4l0.1,0
		l0.2,0.1c-0.1-0.1-0.2-0.2-0.2-0.2c-0.5-0.3-1.2-0.2-1.5,0.4c-0.2,0.3-0.2,0.6-0.2,0.9c0.1,0.3,0.2,0.5,0.5,0.7
		c0.1,0.1,0.6,0.2,1,0.1c0.1,0,0.1,0,0.2,0l-0.8-0.6C41.1,30.3,41,29.8,41.3,29.5z M17,15.6l1.5,1c0.5-1.2,1.5-2.6,2.4-3.3l-0.8-0.6
		c-0.5,0.4-0.9,1-1,1.7c0.1,0.2,0.1,0.4,0,0.7c-0.1,0.5-0.5,0.7-0.8,0.7c-0.3-0.1-0.4-0.5-0.3-1c0.1-0.4,0.4-0.6,0.6-0.7
		c0.2-0.7,0.6-1.3,1-1.7l-0.6-0.4c0,0,0,0.1,0,0.1C18.4,12.7,17.2,14.7,17,15.6z M4.2,7.2l1,0.6c0.1-0.4,0.3-0.8,0.5-1.1L4.8,6.2
		C4.7,6.1,4.7,5.9,4.8,5.8C4.8,5.7,5,5.7,5.1,5.7l0.8,0.6C6.2,6,6.5,5.8,6.8,5.5c0,0-0.1-0.1-0.1-0.1c0-0.3,0.4-0.6,0.9-0.6
		c0.5-0.1,1,0.1,1,0.3c0,0.3-0.4,0.6-0.9,0.6c-0.2,0-0.3,0-0.4,0C7,6,6.7,6.3,6.4,6.6L8,7.7c0.3-0.3,0.6-0.6,0.8-0.8c0,0,0,0,0,0
		c0-0.3,0.4-0.6,0.9-0.6c0.5-0.1,1,0.1,1,0.3c0,0.3-0.4,0.6-0.9,0.6c-0.2,0-0.4,0-0.5,0C9,7.4,8.7,7.7,8.4,8l3.3,2.2
		c0.1-0.1,0.1-0.2,0.2-0.2l-1.3-0.9c-0.1-0.1-0.1-0.2-0.1-0.3c0.1-0.1,0.2-0.1,0.3-0.1l1.4,1c0.1,0,0.1-0.1,0.2-0.1c0,0,0,0,0,0
		c0-0.3,0.4-0.6,0.9-0.6c0.5-0.1,1,0.1,1,0.3c0,0.3-0.4,0.6-0.9,0.6c-0.2,0-0.4,0-0.5,0c-0.1,0-0.1,0.1-0.2,0.1l2.2,1.5
		c0.1,0.1,0.1,0.2,0.1,0.3c0,0.1-0.1,0.1-0.2,0.1c0,0-0.1,0-0.1,0l-2.3-1.6c-0.1,0.1-0.1,0.1-0.2,0.2l2.5,1.7
		c0.1,0.1,0.1,0.2,0.1,0.3c0,0.1-0.1,0.1-0.2,0.1c0,0-0.1,0-0.1,0l-2.5-1.7c-0.2,0.3-0.4,0.6-0.5,1l5.3,3.5c0.3-1.1,1.4-2.9,2.2-3.5
		l-0.5-0.3c-0.6,0.3-1.1,0.9-1.4,1.5c0.1,0.2,0.1,0.4,0,0.7c-0.1,0.5-0.5,0.7-0.8,0.7c-0.3-0.1-0.4-0.5-0.3-1
		c0.1-0.4,0.4-0.6,0.6-0.7c0.3-0.6,0.8-1.2,1.3-1.5L6.9,3.5c0,0-0.2-0.9-0.4-1.2C6.2,1.8,5.3,1,4.1,1c-0.6,0-1.3,0.2-2,0.8
		c-2,1.6-0.9,4.2,0.1,5c0.5,0.4,1.1,0.4,1.6,0.4C4,7.2,4.2,7.2,4.2,7.2z M7.6,9.4l3.2,2.2c0.1-0.3,0.3-0.7,0.5-1L8.1,8.4
		C7.8,8.7,7.7,9.1,7.6,9.4z M7.7,8.1L6.1,7C5.8,7.3,5.7,7.7,5.6,8.1l1.5,1C7.3,8.8,7.4,8.4,7.7,8.1z M30.3,25.8l-0.5-0.3
		c0,0.1,0,0.2,0,0.2l0.5,0.3C30.3,25.9,30.3,25.9,30.3,25.8z M30.5,24.7c0-0.1,0.1-0.2,0.1-0.3l-0.5-0.3c0,0.1-0.1,0.2-0.1,0.3
		L30.5,24.7z M38.2,29.9c0-0.6,0.2-1.2,0.6-1.8c0.4-0.6,0.8-1,1.3-1.3l-9.1-6.4c-0.5,0.4-0.9,1-1,1.6c0.1,0.2,0.1,0.4,0,0.6
		c-0.1,0.4-0.4,0.6-0.7,0.5c-0.2-0.1-0.3-0.4-0.2-0.8c0.1-0.2,0.2-0.4,0.4-0.5c0.1-0.7,0.5-1.3,1-1.8l-0.9-0.6
		c-0.5,0.4-1,1.2-1.1,1.9c0,0,0,0,0,0c0,0.1,0,0.2,0,0.4c-0.1,0.3-0.3,0.5-0.5,0.4c-0.2-0.1-0.3-0.3-0.2-0.6c0-0.1,0.1-0.2,0.2-0.3
		c0.1-0.8,0.6-1.6,1.1-2.1l-0.7-0.5c-0.5,0.4-0.9,1-1,1.6c0.1,0.2,0.1,0.4,0,0.6c-0.1,0.4-0.5,0.7-0.8,0.6c-0.3-0.1-0.4-0.5-0.3-0.9
		c0.1-0.4,0.4-0.6,0.6-0.6c0.2-0.6,0.6-1.2,1-1.6L27.5,18c-0.5,0.4-1.1,1.1-1.2,1.8c0,0.1,0,0.3,0,0.4c-0.1,0.3-0.4,0.5-0.6,0.5
		c-0.2-0.1-0.3-0.4-0.2-0.7c0.1-0.2,0.2-0.4,0.3-0.4c0.2-0.7,0.7-1.4,1.2-1.9l-0.8-0.6c-0.5,0.4-1,1-1.1,1.7c0.1,0.2,0.1,0.4,0,0.7
		c-0.1,0.4-0.5,0.7-0.8,0.6c-0.3-0.1-0.4-0.5-0.3-0.9c0.1-0.3,0.3-0.6,0.5-0.6c0.2-0.7,0.6-1.3,1.1-1.7l-2.2-1.6l-1.2-0.8
		c-0.5,0.3-1,0.9-1.2,1.5c0.1,0.2,0.1,0.5,0,0.7c-0.1,0.4-0.5,0.7-0.8,0.6c-0.3-0.1-0.4-0.5-0.3-0.9c0.1-0.3,0.3-0.5,0.5-0.6
		c0.2-0.6,0.7-1.2,1.2-1.6l-0.7-0.5c-0.9,0.6-2,2-2.4,3.2l3.2,2.1l7.5,5.1c0-0.1,0.1-0.2,0.1-0.3l-0.1,0c-0.1-0.1-0.1-0.2-0.1-0.3
		c0.1-0.1,0.2-0.1,0.3-0.1c0.2-0.4,0.3-0.8,0.5-1c0,0,0-0.1,0-0.1c0-0.2,0.2-0.4,0.4-0.4c0.2,0,0.4,0.2,0.4,0.4
		c0,0.2-0.2,0.4-0.4,0.4c0,0,0,0-0.1,0c-0.1,0.1-0.2,0.5-0.4,0.9l0.5,0.3c0.1-0.4,0.3-0.7,0.4-0.9c0,0,0-0.1,0-0.1
		c0-0.2,0.2-0.4,0.4-0.4c0.2,0,0.4,0.2,0.4,0.4c0,0.2-0.2,0.4-0.4,0.4c0,0,0,0,0,0c-0.1,0.2-0.2,0.5-0.4,0.9l1.3,0.9
		c0.1,0.1,0.1,0.2,0.1,0.3c0,0.1-0.1,0.1-0.2,0.1c0,0-0.1,0-0.1,0l-1.1-0.8c0,0.1-0.1,0.2-0.1,0.3L38.2,29.9z M40.7,31.5
		c0.1,0,0.2,0,0.3,0c-0.2,0-0.3-0.1-0.4-0.1c-0.4-0.2-0.6-0.6-0.7-1c-0.1-0.4,0-0.9,0.3-1.2c0.5-0.8,1.5-1,2.2-0.5
		c0.2,0.1,0.3,0.3,0.4,0.5c0-0.4-0.2-0.9-0.5-1.2c-0.5-0.5-1.6-0.7-1.8-0.7c-0.5,0.2-0.9,0.6-1.3,1.2c-0.4,0.7-0.6,1.4-0.5,1.9
		c0.1,0.2,0.6,0.9,1.1,1.1C40.1,31.5,40.4,31.5,40.7,31.5z M46.3,32.7l-3.5-2.6l0,0L42,29.6c-0.1,0-0.3,0-0.4,0.2
		c-0.1,0.2-0.1,0.3,0,0.4l1.1,0.8c0,0,0,0,0,0l3.1,2.2c0,0,0,0,0.1,0c0.1,0,0.2,0,0.3-0.3C46.4,32.7,46.3,32.7,46.3,32.7z"/>
</g>
</svg>
