<?xml version="1.0" encoding="utf-8"?>
<!-- Generator: Adobe Illustrator 24.1.3, SVG Export Plug-In . SVG Version: 6.00 Build 0)  -->
<svg version="1.1" id="Layer_1" xmlns="http://www.w3.org/2000/svg" xmlns:xlink="http://www.w3.org/1999/xlink" x="0px" y="0px"
	 viewBox="0 0 100 100" style="enable-background:new 0 0 100 100;" xml:space="preserve">
<style type="text/css">
	.st0{fill:#75A1CE;}
</style>
<g id="colour">
	<path class="st0" d="M33.4,83c3.8-6,10-13.8,14-19.6c4.4-6.2,7-9.8,11.2-16.2c1-1.4,2.2-2.8,2.2-4.6c0-1.6-0.8-2.6-2-3.6
		c-1.8-1.6-4.2-2.6-6.6-2.4c-1.2-0.6-2.8-0.4-3.8,1c-9,12.6-17.8,25.4-26.6,38.2c-1,1.6-0.2,3.2,1.2,4c1,0.8,3,0.8,4.2,1.4
		c0.6,0.4,1.2,0.6,1.8,1c0.2,0.2,0.4,0.2,0.6,0.4C30.5,84.4,32.1,84.8,33.4,83z"/>
</g>
<g id="Layer_1_1_">
	<path d="M51.7,43c-0.8-0.2-1.2-0.8-1-1.2s0.8-0.6,1.6-0.4c0.8,0.2,1.2,0.8,1,1.2C53.4,43,52.5,43.2,51.7,43z M41.1,60.2
		c0.2-0.4-0.2-0.8-0.8-1s-1,0-1.2,0.4s0.2,0.8,0.8,1C40.4,60.6,41,60.6,41.1,60.2z M16.8,96.2c-1-0.6-1.4-1.4-1.4-2.2
		c0-0.6,0.2-1,0.4-1.4l4-5.6c-0.4-0.8-1-2-1-3.4c0-0.8,0.2-1.6,0.4-2.4c0.6-1.4,2-2.6,2.8-3l9.6-14.4c-0.2,0-0.4,0-0.4,0s0,0-0.2,0
		l-1.2,1.6c-0.4,0.4-1,0.6-1.4,0.2c-0.2-0.2-0.4-0.4-0.4-0.8c0-0.2,0-0.4,0.2-0.6l4.4-6c0.4-0.4,1-0.6,1.4-0.2
		c0.4,0.4,0.6,1,0.2,1.4L33,61c0.2,0,0.2,0,0.4,0L44,45.4l1-1.6h-0.6L40,50.2c-0.4,0.4-1,0.6-1.4,0.2c-0.2-0.2-0.4-0.4-0.4-0.8
		c0-0.2,0-0.4,0.2-0.6l6.6-9c0.4-0.4,1-0.6,1.4-0.2c0.4,0.4,0.6,1,0.2,1.4L46,42h0.4l21.2-32c0-0.2,0-0.2,0-0.4c0-1.2,0.2-3,1.2-4.4
		c1.2-1.4,3.8-3,7-3c2.4,0,4.6,1,6.2,3c1.4,1.6,2,3.4,2,5.2l0,0c0,3-1.8,5.2-3.4,6.4c-0.6,0.4-1.6,0.8-2.4,1L55,50.6L31.6,84
		c-0.2,1-0.8,3-1.8,4.2c-1.4,1.6-3.4,1.8-5,1.8l-4.4,6c-0.2,0.4-0.8,0.8-1.2,0.8C18.5,97,17.8,97,16.8,96.2z M25,84.8
		c0.8,0.6,0.8,1.4,0.8,1.8v0.2l-0.2,0.4c0.2-0.2,0.4-0.4,0.4-0.4c0.6-1,0.4-2.4-0.8-3c-0.6-0.4-1.2-0.4-1.8-0.4
		c-0.6,0.2-1,0.4-1.4,1c-0.2,0.2-0.4,1.2-0.2,2c0,0.2,0,0.2,0,0.4l1.2-1.6C23.4,84.4,24.4,84.2,25,84.8z M52.7,36.2l-2,3
		c2.4,1,5.2,3,6.6,4.8l1.2-1.6c-0.8-1-2-1.8-3.4-2c-0.4,0.2-0.8,0.2-1.4,0c-1-0.2-1.4-1-1.4-1.6c0.2-0.6,1-0.8,2-0.6
		c0.8,0.2,1.2,0.8,1.4,1.2c1.4,0.4,2.6,1.2,3.4,2l0.8-1.2h-0.2C58.5,39,54.5,36.6,52.7,36.2z M69.5,10.6l-1.2,2
		c0.8,0.2,1.6,0.6,2.2,1l1-1.8c0.2-0.2,0.6-0.2,0.8,0c0.2,0,0.2,0.4,0.2,0.6L71.3,14c0.6,0.6,1,1.2,1.6,1.8l0.2-0.2
		c0.6,0,1.2,0.8,1.2,1.8c0.2,1-0.2,2-0.6,2c-0.6,0-1.2-0.8-1.2-1.8c0-0.4,0-0.6,0-0.8c-0.6-0.6-1.2-1.2-1.8-1.8l-2.2,3.2
		c0.6,0.6,1.2,1.2,1.6,1.6l0,0c0.6,0,1.2,0.8,1.2,1.8c0.2,1-0.2,2-0.6,2c-0.6,0-1.2-0.8-1.2-1.8c0-0.4,0-0.8,0-1
		c-0.4-0.6-1-1.2-1.6-1.8l-4.4,6.6c0.2,0.2,0.4,0.2,0.4,0.4l1.8-2.6c0.2-0.2,0.4-0.2,0.6-0.2c0.2,0.2,0.2,0.4,0.2,0.6l-2,2.8
		c0,0.2,0.2,0.2,0.2,0.4l0,0c0.6,0,1.2,0.8,1.2,1.8c0.2,1-0.2,2-0.6,2c-0.6,0-1.2-0.8-1.2-1.8c0-0.4,0-0.8,0-1s-0.2-0.2-0.2-0.4
		l-3,4.4c-0.2,0.2-0.4,0.2-0.6,0.2c-0.2,0-0.2-0.2-0.2-0.4v-0.2l3.2-4.6c-0.2-0.2-0.2-0.2-0.4-0.4l-3.4,5c-0.2,0.2-0.4,0.2-0.6,0.2
		s-0.2-0.2-0.2-0.4v-0.2l3.4-5c-0.6-0.4-1.2-0.8-2-1l-7,10.6c2.2,0.6,5.8,2.8,7,4.4l0.6-1c-0.6-1.2-1.8-2.2-3-2.8
		c-0.4,0.2-0.8,0.2-1.4,0c-1-0.2-1.4-1-1.4-1.6c0.2-0.6,1-0.8,2-0.6c0.8,0.2,1.2,0.8,1.4,1.2c1.2,0.6,2.4,1.6,3,2.6l15.6-22
		c0,0,1.8-0.4,2.4-0.8c1-0.6,2.6-2.4,2.6-4.8c0-1.2-0.4-2.6-1.6-4c-3.2-4-8.4-1.8-10,0.2c-0.8,1-0.8,2.2-0.8,3.2
		C69.5,10.2,69.5,10.6,69.5,10.6z M65.1,17.4l-4.4,6.4c0.6,0.2,1.4,0.6,2,1l4.4-6.4C66.5,17.8,65.7,17.6,65.1,17.4z M67.7,17.6
		l2.2-3.2c-0.6-0.6-1.4-0.8-2.2-1l-2,3C66.4,16.8,67.1,17,67.7,17.6z M32.4,62.8l0.6-1c-0.2,0-0.4,0-0.4,0l-0.6,1
		C32.1,62.8,32.1,62.8,32.4,62.8z M34.5,63.2c0.2,0,0.4,0.2,0.6,0.2l0.6-1c-0.2,0-0.4-0.2-0.6-0.2L34.5,63.2z M24.1,78.6
		c1.2,0,2.4,0.4,3.6,1.2c1.2,0.8,2,1.6,2.6,2.6l12.8-18.2c-0.8-1-2-1.8-3.2-2c-0.4,0.2-0.8,0.2-1.2,0c-0.8-0.2-1.2-0.8-1-1.4
		c0.2-0.4,0.8-0.6,1.6-0.4c0.4,0.2,0.8,0.4,1,0.8c1.4,0.2,2.6,1,3.6,2l1.2-1.8c-0.8-1-2.4-2-3.8-2.2l0,0c-0.2,0-0.4,0-0.8,0
		c-0.6-0.2-1-0.6-0.8-1s0.6-0.6,1.2-0.4c0.2,0,0.4,0.2,0.6,0.4c1.6,0.2,3.2,1.2,4.2,2.2l1-1.4c-0.8-1-2-1.8-3.2-2
		c-0.4,0.2-0.8,0.2-1.2,0c-0.8-0.2-1.4-1-1.2-1.6s1-0.8,1.8-0.6s1.2,0.8,1.2,1.2c1.2,0.4,2.4,1.2,3.2,2l0.6-0.8
		c-0.8-1-2.2-2.2-3.6-2.4c-0.2,0-0.6,0-0.8,0c-0.6-0.2-1-0.8-1-1.2c0.2-0.4,0.8-0.6,1.4-0.4c0.4,0.2,0.8,0.4,0.8,0.6
		c1.4,0.4,2.8,1.4,3.8,2.4l1.2-1.6c-0.8-1-2-2-3.4-2.2c-0.4,0.2-0.8,0.2-1.4,0c-0.8-0.2-1.4-1-1.2-1.6s1-0.8,1.8-0.6
		c0.6,0.2,1.2,0.6,1.2,1c1.4,0.4,2.6,1.2,3.4,2.2l3.2-4.4l1.6-2.4c-0.6-1-1.8-2-3-2.4c-0.4,0.2-1,0.2-1.4,0c-0.8-0.2-1.4-1-1.2-1.6
		s1-0.8,1.8-0.6c0.6,0.2,1,0.6,1.2,1c1.2,0.4,2.4,1.4,3.2,2.4l1-1.4c-1.2-1.8-4-4-6.4-4.8l-4.2,6.4l-10.2,15c0.2,0,0.4,0.2,0.6,0.2
		v-0.2c0.2-0.2,0.4-0.2,0.6-0.2c0.2,0.2,0.2,0.4,0.2,0.6c0.8,0.4,1.6,0.6,2,1h0.2c0.4,0,0.8,0.4,0.8,0.8c0,0.4-0.4,0.8-0.8,0.8
		c-0.4,0-0.8-0.4-0.8-0.8c0,0,0,0,0-0.2c-0.2-0.2-1-0.4-1.8-0.8l-0.6,1c0.8,0.2,1.4,0.6,1.8,0.8h0.2c0.4,0,0.8,0.4,0.8,0.8
		s-0.4,0.8-0.8,0.8c-0.4,0-0.8-0.4-0.8-0.8l0,0c-0.4-0.2-1-0.4-1.8-0.8l-1.8,2.6c-0.2,0.2-0.4,0.2-0.6,0.2s-0.2-0.2-0.2-0.4v-0.2
		l1.6-2.2c-0.2,0-0.4-0.2-0.6-0.2L24.1,78.6z M21,83.6c0,0.2,0,0.4,0,0.6c0-0.4,0.2-0.6,0.2-0.8c0.4-0.8,1.2-1.2,2-1.4
		c0.8-0.2,1.8,0,2.4,0.6c1.6,1,2,3,1,4.4c-0.2,0.4-0.6,0.6-1,0.8c0.8,0,1.8-0.4,2.4-1c1-1,1.4-3.2,1.4-3.6c-0.4-1-1.2-1.8-2.4-2.6
		c-1.4-0.8-2.8-1.2-3.8-1c-0.4,0.2-1.8,1.2-2.2,2.2C21,82.4,21,83,21,83.6z M18.5,94.8l5.2-7l0,0l1-1.6c0-0.2,0-0.6-0.4-0.8
		c-0.4-0.2-0.6-0.2-0.8,0l-1.6,2.2l0,0l-4.4,6.2c0,0,0,0,0,0.2s0,0.4,0.6,0.6C18.5,95,18.5,94.8,18.5,94.8z"/>
</g>
</svg>
