<svg width="48" height="35" viewBox="0 0 48 35" fill="none" xmlns="http://www.w3.org/2000/svg">
<path d="M20.3855 16.0651C20.2679 16.4368 19.9776 16.6764 19.7371 16.6003C19.4966 16.5242 19.397 16.1611 19.5147 15.7895C19.6323 15.4178 19.9226 15.1782 20.1631 15.2543C20.4036 15.3305 20.5032 15.6935 20.3855 16.0651ZM28.9812 21.4493C28.8031 21.3929 28.5879 21.5704 28.5007 21.8458C28.4136 22.1212 28.4874 22.3902 28.6656 22.4466C28.8438 22.5031 29.0589 22.3255 29.1461 22.0501C29.2332 21.7747 29.1594 21.5057 28.9812 21.4493ZM47.0338 33.5922C46.7203 34.0435 46.3422 34.2723 45.91 34.2723C45.6542 34.2723 45.4073 34.1829 45.2143 34.0261L42.4186 32.0374C41.9938 32.2827 41.3972 32.5189 40.6741 32.5189C40.2593 32.5189 39.8453 32.4397 39.4437 32.2835C38.7199 32.002 38.1751 31.2935 37.9252 30.916L30.7588 26.0814C30.7506 26.1735 30.7508 26.2466 30.7639 26.288C30.7741 26.311 30.7626 26.3337 30.7656 26.3572L31.5637 26.9443C31.7858 27.1074 31.8337 27.4208 31.6701 27.6425C31.572 27.7763 31.4206 27.8466 31.2668 27.8466C31.1638 27.8466 31.0603 27.8154 30.9709 27.749L27.9519 25.5283C27.7297 25.3652 27.6818 25.0517 27.8454 24.83C28.009 24.6064 28.3215 24.5576 28.5446 24.7236L29.3377 25.3069C29.3446 25.252 29.3511 25.1974 29.3607 25.1382L21.5482 19.8677L20.7905 19.3655L20.7448 19.6264L23.9592 21.9911C24.1813 22.1542 24.2292 22.4677 24.0656 22.6894C23.9675 22.8232 23.8161 22.8935 23.6623 22.8935C23.5593 22.8935 23.4558 22.8622 23.3664 22.7958L18.8225 19.4531C18.6003 19.29 18.5524 18.9765 18.716 18.7548C18.8806 18.5312 19.1926 18.4833 19.4152 18.6484L19.8451 18.9646L19.8806 18.7624L3.92256 8.18536C3.8722 8.18695 3.81813 8.18787 3.76094 8.18787C3.14418 8.18787 2.26533 8.07715 1.58107 7.54974C0.831311 6.9718 0.0167968 5.65912 0.000256334 4.14294C-0.0132325 2.90656 0.505871 1.82874 1.50148 1.02612C2.3459 0.345337 3.23567 0.000122 4.14601 0H4.14613C5.62556 0 6.77784 0.921509 7.31508 1.71057C7.53877 2.03912 7.70436 2.53052 7.80464 2.88849L24.1978 14.4716L40.879 26.1649C41.3627 26.2747 42.3905 26.5604 42.9979 27.11C43.7812 27.8186 43.9359 28.8449 43.8749 29.6359L46.8352 31.8261C47.0447 31.9664 47.2045 32.181 47.2781 32.4293C47.3551 32.6887 47.3751 33.101 47.0338 33.5922ZM41.2766 29.4794C41.5358 29.121 41.9626 29.0917 42.1711 29.1288L42.257 29.162L42.4083 29.2549C42.3386 29.1642 42.2572 29.0838 42.1608 29.0204C41.6604 28.6874 40.9704 28.8466 40.6208 29.372C40.4509 29.6288 40.3869 29.9326 40.4406 30.2275C40.4938 30.5195 40.656 30.7675 40.8967 30.9277C41.0173 31.0068 41.4855 31.124 41.8537 31.0585C41.9141 31.0493 41.9676 31.0693 42.0153 31.0964L41.2302 30.4687C41.1213 30.2753 41.009 29.8486 41.2766 29.4794ZM16.9857 15.644L18.4537 16.6169C18.9106 15.3819 19.9927 14.0508 20.8858 13.3558L20.0876 12.7918C19.6261 13.1705 19.1931 13.8281 19.0848 14.4683C19.1665 14.6583 19.1837 14.9131 19.0989 15.1812C18.9559 15.6328 18.6032 15.924 18.3109 15.8315C18.0186 15.739 17.8976 15.2979 18.0406 14.8462C18.1535 14.4896 18.3967 14.2417 18.6381 14.1951C18.8022 13.5378 19.2146 12.9125 19.6724 12.4984L19.113 12.1031C19.0971 12.1262 19.0936 12.1556 19.0695 12.1728C18.3654 12.6752 17.1978 14.6703 16.9857 15.644ZM4.1916 7.164L5.16316 7.80798C5.25715 7.42596 5.42634 7.05383 5.65138 6.71228L4.83174 6.15131C4.71748 6.07318 4.68867 5.91791 4.76631 5.80365C4.8459 5.69135 5.00215 5.6601 5.11397 5.7392L5.94935 6.31097C6.20039 6.00946 6.48365 5.75122 6.77192 5.54596C6.75197 5.51465 6.7212 5.48718 6.71553 5.45135C6.67317 5.18433 7.06715 4.89984 7.59553 4.81598C8.12397 4.73212 8.58668 4.88062 8.6291 5.14764C8.67146 5.41473 8.27748 5.69916 7.74904 5.78308C7.59144 5.80811 7.4452 5.80682 7.30867 5.79352C6.98311 5.97742 6.65162 6.25684 6.36415 6.59479L7.96211 7.68842C8.22383 7.38586 8.51515 7.12628 8.8105 6.92822C8.80751 6.91803 8.79554 6.91089 8.79384 6.90027C8.75142 6.63324 9.1454 6.34875 9.67384 6.26489C10.2022 6.18103 10.665 6.32953 10.7073 6.59656C10.7498 6.86359 10.3557 7.14807 9.82734 7.23193C9.62727 7.26367 9.44594 7.25323 9.28395 7.22455C8.97322 7.39612 8.65706 7.65619 8.37654 7.97205L11.6364 10.2031C11.7025 10.1265 11.7686 10.0497 11.8385 9.97876L10.5026 9.05756C10.3894 8.97845 10.3605 8.82318 10.4392 8.7099C10.5178 8.59564 10.6726 8.56927 10.7868 8.64545L12.2182 9.63257C12.2796 9.58331 12.3419 9.54437 12.4039 9.50031C12.3988 9.48596 12.3825 9.47546 12.3801 9.46033C12.3377 9.19324 12.7317 8.90881 13.2601 8.82495C13.7885 8.74103 14.2512 8.88953 14.2936 9.15662C14.336 9.42365 13.942 9.70813 13.4136 9.79199C13.2144 9.82361 13.0338 9.81329 12.8723 9.78497C12.7995 9.82886 12.7274 9.88062 12.6547 9.93353L14.8864 11.4726C14.9997 11.5517 15.0285 11.707 14.9499 11.8203C14.9016 11.8906 14.8234 11.9286 14.7443 11.9286C14.695 11.9286 14.6457 11.914 14.6022 11.8847L12.2568 10.2673C12.1856 10.3365 12.1182 10.4108 12.0508 10.4866L14.5202 12.1767C14.6345 12.2548 14.6633 12.4101 14.5856 12.5244C14.5368 12.5947 14.4587 12.6328 14.3791 12.6328C14.3303 12.6328 14.281 12.6191 14.238 12.5888L11.7417 10.8803C11.5299 11.1885 11.3673 11.5228 11.2803 11.8624L16.5477 15.3536C16.8739 14.223 17.9447 12.4259 18.7162 11.8229L18.2489 11.4927C17.6905 11.7828 17.1097 12.3665 16.8958 12.9965C16.9683 13.1844 16.9803 13.43 16.8989 13.6871C16.7559 14.1387 16.4031 14.4299 16.1109 14.3374C15.8187 14.2449 15.6976 13.8038 15.8406 13.3521C15.9581 12.9807 16.2167 12.7313 16.4678 12.7011C16.7249 12.0751 17.2543 11.52 17.7998 11.1753L6.92598 3.49213C6.92598 3.49213 6.7353 2.63593 6.48848 2.27338C6.16005 1.79095 5.30037 0.999939 4.14595 1C3.54286 1.00006 2.8592 1.216 2.1291 1.80463C0.113477 3.42963 1.22029 6.00903 2.1916 6.75775C2.66194 7.1203 3.32893 7.18787 3.76094 7.18787C4.01777 7.18787 4.1916 7.164 4.1916 7.164ZM7.59089 9.41705L10.8401 11.5707C10.9492 11.2299 11.1218 10.9025 11.3306 10.599L8.06733 8.36572C7.84114 8.69495 7.67213 9.0542 7.59089 9.41705ZM7.65632 8.08441L6.06263 6.99371C5.83424 7.34283 5.67042 7.72424 5.60927 8.10364L7.14467 9.12128C7.25215 8.75732 7.43416 8.40741 7.65632 8.08441ZM30.3048 25.7751L29.8145 25.4443C29.8038 25.5369 29.8041 25.6035 29.8109 25.655L30.2767 25.9976C30.2833 25.9279 30.293 25.8532 30.3048 25.7751ZM30.5413 24.7284C30.5676 24.6354 30.5947 24.5432 30.6231 24.451L30.1241 24.1169C30.0964 24.2106 30.0716 24.301 30.0459 24.3942L30.5413 24.7284ZM38.1818 29.8828C38.2105 29.3305 38.4099 28.6942 38.7712 28.0927C39.1258 27.5028 39.565 27.0579 40.0256 26.788L30.8877 20.3824C30.4358 20.7704 30.0281 21.387 29.9264 21.9926C30.0153 22.1541 30.039 22.3899 29.9605 22.6378C29.8401 23.0182 29.5429 23.2635 29.2968 23.1856C29.0506 23.1077 28.9487 22.7361 29.0691 22.3557C29.1431 22.1217 29.2857 21.9507 29.4405 21.8627C29.5689 21.1909 29.9874 20.5344 30.4658 20.0867L29.5838 19.4684C29.0483 19.8901 28.5435 20.6521 28.5134 21.3564C28.5133 21.3573 28.5124 21.3577 28.5123 21.3586C28.5369 21.4641 28.5342 21.5908 28.4931 21.7207C28.406 21.9961 28.1908 22.1736 28.0126 22.1172C27.8344 22.0608 27.7606 21.7918 27.8478 21.5164C27.8867 21.3934 27.9531 21.2947 28.0284 21.2229C28.1041 20.4433 28.6021 19.6629 29.1621 19.1727L28.4708 18.6882C28.0164 19.0678 27.5997 19.6817 27.4869 20.2892C27.5402 20.4637 27.5404 20.6838 27.4689 20.9096C27.3317 21.3432 26.9929 21.6227 26.7124 21.5339C26.4318 21.4451 26.3156 21.0216 26.4528 20.588C26.5655 20.232 26.8131 19.9927 27.0538 19.963C27.228 19.3607 27.6144 18.7902 28.0488 18.3923L27.5178 18.0201C26.9787 18.3833 26.441 19.1204 26.3374 19.8341C26.3619 19.9557 26.359 20.0979 26.3125 20.2448C26.209 20.5719 25.9534 20.7828 25.7418 20.7158C25.5301 20.6488 25.4425 20.3293 25.546 20.0022C25.6108 19.7975 25.7365 19.6484 25.8723 19.5744C26.0413 18.84 26.5506 18.139 27.0862 17.7175L26.2614 17.1394C25.7713 17.5082 25.303 18.1711 25.1833 18.822C25.2734 19.0058 25.2957 19.2625 25.2101 19.5331C25.0728 19.9667 24.7341 20.2463 24.4535 20.1575C24.1729 20.0687 24.0568 19.6451 24.194 19.2115C24.2949 18.8928 24.5048 18.6605 24.7203 18.5933C24.8884 17.9108 25.3444 17.2628 25.8398 16.8438L23.6239 15.2905L22.4594 14.4677C21.9752 14.7764 21.4863 15.3526 21.3071 15.9503C21.4114 16.1343 21.4396 16.4064 21.3491 16.6923C21.2119 17.126 20.8732 17.4055 20.5925 17.3167C20.312 17.2278 20.1958 16.8043 20.333 16.3707C20.4317 16.0591 20.6349 15.8332 20.8452 15.7603C21.0519 15.1225 21.5275 14.5365 22.0289 14.1635L21.3128 13.6575C20.431 14.2923 19.2838 15.7008 18.8801 16.8995L22.1007 19.0342L29.6043 24.0963C29.6306 24.0046 29.6577 23.9141 29.686 23.8235L29.6184 23.7783C29.5036 23.7011 29.4729 23.5458 29.55 23.4316C29.6153 23.3328 29.7362 23.312 29.8428 23.3516C30.0034 22.9034 30.1707 22.5318 30.2998 22.3644C30.2943 22.337 30.2832 22.3115 30.2832 22.2823C30.2832 22.0452 30.4754 21.853 30.7126 21.853C30.9497 21.853 31.142 22.0452 31.142 22.2823C31.142 22.5195 30.9497 22.7118 30.7126 22.7118C30.6929 22.7118 30.676 22.7031 30.6569 22.7006C30.5673 22.8207 30.4241 23.1846 30.28 23.6189L30.7856 23.9575C30.917 23.5878 31.0535 23.2679 31.1705 23.0674C31.1547 23.0227 31.142 22.9763 31.142 22.9262C31.142 22.689 31.3342 22.4968 31.5714 22.4968C31.8085 22.4968 32.0008 22.689 32.0008 22.9262C32.0008 23.1633 31.8085 23.3556 31.5714 23.3556C31.5705 23.3556 31.5697 23.355 31.5687 23.355C31.4755 23.5173 31.3472 23.8452 31.216 24.2455L32.487 25.0966C32.6018 25.1738 32.6325 25.329 32.5554 25.4433C32.5075 25.5156 32.4284 25.5546 32.3479 25.5546C32.3 25.5546 32.2517 25.541 32.2087 25.5126L31.0614 24.7445C31.0335 24.84 31.0092 24.9323 30.9835 25.0267L38.1818 29.8828ZM40.6741 31.5189C40.786 31.5189 40.8918 31.5072 40.9953 31.4925C40.8417 31.452 40.7071 31.4014 40.6208 31.3447C40.2653 31.1083 40.0266 30.7441 39.9489 30.3173C39.8718 29.8945 39.9626 29.4609 40.2038 29.0966C40.7043 28.3408 41.7067 28.1181 42.4362 28.6035C42.617 28.7222 42.7551 28.8864 42.8708 29.0677C42.8366 28.6532 42.7055 28.1938 42.327 27.8515C41.8145 27.3877 40.7019 27.1478 40.5119 27.1094C40.0475 27.2952 39.5706 27.7327 39.1999 28.3505C38.7922 29.0294 38.6105 29.7618 38.7019 30.2729C38.8318 30.4805 39.2798 31.1468 39.8062 31.3515C40.1141 31.4713 40.4055 31.5189 40.6741 31.5189ZM46.2714 32.653L42.789 30.0765L42.7894 30.075L42.0437 29.6171C41.9611 29.6142 41.7888 29.624 41.6818 29.7724C41.5686 29.9286 41.6188 30.1093 41.6491 30.1865L42.7229 31.0224C42.7252 31.0242 42.7247 31.0276 42.7269 31.0295L45.8361 33.2412C45.8361 33.2412 45.86 33.2723 45.91 33.2723C45.9709 33.2723 46.0704 33.2262 46.2125 33.0216C46.4251 32.7156 46.2714 32.653 46.2714 32.653Z" fill="black"/>
</svg>
