<?xml version="1.0" encoding="utf-8"?>
<!-- Generator: Adobe Illustrator 16.0.0, SVG Export Plug-In . SVG Version: 6.00 Build 0)  -->
<!DOCTYPE svg PUBLIC "-//W3C//DTD SVG 1.1//EN" "http://www.w3.org/Graphics/SVG/1.1/DTD/svg11.dtd">
<svg version="1.1" id="Layer_1" xmlns="http://www.w3.org/2000/svg" xmlns:xlink="http://www.w3.org/1999/xlink" x="0px" y="0px"
	 width="219.5px" height="45px" viewBox="0 0 219.5 45" enable-background="new 0 0 219.5 45" xml:space="preserve">
<path fill="#3A3431" d="M7.808,15.84c1.472,0,2.645,0.405,3.52,1.216c0.875,0.789,1.44,2.069,1.696,3.84h0.224
	c0.299,0,0.629-0.053,0.992-0.16c0.384-0.106,0.778-0.245,1.184-0.416c0.405-0.17,0.8-0.373,1.184-0.608
	c0.384-0.234,0.726-0.48,1.024-0.736l0.48,0.864c-0.234,0.341-0.533,0.651-0.896,0.928c-0.341,0.277-0.736,0.533-1.184,0.768
	c-0.448,0.213-0.917,0.405-1.408,0.576c-0.491,0.149-0.981,0.267-1.472,0.352c0.021,0.149,0.032,0.299,0.032,0.448
	c0,0.128,0,0.267,0,0.416c0,1.237-0.107,2.4-0.32,3.488c-0.213,1.066-0.576,2.005-1.088,2.815c-0.491,0.79-1.13,1.419-1.92,1.888
	c-0.789,0.448-1.76,0.672-2.912,0.672c-0.789,0-1.546-0.117-2.272-0.352c-0.704-0.256-1.333-0.661-1.888-1.216
	c-0.555-0.576-1.003-1.323-1.344-2.24c-0.32-0.938-0.48-2.079-0.48-3.424c0-0.917,0.096-1.898,0.288-2.944
	c0.192-1.067,0.544-2.059,1.056-2.976c0.512-0.917,1.205-1.675,2.08-2.272C5.28,16.149,6.421,15.84,7.808,15.84z M7.84,29.184
	c0.448,0,0.832-0.148,1.152-0.447c0.341-0.32,0.619-0.747,0.832-1.28c0.213-0.555,0.362-1.206,0.448-1.952
	c0.107-0.746,0.16-1.557,0.16-2.432v-0.48c-0.534-0.106-0.875-0.309-1.024-0.608c-0.149-0.298-0.224-0.629-0.224-0.992
	c0-0.448,0.075-0.79,0.224-1.024c0.149-0.234,0.341-0.395,0.576-0.48C9.75,18.763,9.461,18.293,9.12,18.08
	c-0.32-0.213-0.598-0.32-0.832-0.32c-0.469,0-0.875,0.224-1.216,0.672c-0.32,0.427-0.586,0.981-0.8,1.664
	c-0.213,0.661-0.374,1.397-0.48,2.208c-0.085,0.811-0.128,1.589-0.128,2.336c0,0.959,0.064,1.738,0.192,2.336
	c0.149,0.597,0.331,1.056,0.544,1.375c0.213,0.32,0.448,0.545,0.704,0.672C7.36,29.131,7.605,29.184,7.84,29.184z M23.055,14.816
	v2.4c0.362-0.384,0.821-0.704,1.376-0.96c0.555-0.277,1.227-0.416,2.016-0.416c0.726,0,1.408,0.139,2.048,0.416
	c0.661,0.277,1.237,0.726,1.728,1.344c0.512,0.597,0.917,1.397,1.216,2.4s0.448,2.219,0.448,3.648c0,1.023-0.096,2.047-0.288,3.071
	c-0.171,1.024-0.48,1.941-0.928,2.753c-0.448,0.811-1.056,1.471-1.824,1.983c-0.747,0.491-1.686,0.735-2.816,0.735
	c-0.811,0-1.451-0.105-1.92-0.319c-0.469-0.235-0.821-0.501-1.056-0.8v7.775L18.446,40V14.816H23.055z M24.495,29.408
	c0.555,0,1.024-0.182,1.408-0.544c0.384-0.384,0.683-0.875,0.896-1.472c0.235-0.598,0.395-1.26,0.48-1.984
	c0.107-0.747,0.16-1.482,0.16-2.208c0-1.173-0.106-2.102-0.32-2.784c-0.192-0.683-0.427-1.184-0.704-1.504
	c-0.277-0.341-0.555-0.555-0.832-0.64c-0.256-0.085-0.458-0.128-0.608-0.128c-0.384,0-0.757,0.139-1.12,0.416
	c-0.363,0.256-0.629,0.651-0.8,1.184v8.928c0.106,0.171,0.277,0.342,0.512,0.512C23.801,29.334,24.11,29.408,24.495,29.408z
	 M42.591,29.504c0.64,0,1.205-0.085,1.696-0.256s0.928-0.395,1.312-0.672c0.384-0.299,0.736-0.641,1.056-1.024
	c0.32-0.405,0.629-0.832,0.928-1.28h1.088c-0.299,0.747-0.662,1.473-1.088,2.177c-0.406,0.704-0.917,1.333-1.536,1.888
	c-0.598,0.555-1.301,1.003-2.112,1.344c-0.811,0.342-1.76,0.512-2.848,0.512c-0.917,0-1.76-0.139-2.528-0.416
	c-0.768-0.277-1.44-0.703-2.016-1.279c-0.555-0.598-0.992-1.355-1.312-2.271c-0.299-0.939-0.448-2.06-0.448-3.36
	c0-0.917,0.096-1.899,0.288-2.944c0.213-1.066,0.576-2.048,1.088-2.944c0.512-0.896,1.206-1.643,2.08-2.24
	c0.875-0.597,1.984-0.896,3.328-0.896c1.024,0,1.813,0.16,2.368,0.48c0.555,0.32,0.96,0.693,1.216,1.12
	c0.277,0.427,0.437,0.843,0.48,1.248c0.064,0.405,0.096,0.693,0.096,0.864c0,0.96-0.182,1.803-0.544,2.528
	c-0.341,0.725-0.811,1.344-1.408,1.855c-0.576,0.491-1.248,0.875-2.016,1.152c-0.747,0.256-1.515,0.405-2.304,0.448
	c0.021,1.429,0.256,2.453,0.704,3.071C40.628,29.205,41.439,29.504,42.591,29.504z M44.263,19.584c0-0.747-0.128-1.27-0.384-1.568
	c-0.256-0.32-0.534-0.48-0.832-0.48c-0.363,0-0.693,0.181-0.992,0.544c-0.298,0.341-0.565,0.811-0.8,1.408
	c-0.213,0.576-0.395,1.259-0.544,2.048c-0.128,0.789-0.213,1.61-0.256,2.464c0.534-0.043,1.035-0.182,1.504-0.416
	c0.469-0.256,0.875-0.576,1.216-0.96c0.341-0.405,0.608-0.864,0.8-1.376C44.167,20.736,44.263,20.181,44.263,19.584z M58.617,22.272
	c0-1.259-0.149-2.155-0.448-2.688c-0.277-0.533-0.693-0.8-1.248-0.8c-0.576,0-1.013,0.288-1.312,0.864
	c-0.299,0.576-0.48,1.27-0.544,2.08V32h-4.608V16h4.608v1.664c0.512-0.768,1.077-1.259,1.696-1.472
	c0.619-0.213,1.173-0.32,1.664-0.32c0.619,0,1.206,0.096,1.76,0.288c0.555,0.192,1.035,0.512,1.44,0.96
	c0.427,0.448,0.757,1.045,0.992,1.792c0.234,0.725,0.352,1.632,0.352,2.72c0,0.363-0.01,0.757-0.032,1.184
	c0,0.405-0.011,0.821-0.032,1.249c-0.021,0.426-0.042,0.842-0.064,1.248c0,0.404,0,0.757,0,1.056c0,0.896,0.107,1.579,0.32,2.048
	c0.234,0.448,0.693,0.672,1.376,0.672c0.512,0,0.853-0.064,1.024-0.191c0,1.151-0.245,1.994-0.736,2.527
	c-0.47,0.512-1.163,0.768-2.08,0.768c-0.79,0-1.451-0.148-1.984-0.447c-0.534-0.32-0.971-0.747-1.312-1.28
	c-0.32-0.533-0.555-1.151-0.704-1.856c-0.128-0.703-0.192-1.45-0.192-2.239c0-0.277,0-0.598,0-0.96
	c0.021-0.385,0.032-0.758,0.032-1.12c0-0.384,0-0.747,0-1.088C58.606,22.837,58.617,22.528,58.617,22.272z M84.293,16v1.984
	c0.469-0.555,0.992-1.045,1.568-1.472c0.576-0.448,1.205-0.672,1.888-0.672c0.405,0,0.768,0.085,1.088,0.256
	c0.341,0.17,0.629,0.395,0.864,0.672c0.256,0.277,0.448,0.586,0.576,0.928c0.149,0.32,0.224,0.651,0.224,0.992
	c0,0.469-0.149,0.907-0.448,1.312c-0.277,0.384-0.747,0.576-1.408,0.576c-0.491,0-0.832-0.107-1.024-0.32
	c-0.192-0.213-0.341-0.437-0.448-0.672c-0.107-0.256-0.224-0.491-0.352-0.704c-0.106-0.213-0.31-0.32-0.608-0.32
	c-0.32,0-0.64,0.128-0.96,0.384c-0.299,0.235-0.619,0.534-0.96,0.896V32h-4.608V16H84.293z M99.892,29.504
	c0.64,0,1.206-0.085,1.696-0.256c0.491-0.171,0.928-0.395,1.312-0.672c0.384-0.299,0.736-0.641,1.056-1.024
	c0.32-0.405,0.63-0.832,0.928-1.28h1.088c-0.298,0.747-0.661,1.473-1.088,2.177c-0.405,0.704-0.917,1.333-1.536,1.888
	c-0.597,0.555-1.301,1.003-2.112,1.344c-0.81,0.342-1.76,0.512-2.848,0.512c-0.917,0-1.76-0.139-2.528-0.416
	s-1.44-0.703-2.016-1.279c-0.555-0.598-0.992-1.355-1.312-2.271c-0.299-0.939-0.448-2.06-0.448-3.36
	c0-0.917,0.096-1.899,0.288-2.944c0.213-1.066,0.576-2.048,1.088-2.944c0.512-0.896,1.206-1.643,2.08-2.24
	c0.875-0.597,1.983-0.896,3.328-0.896c1.024,0,1.814,0.16,2.368,0.48c0.555,0.32,0.96,0.693,1.216,1.12
	c0.278,0.427,0.438,0.843,0.48,1.248c0.064,0.405,0.096,0.693,0.096,0.864c0,0.96-0.181,1.803-0.544,2.528
	c-0.341,0.725-0.81,1.344-1.408,1.855c-0.576,0.491-1.248,0.875-2.016,1.152c-0.746,0.256-1.514,0.405-2.304,0.448
	c0.021,1.429,0.256,2.453,0.704,3.071C97.93,29.205,98.74,29.504,99.892,29.504z M100.564,19.584c0-0.747-0.128-1.27-0.384-1.568
	c-0.256-0.32-0.533-0.48-0.832-0.48c-0.362,0-0.693,0.181-0.992,0.544c-0.298,0.341-0.565,0.811-0.8,1.408
	c-0.213,0.576-0.394,1.259-0.544,2.048c-0.128,0.789-0.213,1.61-0.256,2.464c0.534-0.043,1.035-0.182,1.503-0.416
	c0.47-0.256,0.875-0.576,1.216-0.96c0.342-0.405,0.608-0.864,0.8-1.376C100.468,20.736,100.564,20.181,100.564,19.584z
	 M115.886,22.304c0-1.28-0.139-2.187-0.416-2.72c-0.278-0.533-0.683-0.8-1.216-0.8c-0.32,0-0.598,0.085-0.832,0.256
	c-0.214,0.171-0.395,0.395-0.544,0.672c-0.15,0.277-0.267,0.598-0.352,0.96c-0.086,0.341-0.139,0.693-0.16,1.056V32h-4.608V10.24
	l4.608-0.64v8.064c0.49-0.747,1.045-1.227,1.664-1.44c0.618-0.235,1.205-0.352,1.76-0.352c0.597,0,1.162,0.096,1.696,0.288
	c0.554,0.192,1.033,0.522,1.439,0.992c0.426,0.448,0.758,1.056,0.992,1.824c0.234,0.747,0.352,1.675,0.352,2.784
	c0,0.277-0.011,0.629-0.031,1.056c0,0.405-0.012,0.821-0.032,1.249c-0.022,0.426-0.043,0.842-0.063,1.248c0,0.404,0,0.746,0,1.023
	c0,0.918,0.105,1.611,0.319,2.08c0.233,0.448,0.683,0.672,1.345,0.672c0.361,0,0.66-0.064,0.896-0.191
	c0.233-0.15,0.426-0.353,0.575-0.608s0.267-0.555,0.353-0.896c0.106-0.342,0.202-0.715,0.288-1.121h1.344
	c-0.171,1.28-0.427,2.315-0.768,3.104c-0.342,0.769-0.736,1.365-1.184,1.792c-0.428,0.405-0.887,0.683-1.377,0.832
	c-0.49,0.128-0.971,0.191-1.439,0.191c-1.643,0-2.838-0.543-3.584-1.631c-0.726-1.088-1.088-2.539-1.088-4.353
	c0-0.192,0-0.458,0-0.8c0.021-0.363,0.032-0.736,0.032-1.12s0-0.757,0-1.12C115.875,22.805,115.886,22.517,115.886,22.304z
	 M134.09,29.504c0.641,0,1.205-0.085,1.696-0.256s0.928-0.395,1.312-0.672c0.385-0.299,0.736-0.641,1.057-1.024
	c0.32-0.405,0.629-0.832,0.928-1.28h1.088c-0.299,0.747-0.661,1.473-1.088,2.177c-0.405,0.704-0.917,1.333-1.536,1.888
	c-0.597,0.555-1.301,1.003-2.112,1.344c-0.811,0.342-1.76,0.512-2.848,0.512c-0.917,0-1.76-0.139-2.527-0.416
	c-0.769-0.277-1.44-0.703-2.017-1.279c-0.556-0.598-0.992-1.355-1.312-2.271c-0.299-0.939-0.448-2.06-0.448-3.36
	c0-0.917,0.096-1.899,0.288-2.944c0.213-1.066,0.576-2.048,1.088-2.944s1.205-1.643,2.08-2.24c0.875-0.597,1.984-0.896,3.328-0.896
	c1.023,0,1.813,0.16,2.367,0.48c0.555,0.32,0.961,0.693,1.217,1.12c0.276,0.427,0.437,0.843,0.479,1.248
	c0.063,0.405,0.097,0.693,0.097,0.864c0,0.96-0.182,1.803-0.545,2.528c-0.341,0.725-0.811,1.344-1.408,1.855
	c-0.575,0.491-1.248,0.875-2.016,1.152c-0.746,0.256-1.515,0.405-2.304,0.448c0.021,1.429,0.256,2.453,0.704,3.071
	C132.127,29.205,132.938,29.504,134.09,29.504z M134.762,19.584c0-0.747-0.128-1.27-0.384-1.568c-0.256-0.32-0.532-0.48-0.832-0.48
	c-0.362,0-0.692,0.181-0.991,0.544c-0.3,0.341-0.566,0.811-0.801,1.408c-0.213,0.576-0.395,1.259-0.544,2.048
	c-0.128,0.789-0.213,1.61-0.256,2.464c0.532-0.043,1.034-0.182,1.504-0.416c0.469-0.256,0.875-0.576,1.216-0.96
	c0.342-0.405,0.608-0.864,0.801-1.376C134.666,20.736,134.762,20.181,134.762,19.584z M155.139,16v10.88
	c0,0.896,0.118,1.493,0.353,1.792c0.256,0.277,0.694,0.416,1.312,0.416c0.619,0,1.131-0.267,1.536-0.8
	c0.427-0.533,0.673-1.206,0.736-2.017h1.344c-0.17,1.302-0.469,2.348-0.896,3.137c-0.426,0.768-0.906,1.365-1.44,1.792
	c-0.533,0.405-1.077,0.672-1.632,0.8s-1.045,0.191-1.473,0.191c-1.129,0-1.994-0.256-2.592-0.768
	c-0.576-0.533-0.98-1.259-1.216-2.176c-0.17,0.363-0.373,0.725-0.608,1.088c-0.233,0.342-0.521,0.65-0.863,0.928
	c-0.32,0.277-0.704,0.502-1.152,0.672c-0.426,0.171-0.928,0.256-1.504,0.256c-0.682,0-1.354-0.127-2.016-0.383
	c-0.661-0.257-1.27-0.673-1.824-1.248c-0.533-0.576-0.971-1.334-1.313-2.272c-0.32-0.96-0.479-2.134-0.479-3.521
	c0-0.98,0.106-1.994,0.319-3.04c0.235-1.045,0.588-2.005,1.057-2.88c0.49-0.875,1.12-1.589,1.888-2.144
	c0.79-0.576,1.739-0.864,2.849-0.864c0.256,0,0.533,0.021,0.832,0.064c0.299,0.021,0.586,0.096,0.863,0.224
	c0.278,0.107,0.534,0.277,0.768,0.512c0.236,0.213,0.416,0.512,0.545,0.896V16H155.139z M150.531,19.072
	c-0.021-0.085-0.064-0.192-0.129-0.32c-0.063-0.149-0.159-0.288-0.287-0.416c-0.129-0.149-0.288-0.267-0.48-0.352
	c-0.191-0.106-0.416-0.16-0.672-0.16c-0.512,0-0.96,0.224-1.344,0.672c-0.362,0.427-0.661,0.971-0.896,1.632
	c-0.213,0.64-0.373,1.355-0.479,2.144c-0.106,0.768-0.16,1.503-0.16,2.208c0,1.131,0.086,2.016,0.256,2.655
	c0.171,0.619,0.374,1.077,0.608,1.376c0.256,0.277,0.523,0.448,0.8,0.512c0.278,0.043,0.512,0.064,0.704,0.064
	c0.234,0,0.47-0.053,0.703-0.16c0.257-0.128,0.48-0.309,0.673-0.544c0.214-0.234,0.384-0.522,0.512-0.864
	c0.128-0.362,0.192-0.778,0.192-1.248V19.072z M166.287,16v1.984c0.469-0.555,0.992-1.045,1.568-1.472
	c0.576-0.448,1.205-0.672,1.888-0.672c0.405,0,0.769,0.085,1.088,0.256c0.341,0.17,0.629,0.395,0.864,0.672
	c0.256,0.277,0.447,0.586,0.576,0.928c0.148,0.32,0.224,0.651,0.224,0.992c0,0.469-0.149,0.907-0.448,1.312
	c-0.277,0.384-0.747,0.576-1.408,0.576c-0.49,0-0.832-0.107-1.023-0.32c-0.192-0.213-0.342-0.437-0.448-0.672
	c-0.106-0.256-0.224-0.491-0.353-0.704c-0.106-0.213-0.309-0.32-0.607-0.32c-0.32,0-0.641,0.128-0.96,0.384
	c-0.299,0.235-0.619,0.534-0.96,0.896V32h-4.607V16H166.287z M187.158,26.271c-0.661,1.004-1.365,1.824-2.112,2.465
	c-0.746,0.64-1.44,1.184-2.08,1.632c-0.554,0.661-1.248,1.13-2.079,1.407c-0.832,0.277-1.633,0.416-2.4,0.416
	c-0.938,0-1.76-0.148-2.465-0.447c-0.703-0.299-1.289-0.672-1.76-1.12c-0.469-0.47-0.82-0.981-1.056-1.536
	c-0.233-0.576-0.353-1.12-0.353-1.632c0-0.576,0.107-1.067,0.32-1.472c0.235-0.406,0.523-0.693,0.864-0.864
	c0.619-1.601,1.131-3.179,1.536-4.736c0.427-1.579,0.726-3.157,0.896-4.736l4.607-0.64c0.533,2.069,0.982,3.755,1.344,5.056
	c0.363,1.28,0.651,2.357,0.864,3.232c0.214,0.854,0.362,1.601,0.448,2.24s0.127,1.354,0.127,2.144v0.192
	c0.769-0.533,1.42-1.067,1.953-1.601H187.158z M176.566,26.561c0,0.319-0.096,0.618-0.289,0.896
	c-0.191,0.256-0.469,0.384-0.832,0.384c-0.17,0-0.352-0.021-0.543-0.064c-0.17-0.063-0.31-0.181-0.416-0.352
	c0.171,0.747,0.438,1.313,0.8,1.696c0.384,0.362,0.928,0.544,1.632,0.544c0.619,0,1.152-0.16,1.6-0.48
	c0.448-0.341,0.672-0.928,0.672-1.76c0-0.576-0.031-1.088-0.096-1.535c-0.064-0.47-0.17-0.992-0.32-1.568
	c-0.127-0.576-0.309-1.259-0.543-2.048c-0.213-0.789-0.48-1.781-0.801-2.976c-0.213,1.024-0.479,2.016-0.8,2.976
	c-0.298,0.939-0.618,1.919-0.96,2.944c0.234,0.106,0.438,0.277,0.607,0.513C176.471,25.941,176.566,26.219,176.566,26.561z
	 M201.873,16v10.88c0,0.896,0.117,1.493,0.352,1.792c0.256,0.277,0.693,0.416,1.313,0.416s1.131-0.267,1.536-0.8
	c0.427-0.533,0.672-1.206,0.735-2.017h1.344c-0.17,1.302-0.469,2.348-0.896,3.137c-0.427,0.768-0.907,1.365-1.44,1.792
	c-0.532,0.405-1.076,0.672-1.631,0.8c-0.556,0.128-1.045,0.191-1.473,0.191c-1.131,0-1.995-0.256-2.592-0.768
	c-0.576-0.533-0.98-1.259-1.217-2.176c-0.17,0.363-0.372,0.725-0.607,1.088c-0.234,0.342-0.523,0.65-0.863,0.928
	c-0.32,0.277-0.705,0.502-1.152,0.672c-0.428,0.171-0.928,0.256-1.504,0.256c-0.684,0-1.355-0.127-2.016-0.383
	c-0.662-0.257-1.27-0.673-1.824-1.248c-0.533-0.576-0.972-1.334-1.313-2.272c-0.32-0.96-0.48-2.134-0.48-3.521
	c0-0.98,0.107-1.994,0.32-3.04c0.235-1.045,0.587-2.005,1.057-2.88c0.49-0.875,1.119-1.589,1.888-2.144
	c0.789-0.576,1.739-0.864,2.848-0.864c0.257,0,0.533,0.021,0.832,0.064c0.3,0.021,0.587,0.096,0.864,0.224
	c0.277,0.107,0.533,0.277,0.768,0.512c0.235,0.213,0.416,0.512,0.545,0.896V16H201.873z M197.266,19.072
	c-0.021-0.085-0.064-0.192-0.129-0.32c-0.063-0.149-0.16-0.288-0.287-0.416c-0.129-0.149-0.289-0.267-0.48-0.352
	c-0.192-0.106-0.416-0.16-0.672-0.16c-0.512,0-0.961,0.224-1.344,0.672c-0.363,0.427-0.662,0.971-0.896,1.632
	c-0.213,0.64-0.373,1.355-0.48,2.144c-0.106,0.768-0.16,1.503-0.16,2.208c0,1.131,0.086,2.016,0.257,2.655
	c0.171,0.619,0.372,1.077,0.608,1.376c0.256,0.277,0.522,0.448,0.799,0.512c0.277,0.043,0.513,0.064,0.705,0.064
	c0.234,0,0.469-0.053,0.703-0.16c0.256-0.128,0.48-0.309,0.672-0.544c0.213-0.234,0.385-0.522,0.513-0.864
	c0.128-0.362,0.192-0.778,0.192-1.248V19.072z M213.021,9.6v17.28c0,0.896,0.117,1.493,0.352,1.792
	c0.256,0.277,0.693,0.416,1.313,0.416c0.233,0,0.416-0.021,0.543-0.064c0.149-0.063,0.267-0.127,0.353-0.191
	c0.021,0.106,0.032,0.225,0.032,0.352c0,0.107,0,0.214,0,0.32c0,0.896-0.268,1.568-0.801,2.016
	c-0.512,0.448-1.162,0.672-1.951,0.672c-1.644,0-2.795-0.447-3.457-1.344c-0.661-0.917-0.991-2.123-0.991-3.615V10.24L213.021,9.6z"
	/>
<ellipse fill="#3A3431" cx="214.605" cy="29" rx="3.606" ry="4"/>
<line fill="none" stroke="#000000" stroke-opacity="0.3" x1="219.5" y1="2.5" x2="0" y2="2.5"/>
<line fill="none" stroke="#000000" stroke-opacity="0.3" x1="219.5" y1="12.5" x2="0" y2="12.5"/>
<line fill="none" stroke="#000000" stroke-opacity="0.3" x1="219.5" y1="22.5" x2="0" y2="22.5"/>
<line fill="none" stroke="#000000" stroke-opacity="0.3" x1="219.5" y1="32.5" x2="0" y2="32.5"/>
<line fill="none" stroke="#000000" stroke-opacity="0.3" x1="219.5" y1="42.5" x2="0" y2="42.5"/>
</svg>
