<svg width="41" height="56" viewBox="0 0 41 56" fill="none" xmlns="http://www.w3.org/2000/svg">
<path d="M41 35.5155C41 29.4246 36.9955 26.9473 32.3587 24.0786C28.6415 21.7789 27.7124 18.415 26.4271 13.7596C26.0687 12.4619 25.6981 11.1199 25.2302 9.64689C23.312 3.60638 18.2453 0 11.6764 0C6.27651 0 0 5.30848 0 12.1521V48.6338H1.15557V56H3.29004V55.5368H36.5544V56H38.6894V48.6338H41V35.5155ZM3.29004 54.9773V52.0268V49.6363H4.54791V54.7028H5.41669H5.69621H6.2849H6.56443H7.15367H7.4332H8.02244H8.30197H8.89066H9.17018H9.75943H10.039H10.6276H10.9072H11.4964H11.7759H12.3652H12.6447H13.2334H13.5129H14.1022H14.3817H14.9709H15.2505H15.8392H16.1187H16.7079H16.9875H17.5767H17.8562H18.4449H18.7244H19.3137H19.5932H20.1819H20.4614H21.0507H21.3302H21.9194H22.199H22.7877H23.0672H23.6564H23.936H24.5252H24.8047H25.3934H25.6729H26.2622H26.5417H27.131H27.4105H27.9992H28.2787H28.8679H29.1475H29.7362H30.0157H30.6049H30.8845H31.4737H31.7532H32.3419H32.6214H33.2107H33.4902H34.0795H34.359H34.9477H35.2272H36.096V49.6363H36.5404V52.0268V54.9773H3.29004ZM2.73098 55.4405H1.71462V48.6338H2.73098V49.0762V52.5869V55.4405ZM35.8148 54.4228H35.2255V49.6453H35.8148V54.4228ZM4.82744 49.6453H5.13045V52.714H5.41669V54.4222H4.82744V49.6453V49.6453ZM5.70292 52.4345H5.40998V49.6458H5.41669H5.69621H5.70292V52.4345ZM6.57114 52.4345H6.27819V49.6458H6.2849H6.56443H6.57114V52.4345ZM8.30812 52.4345H8.01518V49.6458H8.02188H8.30141H8.30812V52.4345ZM9.17689 52.4345H8.88395V49.6458H8.89066H9.17018H9.17689V52.4345ZM10.0457 52.4345H9.75272V49.6458H9.75943H10.039H10.0457V52.4345ZM11.7827 52.4345H11.4897V49.6458H11.4964H11.7759H11.7827V52.4345ZM12.6509 52.4345H12.3579V49.6458H12.3646H12.6442H12.6509V52.4345ZM14.3878 52.4345H14.0949V49.6458H14.1016H14.3811H14.3878V52.4345ZM15.2566 52.4345H14.9637V49.6458H14.9704H15.2499H15.2566V52.4345ZM16.1248 52.4345H15.8319V49.6458H15.8386H16.1181H16.1248V52.4345ZM17.5297 49.6453H17.5761H17.8227V52.4339H17.5297V49.6453ZM18.398 49.6453H18.4444H18.6909V52.4339H18.398V49.6453ZM20.1349 49.6453H20.1813H20.4279V52.4339H20.1349V49.6453ZM21.0031 49.6453H21.0496H21.2961V52.4339H21.0031V49.6453ZM21.8719 49.6453H21.9183H22.1649V52.4339H21.8719V49.6453ZM23.6089 49.6453H23.6553H23.9019V52.4339H23.6089V49.6453ZM24.4777 49.6453H24.5241H24.7706V52.4339H24.4777V49.6453ZM26.2147 49.6453H26.2611H26.5076V52.4339H26.2147V49.6453ZM27.0829 49.6453H27.1293H27.3758V52.4339H27.0829V49.6453ZM27.9516 49.6453H27.998H28.2446V52.4339H27.9516V49.6453V49.6453ZM30.0213 52.4345H29.7283V49.6458H29.735H30.0146H30.0213V52.4345ZM30.8895 52.4345H30.5965V49.6458H30.6032H30.8828H30.8895V52.4345ZM32.6265 52.4345H32.3335V49.6458H32.3402H32.6198H32.6265V52.4345ZM33.4952 52.4345H33.2023V49.6458H33.209H33.4885H33.4952V52.4345ZM34.3635 52.4345H34.0705V49.6458H34.0772H34.3567H34.3635V52.4345ZM5.69621 52.7145H5.98245V49.6458H5.99922V52.7145H6.28546V54.4228H5.69621V52.7145ZM6.56443 52.7145H6.85066V49.6458H7.15367V54.4234H6.56443V52.7145V52.7145ZM7.4332 49.6453H7.73621V52.714H8.02244V54.4222H7.4332V49.6453V49.6453ZM8.30197 52.7145H8.58821V49.6458H8.60442V52.7145H8.89066V54.4228H8.30197V52.7145ZM9.17018 52.7145H9.45642V49.6458H9.47263V52.7145H9.75887V54.4228H9.16963V52.7145H9.17018ZM10.039 52.7145H10.3252V49.6458H10.6276V54.4234H10.039V52.7145V52.7145ZM10.9072 49.6453H11.2102V52.714H11.4964V54.4222H10.9072V49.6453ZM11.7759 52.7145H12.0622V49.6458H12.0784V52.7145H12.3646V54.4228H11.7754V52.7145H11.7759ZM12.6442 52.7145H12.9304V49.6458H13.2334V54.4234H12.6447V52.7145H12.6442ZM13.5124 49.6453H13.8154V52.714H14.1016V54.4222H13.5124V49.6453ZM14.3811 52.7145H14.6674V49.6458H14.6836V52.7145H14.9698V54.4228H14.3806V52.7145H14.3811ZM15.2499 52.7145H15.5361V49.6458H15.5529V52.7145H15.8392V54.4228H15.2505V52.7145H15.2499ZM16.1181 52.7145H16.4044V49.6458H16.7074V54.4234H16.1181V52.7145ZM16.9869 49.6453H17.2502V52.714H17.5761V54.4222H16.9869V49.6453V49.6453ZM17.8557 52.7145H18.1022V49.6458H18.1184V52.7145H18.4444V54.4228H17.8557V52.7145ZM18.7239 52.7145H18.9704V49.6458H19.3126V54.4234H18.7233V52.7145H18.7239ZM19.5921 49.6453H19.8548V52.714H20.1808V54.4222H19.5921V49.6453ZM20.4609 52.7145H20.7074V49.6458H20.7236V52.7145H21.0496V54.4228H20.4609V52.7145ZM21.3291 52.7145H21.5756V49.6458H21.5918V52.7145H21.9178V54.4228H21.3285V52.7145H21.3291ZM22.1978 52.7145H22.4444V49.6458H22.7865V54.4234H22.1978V52.7145V52.7145ZM23.0661 49.6453H23.3294V52.714H23.6553V54.4222H23.0661V49.6453ZM23.9348 52.7145H24.1814V49.6458H24.1982V52.7145H24.5241V54.4228H23.9348V52.7145ZM24.8036 52.7145H25.0502V49.6458H25.3923V54.4234H24.8036V52.7145V52.7145ZM25.6718 49.6453H25.9351V52.714H26.2611V54.4222H25.6718V49.6453V49.6453ZM26.5406 52.7145H26.7871V49.6458H26.8039V52.7145H27.1298V54.4228H26.5406V52.7145ZM27.4088 52.7145H27.6553V49.6458H27.6716V52.7145H27.9975V54.4228H27.4088V52.7145V52.7145ZM28.2776 52.7145H28.5241V49.6458H28.8663V54.4234H28.277V52.7145H28.2776ZM29.1458 49.6453H29.4488V52.714H29.735V54.4222H29.1464V49.6453H29.1458ZM30.0146 52.7145H30.3008V49.6458H30.317V52.7145H30.6032V54.4228H30.014V52.7145H30.0146ZM30.8828 52.7145H31.169V49.6458H31.472V54.4234H30.8828V52.7145ZM31.7515 49.6453H32.0546V52.714H32.3408V54.4222H31.7521V49.6453H31.7515ZM32.6198 52.7145H32.906V49.6458H32.9222V52.7145H33.2084V54.4228H32.6192V52.7145H32.6198ZM33.4885 52.7145H33.7748V49.6458H33.791V52.7145H34.0772V54.4228H33.488V52.7145H33.4885ZM34.3573 52.7145H34.6435V49.6458H34.9465V54.4234H34.3579V52.7145H34.3573ZM36.5387 49.0762H3.29004V48.6338H36.5387V49.0762ZM38.1304 55.4405H37.1134V48.6338H38.1304V55.4405ZM36.5544 48.0737H3.29004H1.15557H0.559055V35.7955H40.4415V48.0737H38.69H36.5544ZM0.559055 35.2354V12.1527C0.559055 5.62436 6.53536 0.560644 11.6764 0.560644C17.9893 0.560644 22.857 4.02084 24.6979 9.81715C25.1625 11.2801 25.5321 12.617 25.8887 13.9097C27.2081 18.6878 28.1619 22.1401 32.0657 24.5558C36.4845 27.2895 40.3023 29.6649 40.4298 35.236H0.559055V35.2354Z" fill="black"/>
</svg>
