<?xml version="1.0" encoding="utf-8"?>
<!-- Generator: Adobe Illustrator 24.1.3, SVG Export Plug-In . SVG Version: 6.00 Build 0)  -->
<svg version="1.1" id="Layer_1" xmlns="http://www.w3.org/2000/svg" xmlns:xlink="http://www.w3.org/1999/xlink" x="0px" y="0px"
	 viewBox="0 0 100 100" style="enable-background:new 0 0 100 100;" xml:space="preserve">
<style type="text/css">
	.st0{fill:#75A1CE;}
</style>
<g id="colour">
	<path class="st0" d="M84.4,63.1c-0.2-1.6-0.4-3.3-2-4.2C80.7,58,78,58.4,76,58.4c-4.7,0-9.5,0-14.1,0c-9.5,0-19,0-28.5,0.2
		c-4.6,0-9.3,0-13.9,0c-0.9,0-1.6,0.5-2,1.1c-0.2,0-0.2,0.2-0.4,0.2c-1.6,1.1-1.5,3.3-1.5,5.1c0,2.2,0,4.4,0,6.6
		c0.2,3.5-0.7,8.9,4,9.5c2,0.4,4,0,6,0c2.4,0,4.9,0,7.3,0c4.7,0,9.5,0,14.2,0c9.5,0,18.8,0,28.3,0c2,0,4.4,0.4,6.4-0.2
		c2.2-0.7,2.6-2.4,2.6-4.4C85.3,72.1,84.9,67.5,84.4,63.1z"/>
</g>
<g id="Layer_1_1_">
	<path d="M83.6,59.8c0-9.9-6.6-13.9-13.9-18.4c-6-3.6-7.5-9.3-9.5-16.8c-0.7-2.2-1.1-4.2-2-6.6C55,8.2,46.8,2.4,36,2.4
		c-8.8,0-19,8.6-19,19.7v59.3h2v11.9h3.5v-0.7h54v0.7H80v-12h3.6C83.6,81.2,83.6,59.8,83.6,59.8z M22.5,91.6v-4.9v-3.8h2.2v8.2h1.5
		h0.5h0.9h0.5H29h0.4h0.7h0.5h0.9H32h0.9h0.4h0.9h0.5h0.9h0.5H37h0.5h0.9h0.5h0.9h0.5H41h1h1h0.5h0.9h0.4h0.9h0.5h0.9h0.5h0.9H49
		h0.9h0.5h0.9h0.5H53h0.5h0.9H55h0.9h0.5h0.9h0.5h0.9h0.5h0.9h0.5h0.9H62h0.4h0.5h0.9h0.5h0.9h0.4h0.9H67h0.9h0.5h0.7h0.5h0.9H71
		h0.9h0.5H74h0.5H76v-8.2h0.7v3.8v4.9H22.5z M21.4,92.1h-1.6V81.2h1.6v0.7v5.7V92.1z M75.3,90.5h-0.9v-7.8h0.9V90.5z M24.9,82.8h0.5
		v4.9h0.4v2.7h-0.9V82.8L24.9,82.8z M26.4,87.2h-0.5v-4.6l0,0h0.5l0,0C26.4,82.8,26.4,87.2,26.4,87.2z M27.8,87.2h-0.5v-4.6l0,0h0.5
		l0,0C27.8,82.8,27.8,87.2,27.8,87.2z M30.5,87.2H30v-4.6l0,0h0.5l0,0V87.2z M32,87.2h-0.5v-4.6l0,0H32l0,0V87.2z M33.3,87.2h-0.4
		v-4.6l0,0h0.4l0,0V87.2z M36.2,87.2h-0.5v-4.6l0,0h0.5l0,0V87.2z M37.7,87.2h-0.5v-4.6l0,0h0.5l0,0V87.2z M40.4,87.2h-0.5v-4.6l0,0
		h0.5l0,0V87.2z M41.9,87.2h-0.5v-4.6l0,0h0.5l0,0V87.2z M43.1,87.2h-0.5v-4.6l0,0h0.5l0,0V87.2z M45.5,82.8L45.5,82.8H46v4.6h-0.5
		V82.8z M47,82.8L47,82.8h0.5v4.6H47V82.8z M49.7,82.8L49.7,82.8h0.5v4.6h-0.5V82.8z M51.2,82.8L51.2,82.8h0.5v4.6h-0.5V82.8z
		 M52.6,82.8L52.6,82.8h0.5v4.6h-0.5V82.8z M55.4,82.8L55.4,82.8h0.5v4.6h-0.5V82.8z M56.8,82.8L56.8,82.8h0.5v4.6h-0.5V82.8z
		 M59.6,82.8L59.6,82.8h0.5v4.6h-0.5V82.8z M61,82.8L61,82.8h0.5v4.6H61V82.8z M62.5,82.8L62.5,82.8H63v4.6h-0.5V82.8L62.5,82.8z
		 M65.8,87.2h-0.5v-4.6l0,0h0.5l0,0V87.2z M67.2,87.2h-0.5v-4.6l0,0h0.5l0,0V87.2z M70,87.2h-0.5v-4.6l0,0H70l0,0V87.2z M71.4,87.2
		h-0.5v-4.6l0,0h0.5l0,0V87.2z M72.9,87.2h-0.5v-4.6l0,0h0.5l0,0V87.2z M26.4,87.8h0.5v-5.1l0,0v5.1h0.5v2.7h-0.9v-2.7H26.4z
		 M27.8,87.8h0.5v-5.1h0.5v7.8H28v-2.7C28,87.8,27.8,87.8,27.8,87.8z M29.1,82.8h0.5v4.9h0.5v2.7h-0.9v-7.7L29.1,82.8L29.1,82.8z
		 M30.5,87.8H31v-5.1l0,0v5.1h0.5v2.7h-0.9v-2.7H30.5z M32,87.8h0.5v-5.1l0,0v5.1H33v2.7h-0.9L32,87.8L32,87.8z M33.3,87.8h0.5v-5.1
		h0.5v7.8h-0.9L33.3,87.8C33.4,87.8,33.3,87.8,33.3,87.8z M34.7,82.8h0.5v4.9h0.5v2.7h-0.9L34.7,82.8L34.7,82.8L34.7,82.8z
		 M36.2,87.8h0.5v-5.1l0,0v5.1h0.5v2.7h-0.9L36.2,87.8L36.2,87.8z M37.5,87.8H38v-5.1h0.5v7.8h-0.9L37.5,87.8
		C37.6,87.8,37.5,87.8,37.5,87.8z M38.9,82.8h0.5v4.9H40v2.7h-0.9v-7.7L38.9,82.8L38.9,82.8z M40.4,87.8h0.5v-5.1l0,0v5.1h0.5v2.7
		h-1.1L40.4,87.8L40.4,87.8z M41.7,87.8h0.5v-5.1l0,0v5.1h0.5v2.7h-0.9L41.7,87.8L41.7,87.8z M43.1,87.8h0.5v-5.1h0.5v7.8h-0.9
		C43.1,90.5,43.1,87.8,43.1,87.8z M44.6,82.8h0.5v4.9h0.5v2.7h-0.9L44.6,82.8L44.6,82.8L44.6,82.8z M46.1,87.8h0.4v-5.1l0,0v5.1H47
		v2.7h-0.9V87.8L46.1,87.8z M47.5,87.8H48v-5.1h0.5v7.8h-0.9L47.5,87.8L47.5,87.8z M49,82.8h0.5v4.9H50v2.7h-0.9
		C49,90.5,49,82.8,49,82.8z M50.4,87.8h0.4v-5.1l0,0v5.1h0.5v2.7h-0.9V87.8L50.4,87.8z M51.7,87.8h0.4v-5.1l0,0v5.1h0.5v2.7h-0.9
		V87.8L51.7,87.8z M53.2,87.8h0.4v-5.1h0.5v7.8h-0.9V87.8L53.2,87.8z M54.6,82.8H55v4.9h0.5v2.7h-0.9V82.8z M55.9,87.8h0.4v-5.1l0,0
		v5.1h0.5v2.7h-0.9V87.8L55.9,87.8z M57.4,87.8h0.4v-5.1h0.5v7.8h-0.9V87.8L57.4,87.8z M58.8,82.8h0.5v4.9h0.5v2.7H59L58.8,82.8
		L58.8,82.8z M60.1,87.8h0.4v-5.1l0,0v5.1H61v2.7h-0.9V87.8L60.1,87.8z M61.6,87.8H62v-5.1l0,0v5.1h0.7v2.7h-0.9v-2.7H61.6z
		 M63,87.8h0.4v-5.1h0.5v7.8H63V87.8L63,87.8z M64.3,82.8h0.5v4.9h0.5v2.7h-0.9L64.3,82.8L64.3,82.8L64.3,82.8z M65.8,87.8h0.5v-5.1
		l0,0v5.1h0.5v2.7h-0.9L65.8,87.8L65.8,87.8z M67.2,87.8h0.5v-5.1h0.5v7.8h-0.9C67.2,90.5,67.2,87.8,67.2,87.8z M68.7,82.8h0.5v4.9
		h0.4v2.7h-0.9V82.8L68.7,82.8z M70,87.8h0.5v-5.1l0,0v5.1H71v2.7h-0.9L70,87.8L70,87.8z M71.4,87.8H72v-5.1l0,0v5.1h0.5v2.7h-1.1
		V87.8L71.4,87.8z M72.9,87.8h0.5v-5.1H74v7.8h-0.9v-2.7C73.1,87.8,72.9,87.8,72.9,87.8z M76.3,81.9H22.5v-0.7h53.8V81.9z
		 M78.9,92.1h-1.6V81.2h1.6V92.1z M74.8,79.5H22.7h-3.4h-0.9V61.3H81v18.2h-2.8H74.8z M18.4,59.6V23c0-10.4,9.4-18.4,17.5-18.4
		c9.9,0,17.6,5.6,20.5,14.8c0.7,2.4,1.3,4.5,2,6.5c2.2,7.6,3.5,13,9.7,16.9c6.9,4.3,12.8,8,13.2,17L18.4,59.6L18.4,59.6z"/>
</g>
</svg>
