<?xml version="1.0" encoding="utf-8"?>
<!-- Generator: Adobe Illustrator 24.1.3, SVG Export Plug-In . SVG Version: 6.00 Build 0)  -->
<svg version="1.1" xmlns="http://www.w3.org/2000/svg" xmlns:xlink="http://www.w3.org/1999/xlink" x="0px" y="0px"
	 viewBox="0 0 41 56" style="enable-background:new 0 0 41 56;" xml:space="preserve">
<style type="text/css">
	.st0{fill:#75A1CE;}
</style>
<g id="colour">
	<path class="st0" d="M41.5,37.5c-0.1-1-0.2-2-1.2-2.6c-1-0.6-2.7-0.3-3.9-0.3c-2.9,0-5.8,0-8.7,0c-5.8,0-11.7,0-17.5,0.1
		c-2.8,0-5.7,0-8.5,0c-0.6,0-1,0.3-1.2,0.7c-0.1,0-0.1,0.1-0.2,0.1c-1,0.7-0.9,2-0.9,3.1c0,1.3,0,2.7,0,4c0.1,2.1-0.4,5.5,2.5,5.9
		c1.2,0.2,2.5,0,3.7,0c1.5,0,3,0,4.5,0c2.9,0,5.9,0,8.8,0c5.8,0,11.6,0,17.4,0c1.2,0,2.7,0.2,3.9-0.1c1.3-0.4,1.6-1.5,1.6-2.7
		C42,43,41.8,40.2,41.5,37.5z"/>
</g>
<g id="Layer_1">
	<path d="M41,35.5c0-6.1-4-8.6-8.6-11.4c-3.7-2.3-4.6-5.7-5.9-10.3c-0.4-1.3-0.7-2.6-1.2-4.1c-1.9-6-7-9.6-13.6-9.6
		C6.3,0,0,5.3,0,12.2v36.5h1.2V56h2.1v-0.5h33.3V56h2.1v-7.4H41V35.5z M3.3,55v-3v-2.4h1.3v5.1h0.9h0.3h0.6h0.3h0.6h0.3H8h0.3h0.6
		h0.3h0.6H10h0.6h0.3h0.6h0.3h0.6h0.3h0.6h0.3h0.6h0.3H15h0.3h0.6h0.3h0.6H17h0.6h0.3h0.6h0.3h0.6h0.3h0.6h0.3h0.6h0.3h0.6h0.3h0.6
		h0.3h0.6h0.3h0.6h0.3h0.6h0.3h0.6h0.3h0.6h0.3H28h0.3h0.6h0.3h0.6H30h0.6h0.3h0.6h0.3h0.6h0.3h0.6h0.3h0.6h0.3h0.6h0.3h0.9v-5.1
		h0.4V52v3H3.3z M2.7,55.4h-1v-6.8h1v0.4v3.5V55.4z M35.8,54.4h-0.6v-4.8h0.6V54.4z M4.8,49.6h0.3v3.1h0.3v1.7H4.8V49.6L4.8,49.6z
		 M5.7,52.4H5.4v-2.8h0h0.3h0V52.4z M6.6,52.4H6.3v-2.8h0h0.3h0V52.4z M8.3,52.4H8v-2.8h0h0.3h0V52.4z M9.2,52.4H8.9v-2.8h0h0.3h0
		V52.4z M10,52.4H9.8v-2.8h0H10h0V52.4z M11.8,52.4h-0.3v-2.8h0h0.3h0V52.4z M12.7,52.4h-0.3v-2.8h0h0.3h0V52.4z M14.4,52.4h-0.3
		v-2.8h0h0.3h0V52.4z M15.3,52.4H15v-2.8h0h0.3h0V52.4z M16.1,52.4h-0.3v-2.8h0h0.3h0V52.4z M17.5,49.6L17.5,49.6h0.3v2.8h-0.3V49.6
		z M18.4,49.6L18.4,49.6h0.3v2.8h-0.3V49.6z M20.1,49.6L20.1,49.6h0.3v2.8h-0.3V49.6z M21,49.6L21,49.6h0.3v2.8H21V49.6z M21.9,49.6
		L21.9,49.6h0.3v2.8h-0.3V49.6z M23.6,49.6L23.6,49.6h0.3v2.8h-0.3V49.6z M24.5,49.6L24.5,49.6h0.3v2.8h-0.3V49.6z M26.2,49.6
		L26.2,49.6h0.3v2.8h-0.3V49.6z M27.1,49.6L27.1,49.6h0.3v2.8h-0.3V49.6z M28,49.6L28,49.6h0.3v2.8H28V49.6L28,49.6z M30,52.4h-0.3
		v-2.8h0H30h0V52.4z M30.9,52.4h-0.3v-2.8h0h0.3h0V52.4z M32.6,52.4h-0.3v-2.8h0h0.3h0V52.4z M33.5,52.4h-0.3v-2.8h0h0.3h0V52.4z
		 M34.4,52.4h-0.3v-2.8h0h0.3h0V52.4z M5.7,52.7H6v-3.1h0v3.1h0.3v1.7H5.7V52.7z M6.6,52.7h0.3v-3.1h0.3v4.8H6.6V52.7L6.6,52.7z
		 M7.4,49.6h0.3v3.1H8v1.7H7.4V49.6L7.4,49.6z M8.3,52.7h0.3v-3.1h0v3.1h0.3v1.7H8.3V52.7z M9.2,52.7h0.3v-3.1h0v3.1h0.3v1.7H9.2
		L9.2,52.7L9.2,52.7z M10,52.7h0.3v-3.1h0.3v4.8H10V52.7L10,52.7z M10.9,49.6h0.3v3.1h0.3v1.7h-0.6V49.6z M11.8,52.7h0.3v-3.1h0v3.1
		h0.3v1.7h-0.6L11.8,52.7L11.8,52.7z M12.6,52.7h0.3v-3.1h0.3v4.8h-0.6L12.6,52.7L12.6,52.7z M13.5,49.6h0.3v3.1h0.3v1.7h-0.6V49.6z
		 M14.4,52.7h0.3v-3.1h0v3.1H15v1.7h-0.6L14.4,52.7L14.4,52.7z M15.2,52.7h0.3v-3.1h0v3.1h0.3v1.7h-0.6L15.2,52.7L15.2,52.7z
		 M16.1,52.7h0.3v-3.1h0.3v4.8h-0.6V52.7z M17,49.6h0.3v3.1h0.3v1.7H17V49.6L17,49.6z M17.9,52.7h0.2v-3.1h0v3.1h0.3v1.7h-0.6V52.7z
		 M18.7,52.7H19v-3.1h0.3v4.8h-0.6L18.7,52.7L18.7,52.7z M19.6,49.6h0.3v3.1h0.3v1.7h-0.6V49.6z M20.5,52.7h0.2v-3.1h0v3.1H21v1.7
		h-0.6V52.7z M21.3,52.7h0.2v-3.1h0v3.1h0.3v1.7h-0.6L21.3,52.7L21.3,52.7z M22.2,52.7h0.2v-3.1h0.3v4.8h-0.6V52.7L22.2,52.7z
		 M23.1,49.6h0.3v3.1h0.3v1.7h-0.6V49.6z M23.9,52.7h0.2v-3.1h0v3.1h0.3v1.7h-0.6V52.7z M24.8,52.7h0.2v-3.1h0.3v4.8h-0.6V52.7
		L24.8,52.7z M25.7,49.6h0.3v3.1h0.3v1.7h-0.6V49.6L25.7,49.6z M26.5,52.7h0.2v-3.1h0v3.1h0.3v1.7h-0.6V52.7z M27.4,52.7h0.2v-3.1h0
		v3.1H28v1.7h-0.6V52.7L27.4,52.7z M28.3,52.7h0.2v-3.1h0.3v4.8h-0.6L28.3,52.7L28.3,52.7z M29.1,49.6h0.3v3.1h0.3v1.7h-0.6
		L29.1,49.6L29.1,49.6z M30,52.7h0.3v-3.1h0v3.1h0.3v1.7H30L30,52.7L30,52.7z M30.9,52.7h0.3v-3.1h0.3v4.8h-0.6V52.7z M31.8,49.6
		h0.3v3.1h0.3v1.7h-0.6L31.8,49.6L31.8,49.6z M32.6,52.7h0.3v-3.1h0v3.1h0.3v1.7h-0.6L32.6,52.7L32.6,52.7z M33.5,52.7h0.3v-3.1h0
		v3.1h0.3v1.7h-0.6L33.5,52.7L33.5,52.7z M34.4,52.7h0.3v-3.1h0.3v4.8h-0.6L34.4,52.7L34.4,52.7z M36.5,49.1H3.3v-0.4h33.2V49.1z
		 M38.1,55.4h-1v-6.8h1V55.4z M36.6,48.1H3.3H1.2H0.6V35.8h39.9v12.3h-1.8H36.6z M0.6,35.2V12.2c0-6.5,6-11.6,11.1-11.6
		c6.3,0,11.2,3.5,13,9.3c0.5,1.5,0.8,2.8,1.2,4.1c1.3,4.8,2.3,8.2,6.2,10.6c4.4,2.7,8.2,5.1,8.4,10.7L0.6,35.2L0.6,35.2z"/>
</g>
</svg>
