<?xml version="1.0" encoding="utf-8"?>
<!-- Generator: Adobe Illustrator 24.1.3, SVG Export Plug-In . SVG Version: 6.00 Build 0)  -->
<svg version="1.1" xmlns="http://www.w3.org/2000/svg" xmlns:xlink="http://www.w3.org/1999/xlink" x="0px" y="0px"
	 viewBox="0 0 47 50" style="enable-background:new 0 0 47 50;" xml:space="preserve">
<style type="text/css">
	.st0{fill:#FFD761;}
</style>
<g id="colour">
	<path class="st0" d="M45.2,20c-0.9-1-2.2-1.6-3.4-2.2c-1.3-0.7-2.7-1.2-4.1-1.7c-1.4-0.4-2.9-0.7-4.4-0.7c-1.4,0-3.1,0.2-3.6,1.7
		c-0.6,1.7,0.8,3.4,1.9,4.5c0,0,0.1,0.1,0.1,0.1c0.1,0.2,0.3,0.3,0.5,0.4c0.1,0.1,0.3,0.3,0.3,0.4c0,0.1-0.1,0.1-0.1,0.2
		c-0.8,2.8-1,5.7-0.6,8.6c0.4,2.9,1.9,5.1,2.9,7.8c0.2,0.5,0.2,1.2,0.4,1.7c-0.2-0.1-0.5-0.2-0.6-0.3c-1.1-0.6-2.3-1.3-3.1-2.4
		c-0.8-1.1-1.2-2.5-1.7-3.7c-0.6-1.4-1.4-2.7-2-4c-1.4-2.8-2.5-5.8-3.6-8.7c-0.5-1.4-1-2.7-1.5-4.1c-0.2-0.6-0.5-1.3-0.4-1.9
		c0.1-0.8,0.7-1.4,0.8-2.3c0.1-1.4-0.6-2.8-1.1-4c-0.6-1.4-1.3-2.9-2.1-4.2c-1.1-2.1-2.5-5-5.1-5.3c-3.2-0.4-4.9,2.7-7,4.5
		C6.4,5.4,5,5.6,3.7,6.3C2.4,7,1.5,8.3,0.2,9.1c-1.6,1-0.1,3.6,1.5,2.6c0,0,0.1,0,0.1,0C5,12,7.6,10.1,10,8.3
		c0.6-0.5,1.2-0.9,1.9-1.4C12.2,6.6,12.8,6.4,13,6l0.4-0.3c-0.2-0.3-0.1-0.3,0.1,0.1c0.7,1.5,1.3,3.2,1.9,4.7
		c2.4,6.4,4.4,12.9,6.7,19.2c1.1,3.1,2.4,6.2,3.7,9.2c1.2,2.6,2.4,5.3,4.6,7.2c3.7,3.4,10.8,3.7,12.5-1.9c0.9-2.8-0.1-6.1-1.6-8.6
		c-0.2-0.4-0.5-0.7-0.7-1.1c-0.2-0.5-0.4-1.1-0.7-1.5c0-0.1,0-0.1,0-0.2c-0.7-2.8-0.2-5.5,1.5-7.9c0.1-0.1,0.1-0.2,0.2-0.3
		c0,0,0.1,0,0.1,0c1.4,0.2,3,0.6,4.1-0.6C46.8,23,46.2,21.1,45.2,20z M41.5,21.8c-2.6-0.5-5.2-1.3-7.8-2.2c0,0-0.1-0.1-0.1-0.1
		c-0.3-0.3-0.6-0.6-0.8-1c0.3,0,0.6,0,0.8,0c0.5,0,1.1,0.1,1.6,0.2c2.3,0.4,4.4,1.4,6.4,2.5c0.4,0.2,0.8,0.4,1.1,0.7
		c0,0,0.1,0.1,0.2,0.2C42.5,22,42,21.9,41.5,21.8z"/>
</g>
<g id="Layer_1">
	<path d="M37.6,34.7c-1,0-1.9,0.9-1.9,1.9c0,1,0.9,1.9,1.9,1.9c1,0,1.9-0.9,1.9-1.9C39.5,35.6,38.6,34.7,37.6,34.7z M37.6,38
		c-0.8,0-1.4-0.6-1.4-1.4c0-0.8,0.6-1.4,1.4-1.4c0.8,0,1.4,0.6,1.4,1.4C39,37.4,38.4,38,37.6,38z M37.5,32.4c0-1-0.9-1.9-1.9-1.9
		c-1,0-1.9,0.9-1.9,1.9c0,1,0.9,1.9,1.9,1.9C36.7,34.3,37.5,33.5,37.5,32.4z M35.6,33.8c-0.8,0-1.4-0.6-1.4-1.4
		c0-0.8,0.6-1.4,1.4-1.4c0.8,0,1.4,0.6,1.4,1.4C37,33.2,36.4,33.8,35.6,33.8z M39,17.4c-3-1.1-5.1-1.6-6.5-1.6
		c-1.4,0-2.3,0.5-2.9,1.6c-0.3,0.6-0.3,1.2-0.1,1.8c0.4,1.1,1.7,2,2.5,2.5c-0.2,0.9-0.6,2.6-0.9,4.7c-0.1,1-0.2,2-0.1,3
		c-0.2-0.3-0.5-0.5-0.8-0.6c0.1-0.2,0.1-0.5,0.1-0.8c0-0.9-0.6-1.8-1.4-2.1c0.1-0.2,0.1-0.5,0.1-0.7c0-1-0.6-1.8-1.4-2.1
		c0.1-0.2,0.1-0.5,0.1-0.8c0-1-0.6-1.8-1.4-2.1c0.1-0.2,0.1-0.5,0.1-0.7c0-1-0.6-1.8-1.4-2.1c0.1-0.3,0.2-0.5,0.2-0.8
		c0-1.1-0.8-2-1.8-2.2c-0.5-1.2-0.8-2-0.8-2c-0.1-0.3-3.3-8.1-4.9-10.2C16.6,0.3,15.3,0,14.2,0L14,0c-1.4,0-3.1,1.5-3.6,2.2
		C9.8,3.1,8.8,4.1,8.1,4.8c-0.6,0.5-1.4,0.9-1.7,1c-0.2,0-0.5,0-0.8,0c-0.4,0-0.8,0-1,0.1C4.4,5.9,3.7,6.1,1.2,9L0,10.4l1.9,0.2
		l4.3,0.4l0.5,0L7,10.8L7.9,10c0.6-0.4,4.2-3,5.2-3.6c0.3-0.2,0.4-0.3,0.5-0.3c0,0.1,0.1,0.2,0.3,0.5c1,2.7,13.6,35.9,14.8,38.3
		c1.5,2.8,4.1,4.5,7.1,4.5c1.4,0,2.8-0.4,4.3-1.1c3.2-1.5,4.5-5.8,3.6-8.6c-0.4-1.3-1.1-2.6-1.7-3.9c-1-2.1-2.1-4.4-1.8-5.8
		c0.4-2.4,1.4-4.2,1.9-5c0.4,0.1,0.8,0.1,1.3,0.1c2.2,0,2.8-1.2,3-1.8C47.1,20.7,42.5,18.7,39,17.4z M23.1,15.5c0.6,0,1,0.5,1,1
		c0,0.6-0.5,1-1,1c-0.6,0-1-0.5-1-1C22,15.9,22.5,15.5,23.1,15.5z M24.4,18.4c0.6,0,1,0.5,1,1c0,0.6-0.5,1-1,1s-1-0.5-1-1
		C23.3,18.9,23.8,18.4,24.4,18.4z M25.7,21.3c0.6,0,1,0.5,1,1c0,0.6-0.5,1-1,1c-0.6,0-1-0.5-1-1C24.6,21.7,25.1,21.3,25.7,21.3z
		 M26.9,24.1c0.6,0,1,0.5,1,1c0,0.6-0.5,1-1,1c-0.6,0-1-0.5-1-1C25.9,24.6,26.4,24.1,26.9,24.1z M28.2,27c0.6,0,1,0.5,1,1
		c0,0.6-0.5,1-1,1s-1-0.5-1-1C27.2,27.4,27.7,27,28.2,27z M29.1,29.3C29.1,29.3,29.1,29.3,29.1,29.3c0,0.1-0.1,0.1-0.1,0.1
		C29,29.3,29.1,29.3,29.1,29.3z M29.4,29.8c0.6,0,1,0.5,1,1c0,0.6-0.5,1-1,1s-1-0.5-1-1C28.3,30.3,28.8,29.8,29.4,29.8z M30.7,32.7
		c0.6,0,1,0.5,1,1s-0.5,1-1,1c-0.6,0-1-0.5-1-1S30.1,32.7,30.7,32.7z M32,35.5c0.6,0,1,0.5,1,1c0,0.6-0.5,1-1,1c-0.6,0-1-0.5-1-1
		C30.9,36,31.4,35.5,32,35.5z M45.4,23.1c-0.3,0.9-1.2,1.1-2.1,1.1c-0.9,0-1.8-0.3-1.8-0.3s-1.8,2.3-2.4,5.9
		c-0.5,2.6,2.4,6.6,3.6,10.1c0.7,2.2-0.2,6-3,7.4c-1.3,0.6-2.6,1-3.8,1c-2.7,0-4.9-1.5-6.3-3.9C28.3,42.1,16.1,9.8,14.7,6.2
		C14.5,5.6,14.1,5,13.5,5c-0.3,0-0.7,0.1-1.1,0.5c-1,0.7-5.2,3.7-5.2,3.7l-0.9,0.9L2,9.6c0,0,2.3-2.7,2.9-2.9c0.1,0,0.4-0.1,0.7-0.1
		c0.5,0,1,0,1,0s1.3-0.4,2.3-1.3c0.7-0.6,1.7-1.7,2.4-2.7C11.7,2.1,13.2,1,14,1c0.1,0,0.1,0,0.2,0C15,1,16,1.1,17.1,2.7
		c1.5,2.1,4.8,10,4.8,10s0.3,0.9,0.9,2.3c-0.7,0.1-1.2,0.8-1.2,1.5c0,0.9,0.7,1.5,1.5,1.5c0.3,0,0.6-0.1,0.9-0.3
		c0,0.1,0.1,0.1,0.1,0.2c-0.7,0.2-1.2,0.8-1.2,1.5c0,0.9,0.7,1.5,1.5,1.5c0.3,0,0.6-0.1,0.9-0.3c0,0,0,0.1,0.1,0.1
		c-0.7,0.2-1.2,0.8-1.2,1.5c0,0.9,0.7,1.5,1.5,1.5c0.3,0,0.7-0.1,0.9-0.3c0,0,0,0.1,0.1,0.1c-0.7,0.1-1.2,0.8-1.2,1.5
		c0,0.9,0.7,1.5,1.5,1.5c0.3,0,0.7-0.1,0.9-0.3c0,0,0,0.1,0,0.1c-0.7,0.2-1.2,0.8-1.2,1.5c0,0.9,0.7,1.5,1.5,1.5
		c0.1,0,0.3,0,0.4-0.1c-0.5,0.3-0.8,0.8-0.8,1.3c0,0.9,0.7,1.5,1.5,1.5c0.4,0,0.7-0.1,1-0.3c0,0.1,0,0.1,0.1,0.2
		c-0.7,0.1-1.3,0.8-1.3,1.5c0,0.9,0.7,1.5,1.5,1.5c0.3,0,0.7-0.1,0.9-0.3c0,0,0,0.1,0.1,0.1c-0.7,0.1-1.2,0.8-1.2,1.5
		c0,0.9,0.7,1.5,1.5,1.5c0.3,0,0.7-0.1,0.9-0.3c0.6,1.3,1.2,2.4,1.6,3.1c0.6,0.9,1.2,1.3,1.6,1.3c0.8,0,1.1-1.3,0.1-2.8
		c-0.9-1.5-4.8-7.2-4-12.8c0.5-3.3,1.1-5.4,1.1-5.4s-3.5-1.6-2.7-3.3c0.3-0.6,0.8-1,2-1c1.2,0,3.1,0.4,6.2,1.5
		C44.2,20.3,45.7,21.9,45.4,23.1z M34,37.7C34,37.7,34,37.7,34,37.7c0.4,0.7,0.9,1.4,1.3,2.1l0.1,0.1c0.3,0.4,0.4,0.8,0.5,1
		c-0.1-0.1-0.3-0.3-0.5-0.6C35,39.9,34.5,39,34,37.7z M42.9,20.7c-1.1-0.7-2.6-1.4-4.3-2c-1.7-0.6-3.3-1.1-4.6-1.2
		c-1.4-0.2-2.2-0.1-2.4,0.4c-0.2,0.5,0.3,1.1,1.6,1.9c1.1,0.7,2.6,1.4,4.3,2c1.7,0.6,3.3,1.1,4.6,1.2c0.4,0.1,0.8,0.1,1.1,0.1
		c0.7,0,1.2-0.2,1.3-0.5C44.7,22.1,44.1,21.5,42.9,20.7z M44,22.4c0,0.1-0.4,0.3-1.9,0.1c-1.2-0.2-2.8-0.6-4.5-1.2
		c-1.6-0.6-3.1-1.3-4.2-2c-1.2-0.8-1.4-1.2-1.4-1.3c0-0.1,0.2-0.2,0.8-0.2c0.3,0,0.6,0,1.1,0.1c1.2,0.2,2.8,0.6,4.5,1.2
		c1.6,0.6,3.1,1.3,4.2,2C43.9,21.9,44,22.3,44,22.4z"/>
</g>
</svg>
