<svg width="47" height="50" viewBox="0 0 47 50" fill="none" xmlns="http://www.w3.org/2000/svg">
<path d="M37.5999 34.7366C36.551 34.7366 35.6985 35.5897 35.6985 36.638C35.6985 37.6863 36.551 38.5389 37.5999 38.5389C38.6487 38.5389 39.5012 37.6863 39.5012 36.638C39.5012 35.5897 38.6487 34.7366 37.5999 34.7366ZM37.5999 38.0389C36.8274 38.0389 36.1985 37.4105 36.1985 36.638C36.1985 35.8651 36.8274 35.2366 37.5999 35.2366C38.3723 35.2366 39.0012 35.8651 39.0012 36.638C39.0012 37.4105 38.3723 38.0389 37.5999 38.0389ZM37.5305 32.4036C37.5305 31.3553 36.678 30.5023 35.6301 30.5023C34.5813 30.5023 33.7288 31.3553 33.7288 32.4036C33.7288 33.452 34.5813 34.3045 35.6301 34.3045C36.678 34.3045 37.5305 33.452 37.5305 32.4036ZM35.6301 33.8045C34.8577 33.8045 34.2288 33.1761 34.2288 32.4036C34.2288 31.6307 34.8577 31.0023 35.6301 31.0023C36.4026 31.0023 37.0305 31.6307 37.0305 32.4036C37.0305 33.1761 36.4026 33.8045 35.6301 33.8045ZM39.0342 17.4091C36.0063 16.3228 33.9428 15.8169 32.5402 15.8169C31.1342 15.8169 30.1962 16.3386 29.6727 17.412C29.401 17.9689 29.3706 18.5786 29.5848 19.1753C29.9949 20.3175 31.2445 21.1977 32.0923 21.6838C31.87 22.6019 31.5073 24.2646 31.2061 26.4203C31.0702 27.3931 31.0525 28.4021 31.1524 29.4456C30.9457 29.191 30.6855 28.9815 30.3892 28.8343C30.4813 28.5885 30.5298 28.3271 30.5298 28.0602C30.5298 27.1113 29.9501 26.2953 29.1262 25.9476C29.1996 25.725 29.2381 25.4913 29.2381 25.2542C29.2381 24.2955 28.6465 23.4725 27.8092 23.131C27.8991 22.887 27.9465 22.6282 27.9465 22.365C27.9465 21.4093 27.3583 20.5884 26.5251 20.245C26.6101 20.0077 26.6548 19.7566 26.6548 19.5006C26.6548 18.5353 26.0549 17.7075 25.2083 17.3705C25.3096 17.114 25.3631 16.8397 25.3631 16.5593C25.3631 15.4716 24.6014 14.5585 23.5836 14.3253C23.0683 13.0824 22.7722 12.3283 22.7703 12.3235C22.6301 11.9813 19.4518 4.25195 17.9001 2.10333C16.5652 0.254822 15.3367 0 14.208 0L14.0148 0.00140387C12.6349 0.0183106 10.9609 1.47736 10.4114 2.21796C9.76123 3.09424 8.77936 4.13129 8.09467 4.77026C7.51965 5.30695 6.73425 5.62268 6.40479 5.73907C6.20294 5.72522 5.88446 5.70758 5.57404 5.70758C5.12494 5.70758 4.81891 5.74316 4.58185 5.82294C4.37183 5.89362 3.73254 6.10876 1.24829 8.99475L0 10.4449L1.9032 10.6418L6.22498 11.0891L6.70099 11.1384L7.03796 10.7986L7.86523 9.96448C8.45416 9.55444 12.0998 7.0144 13.0228 6.32214C13.2864 6.12445 13.4409 6.06726 13.5056 6.05078C13.5514 6.10126 13.6516 6.23926 13.7765 6.57727C14.7657 9.25275 27.3304 42.4412 28.6237 44.8676C30.1404 47.713 32.7448 49.3448 35.769 49.3448C37.1769 49.3448 38.6178 48.9902 40.0515 48.2908C43.2234 46.7435 44.542 42.4879 43.6017 39.7166C43.169 38.441 42.5354 37.1241 41.9227 35.8504C40.8914 33.7068 39.8251 31.4901 40.0765 30.0897C40.5084 27.6846 41.4617 25.918 41.9761 25.0986C42.344 25.1647 42.8157 25.2257 43.304 25.2257C45.4565 25.2257 46.1188 24.0717 46.3221 23.3837C47.1266 20.6608 42.5481 18.6699 39.0342 17.4091ZM23.0715 15.4544C23.6458 15.4544 24.1135 15.9217 24.1135 16.4964C24.1135 17.0706 23.6458 17.5379 23.0715 17.5379C22.4973 17.5379 22.0295 17.0706 22.0295 16.4964C22.0295 15.9217 22.4973 15.4544 23.0715 15.4544ZM24.3635 18.3958C24.9377 18.3958 25.4045 18.8631 25.4045 19.4378C25.4045 20.012 24.9377 20.4793 24.3635 20.4793C23.7893 20.4793 23.3215 20.012 23.3215 19.4378C23.3215 18.8631 23.7893 18.3958 24.3635 18.3958ZM25.6545 21.2606C26.2288 21.2606 26.6965 21.7278 26.6965 22.3021C26.6965 22.8763 26.2288 23.3436 25.6545 23.3436C25.0803 23.3436 24.6135 22.8763 24.6135 22.3021C24.6135 21.7278 25.0803 21.2606 25.6545 21.2606ZM26.9465 24.1492C27.5208 24.1492 27.9885 24.6165 27.9885 25.1912C27.9885 25.7654 27.5208 26.2327 26.9465 26.2327C26.3723 26.2327 25.9045 25.7654 25.9045 25.1912C25.9045 24.6165 26.3723 24.1492 26.9465 24.1492ZM28.2385 26.9554C28.8127 26.9554 29.2795 27.4227 29.2795 27.9974C29.2795 28.5716 28.8127 29.0389 28.2385 29.0389C27.6643 29.0389 27.1965 28.5716 27.1965 27.9974C27.1965 27.4227 27.6643 26.9554 28.2385 26.9554ZM29.1232 29.2557C29.1307 29.2728 29.138 29.2895 29.1455 29.3065C29.0884 29.3151 29.0331 29.3266 28.9783 29.3412C29.0276 29.3139 29.0773 29.288 29.1232 29.2557ZM29.3733 29.7835C29.9475 29.7835 30.4143 30.2508 30.4143 30.825C30.4143 31.3997 29.9475 31.867 29.3733 31.867C28.7991 31.867 28.3313 31.3997 28.3313 30.825C28.3313 30.2508 28.7991 29.7835 29.3733 29.7835ZM30.6643 32.6536C31.2385 32.6536 31.7063 33.1209 31.7063 33.6951C31.7063 34.2693 31.2385 34.7366 30.6643 34.7366C30.0901 34.7366 29.6233 34.2693 29.6233 33.6951C29.6233 33.1209 30.0901 32.6536 30.6643 32.6536ZM31.9563 35.5233C32.5305 35.5233 32.9983 35.9905 32.9983 36.5652C32.9983 37.1395 32.5305 37.6068 31.9563 37.6068C31.3821 37.6068 30.9143 37.1395 30.9143 36.5652C30.9143 35.9905 31.3821 35.5233 31.9563 35.5233ZM45.3631 23.1004C45.0983 23.9968 44.1769 24.2257 43.304 24.2257C42.3916 24.2257 41.5322 23.9754 41.5322 23.9754C41.5322 23.9754 39.7469 26.2672 39.0923 29.9129C38.6188 32.5496 41.4673 36.5379 42.6548 40.0379C43.4037 42.2454 42.4288 46.0186 39.6131 47.3921C38.2808 48.042 36.9828 48.3448 35.769 48.3448C33.0919 48.3448 30.825 46.8712 29.5062 44.3972C28.2827 42.1018 16.0526 9.84973 14.7145 6.23053C14.4752 5.58344 14.1326 5.04419 13.5411 5.04419C13.2395 5.04419 12.8731 5.18445 12.4229 5.52216C11.4421 6.25769 7.2193 9.19568 7.2193 9.19568L6.32794 10.0944L2.00616 9.64716C2.00616 9.64716 4.31152 6.96906 4.90088 6.77069C5.04352 6.72266 5.30328 6.70758 5.57404 6.70758C6.03473 6.70758 6.52698 6.75134 6.52698 6.75134C6.52698 6.75134 7.83948 6.37634 8.77698 5.50134C9.44012 4.88245 10.4957 3.78259 11.2145 2.81384C11.7319 2.11652 13.1588 1.01196 14.027 1.00134C14.0869 1.00061 14.1472 1 14.208 1C15.0351 1 15.9542 1.11688 17.0895 2.68884C18.5895 4.76593 21.8395 12.6888 21.8395 12.6888C21.8395 12.6888 22.1846 13.5672 22.7748 14.9844C22.066 15.1232 21.5295 15.7479 21.5295 16.4964C21.5295 17.3465 22.2209 18.0379 23.0715 18.0379C23.4008 18.0379 23.7047 17.9323 23.9554 17.756C23.9809 17.8146 24.007 17.8742 24.0328 17.9335C23.3411 18.0855 22.8215 18.7014 22.8215 19.4378C22.8215 20.2879 23.5129 20.9793 24.3635 20.9793C24.6987 20.9793 25.0069 20.8688 25.2601 20.6863C25.2776 20.7247 25.2952 20.7632 25.3129 20.8018C24.6276 20.9581 24.1135 21.5698 24.1135 22.3021C24.1135 23.1522 24.8049 23.8436 25.6545 23.8436C26.0006 23.8436 26.3168 23.725 26.5744 23.5319C26.5966 23.5806 26.6191 23.6302 26.6417 23.6801C25.9368 23.822 25.4045 24.4454 25.4045 25.1912C25.4045 26.0413 26.0959 26.7327 26.9465 26.7327C27.2944 26.7327 27.6121 26.6128 27.8703 26.4179C27.8816 26.4432 27.8929 26.4688 27.9042 26.4942C27.2144 26.6476 26.6965 27.2623 26.6965 27.9974C26.6965 28.8475 27.3879 29.5389 28.2385 29.5389C28.3755 29.5389 28.506 29.5151 28.6326 29.4814C28.1574 29.7443 27.8313 30.2446 27.8313 30.825C27.8313 31.6751 28.5227 32.367 29.3733 32.367C29.7387 32.367 30.0703 32.2337 30.3348 32.0202C30.3571 32.0715 30.3809 32.1265 30.404 32.1799C29.6785 32.3046 29.1233 32.9343 29.1233 33.6951C29.1233 34.5452 29.8147 35.2366 30.6643 35.2366C31.0122 35.2366 31.3298 35.1167 31.5881 34.9218C31.6073 34.9659 31.6268 35.0104 31.6461 35.0546C30.9438 35.1985 30.4143 35.8213 30.4143 36.5652C30.4143 37.4153 31.1057 38.1068 31.9563 38.1068C32.3036 38.1068 32.6208 37.9872 32.8788 37.7929C33.4794 39.0768 34.064 40.2355 34.527 40.9388C35.1149 41.8322 35.6902 42.2023 36.1206 42.2023C36.9123 42.2023 37.213 40.9486 36.1965 39.3921C35.2482 37.9401 31.4048 32.2254 32.1965 26.5587C32.6528 23.2921 33.259 21.1629 33.259 21.1629C33.259 21.1629 29.7381 19.5587 30.5715 17.8504C30.8635 17.2516 31.3431 16.8169 32.5402 16.8169C33.7225 16.8169 35.6046 17.2411 38.6965 18.3504C44.1548 20.3087 45.7068 21.9373 45.3631 23.1004ZM33.9539 37.7316C33.9636 37.7147 33.973 37.6976 33.9821 37.6804C34.3785 38.3891 34.8152 39.1078 35.2925 39.8369L35.3592 39.9389C35.6373 40.3646 35.7621 40.7113 35.8127 40.9579C35.6906 40.8359 35.5374 40.6552 35.3622 40.389C35.0129 39.8582 34.54 38.9658 33.9539 37.7316ZM42.9075 20.701C41.8186 20.0115 40.302 19.2918 38.636 18.6736C36.9709 18.0555 35.3518 17.6121 34.0764 17.4241C32.6272 17.2108 31.8352 17.347 31.6526 17.8401C31.47 18.3328 31.9817 18.9534 33.218 19.7361C34.3079 20.4256 35.8245 21.1453 37.4895 21.763C39.1555 22.3812 40.7747 22.825 42.0491 23.0125C42.4895 23.0775 42.8694 23.1102 43.1897 23.1102C43.9231 23.1102 44.3459 22.9398 44.4729 22.5965C44.6555 22.1033 44.1438 21.4832 42.9075 20.701ZM44.0042 22.4227C43.967 22.5203 43.5588 22.7303 42.1223 22.5179C40.8811 22.3353 39.2971 21.9007 37.6633 21.2943C36.0295 20.6883 34.5461 19.9847 33.4856 19.3138C32.259 18.5369 32.0852 18.1121 32.1213 18.014C32.1467 17.9466 32.3469 17.8275 32.9338 17.8275C33.2024 17.8275 33.552 17.8524 34.0032 17.9188C35.2454 18.1019 36.8284 18.5364 38.4622 19.1424C40.0959 19.7488 41.5793 20.452 42.6399 21.1234C43.8665 21.8997 44.0403 22.3245 44.0042 22.4227Z" fill="black"/>
</svg>
