<svg width="48" height="43" viewBox="0 0 48 43" fill="none" xmlns="http://www.w3.org/2000/svg">
<path d="M46.2373 1.12643C43.4903 -1.13577 41.3487 0.612761 40.6455 1.18796C39.6885 1.97067 36.3633 5.12399 30.7588 10.562C29.8028 9.35593 28.7295 8.23337 27.96 7.47018C26.0039 5.53024 23.3448 3.22214 21.7696 3.22214C21.7647 3.22214 21.7608 3.22214 21.7559 3.22214C21.378 3.22507 21.0508 3.35641 20.8116 3.60104C20.2676 4.15964 20.3574 4.97458 20.4707 6.0068C20.5938 7.1196 20.7461 8.50436 20.252 10.2002C19.3262 13.3799 12.3721 20.1132 12.2959 20.1875C11.9532 20.5302 3.87308 28.6303 1.33694 32.4443C-0.59958 35.3584 -0.429658 38.1455 1.82913 40.5044C3.10062 41.8325 4.56058 42.3549 6.00784 42.3549C7.69925 42.3549 9.37405 41.6421 10.7139 40.667C17.2832 35.8886 27.67 25.9663 31.8311 21.9218C32.9619 20.8232 34.2588 19.6074 35.6231 18.3286C39.4034 14.7851 43.6875 10.769 46.4141 7.38913C47.6055 5.9111 48.542 3.02389 46.2373 1.12643ZM45.6348 6.7612C42.9532 10.0874 38.6953 14.0781 34.9385 17.5991C33.5703 18.8823 32.2686 20.102 31.1338 21.205C26.9883 25.2343 16.6426 35.1176 10.126 39.8584C9.38382 40.3979 5.53714 42.9311 2.55179 39.813C0.627959 37.8037 0.499053 35.5107 2.16898 32.998C4.65042 29.2666 12.92 20.9775 12.9961 20.9008C13.291 20.6172 20.2119 13.9135 21.2129 10.4795C21.7617 8.59274 21.5899 7.03512 21.4649 5.89743C21.3838 5.15817 21.3135 4.5195 21.5274 4.29928C21.5625 4.26413 21.6201 4.22311 21.7647 4.22214C21.7666 4.22214 21.7686 4.22214 21.7715 4.22214C22.7061 4.22214 24.7549 5.70065 27.2549 8.18014C28.4444 9.35934 29.5274 10.5776 30.3057 11.6113L30.3332 11.6479C29.1768 12.77 27.9822 13.9262 26.7806 15.0868C26.6414 15.1019 26.4311 15.13 26.2383 15.1562C26.0967 15.1753 25.9678 15.1928 25.8907 15.2016C23.4346 15.4873 6.6846 29.5044 3.48733 33.9502C3.00784 34.6176 1.7344 36.3901 3.91898 38.3647C4.8848 39.2383 5.8594 39.6777 6.80569 39.6777C7.45706 39.6777 8.09476 39.4697 8.70608 39.0527C18.9141 32.0932 33.2334 17.9287 43.2295 6.99362L43.3057 6.91061C43.8301 6.34079 44.8067 5.27975 44.7305 4.21237C44.6973 3.74948 44.4707 3.34372 44.0576 3.00632C42.961 2.11276 40.7784 4.09909 38.9698 5.96335C38.3721 6.57956 35.8516 8.97751 31.6807 12.8989C24.0088 20.1118 12.9873 30.3842 12.876 30.4868L11.9082 32.5805C11.8194 32.7754 11.6485 32.9082 11.4375 32.9448C11.2227 32.9795 11.0196 32.9135 10.8711 32.7597L10.1016 31.9629C9.96487 31.8213 9.90237 31.6284 9.92972 31.4336C9.95608 31.2392 10.0694 31.0713 10.2383 30.9721L12.0928 29.8808C12.1959 29.7821 22.4021 20.0406 30.6357 12.0501L30.6465 12.0644L31.0537 11.6694C36.8809 6.0112 40.3213 2.74509 41.2784 1.96237C42.3711 1.0693 43.7383 0.366179 45.6026 1.89841C47.5518 3.50387 46.2871 5.95309 45.6348 6.7612ZM9.74222 32.31L10.5117 33.1074C10.7276 33.331 11.0225 33.4541 11.3282 33.4541C11.3926 33.4541 11.458 33.4487 11.5225 33.4375C11.8196 33.3858 12.0761 33.2162 12.248 32.9759L13.8391 34.5924C12.6804 35.5195 11.5443 36.401 10.4513 37.2024L5.51907 32.331C6.35397 31.4402 7.37796 30.4294 8.52792 29.351L9.84164 30.6484C9.62234 30.828 9.47409 31.0782 9.4346 31.3652C9.38577 31.7129 9.49808 32.0571 9.74222 32.31ZM31.764 13.5061C32.1472 14.364 32.1649 14.96 31.7715 15.2485C31.2119 15.6601 30.833 15.5757 30.0782 15.4062C29.9966 15.388 29.8901 15.3687 29.8011 15.3496C30.4722 14.7198 31.128 14.1039 31.764 13.5061ZM29.3548 15.7682C29.5768 15.81 29.7881 15.854 29.9688 15.8945C30.3301 15.9751 30.6446 16.0454 30.9522 16.0454C31.3145 16.0454 31.666 15.9472 32.0684 15.6518C32.7064 15.1828 32.7304 14.3352 32.1549 13.1385C36.306 9.23569 38.7239 6.9346 39.3594 6.28024C41.6807 3.88571 43.1553 2.9155 43.7412 3.39401C44.0479 3.64401 44.208 3.92331 44.2315 4.24801C44.292 5.10007 43.4112 6.05759 42.9375 6.57223L42.8604 6.65671C36.9133 13.162 29.4379 20.8023 22.213 27.3891L19.6459 24.8538C22.5724 22.1202 26.0994 18.822 29.3548 15.7682ZM19.2802 25.1954L21.8432 27.7265C21.5418 28.0002 21.2403 28.2757 20.94 28.5453L18.3896 26.0272C18.6789 25.757 18.9755 25.4801 19.2802 25.1954ZM18.0238 26.3687L20.5652 28.8778C18.8682 30.3941 17.1971 31.8352 15.5671 33.1847L13.2423 30.8446L13.2539 30.8188C13.5376 30.5545 15.4076 28.8113 18.0238 26.3687ZM13.0214 31.3326L15.18 33.5055C14.8629 33.7661 14.5457 34.0275 14.2324 34.2803L12.489 32.5089L13.0214 31.3326ZM4.06717 34.0142L8.61532 38.5049C8.55301 38.5476 8.48685 38.5974 8.42483 38.6396C7.11624 39.5307 5.71194 39.3139 4.25491 37.9936C2.4014 36.3188 3.40921 34.916 3.89358 34.2422C3.94522 34.1704 4.00937 34.0901 4.06717 34.0142ZM9.02988 38.2116L4.37894 33.6194C4.61429 33.3323 4.87753 33.0267 5.17813 32.6969L10.0388 37.4977C9.69748 37.7447 9.36325 37.9789 9.02988 38.2116ZM10.2738 30.3725L8.89432 29.0102C9.18735 28.7379 9.48654 28.4627 9.79245 28.184L11.4215 29.702L10.2738 30.3725ZM11.857 29.4231L10.1643 27.8459C16.2993 22.3012 24.5363 15.8625 25.9492 15.6987C26.0028 15.6924 26.0862 15.6812 26.1776 15.669C19.3615 22.2483 12.5478 28.7572 11.857 29.4231Z" fill="black"/>
</svg>
