<?xml version="1.0" encoding="utf-8"?>
<!-- Generator: Adobe Illustrator 24.1.3, SVG Export Plug-In . SVG Version: 6.00 Build 0)  -->
<svg version="1.1" xmlns="http://www.w3.org/2000/svg" xmlns:xlink="http://www.w3.org/1999/xlink" x="0px" y="0px"
	 viewBox="0 0 48 43" style="enable-background:new 0 0 48 43;" xml:space="preserve">
<style type="text/css">
	.st0{fill:#FFD761;}
</style>
<g id="colour">
	<path class="st0" d="M42.5,0.6c-2.2,0.6-4.1,2.6-5.7,4.2c-2.1,2.1-4.3,4.2-6.4,6.3c-2.1-2.8-4.6-5.2-7.5-7.2
		c-1.1-0.8-2.5,0.5-2.2,1.7c1,4-1.3,7.8-3.9,10.7c-2.9,3.2-6.1,6.2-9.2,9.2c-0.3,0.3-0.4,0.6-0.4,1c-1.2,1.1-2.4,2.2-3.4,3.4
		c-1.5,1.6-2.9,3.6-3,5.9c-0.1,2.1,1.1,4,2.8,5.1c4.4,2.8,8.9-1.7,12.1-4.3c8.1-6.5,15.8-13.6,23-21.1c1.8-1.9,3.6-3.8,5.3-5.7
		c1.4-1.6,3-3.6,2.8-5.9C46.7,1.8,44.8,0,42.5,0.6z M43.5,5.7c-0.9,1.8-2.7,3.3-4.1,4.8c-6.2,6.6-12.7,12.8-19.5,18.7
		c-1.7,1.5-3.5,3-5.3,4.4c-1.7,1.4-3.4,2.9-5.3,4.1c-1.5,1-3.5,1.6-4.8,0c-1.4-1.6-0.4-3.6,0.7-5c3-3.8,7.2-7,11-9.9
		c2-1.5,4-3,6-4.4c0.7-0.5,1.5-1.1,2.3-1.5c-0.3,0.3-0.6,0.6-0.9,0.9c-2.2,2.1-4.4,4.3-6.7,6.4c-1.1,1.1-2.2,2.1-3.4,3.2
		c-0.6,0.6-1.2,1.1-1.8,1.7c-0.2,0.2-0.5,0.4-0.7,0.7c-0.1,0.1-0.2,0.2-0.4,0.3c-0.1,0.1-0.2,0.1-0.2,0.2c-0.6,0-1.2,0.4-1.3,1.1
		c0,0,0,0.1,0,0.1c-0.1,0.5,0,1.1,0.4,1.4c0,0.1,0.1,0.2,0.1,0.3c0.7,1.4,2.5,0.7,2.7-0.5c0,0,0,0,0.1-0.1c1-0.9,1.9-1.8,2.8-2.7
		c1.7-1.6,3.4-3.2,5.1-4.9c3.1-3,6.2-6,9.3-9c0.3,0.1,0.7,0.2,1,0.3c1.3,0.3,2.4-1.1,1.7-2.2c-0.1-0.1-0.2-0.3-0.3-0.4
		c2.8-2.8,5.5-5.7,8.5-8.3c0.6-0.5,1.8-1.8,2.6-1.8C44.3,3.5,43.8,5.1,43.5,5.7z"/>
</g>
<g id="Layer_1">
	<path d="M46.2,1.1c-2.7-2.3-4.9-0.5-5.6,0.1c-1,0.8-4.3,3.9-9.9,9.4c-1-1.2-2-2.3-2.8-3.1c-2-1.9-4.6-4.2-6.2-4.2c0,0,0,0,0,0
		c-0.4,0-0.7,0.1-0.9,0.4C20.3,4.2,20.4,5,20.5,6c0.1,1.1,0.3,2.5-0.2,4.2c-0.9,3.2-7.9,9.9-8,10c-0.3,0.3-8.4,8.4-11,12.3
		c-1.9,2.9-1.8,5.7,0.5,8.1c1.3,1.3,2.7,1.9,4.2,1.9c1.7,0,3.4-0.7,4.7-1.7c6.6-4.8,17-14.7,21.1-18.7c1.1-1.1,2.4-2.3,3.8-3.6
		c3.8-3.5,8.1-7.6,10.8-10.9C47.6,5.9,48.5,3,46.2,1.1z M45.6,6.8c-2.7,3.3-6.9,7.3-10.7,10.8c-1.4,1.3-2.7,2.5-3.8,3.6
		c-4.1,4-14.5,13.9-21,18.7c-0.7,0.5-4.6,3.1-7.6,0c-1.9-2-2.1-4.3-0.4-6.8C4.7,29.3,12.9,21,13,20.9c0.3-0.3,7.2-7,8.2-10.4
		c0.5-1.9,0.4-3.4,0.3-4.6c-0.1-0.7-0.2-1.4,0.1-1.6c0,0,0.1-0.1,0.2-0.1c0,0,0,0,0,0c0.9,0,3,1.5,5.5,4c1.2,1.2,2.3,2.4,3.1,3.4
		l0,0c-1.2,1.1-2.4,2.3-3.6,3.4c-0.1,0-0.3,0-0.5,0.1c-0.1,0-0.3,0-0.3,0C23.4,15.5,6.7,29.5,3.5,34c-0.5,0.7-1.8,2.4,0.4,4.4
		c1,0.9,1.9,1.3,2.9,1.3c0.7,0,1.3-0.2,1.9-0.6c10.2-7,24.5-21.1,34.5-32.1l0.1-0.1c0.5-0.6,1.5-1.6,1.4-2.7c0-0.5-0.3-0.9-0.7-1.2
		C43,2.1,40.8,4.1,39,6c-0.6,0.6-3.1,3-7.3,6.9C24,20.1,13,30.4,12.9,30.5l-1,2.1c-0.1,0.2-0.3,0.3-0.5,0.4c-0.2,0-0.4,0-0.6-0.2
		L10.1,32c-0.1-0.1-0.2-0.3-0.2-0.5c0-0.2,0.1-0.4,0.3-0.5l1.9-1.1c0.1-0.1,10.3-9.8,18.5-17.8l0,0l0.4-0.4C36.9,6,40.3,2.7,41.3,2
		c1.1-0.9,2.5-1.6,4.3-0.1C47.6,3.5,46.3,6,45.6,6.8z M9.7,32.3l0.8,0.8c0.2,0.2,0.5,0.3,0.8,0.3c0.1,0,0.1,0,0.2,0
		c0.3-0.1,0.6-0.2,0.7-0.5l1.6,1.6c-1.2,0.9-2.3,1.8-3.4,2.6l-4.9-4.9c0.8-0.9,1.9-1.9,3-3l1.3,1.3c-0.2,0.2-0.4,0.4-0.4,0.7
		C9.4,31.7,9.5,32.1,9.7,32.3z M31.8,13.5c0.4,0.9,0.4,1.5,0,1.7c-0.6,0.4-0.9,0.3-1.7,0.2c-0.1,0-0.2,0-0.3-0.1
		C30.5,14.7,31.1,14.1,31.8,13.5z M29.4,15.8c0.2,0,0.4,0.1,0.6,0.1c0.4,0.1,0.7,0.2,1,0.2c0.4,0,0.7-0.1,1.1-0.4
		c0.6-0.5,0.7-1.3,0.1-2.5c4.2-3.9,6.6-6.2,7.2-6.9c2.3-2.4,3.8-3.4,4.4-2.9c0.3,0.3,0.5,0.5,0.5,0.9c0.1,0.9-0.8,1.8-1.3,2.3
		l-0.1,0.1c-5.9,6.5-13.4,14.1-20.6,20.7l-2.6-2.5C22.6,22.1,26.1,18.8,29.4,15.8z M19.3,25.2l2.6,2.5c-0.3,0.3-0.6,0.5-0.9,0.8
		L18.4,26C18.7,25.8,19,25.5,19.3,25.2z M18,26.4l2.5,2.5c-1.7,1.5-3.4,3-5,4.3l-2.3-2.3l0,0C13.5,30.6,15.4,28.8,18,26.4z M13,31.3
		l2.2,2.2c-0.3,0.3-0.6,0.5-0.9,0.8l-1.7-1.8L13,31.3z M4.1,34l4.5,4.5c-0.1,0-0.1,0.1-0.2,0.1c-1.3,0.9-2.7,0.7-4.2-0.6
		c-1.9-1.7-0.8-3.1-0.4-3.8C3.9,34.2,4,34.1,4.1,34z M9,38.2l-4.7-4.6c0.2-0.3,0.5-0.6,0.8-0.9l4.9,4.8C9.7,37.7,9.4,38,9,38.2z
		 M10.3,30.4L8.9,29c0.3-0.3,0.6-0.5,0.9-0.8l1.6,1.5L10.3,30.4z M11.9,29.4l-1.7-1.6c6.1-5.5,14.4-12,15.8-12.1c0.1,0,0.1,0,0.2,0
		C19.4,22.2,12.5,28.8,11.9,29.4z"/>
</g>
</svg>
