<?xml version="1.0" encoding="utf-8"?>
<!-- Generator: Adobe Illustrator 24.1.3, SVG Export Plug-In . SVG Version: 6.00 Build 0)  -->
<svg version="1.1" xmlns="http://www.w3.org/2000/svg" xmlns:xlink="http://www.w3.org/1999/xlink" x="0px" y="0px"
	 viewBox="0 0 48 43" style="enable-background:new 0 0 48 43;" xml:space="preserve">
<style type="text/css">
	.st0{fill:#FFD761;}
</style>
<g id="colour">
	<path class="st0" d="M47.5,12.8C45.8,8.1,43.1,4,39.4,0.6c-0.9-0.8-2.7-0.3-2.6,1.1c0.3,2.4-0.9,4.4-2.4,6.1
		c-1.6,1.8-3.5,3.4-5.2,5.1c-3.6,3.5-7.1,6.9-11.2,9.8c-3.6,2.6-7.7,5.2-10.4,8.8c-0.8,1.1-1.4,2.4-1.4,3.8c0,0,0,0,0,0
		c-1.4,0.9-2.9,1.7-4.1,2.9c-0.2,0-0.3,0.1-0.5,0.2c-0.8,0.2-1.6,0.8-1.2,1.8c0.1,0.3,0.2,0.6,0.3,0.9c0.4,1.1,2.1,1.6,2.7,0.4
		c0.7-1.5,2.2-2.3,3.6-3.1c0.8,1.2,2,2,3.3,2.4c2.2,0.5,4-0.5,5.7-1.7c2.1-1.3,4.2-2.7,6.2-4.2c4-2.9,7.7-6.3,11.8-9
		c1.6-1.1,3.4-2.1,4.3-3.9c0.7-1.5,0.7-3.5-0.4-4.8c-0.8-0.9-1.8-1.2-2.8-1.2c3-2.1,7.4-4.9,9.9-1.8C45.9,15.4,48,14.2,47.5,12.8z
		 M13.2,30.1c2.7-2.3,5.7-4.3,8.6-6.4c0.1,0,0.1,0,0.2,0c1.3-0.4,2.4-1,3.6-1.5c-4.1,3.1-8.2,6-12.5,8.9c-0.8,0.5-1.6,1.1-2.5,1.6
		C11.4,31.6,12.4,30.8,13.2,30.1z M35.6,19.1c0.3,0.4,0.2,1.1,0,1.5c-0.7,1.5-3,2.4-4.3,3.4c-3.4,2.5-6.6,5.3-10.1,7.8
		c-1.8,1.3-3.6,2.5-5.4,3.7c-1.3,0.8-3.1,2.6-4.8,2.2c-0.7-0.1-1.2-0.5-1.5-1.1c1.1-0.7,2.2-1.3,3.2-2c3.6-2.3,7.1-4.8,10.6-7.3
		c3.5-2.5,6.8-5.4,10.4-7.8C34.3,19.3,35.1,18.6,35.6,19.1z"/>
</g>
<g id="Layer_1">
	<path d="M43.8,5.1c-1.3-1.8-2.6-3.2-3.7-4.1c-1.6-1.2-2.5-1.1-2.9-0.8c-0.8,0.6-0.6,1.2-0.5,1.7c0.2,0.8,0.6,2-2.3,5.4
		c-3.2,3.6-7.1,7.1-14.5,13.4c-1.6,1.4-3.4,2.8-5,4.2c-2.3,1.9-4.6,3.7-6.3,5.3l-0.7,0.6c-1.6,1.4-2.1,1.8-2.5,3.7
		c-0.1,0.4-0.1,0.9,0,1.3L2.5,38c-0.1,0-0.2,0-0.3,0c-0.3,0-1.3,0.4-1.9,0.7L0,38.8l0,0.3c0,0-0.1,1.2,0.7,2.3
		c0.7,1,1.7,1.1,1.8,1.1l0.2,0l0.2-0.2c1.3-1.2,1.5-1.5,1.5-1.6c0,0,0.1-0.1,0.1-0.4l2.5-1.6c0.5,0.6,1.6,1.9,3,2.3
		c2.1,0.6,5.1-1.7,5.8-2.1c0.3-0.1,1-0.2,1.3-0.3c1.1-0.6,3.6-2.3,4.5-3.1l1,1.3c0.4,0.5,1.2,0.7,1.7,0.3l0.2-0.1
		c0.3-0.2,0.5-0.5,0.5-0.8c0-0.1,0-0.1,0-0.2c0.1,0,0.1,0,0.2,0.1c0.3,0.1,0.7,0,1-0.2l0.3-0.2c0.3-0.2,0.4-0.5,0.5-0.8
		c0,0,0-0.1,0-0.1c0.3,0.1,0.7,0,1-0.2l0.4-0.3c0.5-0.4,0.6-1.1,0.3-1.6l-1.3-1.9c1.7-1.3,8.5-6.6,9.4-7.3c0.1,0,0.1-0.1,0.2-0.2
		c0.7-0.5,1.9-1.4,2.2-2.9c0.2-1-0.1-2-0.9-3.1c-1-1.4-2.3-1.7-3.4-1.6c0.2-0.2,0.5-0.3,0.7-0.5c1.4-0.9,2.7-1.8,3.9-2.5
		c3.1-1.6,4.4-0.2,5.4,0.8c0.5,0.6,1.1,1.2,1.9,0.8c0.4-0.2,0.7-0.6,0.8-1.1C48,11.1,44.8,6.4,43.8,5.1z M37.4,18.1
		c0.6,0.8,0.9,1.6,0.7,2.3c-0.2,1.1-1.2,1.8-1.8,2.2c-0.1,0.1-0.2,0.2-0.3,0.2c-1,0.8-9.7,7.5-9.8,7.5l-0.4,0.3l1.9,2.7
		c0,0.1,0,0.2,0,0.2l-0.4,0.3c-0.1,0.1-0.2,0-0.2,0l-1.4-1.9l-1.1,0.8l1.3,1.9c0,0.1,0,0.1,0,0.1c0,0,0,0.1-0.1,0.1l-0.3,0.2
		c-0.1,0-0.1,0.1-0.3,0L24,33.2l-1.3,0.9l1.3,1.8c0,0.1,0.1,0.1,0,0.2c0,0.1-0.1,0.1-0.1,0.2l-0.2,0.1c-0.1,0.1-0.3,0.1-0.4-0.1
		l-1.6-2.2l-0.4,0.3c0,0-3.5,2.6-4.8,3.3c-0.1,0.1-0.7,0.2-1.1,0.3l-0.1,0l-0.1,0.1c-0.9,0.7-3.4,2.5-4.9,2
		c-1.5-0.4-2.8-2.2-2.8-2.3l0,0l1-0.7c0.2,0.4,1.2,1.8,2.3,1.9c0.1,0,0.2,0,0.2,0c1.8,0,3.4-1.8,3.5-1.9l0.1-0.1L14.5,37
		c0,0-0.3-0.8,0.3-1.4c1.1-1,4.4-3.3,4.4-3.3l0.2-0.1l-1.4-1.9l1.1-0.8l1.5,2.1l1.1-0.8l-1.5-2.1l0.9-0.7l2.1,2.9l1.1-0.8l-2.1-2.9
		l0.9-0.7l0.8,1.1l0.2-0.1c0,0,1.7-1.3,4.7-3.5l0.7-0.5c1.7-1.3,3.5-2.7,4.3-2.6c0.8,0,1.1,0.8,1.1,0.8l0.1,0.3l0.3-0.1
		c0,0,0.4-0.2,0.9-0.8c0.4-0.4,0.7-1.2,0.2-1.8c-1.3-1.7-2.9-0.8-2.9-0.8L14,32.6l-7.1,5.1l0,0L3.4,40l0,0.3c0,0.1,0,0.1,0,0.2
		c-0.1,0.2-0.6,0.6-1,1c-0.2-0.1-0.6-0.3-0.9-0.7C1.2,40.3,1,39.8,1,39.5C1.6,39.3,2.2,39,2.3,39c0.1,0,0.3,0,0.3,0l0.2,0l3.3-2.7
		l0,0L33,17.6l0,0l0.4-0.2C33.5,17.3,35.9,16,37.4,18.1z M17.7,30.6l1.1,1.5c-0.8,0.5-3.3,2.3-4.3,3.2c-0.7,0.6-0.6,1.4-0.5,1.8
		c-0.4,0.4-1.8,1.7-3.2,1.6c-1-0.1-1.8-1.4-2-1.7l5.5-3.9L17.7,30.6z M19.9,29l1.2,1.7l-0.3,0.2l-1.2-1.7L19.9,29z M21.9,27.5
		l1.8,2.5l-0.3,0.2l-1.8-2.5L21.9,27.5z M23.6,26.3l10.3-7.4c0,0,1.2-0.7,2.2,0.7c0.4,0.6,0,1.1-0.1,1.2c-0.2,0.3-0.4,0.4-0.6,0.5
		c-0.2-0.3-0.6-0.8-1.4-0.8c0,0,0,0,0,0c-1,0-2.7,1.3-4.6,2.7l-0.7,0.5c-2.4,1.8-4,3-4.5,3.4L23.6,26.3z M16.6,27
		c0.3-0.2,0.5-0.3,0.6-0.4l0.7,0.9l-1.1,0.8l-0.7-0.9C16.2,27.3,16.3,27.2,16.6,27z M18.8,25.5c0.2-0.1,0.4-0.2,0.5-0.3l0.7,1
		L19,26.8l-0.7-1C18.4,25.8,18.5,25.6,18.8,25.5z M20.7,24c0.2-0.2,0.4-0.2,0.5-0.3l0.7,1L21,25.4l-0.7-1
		C20.4,24.3,20.5,24.2,20.7,24z M32.5,17.3l-10.2,7.1L22,24c4.2-3,7.2-5,8.9-6.1l0.1-0.1c0.5-0.3,1-0.7,1.7-1.1L32.5,17.3z
		 M20.6,25.7l-0.3,0.2L20,25.4l0.3-0.2L20.6,25.7z M18.6,27.1l-0.3,0.2L18,26.9l0.3-0.2L18.6,27.1z M16.3,28.6l-2.9,2l-5.7,4
		c0.1-0.3,0.3-0.6,1-1c0.9-0.6,4.3-3.2,4.5-3.3c0,0,1.2-0.8,2.9-2.1L16.3,28.6z M46.5,13.2c-0.1,0.3-0.2,0.4-0.3,0.5
		c-0.1,0-0.4-0.4-0.7-0.6c-1.1-1.1-2.8-3-6.6-1c-1.2,0.6-2.7,1.6-4,2.5c-0.6,0.4-1.3,0.8-1.9,1.2l-0.2,0.1l0,0.1
		c-0.8,0.5-1.6,1-2.2,1.4l-0.1,0.1c-1.7,1.1-4.7,3.2-8.9,6.1l-0.4-0.5l-0.2,0.1c0,0-0.2,0.1-0.6,0.3l-0.3-0.4
		c0.3-0.3,0.4-0.5,0.3-0.7c-0.1-0.2-0.6-0.1-1,0.2c-0.4,0.3-0.6,0.7-0.5,0.9c0.1,0.2,0.4,0.1,0.7-0.1l0.3,0.4
		c-0.3,0.3-0.5,0.4-0.5,0.4l-0.1,0.1l0.3,0.5L19.7,25l-0.3-0.5l-0.2,0c0,0-0.3,0.1-0.6,0.3l-0.3-0.4c0.3-0.3,0.4-0.5,0.3-0.7
		c-0.1-0.2-0.6-0.1-1,0.2c-0.4,0.3-0.6,0.7-0.5,0.9c0.1,0.2,0.4,0.1,0.7-0.1l0.3,0.4c-0.3,0.3-0.5,0.4-0.5,0.5l-0.1,0.1l0.3,0.4
		l-0.3,0.2l-0.3-0.4l-0.1,0c-0.1,0-0.3,0.1-0.7,0.4l-0.3-0.4c0.3-0.3,0.4-0.5,0.3-0.7c-0.1-0.2-0.6-0.1-1,0.2
		c-0.4,0.3-0.6,0.7-0.5,0.9c0.1,0.2,0.4,0.1,0.7-0.1l0.3,0.4c-0.4,0.3-0.5,0.5-0.6,0.6l-0.1,0.1l0.3,0.4c-1.7,1.2-2.9,2.1-2.9,2.1
		c0,0-3.6,2.7-4.5,3.3c-1.2,0.8-1.3,1.5-1.2,1.9l-0.9,0.6c0-0.3,0-0.7,0-1c0.4-1.6,0.6-1.8,2.2-3.2l0.7-0.6c1.8-1.6,4-3.4,6.3-5.3
		c1.7-1.4,3.4-2.8,5.1-4.2c7.5-6.4,11.4-9.8,14.6-13.5c3.1-3.5,2.9-5.1,2.5-6.3c-0.1-0.4-0.1-0.4,0.1-0.5C38,0.9,38.5,1,39.5,1.8
		c1.1,0.8,2.3,2.2,3.5,3.9C45,8.4,46.8,11.8,46.5,13.2z M34,22.2c0.1,0.1,0.1,0.3-0.1,0.3l-8.8,6.3c0,0-0.1,0-0.1,0
		c-0.1,0-0.2,0-0.2-0.1c-0.1-0.1-0.1-0.3,0.1-0.3l8.8-6.3C33.8,22.1,33.9,22.1,34,22.2z"/>
</g>
</svg>
