<svg width="48" height="43" viewBox="0 0 48 43" fill="none" xmlns="http://www.w3.org/2000/svg">
<path d="M43.8229 5.06805C42.5358 3.27752 41.2604 1.8659 40.134 0.986014C38.5641 -0.241525 37.6813 -0.1009 37.2165 0.232108C36.4279 0.799491 36.6227 1.42644 36.7653 1.88396C37.0011 2.64226 37.3957 3.91082 34.4211 7.27117C31.2189 10.8893 27.3576 14.3268 19.9142 20.6637C18.2946 22.0431 16.5632 23.4572 14.8732 24.8381C12.5319 26.7507 10.3205 28.5568 8.54704 30.1486L7.82975 30.7863C6.24724 32.1852 5.76921 32.6071 5.34587 34.5021C5.257 34.8986 5.27849 35.4391 5.30388 35.7678L2.50895 38.0148C2.39128 38.006 2.29948 38.0065 2.23356 38.0153C1.94597 38.0529 0.908368 38.464 0.315594 38.7057L0.0362975 38.819L0.00651231 39.1193C0.00162951 39.1672 -0.10091 40.3068 0.723309 41.4533C1.43034 42.4362 2.45329 42.5837 2.49675 42.5895L2.7277 42.6203L2.90007 42.4636C4.24919 41.2326 4.35856 40.9743 4.3947 40.8888C4.41325 40.8439 4.45475 40.7458 4.45134 40.5182L6.94645 38.8898C7.4611 39.5251 8.59343 40.7512 9.9489 41.1574C12.0949 41.8044 15.0959 39.5036 15.7018 39.0148C16.0324 38.9518 16.6872 38.8146 16.9723 38.6681C18.0475 38.1179 20.5251 36.321 21.509 35.5973L22.4733 36.9372C22.8752 37.4865 23.6559 37.6203 24.2145 37.2302L24.425 37.0837C24.7028 36.8908 24.8883 36.6012 24.9474 36.2682C24.9601 36.1974 24.967 36.1262 24.9674 36.0554C25.0275 36.0768 25.0905 36.0934 25.1549 36.1056C25.4948 36.1681 25.8488 36.0929 26.1296 35.8991L26.4611 35.6701C26.7243 35.488 26.9001 35.214 26.9557 34.8991C26.9616 34.8659 26.9665 34.8327 26.9694 34.8C27.2956 34.8893 27.6554 34.8361 27.9533 34.6213L28.3346 34.3469C28.8532 33.9748 28.9723 33.2497 28.6032 32.7355L27.2839 30.8473C28.9987 29.5275 35.8219 24.2751 36.6901 23.5866C36.7521 23.5373 36.8361 23.4782 36.9342 23.4089C37.612 22.9304 38.8737 22.0387 39.1237 20.549C39.2853 19.5832 38.9792 18.5534 38.2135 17.4875C37.2336 16.1242 35.9235 15.8054 34.7902 15.9084C35.0236 15.7521 35.259 15.5934 35.4953 15.4347C36.8454 14.5256 38.2419 13.5851 39.4328 12.9611C42.5436 11.3322 43.8708 12.7414 44.8405 13.7692C45.3674 14.3293 45.9665 14.9631 46.6979 14.5446C47.1076 14.3107 47.381 13.9245 47.4889 13.4279C47.9938 11.1071 44.8102 6.44256 43.8229 5.06805ZM37.4015 18.0715C38.006 18.9123 38.2536 19.6906 38.1374 20.3835C37.9562 21.4626 36.9157 22.1974 36.3571 22.5925C36.2409 22.6745 36.1423 22.7443 36.069 22.8029C35.1017 23.57 26.3835 30.2785 26.2956 30.3459L25.9167 30.6374L27.7873 33.3137C27.8307 33.3742 27.8122 33.4909 27.7511 33.5348L27.3698 33.8093C27.3005 33.8605 27.2038 33.8464 27.1559 33.7819L25.7531 31.8698L24.6032 32.6955L25.9396 34.5842C25.9787 34.6398 25.9762 34.6965 25.9714 34.7253C25.966 34.7541 25.9494 34.8083 25.8927 34.8469L25.5612 35.0759C25.5011 35.1174 25.4118 35.1364 25.2482 35.0763L23.9508 33.1872L22.6447 34.0759L23.9196 35.8967C23.9601 35.9538 23.9753 36.0236 23.9631 36.0929C23.9508 36.1623 23.9123 36.2223 23.8542 36.2629L23.6437 36.4094C23.5275 36.4899 23.3649 36.4631 23.2834 36.3508L21.7277 34.1896L21.32 34.4933C21.2848 34.5197 17.7712 37.1359 16.5163 37.7785C16.383 37.8469 15.8293 37.9762 15.3952 38.0544L15.2638 38.0783L15.1618 38.1642C14.3073 38.8854 11.7555 40.6579 10.236 40.1994C8.75407 39.7555 7.48552 37.9504 7.47282 37.9323L7.46092 37.9152L8.42546 37.226C8.66765 37.6233 9.57951 38.9863 10.7585 39.0949C10.8381 39.1022 10.9172 39.1056 10.9963 39.1056C12.7839 39.1056 14.4108 37.3083 14.4821 37.2282L14.5837 37.1144L14.529 36.9723C14.526 36.964 14.2175 36.1354 14.8361 35.5842C15.9406 34.5988 19.2414 32.3097 19.2746 32.2868L19.4836 32.1418L18.1295 30.2577L19.2015 29.482L20.7209 31.5959L21.8493 30.7848L20.3272 28.6673L21.2525 27.9977L23.3244 30.8801L24.3918 30.113L22.3175 27.227L23.2321 26.5651L24.0475 27.6999L24.2511 27.5505C24.2511 27.5505 25.9909 26.2731 28.9899 24.0392L29.6447 23.5485C31.3141 22.2951 33.1921 20.8903 33.9797 20.9094C34.8049 20.9474 35.0441 21.6657 35.0539 21.6945L35.1398 21.9743L35.402 21.8459C35.4411 21.8268 35.7995 21.6428 36.3439 21.0544C36.7326 20.6359 37.0109 19.9035 36.5177 19.2165C35.2609 17.4684 33.6462 18.4147 33.613 18.4362L14.0202 32.6139L6.90397 37.6979L6.91649 37.7154L3.38835 40.0178L3.43327 40.3327C3.44108 40.3859 3.44792 40.4626 3.45036 40.5187C3.30095 40.7018 2.85515 41.1413 2.42448 41.5417C2.19694 41.4616 1.82829 41.2765 1.53532 40.8693C1.15104 40.3346 1.03923 39.8137 1.00944 39.5041C1.60905 39.2653 2.22819 39.0324 2.34538 39.0085C2.4196 39.006 2.59831 39.028 2.60319 39.029L2.81218 39.0539L6.11784 36.3968L6.12663 36.4094L33.007 17.5978L33.0033 17.5926L33.4054 17.362C33.5055 17.3034 35.8898 15.9679 37.4015 18.0715ZM17.7242 30.551L18.7809 32.0212C18.027 32.5475 15.4797 34.34 14.5031 35.2111C13.8122 35.8268 13.9274 36.6535 14.0143 36.9948C13.6388 37.3781 12.2033 38.7228 10.8044 38.5969C9.82164 38.5066 8.99418 37.2028 8.83354 36.9344L14.3122 33.0202L17.7242 30.551ZM19.9219 28.9606L21.151 30.6706L20.8351 30.8976L19.6067 29.1887L19.9219 28.9606ZM21.9122 27.5203L23.6935 29.9987L23.4386 30.1818L21.6578 27.7044L21.9122 27.5203ZM23.6369 26.2717L33.8888 18.8527C33.9382 18.8224 35.1208 18.1291 36.1115 19.5085C36.5104 20.0637 36.11 20.572 35.9772 20.7145C35.7345 20.9772 35.5348 21.1481 35.3966 21.2531C35.2082 20.9279 34.797 20.4465 34.0021 20.4103C33.9875 20.4094 33.9723 20.4089 33.9567 20.4089C32.9928 20.4089 31.2199 21.7404 29.3449 23.1486L28.6911 23.6379C26.2912 25.426 24.6984 26.6003 24.1589 26.9977L23.6369 26.2717ZM16.5719 27.0309C16.8644 26.8205 17.0578 26.7111 17.1701 26.6554L17.8428 27.5915L16.7581 28.3499L16.0944 27.4269C16.1769 27.342 16.3234 27.2096 16.5719 27.0309ZM18.7585 25.4596C18.9552 25.318 19.1174 25.2306 19.2272 25.1794L19.9179 26.1404L18.9814 26.7952L18.298 25.8449C18.382 25.758 18.5256 25.6266 18.7585 25.4596ZM20.7214 24.0485C20.9338 23.8957 21.0959 23.8005 21.2038 23.7433L21.92 24.7403L20.9953 25.387L20.2863 24.4011C20.3722 24.3195 20.5104 24.2004 20.7214 24.0485ZM32.5207 17.3276L22.3301 24.4536L22.0319 24.0386C26.2397 21.0768 29.2315 19.0124 30.9123 17.9113L31.0094 17.8478C31.487 17.5342 32.0588 17.1592 32.6866 16.7521L32.5207 17.3276ZM20.5853 25.6737L20.3279 25.8537L20.035 25.4466L20.2919 25.2654L20.5853 25.6737ZM18.5715 27.0819L18.2527 27.3048L17.9683 26.9092L18.2858 26.6843L18.5715 27.0819ZM16.3481 28.6366L13.4499 30.6633L7.73234 34.6728C7.82731 34.4046 8.07109 34.032 8.68962 33.6237C9.59782 33.0241 13.0221 30.4347 13.1623 30.3288C13.1623 30.3288 14.3261 29.4971 16.0735 28.2544L16.3481 28.6366ZM46.5119 13.215C46.4489 13.506 46.3044 13.6179 46.2262 13.676C46.1032 13.652 45.7941 13.3234 45.568 13.0837C44.5148 11.965 42.7516 10.0929 38.9689 12.0754C37.7287 12.7253 36.3092 13.6808 34.9367 14.6052C34.3053 15.03 33.6794 15.4513 33.0783 15.8386L32.9206 15.9401L32.8975 16.0203C32.0795 16.5482 31.3328 17.0376 30.735 17.4294L30.6379 17.4933C28.9523 18.5977 25.9546 20.6659 21.7399 23.6322L21.3844 23.1374L21.2111 23.1926C21.187 23.2003 20.988 23.275 20.6418 23.5002L20.3857 23.1437C20.6521 22.8885 20.7827 22.6056 20.6724 22.4521C20.5376 22.2646 20.1061 22.3443 19.7085 22.6301C19.311 22.9158 19.0979 23.2994 19.2327 23.4869C19.3431 23.6404 19.6528 23.6067 19.9795 23.4356L20.2354 23.7919C19.901 24.0553 19.7731 24.2192 19.7594 24.2389L19.6584 24.384L20 24.8592L19.7431 25.0408L19.4181 24.589L19.2507 24.6345C19.2229 24.6419 18.9936 24.7161 18.6537 24.9315L18.3963 24.5735C18.6626 24.3185 18.7932 24.0356 18.6828 23.8821C18.5481 23.6946 18.1166 23.7743 17.719 24.06C17.3215 24.3458 17.1084 24.7294 17.2431 24.9169C17.3535 25.0704 17.6633 25.0367 17.99 24.8655L18.2478 25.2241C17.911 25.4962 17.7874 25.6721 17.7663 25.7087L17.6852 25.8483L17.9939 26.2781L17.6763 26.5031L17.3761 26.0856L17.2277 26.1056C17.1726 26.1127 16.9622 26.1746 16.5239 26.4616L16.2669 26.104C16.5332 25.8489 16.6639 25.566 16.5535 25.4125C16.4187 25.225 15.9872 25.3047 15.5897 25.5904C15.1921 25.8762 14.9791 26.2598 15.1139 26.4473C15.2242 26.6008 15.534 26.5672 15.8608 26.396L16.1164 26.7519C15.7109 27.0671 15.5821 27.2542 15.5563 27.3058L15.4889 27.4411L15.7817 27.8484C14.0349 29.0906 12.8711 29.9227 12.8659 29.9264C12.8302 29.9533 9.30925 32.6159 8.41423 33.2067C7.24601 33.9771 7.15477 34.7342 7.17949 35.0605L6.30089 35.6766C6.27958 35.3893 6.26542 34.9721 6.32145 34.7204C6.67448 33.1418 6.95183 32.8967 8.49186 31.5353L9.21501 30.8928C10.9714 29.3166 13.174 27.5173 15.5055 25.6125C17.1925 24.2346 18.9362 22.8097 20.5627 21.4255C28.0431 15.0563 31.9274 11.5973 35.1701 7.93426C38.2594 4.44402 38.1061 2.82781 37.7199 1.58709C37.5968 1.1906 37.5968 1.1906 37.8005 1.04412C37.9513 0.935721 38.4855 0.96746 39.5182 1.77361C40.571 2.59637 41.7785 3.93719 43.0104 5.65203C44.9772 8.38787 46.8224 11.7878 46.5119 13.215ZM34.0241 22.1984C34.1047 22.3107 34.0788 22.467 33.967 22.5475L25.1877 28.8576C25.1432 28.8893 25.0924 28.9045 25.0417 28.9045C24.964 28.9045 24.8874 28.8683 24.8385 28.8005C24.758 28.6882 24.7839 28.5319 24.8957 28.4513L33.675 22.1413C33.7863 22.0602 33.9425 22.0856 34.0241 22.1984Z" fill="black"/>
</svg>
