<svg width="31" height="49" viewBox="0 0 31 49" fill="none" xmlns="http://www.w3.org/2000/svg">
<path d="M22.3475 9.22998C22.2365 9.2243 22.1271 9.2215 22.0185 9.2215C20.1704 9.2215 18.6927 10.014 17.6074 10.9191C17.9099 8.82886 18.373 7.01691 18.8627 6.62048C19.3368 6.23669 19.8732 6.04968 20.392 5.86877C21.1553 5.60254 22.0205 5.30084 22.3384 4.34698C22.5836 3.61176 22.484 2.90479 22.0507 2.30255C21.2842 1.23737 19.3195 0.0130004 10.86 6.10352e-05L10.8085 0C5.92157 0 0.463806 1.15979 0.0290529 3.70624C-0.287231 5.55872 2.05591 6.2962 3.31476 6.69238C3.50653 6.75275 3.76923 6.83539 3.84247 6.86981C4.30408 7.11945 5.19464 9.19318 5.56921 10.9012C5.98486 12.7965 6.43958 15.6725 6.86584 19.0895C6.73163 19.0678 6.60284 19.0449 6.48108 19.0233C6.20544 18.9742 5.96014 18.9321 5.7467 18.9124C5.69647 18.9077 5.64655 18.9055 5.59717 18.9055C5.16058 18.9055 4.75214 19.0779 4.44702 19.391C4.14014 19.7059 3.97736 20.1225 3.98877 20.564L3.99622 20.8517C4.01129 21.4377 4.3996 22.1658 5.44409 22.2894L7.27051 22.4791C7.53308 24.9404 7.71332 27.1031 7.79822 28.3785L7.82123 28.7341C8.43231 38.3085 9.97583 44.0959 12.54 46.4269C14.4114 48.1282 16.6751 48.9908 19.2684 48.9908C21.765 48.9908 23.7109 48.1635 24.0155 48.0266C26.6618 47.0071 29.5296 43.8373 29.6005 40.7156L30.1395 16.991C30.1422 16.9427 30.4005 9.64465 22.3475 9.22998ZM6.54602 10.687C6.27661 9.4585 5.34979 6.52332 4.29602 5.9787C3.72968 5.68597 0.796021 5.15576 1.01477 3.87452C1.27551 2.34729 5.396 1 10.8085 1C10.8254 1 10.8416 1 10.8585 1.00006C20.7198 1.0152 21.8273 2.71826 21.3898 4.03076C21.0863 4.94122 19.546 4.78076 18.2335 5.84326C17.0198 6.82581 16.5253 11.1706 16.3635 13.0828L16.3595 13.0825C16.3566 13.1196 16.0496 16.77 15.7457 21.0924C15.6551 21.0583 15.5783 21.0091 15.4786 20.9854C13.8459 20.5965 10.4056 20.0049 7.95117 19.7322C7.55304 16.433 7.06079 13.0344 6.54602 10.687ZM5.56165 21.2964C5.25757 21.2604 5.00378 21.1321 4.99585 20.826L4.98846 20.5382C4.97943 20.1887 5.25562 19.9055 5.59717 19.9055C5.61615 19.9055 5.63538 19.9064 5.65472 19.9081C6.07477 19.947 6.63281 20.09 7.31909 20.1586L7.46082 20.1723L7.46008 20.1797C9.90344 20.4243 13.6486 21.0635 15.3634 21.4717C16.8835 21.8337 17.0981 23.9252 17.1077 24.0264L16.2482 36.6797C16.2472 36.7251 16.2404 37.7925 16.9982 38.561C17.4894 39.0596 18.1779 39.312 19.046 39.312C21.5958 39.312 21.756 37.1494 21.7579 37.1265L22.7579 19.1836C22.755 19.1621 22.4464 17.0244 20.09 16.9785C19.1378 16.9556 18.4542 17.2852 18.046 17.585L18.0995 16.7985C18.3802 16.5678 19.5776 15.7394 21.6163 16.4844C23.6251 17.2197 23.4308 19.6851 23.421 19.7983L22.463 37.2622C22.463 37.2729 22.3956 38.3574 21.5372 39.1143C20.8839 39.6924 19.9396 39.9399 18.7306 39.854C17.6661 39.7778 16.8615 39.4248 16.34 38.8042C15.5499 37.8628 15.6681 36.6006 15.671 36.5684L15.9835 24.5024C15.9836 24.4991 15.9828 24.496 15.9828 24.4927C15.9876 24.4077 15.9913 24.3256 15.9962 24.2402L15.965 24.2385C15.8667 23.2128 15.0594 22.3594 14.0157 22.2446L8.17554 21.5532C8.17529 21.5508 8.17505 21.5486 8.1748 21.5463L8.02423 21.5353L7.62317 21.4878L7.62103 21.5059L7.48401 21.4958L5.56165 21.2964ZM21.7882 16.0146C19.9944 15.3585 18.7693 15.8046 18.1501 16.1677C18.2031 15.7978 18.386 14.9844 18.9982 14.4478C19.4611 14.0425 20.0929 13.8745 20.8556 13.9414C24.7306 14.2861 24.5558 17.1699 24.546 17.312C24.546 17.4556 24.5382 31.7695 23.8595 39.791C23.7589 40.978 22.8126 43.2349 19.9542 43.2788C19.924 43.2793 19.8927 43.2798 19.8615 43.2798C17.8068 43.2798 15.7286 42.2261 15.671 40.1802C15.6572 39.6859 15.6473 39.1779 15.639 38.6649C15.7275 38.8199 15.8297 38.9733 15.9532 39.1211C16.5656 39.8521 17.4874 40.2666 18.6954 40.353C18.8634 40.3647 19.0265 40.3711 19.1866 40.3711C20.3068 40.3711 21.2101 40.0732 21.8741 39.4839C22.8888 38.584 22.9601 37.3394 22.963 37.2886L23.92 19.8345C23.923 19.8052 24.1603 16.8833 21.7882 16.0146ZM17.9972 18.3027C18.1583 18.1108 18.8224 17.4424 20.0802 17.4785C22.0001 17.5156 22.2521 19.1787 22.2599 19.2021L21.2589 37.0962C21.254 37.166 21.1163 38.812 19.046 38.812C18.3195 38.812 17.7511 38.6108 17.3575 38.2139C16.7482 37.5986 16.7482 36.7007 16.7472 36.7007L17.9972 18.3027ZM29.1398 16.9683L28.6008 40.6929C28.5425 43.2583 26.0289 46.1942 23.6293 47.1037C23.6293 47.1037 21.7397 47.9908 19.2684 47.9908C17.3943 47.9908 15.1859 47.4808 13.2127 45.687C9.54602 42.3537 8.9585 30.7512 8.79602 28.312C8.69885 26.8528 8.49841 24.5328 8.23083 22.0628L13.9591 22.7412C14.8326 22.8373 15.4973 23.5964 15.4824 24.4733C15.1505 30.3987 15.045 35.6885 15.171 40.1938C15.2296 42.2842 17.1906 43.7798 19.8517 43.7798C19.8888 43.7798 19.9249 43.7793 19.962 43.7788C22.756 43.7358 24.1993 41.7036 24.3575 39.833C25.0382 31.7905 25.046 17.4561 25.045 17.3325C25.048 17.2974 25.2794 13.833 20.9005 13.4434C19.9855 13.3643 19.2374 13.5737 18.6691 14.0718C17.7013 14.9199 17.632 16.2852 17.63 16.3364L17.2088 22.537C17.0047 22.0901 16.692 21.6444 16.2296 21.3301C16.5239 17.1379 16.8232 13.5385 16.8543 13.1639C17.6944 12.0513 19.463 10.2215 22.0185 10.2215C22.1101 10.2215 22.2024 10.2239 22.296 10.2287C29.4468 10.5969 29.1398 16.9683 29.1398 16.9683Z" fill="black"/>
</svg>
