<?xml version="1.0" encoding="utf-8"?>
<!-- Generator: Adobe Illustrator 24.1.3, SVG Export Plug-In . SVG Version: 6.00 Build 0)  -->
<svg version="1.1" id="Layer_1" xmlns="http://www.w3.org/2000/svg" xmlns:xlink="http://www.w3.org/1999/xlink" x="0px" y="0px"
	 viewBox="0 0 100 100" style="enable-background:new 0 0 100 100;" xml:space="preserve">
<style type="text/css">
	.st0{fill:#FFD761;}
</style>
<g id="colour">
	<path class="st0" d="M74.7,58.9c1.4-5.1,2.3-10.5,2.8-15.8c0.6-4.9,0.7-9.8-3.6-13.1c-3.9-3-10.3-3.8-14.8-1.7
		c-0.5,0.3-0.9,0.3-1.2,0.7c0.4-0.9,0.9-1.9,1.3-2.8c1.2-2.2,2.3-4.8,4.1-6.5c0.8-0.8,1.7-1.1,2.7-1.2c1.2-0.1,2.3,0.1,3.5-0.6
		c2.6-1.6,1.8-5-0.1-6.9c-1.8-1.9-4.5-3-6.9-4c-4.8-2.3-9.8-4-15.1-4.7c-2.8-0.4-5.7-0.6-8.7-0.4s-6.7,0.3-7.8,3.7
		c-0.4,1.6,0.5,3.1,2,3.5c1.2,1.3,2.4,2,3.6,3.1c0.9,0.8,1.6,2.2,1.8,3.4c0.8,3.5,0.3,7.5,0.1,11.1c-0.2,2.1-0.4,4.4-0.8,6.4
		c-0.3,1.9-0.8,3.7,0.2,5.5c1.1,1.8,3.5,2.3,5.5,2.9c2.1,0.8,4.2,1.7,6.3,2.7c0.5,0.3,1.3,0.3,1.9,0.3c0,0.2-0.1,0.4,0.1,0.4
		c0.3,0.9,0.5,1.9,0.8,2.8c0.3,0.9,1.5,0.8,1.8-0.1c0.8-2.1,1.4-4.3,1.8-6.5c1.1-2.6,2.4-5.4,4.9-7.1c2.9,0,5.8,1,7.4,3.8
		c1.7,3,0.5,6-0.3,9.1c-2.1,7.8-3.7,15.8-6,23.5c-1,3.8-2.5,7.7-4,11.2c-1.5,3.3-2.9,5.5-6.7,5.8s-7.2-1.4-9.4-4.1
		c0-0.2,0.1-0.4,0.1-0.5c0.9-8.2,4.1-15.7,6.4-23.4c0.5-1.8,1-3.8,1.4-5.7c0.3-1.9,1.1-4,0.2-5.6s-3.1-2.2-4.6-3
		c-1.9-0.9-4-1.7-5.9-2.6c-2.3-1-5.6,1.2-4,3.8c0,0,0,0,0.1,0.2c-0.8,7.2-3,14-3.7,21.2c-0.3,2.6-0.3,5.4,0,8c0,2.9,0.1,5.9,1.1,8.7
		c1.4,4.3,4.3,7.8,8.4,9.9c7.7,4,19.6,2.6,24.6-5c2.9-4.3,2.7-9.8,4.2-14.7C71.1,69.2,73.5,64.2,74.7,58.9z"/>
</g>
<g id="Layer_1_1_">
	<path d="M68.8,26.2c-0.2,0-0.4-0.1-0.5-0.1c-3.3-0.9-6.4-0.2-8.8,0.9c1.6-3.7,3.4-6.7,4.5-7.2c1.1-0.5,2.1-0.6,3.1-0.7
		c1.6-0.1,3.2-0.3,4.2-1.8c0.7-1.2,0.9-2.5,0.4-3.8c-0.7-2.3-3.8-5.5-19-9.7l-0.2,0C43.6,1.4,33.2,0.9,31,5.2
		c-1.5,3.3,2.3,5.7,4.5,7.1c0.3,0.3,0.9,0.4,0.8,0.6c0.8,0.6,1.4,4.9,1.1,8.1c-0.2,3.6-0.7,9.2-1.7,15.5c-0.2,0-0.5-0.1-0.7-0.4
		c-0.5-0.1-0.9-0.4-1.2-0.5c-0.2,0-0.2,0-0.2,0c-0.7-0.2-1.6,0-2.4,0.3c-0.7,0.4-1.1,1.1-1.3,2l-0.1,0.5c-0.3,1.1,0.1,2.6,1.8,3.2
		l3.2,1.3c-0.7,4.7-1.6,8.5-2,11l-0.2,0.7c-3.7,17.7-3.6,29.1-0.2,34.5c2.6,4,6.2,6.8,10.9,8c4.5,1.2,8.4,0.7,9,0.5
		c5.2-0.5,12.1-4.9,13.8-10.5l13.1-42.9C79.2,44.1,83.3,31,68.8,26.2z M39.4,21.1c0.2-2.3-0.1-8.2-1.7-9.6c-0.9-0.8-6-3.2-5-5.4
		C34.1,3.3,42.2,3,52,5.7l0,0c18,4.9,19.1,8.5,17.6,10.7c-1,1.5-3.7,0.6-6.7,1.7c-2.7,1.2-5.7,8.8-7,12.1l0,0c0,0-2.4,6.6-5.1,14.2
		c-0.2,0-0.3-0.3-0.5-0.3c-2.7-1.5-8.8-4.3-13-6.1C38.6,32,39.3,25.6,39.4,21.1z M32.5,39.9c-0.5-0.1-1-0.7-0.8-1.2l0.1-0.5
		c0.1-0.5,0.8-0.9,1.4-0.8c0,0,0,0,0.2,0c0.7,0.2,1.7,0.9,2.9,1.4l0.2,0l0,0c4.3,1.6,10.8,4.7,13.7,6.3c2.5,1.5,1.8,5.4,1.8,5.6
		l-7.9,22.6c0,0-0.5,2,0.5,3.8c0.7,1.2,1.8,2,3.2,2.4c4.5,1.2,6-2.7,6-2.7l10.7-32c0,0,0.5-4.1-3.8-5.3c-1.8-0.5-3.1-0.2-3.9,0.1
		l0.6-1.4c0.6-0.2,3.3-1.3,6.5,1.2c3.3,2.3,1.7,6.7,1.6,6.9L55,77.7c0,0-0.7,1.9-2.6,3c-1.6,0.7-3.3,0.7-5.4-0.1
		c-1.9-0.7-3.3-1.7-3.9-3c-1-2-0.2-4.3-0.2-4.3l6.9-22.3l0,0c0-0.2,0.1-0.4,0.1-0.5l0,0c0.3-1.9-0.7-3.9-2.5-4.6l-10.2-4.1l0,0
		l-0.4-0.1l-0.7-0.2l0,0l-0.2,0L32.5,39.9z M64.5,38.3c-2.9-2.2-5.3-1.9-6.6-1.4c0.4-0.7,1-2.1,2.3-2.7c1.1-0.5,2.3-0.5,3.7,0
		c6.9,2.5,5.1,7.6,5,8c0,0.2-7.2,26.3-12.4,40.5c-0.8,2.1-3.5,5.7-8.8,4.4l-0.2,0c-3.8-1-6.9-4-6.1-7.7c0.2-0.9,0.5-1.8,0.7-2.7
		c0.1,0.4,0.2,0.6,0.3,1.1c0.7,1.6,2.2,2.7,4.3,3.5c0.4,0.1,0.5,0.1,0.9,0.2c2,0.5,3.8,0.4,5.3-0.3c2.3-1.1,3-3.3,3.1-3.4l10.5-31.3
		C66.5,46.3,68.4,41.2,64.5,38.3z M56.5,40.6c0.5-0.3,1.9-1.2,4.2-0.4c3.4,0.9,3.2,4.2,3.2,4.2l-10.7,32c0,0.2-1,3-4.8,2
		c-1.3-0.3-2.3-1-2.8-1.9c-0.8-1.4-0.3-3-0.3-3L56.5,40.6z M77.3,43.8L64.6,86.6c-1.5,4.7-7.4,8.7-12.2,9.1c0,0-3.9,0.7-8.4-0.5
		c-3.4-0.9-7.2-2.9-9.9-7.2c-4.9-7.8-0.1-29.1,0.8-33.7c0.6-2.8,1.3-7,2-11.6l10,4.1c1.6,0.6,2.3,2.4,1.9,3.8
		c-3.5,10.6-6.3,20.1-8.3,28.4c-0.9,3.9,1.8,7.5,6.7,8.9l0.2,0c5.1,1.4,8.7-1.7,9.9-4.9c5.2-14.2,12.4-40.3,12.4-40.5
		c0,0,2.1-6.3-5.5-9.1c-1.6-0.6-3.1-0.7-4.3,0c-2.2,1-2.9,3.5-3,3.7l-3.8,11.1c-0.2-0.8-0.5-1.9-1.2-2.7c2.6-7.5,5-13.9,5.2-14.6
		c2-1.6,6.2-4,10.9-2.7c0.2,0,0.4,0.1,0.5,0.1C81,32.3,77.3,43.8,77.3,43.8z"/>
</g>
</svg>
