<?xml version="1.0" encoding="utf-8"?>
<!-- Generator: Adobe Illustrator 24.1.3, SVG Export Plug-In . SVG Version: 6.00 Build 0)  -->
<svg version="1.1" xmlns="http://www.w3.org/2000/svg" xmlns:xlink="http://www.w3.org/1999/xlink" x="0px" y="0px"
	 viewBox="0 0 31 49" style="enable-background:new 0 0 31 49;" xml:space="preserve">
<style type="text/css">
	.st0{fill:#FFD761;}
</style>
<g id="colour">
	<path class="st0" d="M29.9,25.1c0-2.8-0.3-5.7-0.8-8.5c-0.4-2.6-1-5.1-3.7-6.2c-2.4-1-5.8-0.5-7.8,1.2c-0.2,0.2-0.4,0.3-0.5,0.5
		c0.1-0.5,0.2-1.1,0.3-1.6c0.3-1.3,0.5-2.8,1.2-3.9c0.3-0.5,0.7-0.8,1.2-1c0.6-0.2,1.2-0.3,1.7-0.8c1.1-1.2,0.2-2.8-1-3.5
		c-1.2-0.7-2.7-0.9-4.1-1.1C13.6-0.3,10.8-0.5,8-0.1c-1.5,0.2-3,0.5-4.5,1c-1.5,0.5-3.4,1.1-3.5,3c0,0.9,0.7,1.5,1.5,1.5
		C2.3,5.9,3,6.1,3.8,6.5C4.4,6.8,4.9,7.4,5.2,8c0.9,1.7,1.2,3.8,1.6,5.7C7,14.8,7.2,16,7.3,17.1c0.1,1,0.1,2,0.9,2.8
		c0.8,0.8,2.1,0.7,3.2,0.7c1.2,0.1,2.4,0.3,3.6,0.5c0.3,0.1,0.7,0,1-0.1c0,0.1,0,0.2,0.1,0.2c0.3,0.4,0.5,0.9,0.8,1.3
		c0.3,0.4,0.9,0.2,0.9-0.3c0.1-1.2,0.1-2.4,0-3.6c0.2-1.5,0.5-3.1,1.5-4.3c1.5-0.4,3.1-0.3,4.3,0.9c1.3,1.3,1.1,3,1.1,4.7
		c0,4.3,0.3,8.6,0.2,12.9c0,2.1-0.2,4.3-0.5,6.3c-0.3,1.9-0.7,3.2-2.6,3.9c-1.9,0.7-3.9,0.3-5.4-0.8c0-0.1,0-0.2,0-0.3
		c-0.7-4.3-0.1-8.6,0-12.9c0-1,0-2.1-0.1-3.1c-0.1-1,0-2.2-0.7-2.9c-0.7-0.7-1.9-0.7-2.8-0.9c-1.1-0.2-2.3-0.3-3.4-0.5
		c-1.3-0.2-2.7,1.4-1.5,2.5c0,0,0,0,0.1,0.1c0.6,3.8,0.4,7.6,1.1,11.4c0.2,1.4,0.6,2.8,1.1,4.1c0.4,1.5,0.9,3,1.8,4.3
		c1.3,2,3.3,3.4,5.7,3.9c4.5,1,10.4-1.4,11.9-6c0.9-2.6,0-5.4,0.1-8.1C29.5,30.9,30,28,29.9,25.1z"/>
</g>
<g id="Layer_1">
	<path d="M22.3,9.2c-0.1,0-0.2,0-0.3,0c-1.8,0-3.3,0.8-4.4,1.7c0.3-2.1,0.8-3.9,1.3-4.3c0.5-0.4,1-0.6,1.5-0.8
		c0.8-0.3,1.6-0.6,1.9-1.5c0.2-0.7,0.1-1.4-0.3-2C21.3,1.2,19.3,0,10.9,0l-0.1,0C5.9,0,0.5,1.2,0,3.7c-0.3,1.9,2,2.6,3.3,3
		c0.2,0.1,0.5,0.1,0.5,0.2c0.5,0.2,1.4,2.3,1.7,4c0.4,1.9,0.9,4.8,1.3,8.2c-0.1,0-0.3,0-0.4-0.1c-0.3,0-0.5-0.1-0.7-0.1
		c-0.1,0-0.1,0-0.1,0c-0.4,0-0.8,0.2-1.2,0.5C4.1,19.7,4,20.1,4,20.6l0,0.3c0,0.6,0.4,1.3,1.4,1.4l1.8,0.2c0.3,2.5,0.4,4.6,0.5,5.9
		l0,0.4c0.6,9.6,2.2,15.4,4.7,17.7c1.9,1.7,4.1,2.6,6.7,2.6c2.5,0,4.4-0.8,4.7-1c2.6-1,5.5-4.2,5.6-7.3L30.1,17
		C30.1,16.9,30.4,9.6,22.3,9.2z M6.5,10.7C6.3,9.5,5.3,6.5,4.3,6C3.7,5.7,0.8,5.2,1,3.9C1.3,2.3,5.4,1,10.8,1c0,0,0,0,0,0
		c9.9,0,11,1.7,10.5,3c-0.3,0.9-1.8,0.8-3.2,1.8c-1.2,1-1.7,5.3-1.9,7.2l0,0c0,0-0.3,3.7-0.6,8c-0.1,0-0.2-0.1-0.3-0.1
		c-1.6-0.4-5.1-1-7.5-1.3C7.6,16.4,7.1,13,6.5,10.7z M5.6,21.3c-0.3,0-0.6-0.2-0.6-0.5l0-0.3c0-0.3,0.3-0.6,0.6-0.6c0,0,0,0,0.1,0
		c0.4,0,1,0.2,1.7,0.3l0.1,0l0,0c2.4,0.2,6.2,0.9,7.9,1.3c1.5,0.4,1.7,2.5,1.7,2.6l-0.9,12.7c0,0,0,1.1,0.8,1.9
		c0.5,0.5,1.2,0.8,2,0.8c2.5,0,2.7-2.2,2.7-2.2l1-17.9c0,0-0.3-2.2-2.7-2.2c-1,0-1.6,0.3-2,0.6l0.1-0.8c0.3-0.2,1.5-1.1,3.5-0.3
		c2,0.7,1.8,3.2,1.8,3.3l-1,17.5c0,0-0.1,1.1-0.9,1.9c-0.7,0.6-1.6,0.8-2.8,0.7c-1.1-0.1-1.9-0.4-2.4-1c-0.8-0.9-0.7-2.2-0.7-2.2
		L16,24.5c0,0,0,0,0,0c0-0.1,0-0.2,0-0.3l0,0c-0.1-1-0.9-1.9-1.9-2l-5.8-0.7c0,0,0,0,0,0l-0.2,0l-0.4,0l0,0l-0.1,0L5.6,21.3z
		 M21.8,16c-1.8-0.7-3-0.2-3.6,0.2c0.1-0.4,0.2-1.2,0.8-1.7c0.5-0.4,1.1-0.6,1.9-0.5c3.9,0.3,3.7,3.2,3.7,3.4c0,0.1,0,14.5-0.7,22.5
		c-0.1,1.2-1,3.4-3.9,3.5c0,0-0.1,0-0.1,0c-2.1,0-4.1-1.1-4.2-3.1c0-0.5,0-1,0-1.5c0.1,0.2,0.2,0.3,0.3,0.5c0.6,0.7,1.5,1.1,2.7,1.2
		c0.2,0,0.3,0,0.5,0c1.1,0,2-0.3,2.7-0.9c1-0.9,1.1-2.1,1.1-2.2l1-17.5C23.9,19.8,24.2,16.9,21.8,16z M18,18.3
		c0.2-0.2,0.8-0.9,2.1-0.8c1.9,0,2.2,1.7,2.2,1.7l-1,17.9c0,0.1-0.1,1.7-2.2,1.7c-0.7,0-1.3-0.2-1.7-0.6c-0.6-0.6-0.6-1.5-0.6-1.5
		L18,18.3z M29.1,17l-0.5,23.7c-0.1,2.6-2.6,5.5-5,6.4c0,0-1.9,0.9-4.4,0.9c-1.9,0-4.1-0.5-6.1-2.3C9.5,42.4,9,30.8,8.8,28.3
		c-0.1-1.5-0.3-3.8-0.6-6.2l5.7,0.7c0.9,0.1,1.5,0.9,1.5,1.7c-0.3,5.9-0.4,11.2-0.3,15.7c0.1,2.1,2,3.6,4.7,3.6c0,0,0.1,0,0.1,0
		c2.8,0,4.2-2.1,4.4-3.9c0.7-8,0.7-22.4,0.7-22.5c0,0,0.2-3.5-4.1-3.9c-0.9-0.1-1.7,0.1-2.2,0.6c-1,0.8-1,2.2-1,2.3l-0.4,6.2
		c-0.2-0.4-0.5-0.9-1-1.2c0.3-4.2,0.6-7.8,0.6-8.2c0.8-1.1,2.6-2.9,5.2-2.9c0.1,0,0.2,0,0.3,0C29.4,10.6,29.1,17,29.1,17z"/>
</g>
</svg>
