<svg width="50" height="49" viewBox="0 0 50 49" fill="none" xmlns="http://www.w3.org/2000/svg">
<path d="M1.98245 33.3328C3.77012 30.961 6.51444 30.2082 8.96204 29.7853C11.0279 29.4285 12.0701 28.5584 13.0922 26.3381C14.2855 23.7458 16.4407 22.1356 18.7158 22.1356L18.793 22.1361C20.1647 22.1576 21.1873 22.7046 22.0443 23.4036L36.7504 9.21075L36.7768 9.23715C37.2113 8.58847 37.138 7.54382 37.1375 7.53209C37.1317 7.46317 37.1561 7.39473 37.204 7.34438C37.554 6.97726 37.929 6.58375 38.3146 6.179L38.1827 6.0475C37.973 6.19415 37.7324 6.27627 37.4958 6.27627C37.2529 6.27627 37.0319 6.18877 36.8726 6.02941C36.6854 5.84268 36.5983 5.56942 36.6335 5.27954C36.6663 5.00775 36.8007 4.74182 37.0114 4.53064C37.447 4.0946 38.1465 4.02861 38.5097 4.39181C38.6969 4.57855 38.7844 4.85181 38.7487 5.14169C38.7253 5.33771 38.6471 5.52982 38.5273 5.7014L38.651 5.82508C39.5763 4.85279 40.5452 3.8321 41.4046 2.92384L41.2242 2.74346C41.0145 2.89011 40.7735 2.97224 40.5369 2.97224C40.2944 2.97224 40.0735 2.88473 39.9141 2.72537C39.5392 2.35044 39.6013 1.67829 40.0529 1.2266C40.4885 0.790563 41.188 0.724571 41.5512 1.08778C41.7106 1.24714 41.7986 1.46809 41.7986 1.71104C41.7981 1.94764 41.7165 2.18814 41.5698 2.39785L41.7404 2.56846C42.9605 1.27744 43.8928 0.281686 44.0189 0.123792C44.0638 0.0455783 44.1518 -0.00623831 44.2403 0.000605387C44.6069 0.0142928 44.9902 0.294884 45.3285 0.541746C45.3847 0.58232 45.438 0.621426 45.4888 0.6576C45.8427 0.637558 46.3374 0.846291 46.6249 1.12151C46.989 1.21438 47.4251 1.51257 47.4764 1.54875C47.5004 1.56537 47.5214 1.5859 47.5375 1.60985C47.5737 1.66167 47.8724 2.09771 47.9652 2.46238C48.2229 2.73466 48.4507 3.23621 48.4287 3.59746C48.4648 3.64878 48.5044 3.70256 48.5455 3.75828C48.7923 4.09656 49.0725 4.47932 49.0852 4.84594C49.0876 4.91242 49.0632 4.97695 49.0167 5.02437C49.0016 5.0405 48.984 5.05419 48.9649 5.06543C48.8148 5.18373 47.8157 6.11936 46.5178 7.34536L46.6908 7.51841C47.12 7.22901 47.6842 7.22022 47.9995 7.53454C48.3744 7.90947 48.3118 8.58162 47.8606 9.03331C47.6152 9.27821 47.2965 9.419 46.9851 9.419C46.7422 9.419 46.5212 9.3315 46.3619 9.17214C46.0363 8.84657 46.0417 8.29712 46.3438 7.86206L46.1629 7.68119C45.2546 8.54056 44.2344 9.50943 43.2617 10.4348L43.3868 10.5599C43.816 10.2701 44.3806 10.2618 44.6949 10.5761C44.8822 10.7628 44.9697 11.0361 44.934 11.3259C44.9017 11.5977 44.7668 11.8642 44.5561 12.0748C44.3112 12.3197 43.9925 12.4605 43.6811 12.4605C43.4381 12.4605 43.2172 12.373 43.0578 12.2137C42.8706 12.0269 42.7836 11.7537 42.8188 11.4638C42.8427 11.2678 42.9205 11.0757 43.0402 10.9041L42.9077 10.7716C42.5025 11.1573 42.1095 11.5322 41.7424 11.8822C41.6969 11.9257 41.6363 11.9497 41.5737 11.9497C41.562 11.9497 41.6285 11.9438 41.3581 11.9433C41.0468 11.9433 40.3355 11.9825 39.8491 12.308L39.877 12.3359L25.6743 27.0508C26.3387 27.8896 26.85 28.8883 26.871 30.2126C26.9082 32.5189 25.2979 34.7035 22.669 35.9139C20.4487 36.9355 19.5791 37.9782 19.2217 40.044C18.7984 42.4921 18.0461 45.2365 15.6737 47.0241C14.3123 48.0507 12.7828 49 10.826 49C8.60079 49 6.29055 47.7711 3.76278 45.2433C-1.62956 39.8524 -0.279396 36.3328 1.98245 33.3328ZM10.826 48.5121C12.6391 48.5121 14.086 47.6098 15.3795 46.6345C17.6149 44.949 18.3325 42.3157 18.7392 39.9619C19.1244 37.7343 20.0992 36.5596 22.4642 35.471C24.9147 34.3428 26.4154 32.3317 26.3817 30.2214C26.3636 29.0687 25.9183 28.1722 25.3287 27.4091L21.1707 31.7172L20.6476 31.1942L20.5919 31.2528C20.5949 31.31 20.6002 31.3667 20.6002 31.4239C20.6002 32.2344 20.2844 32.9965 19.7115 33.5699C19.1386 34.1433 18.376 34.4586 17.5651 34.4586C17.5533 34.4586 17.5421 34.4571 17.5303 34.4571L10.5459 41.7682L11.2811 42.5034L9.28027 44.5042L4.50337 39.7268L6.50417 37.726L7.31907 38.5409L14.5401 31.6415C14.5352 31.5691 14.5294 31.4973 14.5294 31.4239C14.5294 30.6129 14.8452 29.8509 15.4181 29.2774C15.991 28.704 16.7536 28.3883 17.5646 28.3883C17.6623 28.3883 17.7596 28.3931 17.8559 28.4024L17.369 27.9156L21.6874 23.7477C20.9053 23.1235 19.9838 22.6435 18.7852 22.6249L18.7153 22.6244C16.6328 22.6244 14.6487 24.1256 13.5356 26.5424C12.4465 28.9074 11.2718 29.8821 9.04416 30.2669C6.69091 30.6741 4.05706 31.3912 2.37205 33.6271C0.93927 35.5272 -1.72733 39.0639 4.10741 44.8987C6.53937 47.3301 8.73668 48.5121 10.826 48.5121ZM41.4803 11.4565C46.6131 6.56127 48.1011 5.16613 48.5817 4.76871C48.522 4.5546 48.3108 4.26569 48.1505 4.04718C48.0845 3.95626 48.0215 3.87072 47.9701 3.7925C47.9315 3.73482 47.9193 3.66296 47.9374 3.59501C47.977 3.44543 47.8142 2.97957 47.5781 2.76692C47.537 2.72977 47.5096 2.67991 47.5008 2.62565C47.4696 2.43549 47.2858 2.1114 47.1616 1.92564C47.0135 1.82738 46.6698 1.62061 46.4611 1.5859C46.4068 1.57661 46.3565 1.54924 46.3193 1.50817C46.1385 1.30677 45.7454 1.14448 45.5406 1.14448C45.5132 1.14448 45.4976 1.14741 45.4908 1.14937C45.4233 1.16794 45.3514 1.15523 45.2933 1.11662C45.216 1.06529 45.1305 1.00272 45.04 0.936725C44.8152 0.772476 44.517 0.553967 44.3004 0.501173C43.9759 0.923038 43.1013 1.84547 40.9988 4.06332C39.4879 5.65643 37.9739 7.24564 37.6293 7.6064C37.6396 7.9388 37.6244 8.92283 37.1282 9.5896L37.3634 9.82473L39.4571 7.67483C39.3041 7.66163 39.1594 7.60395 39.0494 7.49396C38.9257 7.37078 38.8577 7.20653 38.8577 7.03153C38.8577 6.85652 38.9257 6.69276 39.0494 6.56909C39.2967 6.32223 39.7269 6.32125 39.9742 6.56909C40.0979 6.69227 40.1659 6.85652 40.1659 7.03153C40.1659 7.20555 40.0984 7.36931 39.9752 7.4925L39.9747 7.49299C39.9747 7.49299 39.9747 7.49347 39.9742 7.49347C39.9742 7.49347 39.9738 7.49347 39.9738 7.49396L37.5364 9.99729L37.8424 10.3028L37.9216 10.382L42.7244 4.46514C42.5524 4.46318 42.3906 4.3967 42.2684 4.27498C42.1447 4.1518 42.0767 3.98755 42.0767 3.81254C42.0767 3.63754 42.1447 3.47378 42.2684 3.35011C42.5157 3.10275 42.9459 3.10227 43.1932 3.35011C43.3169 3.47329 43.3849 3.63754 43.3849 3.81254C43.3849 3.98315 43.3184 4.14202 43.2006 4.26423L43.202 4.26569L38.0952 10.5555L38.5312 10.9916L44.8215 5.88472L44.823 5.88618C45.0713 5.64861 45.4922 5.64812 45.7371 5.89303C45.8608 6.01621 45.9287 6.18095 45.9287 6.35547C45.9287 6.52998 45.8608 6.69423 45.7371 6.8179C45.6135 6.94158 45.4492 7.00953 45.2752 7.00953C45.1007 7.00953 44.9364 6.94158 44.8127 6.8179C44.6905 6.69569 44.624 6.5334 44.6226 6.36133L38.7052 11.1641L39.0904 11.5493L41.5947 9.11054L41.5952 9.11103C41.8426 8.86515 42.2723 8.86515 42.5191 9.11201C42.6428 9.2352 42.7107 9.39944 42.7107 9.57445C42.7107 9.74945 42.6428 9.91321 42.5191 10.0369C42.3954 10.1606 42.2312 10.2285 42.0567 10.2285C41.8822 10.2285 41.7179 10.1606 41.5942 10.0369C41.4843 9.9269 41.4266 9.78269 41.4134 9.6292L39.2635 11.7224L39.4986 11.9575C40.0784 11.5244 40.8942 11.455 41.3586 11.455C41.4046 11.455 41.4461 11.4555 41.4803 11.4565ZM15.028 31.5134C15.0417 31.9088 15.1512 32.298 15.3482 32.6533L18.7534 29.2994L18.5163 29.0624C18.2797 28.967 18.0265 28.9172 17.7669 28.8966L15.028 31.5134ZM17.4189 28.8918C16.7946 28.9274 16.21 29.1777 15.7647 29.6235C15.3355 30.0527 15.1033 30.5988 15.0451 31.16L17.4189 28.8918ZM5.62574 40.1579L6.11897 39.6867L5.89899 39.4667L6.2446 39.1211L6.4724 39.3489L6.96515 38.8782L6.50368 38.4167L5.1941 39.7263L5.62574 40.1579ZM6.66891 41.2016L7.15481 40.723L6.29153 39.8602L5.7983 40.3315L6.66891 41.2016ZM8.53382 41.4108L9.0119 40.9254L8.16133 40.0748L7.67591 40.5529L8.53382 41.4108ZM8.70638 41.5834L9.56428 42.4413L10.035 41.9486L9.18446 41.098L8.70638 41.5834ZM9.73733 42.6143L9.88545 42.7625L9.53984 43.1081L9.39954 42.9678L8.92831 43.461L9.27978 43.8125L10.5894 42.5029L10.2076 42.1211L9.73733 42.6143ZM9.2265 42.7947L8.36321 41.9314L7.88464 42.4173L8.75526 43.288L9.2265 42.7947ZM8.19065 41.7589L7.32786 40.8956L6.84196 41.3742L7.71209 42.2448L8.19065 41.7589ZM6.64545 39.5225L7.50335 40.3804L7.98877 39.9023L7.13819 39.0517L6.64545 39.5225ZM9.35506 40.5774L15.8815 33.9507C15.7168 33.8407 15.5618 33.7136 15.4186 33.5704C15.3091 33.4609 15.2118 33.3426 15.1219 33.2204L8.50986 39.7327L9.35506 40.5774ZM17.6672 33.96L20.1085 31.4044C20.106 31.0876 20.0459 30.7708 19.9266 30.4727L19.7868 30.3328L16.4618 33.7087C16.803 33.8735 17.175 33.9698 17.5651 33.9698C17.5998 33.9703 17.6325 33.9615 17.6672 33.96ZM18.0397 33.9238C18.5388 33.83 18.9988 33.5914 19.3654 33.2243C19.7677 32.822 19.9985 32.317 20.0747 31.7935L18.0397 33.9238ZM38.1695 11.3211L37.7657 10.9173L19.2745 29.1293L19.9574 29.8122L38.1695 11.3211ZM15.7642 33.2243C15.9074 33.368 16.0687 33.4853 16.2374 33.589L19.6143 30.1608L18.9265 29.473L15.4763 32.8714C15.5613 32.9946 15.6542 33.1143 15.7642 33.2243ZM19.1019 28.9568L37.5936 10.7447L37.1898 10.3409L18.4195 28.2739L19.1019 28.9568ZM38.3415 11.4931L20.1295 29.9843L20.8124 30.6672L38.7453 11.8969L38.3415 11.4931ZM16.0966 34.0798L9.52713 40.7499L10.3723 41.5951L17.2116 34.4366C16.8171 34.3912 16.4398 34.2699 16.0966 34.0798ZM8.33682 39.5591L14.982 33.0141C14.7797 32.6871 14.6423 32.3258 14.5768 31.9445L7.49162 38.7134L8.33682 39.5591ZM18.0671 27.9219L18.246 28.1008L37.0168 10.1684L36.7445 9.8961L18.0671 27.9219ZM39.8017 7.32043C39.8789 7.24319 39.9215 7.14005 39.9215 7.03104C39.9215 6.92203 39.8789 6.81888 39.8017 6.74165C39.7245 6.66441 39.6218 6.62139 39.5123 6.62139C39.4023 6.62139 39.2997 6.66392 39.2224 6.74165C39.1452 6.81937 39.1027 6.92203 39.1027 7.03104C39.1027 7.14005 39.1452 7.24319 39.2224 7.32043C39.3774 7.4749 39.6472 7.47539 39.8017 7.32043ZM43.0202 4.10193C43.0974 4.0247 43.1399 3.92155 43.1399 3.81254C43.1399 3.70353 43.0974 3.60039 43.0202 3.52315C42.9429 3.44592 42.8403 3.4029 42.7308 3.4029C42.6208 3.4029 42.5181 3.44543 42.4409 3.52315C42.3637 3.60088 42.3211 3.70353 42.3211 3.81254C42.3211 3.92155 42.3637 4.0247 42.4409 4.10193C42.5954 4.25592 42.8652 4.2569 43.0202 4.10193ZM44.8646 6.35595C44.8646 6.46545 44.9071 6.56811 44.9843 6.64535C45.1383 6.79884 45.4081 6.79982 45.5636 6.64535C45.6408 6.56811 45.6834 6.46496 45.6834 6.35595C45.6834 6.24646 45.6408 6.14331 45.5636 6.06607C45.4864 5.98884 45.3837 5.94582 45.2742 5.94582C45.1642 5.94582 45.0616 5.98835 44.9843 6.06607C44.9071 6.1438 44.8646 6.24646 44.8646 6.35595ZM41.6456 9.57445C41.6456 9.68395 41.6881 9.7866 41.7653 9.86384C41.9198 10.0183 42.1901 10.0183 42.3451 9.86384C42.4223 9.7866 42.4649 9.68346 42.4649 9.57445C42.4649 9.46544 42.4223 9.36229 42.3451 9.28506C42.2679 9.20782 42.1647 9.1648 42.0552 9.1648C41.9457 9.1648 41.8426 9.20733 41.7653 9.28506C41.6881 9.36278 41.6456 9.46495 41.6456 9.57445ZM38.9184 12.07L20.9859 30.8403L21.1653 31.0197L39.1906 12.3422L38.9184 12.07ZM38.1641 4.73693C38.0785 4.65139 37.9661 4.6333 37.8869 4.6333C37.707 4.6333 37.509 4.72422 37.357 4.87576C37.2245 5.00824 37.138 5.17639 37.119 5.33771C37.1018 5.47947 37.137 5.60217 37.2182 5.68332C37.3042 5.76886 37.4167 5.78695 37.4958 5.78695C37.6753 5.78695 37.8732 5.69603 38.0253 5.54449C38.1577 5.41201 38.2443 5.24385 38.2638 5.08254C38.2814 4.94127 38.2452 4.81857 38.1641 4.73693ZM41.2061 1.43289C41.1206 1.34735 41.0081 1.32926 40.9289 1.32926C40.749 1.32926 40.5511 1.42018 40.399 1.57221C40.1429 1.82885 40.0793 2.19841 40.2602 2.37977C40.3458 2.46531 40.4582 2.4834 40.5374 2.4834C40.7173 2.4834 40.9153 2.39248 41.0673 2.24045C41.2193 2.08891 41.3097 1.89093 41.3102 1.71104C41.3102 1.63136 41.2921 1.51893 41.2061 1.43289ZM46.707 8.82653C46.793 8.91208 46.9054 8.93016 46.9846 8.93016C47.1645 8.93016 47.3625 8.83924 47.5145 8.6877C47.7707 8.43106 47.8342 8.0615 47.6534 7.88014C47.5673 7.7946 47.4554 7.77651 47.3762 7.77651C47.1963 7.77651 46.9978 7.86743 46.8458 8.01897C46.5897 8.27561 46.5261 8.64517 46.707 8.82653ZM43.4029 11.8686C43.489 11.9541 43.6014 11.9722 43.6806 11.9722C43.86 11.9722 44.058 11.8813 44.21 11.7297C44.3425 11.5972 44.429 11.4291 44.4486 11.2678C44.4657 11.126 44.43 11.0033 44.3488 10.9222C44.2633 10.8366 44.1509 10.8185 44.0717 10.8185C43.8918 10.8185 43.6938 10.9095 43.5418 11.061C43.4093 11.1935 43.3228 11.3616 43.3037 11.5229C43.2866 11.6642 43.3218 11.7874 43.4029 11.8686Z" fill="black"/>
</svg>
