<?xml version="1.0" encoding="utf-8"?>
<!-- Generator: Adobe Illustrator 24.1.3, SVG Export Plug-In . SVG Version: 6.00 Build 0)  -->
<svg version="1.1" id="Layer_1" xmlns="http://www.w3.org/2000/svg" xmlns:xlink="http://www.w3.org/1999/xlink" x="0px" y="0px"
	 viewBox="0 0 100 100" style="enable-background:new 0 0 100 100;" xml:space="preserve">
<style type="text/css">
	.st0{fill:#FFD761;}
</style>
<g id="colour">
	<path class="st0" d="M53.2,55.4c-1.4-2-3.2-3.8-4.8-5.2c-1.6-1.6-2.8-3-4.8-3.8c-2.2-1-4.8-2-7.8-1.2c-2.4,0.6-2.6,0.6-4.4,1.8
		c-0.8,0.8-1.2,1-1.8,1.8L29.4,49c-0.2,0.4-0.4,0.6-0.6,1c-1.4,1.2-2.6,2.8-4,4.4c-4.6,6-11.6,6-17.4,10.2
		c-10.6,7.6-6.2,20.4,2,27.8c8.4,7.4,19.4,10.2,27.2-0.2c2-2.6,2.4-5.4,3.4-8.6c1.4-4.2,3.8-5.6,7.2-8.4c5.2-4,7.2-5.8,7.8-12.6
		C55.4,59.5,55.2,58,53.2,55.4z"/>
</g>
<g id="Layer_1_1_">
	<path d="M4.8,67.5c3.6-4.8,9-6.2,14-7c4.2-0.8,6.2-2.4,8.2-6.8c2.4-5.2,6.6-8.4,11.2-8.4h0.2c2.8,0,4.8,1.2,6.6,2.6l29.4-28.6l0,0
		c0.8-1.2,0.8-3.4,0.8-3.4c0-0.2,0-0.2,0.2-0.4c0.8-0.8,1.4-1.6,2.2-2.4L77.2,13c-0.4,0.2-1,0.4-1.4,0.4s-1-0.2-1.2-0.4
		c-0.4-0.4-0.6-1-0.4-1.4c0-0.6,0.4-1,0.8-1.4c0.8-0.8,2.2-1,3-0.2c0.4,0.4,0.6,1,0.4,1.4c0,0.4-0.2,0.8-0.4,1.2l0.2,0.2
		c1.8-2,3.8-4,5.6-5.8l-0.4-0.4c-0.6,0.2-1,0.4-1.6,0.4c-0.4,0-1-0.2-1.2-0.4c-0.8-0.8-0.6-2,0.2-3c0.8-0.8,2.2-1,3-0.2
		c0.4,0.4,0.4,0.8,0.4,1.2S84,5.6,83.8,6l0.4,0.4c2.6-2.8,4.4-4.8,4.6-5.2C89,1,89.2,1,89.2,1c0.8,0,1.4,0.6,2.2,1
		c0.2,0,0.2,0.2,0.4,0.2c0.8,0,1.6,0.4,2.2,1C94.8,3.4,95.6,4,95.8,4c0,0,0,0,0.2,0.2c0,0.2,0.6,1,0.8,1.8c0.6,0.6,1,1.6,1,2.2
		c0,0.2,0.2,0.2,0.2,0.4c0.4,0.6,1,1.4,1,2.2c0,0.2,0,0.2-0.2,0.4c0,0,0,0-0.2,0c-0.4,0.2-2.2,2.2-4.8,4.6l0.4,0.4
		c0.8-0.6,2-0.6,2.6,0c0.8,0.8,0.6,2-0.2,3c-0.4,0.4-1.2,0.8-1.8,0.8c-0.4,0-1-0.2-1.2-0.4C93,19,93,17.8,93.6,17l-0.4-0.4
		c-1.8,1.8-3.8,3.6-5.8,5.6l0.2,0.2c0.8-0.6,2-0.6,2.6,0c0.4,0.4,0.6,1,0.4,1.4c0,0.6-0.4,1-0.8,1.4S88.6,26,88,26
		c-0.4,0-1-0.2-1.2-0.4c-0.4-0.4-0.6-1-0.4-1.4c0-0.4,0.2-0.8,0.4-1.2l-0.2-0.2c-0.8,0.8-1.6,1.6-2.4,2.2c0,0-0.2,0.2-0.4,0.2
		c0,0,0.2,0-0.4,0s-2,0-3,0.8l0,0L52.2,55.2c1.4,1.6,2.4,3.6,2.4,6.4c0,4.6-3.2,9-8.4,11.4c-4.4,2-6.2,4.2-6.8,8.2
		c-0.8,4.8-2.4,10.4-7,14c-2.8,2-5.8,4-9.6,4c-4.4,0-9-2.4-14.2-7.6C-2.4,80.8,0.2,73.5,4.8,67.5z M22.7,96.4c3.4,0,6.2-1.7,8.7-3.6
		c4.1-3.2,5.6-8.1,6.4-12.6c0.8-4.1,2.6-6.4,7-8.5c4.7-2.1,7.5-5.8,7.3-9.8c0-2.3-0.9-3.8-2.1-5.3l-7.9,8.1l-0.9-0.9L41,64
		c0,0.2,0,0.2,0,0.4c0,1.5-0.6,3-1.7,4c-1.1,1.1-2.4,1.7-4,1.7l0,0L22.1,83.8l1.3,1.3l-3.8,3.8l-9-9l3.8-3.8l1.5,1.5l13.6-13
		c0-0.2,0-0.2,0-0.4c0-1.5,0.6-3,1.7-4c1.1-1.1,2.4-1.7,4-1.7c0.2,0,0.4,0,0.6,0l-0.9-0.9l8.1-7.9c-1.5-1.1-3.2-2.1-5.5-2.1h-0.2
		c-4,0-7.7,2.8-9.8,7.3s-4.3,6.2-8.5,7c-4.5,0.8-9.4,2.1-12.6,6.4c-2.6,3.6-7.7,10.2,3.2,21.3C14.6,94.1,18.7,96.4,22.7,96.4z
		 M83.9,23.8c10-9.6,12.9-12.3,13.9-13.1c-0.2-0.4-0.6-1-0.8-1.4c-0.2-0.2-0.4-0.4-0.4-0.6c0-0.2-0.2-0.2,0-0.4
		c0-0.2-0.2-1.2-0.8-1.6l-0.2-0.2c0-0.4-0.4-1-0.6-1.4c-0.2-0.2-1-0.6-1.4-0.6c-0.2,0-0.2,0-0.2-0.2c-0.4-0.4-1.2-0.8-1.6-0.8l0,0
		c-0.2,0-0.2,0-0.4,0c-0.4-0.2-0.6-0.4-0.8-0.6c-0.4-0.4-1-0.8-1.4-0.8C88.8,3,87,4.8,82.9,9.3c-2.9,3.1-5.9,6.3-6.7,6.9
		c0,0.6,0,2.5-1,3.9l0.4,0.4l4.1-4.1c-0.4,0-0.6-0.2-0.8-0.4c-0.2-0.2-0.4-0.6-0.4-1c0-0.4,0.2-0.6,0.4-1c0.4-0.4,1.4-0.4,1.8,0
		c0.2,0.2,0.4,0.6,0.4,1c0,0.4-0.2,0.6-0.4,1l0,0l0,0l0,0L76,20.9l0.6,0.6l0.2,0.2l9.4-11.6c-0.4,0-0.6-0.2-1-0.4
		c-0.2-0.2-0.4-0.6-0.4-1c0-0.4,0.2-0.6,0.4-1c0.4-0.4,1.4-0.4,1.8,0c0.2,0.2,0.4,0.6,0.4,1c0,0.4-0.2,0.6-0.4,1l0,0L77,22l0.8,0.8
		l12.3-10l0,0c0.4-0.4,1.4-0.4,1.8,0c0.2,0.2,0.4,0.6,0.4,1c0,0.4-0.2,0.6-0.4,1c0,0-0.4,0.2-0.6,0.2c-0.4,0-0.6-0.2-1-0.4
		c-0.2-0.2-0.4-0.6-0.4-1L78.4,23l0.8,0.8l4.9-4.7l0,0c0.4-0.4,1.4-0.4,1.8,0c0.2,0.2,0.4,0.6,0.4,1c0,0.4-0.2,0.6-0.4,1
		c-0.2,0.2-0.6,0.4-1,0.4c-0.4,0-0.6-0.2-1-0.4c-0.2-0.2-0.4-0.6-0.4-0.8l-4.1,4.1l0.4,0.4c1.2-0.8,2.7-1,3.7-1
		C83.7,23.8,83.7,23.8,83.9,23.8z M30.8,64c0,0.8,0.2,1.6,0.6,2.2l6.8-6.8L37.8,59c-0.4-0.2-1-0.2-1.4-0.4L30.8,64z M35.6,58.8
		c-1.2,0-2.4,0.6-3.4,1.4c-0.8,0.8-1.4,2-1.4,3L35.6,58.8z M12,81.3l1-1l-0.4-0.4l0.6-0.6l0.4,0.4l1.2-1l-1-1l-2.6,2.6L12,81.3z
		 M14.2,83.3l1-1l-1.8-1.8l-1,1L14.2,83.3z M17.8,83.8l1-1L17,80.9l-1,1L17.8,83.8z M18.2,84.1l1.8,1.8l1-1l-1.8-1.8L18.2,84.1z
		 M20.2,86.1l0.2,0.2l-0.6,0.6h-0.2l-1,1l0.8,0.8l2.6-2.6l-0.8-0.8L20.2,86.1z M19.2,86.5l-1.8-1.8l-1,1l1.8,1.8L19.2,86.5z
		 M17.2,84.5l-1.8-1.8l-1,1l1.8,1.8L17.2,84.5z M14,79.9l1.8,1.8l1-1L15,78.9L14,79.9z M19.6,82.1l13-13.2c-0.4-0.2-0.6-0.4-1-0.8
		c-0.2-0.2-0.4-0.4-0.6-0.6l-13.2,13L19.6,82.1z M36.2,68.9l4.8-5.2c0-0.6-0.2-1.2-0.4-1.8l-0.2-0.2l-6.6,6.8
		c0.6,0.4,1.4,0.6,2.2,0.6C36,68.9,36,68.9,36.2,68.9z M36.8,68.8c1-0.2,2-0.6,2.6-1.4c0.8-0.8,1.2-1.8,1.4-2.8L36.8,68.8z
		 M77.2,23.6l-0.8-0.8l-37,36.4l1.4,1.4L77.2,23.6z M32.4,67.3c0.2,0.2,0.6,0.6,1,0.8l6.8-6.8L38.8,60l-7,6.8
		C32,66.9,32.2,67.1,32.4,67.3z M39,59l37-36.4l-0.8-0.8L37.6,57.5L39,59z M77.4,24L41,61l1.4,1.4l35.8-37.6L77.4,24z M33,69.1
		L19.8,82.5l1.6,1.6L35,69.7C34.4,69.8,33.6,69.5,33,69.1z M17.4,80.1l13.4-13.2c-0.4-0.6-0.6-1.4-0.8-2.2L15.8,78.3L17.4,80.1z
		 M37,56.8l0.4,0.4l37.4-35.8l-0.6-0.6L37,56.8z M80.4,15.6c0.2-0.2,0.2-0.4,0.2-0.6c0-0.2,0-0.4-0.2-0.6c-0.2-0.2-0.4-0.2-0.6-0.2
		s-0.4,0-0.6,0.2S79,14.8,79,15s0,0.4,0.2,0.6C79.6,16,80,16,80.4,15.6z M86.8,9.2C87,9,87,8.8,87,8.6s0-0.4-0.2-0.6
		s-0.4-0.2-0.6-0.2s-0.4,0-0.6,0.2s-0.2,0.4-0.2,0.6s0,0.4,0.2,0.6C86,9.6,86.6,9.6,86.8,9.2z M90.6,13.8c0,0.2,0,0.4,0.2,0.6
		c0.4,0.4,0.8,0.4,1.2,0c0.2-0.2,0.2-0.4,0.2-0.6c0-0.2,0-0.4-0.2-0.6C91.8,13,91.6,13,91.4,13s-0.4,0-0.6,0.2
		C90.6,13.2,90.6,13.4,90.6,13.8z M84,20.2c0,0.2,0,0.4,0.2,0.6c0.4,0.4,0.8,0.4,1.2,0c0.2-0.2,0.2-0.4,0.2-0.6s0-0.4-0.2-0.6
		s-0.4-0.2-0.6-0.2s-0.4,0-0.6,0.2C84.2,19.8,84,20,84,20.2z M78.6,25.2L42.8,62.5l0.4,0.4l36-37.4L78.6,25.2z M77.2,10.4
		c-0.2-0.2-0.4-0.2-0.6-0.2c-0.4,0-0.8,0.2-1,0.4s-0.4,0.6-0.4,1c0,0.2,0,0.6,0.2,0.6c0.2,0.2,0.4,0.2,0.6,0.2c0.4,0,0.8-0.2,1-0.4
		s0.4-0.6,0.4-1C77.4,10.8,77.2,10.6,77.2,10.4z M83.2,3.8c-0.2-0.2-0.4-0.2-0.6-0.2c-0.4,0-0.8,0.2-1,0.4C81,4.6,81,5.2,81.4,5.6
		c0.2,0.2,0.4,0.2,0.6,0.2c0.4,0,0.8-0.2,1-0.4c0.4-0.4,0.4-0.6,0.4-1C83.4,4.2,83.4,4,83.2,3.8z M94.2,18.6
		c0.2,0.2,0.4,0.2,0.6,0.2c0.4,0,0.8-0.2,1-0.4c0.6-0.6,0.6-1.2,0.2-1.6c-0.2-0.2-0.4-0.2-0.6-0.2c-0.4,0-0.8,0.2-1,0.4
		C94,17.6,93.8,18.2,94.2,18.6z M87.6,24.8C87.8,25,88,25,88.2,25c0.4,0,0.8-0.2,1-0.4c0.2-0.2,0.4-0.6,0.4-1c0-0.2,0-0.6-0.2-0.6
		c-0.2-0.2-0.4-0.2-0.6-0.2c-0.4,0-0.8,0.2-1,0.4c-0.2,0.2-0.4,0.6-0.4,1C87.4,24.4,87.4,24.6,87.6,24.8z"/>
</g>
</svg>
