<?xml version="1.0" encoding="utf-8"?>
<!-- Generator: Adobe Illustrator 24.1.3, SVG Export Plug-In . SVG Version: 6.00 Build 0)  -->
<svg version="1.1" xmlns="http://www.w3.org/2000/svg" xmlns:xlink="http://www.w3.org/1999/xlink" x="0px" y="0px"
	 viewBox="0 0 50 49" style="enable-background:new 0 0 50 49;" xml:space="preserve">
<style type="text/css">
	.st0{fill:#FFD761;}
</style>
<g id="colour">
	<path class="st0" d="M26.2,27.2c-0.7-1-1.6-1.9-2.4-2.6c-0.8-0.8-1.4-1.5-2.4-1.9c-1.1-0.5-2.4-1-3.9-0.6c-1.2,0.3-1.3,0.3-2.2,0.9
		c-0.4,0.4-0.6,0.5-0.9,0.9l-0.1,0.1c-0.1,0.2-0.2,0.3-0.3,0.5c-0.7,0.6-1.3,1.4-2,2.2c-2.3,3-5.8,3-8.7,5.1
		c-5.3,3.8-3.1,10.2,1,13.9c4.2,3.7,9.7,5.1,13.6-0.1c1-1.3,1.2-2.7,1.7-4.3c0.7-2.1,1.9-2.8,3.6-4.2c2.6-2,3.6-2.9,3.9-6.3
		C27.3,29.3,27.2,28.5,26.2,27.2z"/>
</g>
<g id="Layer_1">
	<path d="M2,33.3c1.8-2.4,4.5-3.1,7-3.5c2.1-0.4,3.1-1.2,4.1-3.4c1.2-2.6,3.3-4.2,5.6-4.2l0.1,0c1.4,0,2.4,0.6,3.3,1.3L36.8,9.2l0,0
		c0.4-0.6,0.4-1.7,0.4-1.7c0-0.1,0-0.1,0.1-0.2c0.4-0.4,0.7-0.8,1.1-1.2L38.2,6c-0.2,0.1-0.5,0.2-0.7,0.2c-0.2,0-0.5-0.1-0.6-0.2
		c-0.2-0.2-0.3-0.5-0.2-0.7c0-0.3,0.2-0.5,0.4-0.7c0.4-0.4,1.1-0.5,1.5-0.1c0.2,0.2,0.3,0.5,0.2,0.7c0,0.2-0.1,0.4-0.2,0.6l0.1,0.1
		c0.9-1,1.9-2,2.8-2.9l-0.2-0.2C41,2.9,40.8,3,40.5,3c-0.2,0-0.5-0.1-0.6-0.2c-0.4-0.4-0.3-1,0.1-1.5c0.4-0.4,1.1-0.5,1.5-0.1
		c0.2,0.2,0.2,0.4,0.2,0.6c0,0.2-0.1,0.5-0.2,0.7l0.2,0.2C43,1.3,43.9,0.3,44,0.1C44.1,0,44.2,0,44.2,0c0.4,0,0.7,0.3,1.1,0.5
		c0.1,0,0.1,0.1,0.2,0.1c0.4,0,0.8,0.2,1.1,0.5c0.4,0.1,0.8,0.4,0.9,0.4c0,0,0,0,0.1,0.1c0,0.1,0.3,0.5,0.4,0.9
		c0.3,0.3,0.5,0.8,0.5,1.1c0,0.1,0.1,0.1,0.1,0.2c0.2,0.3,0.5,0.7,0.5,1.1c0,0.1,0,0.1-0.1,0.2c0,0,0,0-0.1,0
		c-0.2,0.1-1.1,1.1-2.4,2.3l0.2,0.2c0.4-0.3,1-0.3,1.3,0c0.4,0.4,0.3,1-0.1,1.5c-0.2,0.2-0.6,0.4-0.9,0.4c-0.2,0-0.5-0.1-0.6-0.2
		c-0.3-0.3-0.3-0.9,0-1.3l-0.2-0.2c-0.9,0.9-1.9,1.8-2.9,2.8l0.1,0.1c0.4-0.3,1-0.3,1.3,0c0.2,0.2,0.3,0.5,0.2,0.7
		c0,0.3-0.2,0.5-0.4,0.7c-0.2,0.2-0.6,0.4-0.9,0.4c-0.2,0-0.5-0.1-0.6-0.2c-0.2-0.2-0.3-0.5-0.2-0.7c0-0.2,0.1-0.4,0.2-0.6l-0.1-0.1
		c-0.4,0.4-0.8,0.8-1.2,1.1c0,0-0.1,0.1-0.2,0.1c0,0,0.1,0-0.2,0c-0.3,0-1,0-1.5,0.4l0,0L25.7,27.1c0.7,0.8,1.2,1.8,1.2,3.2
		c0,2.3-1.6,4.5-4.2,5.7c-2.2,1-3.1,2.1-3.4,4.1c-0.4,2.4-1.2,5.2-3.5,7c-1.4,1-2.9,2-4.8,2c-2.2,0-4.5-1.2-7.1-3.8
		C-1.6,39.9-0.3,36.3,2,33.3z M10.8,48.5c1.8,0,3.3-0.9,4.6-1.9c2.2-1.7,3-4.3,3.4-6.7c0.4-2.2,1.4-3.4,3.7-4.5
		c2.5-1.1,4-3.1,3.9-5.2c0-1.2-0.5-2-1.1-2.8l-4.2,4.3l-0.5-0.5l-0.1,0.1c0,0.1,0,0.1,0,0.2c0,0.8-0.3,1.6-0.9,2.1
		c-0.6,0.6-1.3,0.9-2.1,0.9c0,0,0,0,0,0l-7,7.3l0.7,0.7l-2,2l-4.8-4.8l2-2l0.8,0.8l7.2-6.9c0-0.1,0-0.1,0-0.2c0-0.8,0.3-1.6,0.9-2.1
		c0.6-0.6,1.3-0.9,2.1-0.9c0.1,0,0.2,0,0.3,0l-0.5-0.5l4.3-4.2c-0.8-0.6-1.7-1.1-2.9-1.1l-0.1,0c-2.1,0-4.1,1.5-5.2,3.9
		c-1.1,2.4-2.3,3.3-4.5,3.7c-2.4,0.4-5,1.1-6.7,3.4c-1.4,1.9-4.1,5.4,1.7,11.3C6.5,47.3,8.7,48.5,10.8,48.5z M41.5,11.5
		c5.1-4.9,6.6-6.3,7.1-6.7c-0.1-0.2-0.3-0.5-0.4-0.7C48.1,4,48,3.9,48,3.8c0-0.1-0.1-0.1,0-0.2c0-0.1-0.1-0.6-0.4-0.8
		c0,0-0.1-0.1-0.1-0.1c0-0.2-0.2-0.5-0.3-0.7c-0.1-0.1-0.5-0.3-0.7-0.3c-0.1,0-0.1,0-0.1-0.1c-0.2-0.2-0.6-0.4-0.8-0.4c0,0,0,0,0,0
		c-0.1,0-0.1,0-0.2,0C45.2,1.1,45.1,1,45,0.9c-0.2-0.2-0.5-0.4-0.7-0.4C44,0.9,43.1,1.8,41,4.1c-1.5,1.6-3,3.2-3.4,3.5
		c0,0.3,0,1.3-0.5,2l0.2,0.2l2.1-2.1c-0.2,0-0.3-0.1-0.4-0.2c-0.1-0.1-0.2-0.3-0.2-0.5c0-0.2,0.1-0.3,0.2-0.5c0.2-0.2,0.7-0.2,0.9,0
		c0.1,0.1,0.2,0.3,0.2,0.5c0,0.2-0.1,0.3-0.2,0.5l0,0c0,0,0,0,0,0c0,0,0,0,0,0L37.5,10l0.3,0.3l0.1,0.1l4.8-5.9
		c-0.2,0-0.3-0.1-0.5-0.2c-0.1-0.1-0.2-0.3-0.2-0.5c0-0.2,0.1-0.3,0.2-0.5c0.2-0.2,0.7-0.2,0.9,0c0.1,0.1,0.2,0.3,0.2,0.5
		c0,0.2-0.1,0.3-0.2,0.5l0,0l-5.1,6.3l0.4,0.4l6.3-5.1l0,0c0.2-0.2,0.7-0.2,0.9,0c0.1,0.1,0.2,0.3,0.2,0.5c0,0.2-0.1,0.3-0.2,0.5
		C45.6,6.9,45.4,7,45.3,7c-0.2,0-0.3-0.1-0.5-0.2c-0.1-0.1-0.2-0.3-0.2-0.5l-5.9,4.8l0.4,0.4l2.5-2.4l0,0c0.2-0.2,0.7-0.2,0.9,0
		c0.1,0.1,0.2,0.3,0.2,0.5c0,0.2-0.1,0.3-0.2,0.5c-0.1,0.1-0.3,0.2-0.5,0.2c-0.2,0-0.3-0.1-0.5-0.2c-0.1-0.1-0.2-0.3-0.2-0.4
		l-2.1,2.1l0.2,0.2c0.6-0.4,1.4-0.5,1.9-0.5C41.4,11.5,41.4,11.5,41.5,11.5z M15,31.5c0,0.4,0.1,0.8,0.3,1.1l3.4-3.4l-0.2-0.2
		c-0.2-0.1-0.5-0.1-0.7-0.2L15,31.5z M17.4,28.9c-0.6,0-1.2,0.3-1.7,0.7c-0.4,0.4-0.7,1-0.7,1.5L17.4,28.9z M5.6,40.2l0.5-0.5
		l-0.2-0.2l0.3-0.3l0.2,0.2L7,38.9l-0.5-0.5l-1.3,1.3L5.6,40.2z M6.7,41.2l0.5-0.5l-0.9-0.9l-0.5,0.5L6.7,41.2z M8.5,41.4L9,40.9
		l-0.9-0.9l-0.5,0.5L8.5,41.4z M8.7,41.6l0.9,0.9l0.5-0.5l-0.9-0.9L8.7,41.6z M9.7,42.6l0.1,0.1l-0.3,0.3L9.4,43l-0.5,0.5l0.4,0.4
		l1.3-1.3l-0.4-0.4L9.7,42.6z M9.2,42.8l-0.9-0.9l-0.5,0.5l0.9,0.9L9.2,42.8z M8.2,41.8l-0.9-0.9l-0.5,0.5l0.9,0.9L8.2,41.8z
		 M6.6,39.5l0.9,0.9L8,39.9l-0.9-0.9L6.6,39.5z M9.4,40.6l6.5-6.6c-0.2-0.1-0.3-0.2-0.5-0.4c-0.1-0.1-0.2-0.2-0.3-0.3l-6.6,6.5
		L9.4,40.6z M17.7,34l2.4-2.6c0-0.3-0.1-0.6-0.2-0.9l-0.1-0.1l-3.3,3.4c0.3,0.2,0.7,0.3,1.1,0.3C17.6,34,17.6,34,17.7,34z M18,33.9
		c0.5-0.1,1-0.3,1.3-0.7c0.4-0.4,0.6-0.9,0.7-1.4L18,33.9z M38.2,11.3l-0.4-0.4L19.3,29.1l0.7,0.7L38.2,11.3z M15.8,33.2
		c0.1,0.1,0.3,0.3,0.5,0.4l3.4-3.4l-0.7-0.7l-3.5,3.4C15.6,33,15.7,33.1,15.8,33.2z M19.1,29l18.5-18.2l-0.4-0.4L18.4,28.3L19.1,29z
		 M38.3,11.5L20.1,30l0.7,0.7l17.9-18.8L38.3,11.5z M16.1,34.1l-6.6,6.7l0.8,0.8l6.8-7.2C16.8,34.4,16.4,34.3,16.1,34.1z M8.3,39.6
		L15,33c-0.2-0.3-0.3-0.7-0.4-1.1l-7.1,6.8L8.3,39.6z M18.1,27.9l0.2,0.2L37,10.2l-0.3-0.3L18.1,27.9z M39.8,7.3
		c0.1-0.1,0.1-0.2,0.1-0.3c0-0.1,0-0.2-0.1-0.3c-0.1-0.1-0.2-0.1-0.3-0.1c-0.1,0-0.2,0-0.3,0.1c-0.1,0.1-0.1,0.2-0.1,0.3
		c0,0.1,0,0.2,0.1,0.3C39.4,7.5,39.6,7.5,39.8,7.3z M43,4.1c0.1-0.1,0.1-0.2,0.1-0.3s0-0.2-0.1-0.3c-0.1-0.1-0.2-0.1-0.3-0.1
		c-0.1,0-0.2,0-0.3,0.1c-0.1,0.1-0.1,0.2-0.1,0.3s0,0.2,0.1,0.3C42.6,4.3,42.9,4.3,43,4.1z M44.9,6.4c0,0.1,0,0.2,0.1,0.3
		c0.2,0.2,0.4,0.2,0.6,0c0.1-0.1,0.1-0.2,0.1-0.3c0-0.1,0-0.2-0.1-0.3c-0.1-0.1-0.2-0.1-0.3-0.1c-0.1,0-0.2,0-0.3,0.1
		C44.9,6.1,44.9,6.2,44.9,6.4z M41.6,9.6c0,0.1,0,0.2,0.1,0.3c0.2,0.2,0.4,0.2,0.6,0c0.1-0.1,0.1-0.2,0.1-0.3c0-0.1,0-0.2-0.1-0.3
		c-0.1-0.1-0.2-0.1-0.3-0.1c-0.1,0-0.2,0-0.3,0.1C41.7,9.4,41.6,9.5,41.6,9.6z M38.9,12.1L21,30.8l0.2,0.2l18-18.7L38.9,12.1z
		 M38.2,4.7c-0.1-0.1-0.2-0.1-0.3-0.1c-0.2,0-0.4,0.1-0.5,0.2c-0.1,0.1-0.2,0.3-0.2,0.5c0,0.1,0,0.3,0.1,0.3
		c0.1,0.1,0.2,0.1,0.3,0.1c0.2,0,0.4-0.1,0.5-0.2c0.1-0.1,0.2-0.3,0.2-0.5C38.3,4.9,38.2,4.8,38.2,4.7z M41.2,1.4
		c-0.1-0.1-0.2-0.1-0.3-0.1c-0.2,0-0.4,0.1-0.5,0.2c-0.3,0.3-0.3,0.6-0.1,0.8c0.1,0.1,0.2,0.1,0.3,0.1c0.2,0,0.4-0.1,0.5-0.2
		c0.2-0.2,0.2-0.3,0.2-0.5C41.3,1.6,41.3,1.5,41.2,1.4z M46.7,8.8c0.1,0.1,0.2,0.1,0.3,0.1c0.2,0,0.4-0.1,0.5-0.2
		c0.3-0.3,0.3-0.6,0.1-0.8c-0.1-0.1-0.2-0.1-0.3-0.1c-0.2,0-0.4,0.1-0.5,0.2C46.6,8.3,46.5,8.6,46.7,8.8z M43.4,11.9
		c0.1,0.1,0.2,0.1,0.3,0.1c0.2,0,0.4-0.1,0.5-0.2c0.1-0.1,0.2-0.3,0.2-0.5c0-0.1,0-0.3-0.1-0.3c-0.1-0.1-0.2-0.1-0.3-0.1
		c-0.2,0-0.4,0.1-0.5,0.2c-0.1,0.1-0.2,0.3-0.2,0.5C43.3,11.7,43.3,11.8,43.4,11.9z"/>
</g>
</svg>
