<svg width="44" height="47" viewBox="0 0 44 47" fill="none" xmlns="http://www.w3.org/2000/svg">
<path d="M43.377 0.963135C43.3233 0.465576 42.9103 0.0842897 42.41 0.0706788L39.836 0.000366211C39.8268 0.000122111 39.8176 0 39.8084 0C39.3591 0 38.9634 0.300476 38.8442 0.736023L38.3267 2.62665L37.4838 3.48938L36.9264 2.97577C36.9626 2.70007 36.8847 2.41339 36.6646 2.21063C36.305 1.87921 35.7449 1.9021 35.4135 2.26172C35.0821 2.62128 35.105 3.18146 35.4646 3.51282C35.6847 3.7157 35.9768 3.76984 36.2488 3.71124L36.7847 4.20502L35.9543 5.05487L35.4439 4.58459C35.4801 4.30884 35.4023 4.02203 35.1822 3.81921C34.8227 3.48785 34.2625 3.51074 33.9311 3.8703C33.5998 4.22992 33.6226 4.7901 33.9822 5.12146C34.2022 5.32422 34.4943 5.37836 34.7661 5.31989L35.2552 5.77051L26.4746 14.7579C25.1367 13.8597 23.3439 12.9758 21.4704 12.9758C20.8891 12.9758 20.3244 13.0616 19.792 13.231C17.7074 13.894 15.9819 16.106 14.722 17.7211L14.6028 17.8739C13.789 18.9156 13.3079 19.1625 13.2246 19.1996C12.8703 19.2775 12.5824 19.5432 12.4795 19.8972C12.3661 20.2875 12.5002 20.7076 12.8188 20.96C13.0898 21.1781 13.5235 21.6526 13.5851 21.9711C13.7109 22.623 13.1912 23.3713 11.9963 24.2587C11.5001 24.6271 10.4968 25.0393 9.89683 25.0393C9.75248 25.0393 9.6981 25.015 9.69761 25.0147C9.38712 24.7917 9.18394 24.2566 9.15104 24.1365C9.0358 23.7164 8.66196 23.4193 8.22672 23.4018C8.21323 23.4013 8.19974 23.401 8.18638 23.401C7.76713 23.401 7.39042 23.6633 7.2465 24.0602C7.14182 24.3442 6.76005 25.1747 6.26749 25.5727C6.11545 25.6956 5.72178 25.8643 5.34098 26.0275C4.1301 26.5463 2.30021 27.3304 1.05649 29.3528C-0.324 31.5975 -0.19369 34.6675 0.547827 36.7143C1.9921 40.7008 5.88218 44.2948 10.2278 45.6575C10.9707 45.8905 11.8248 46.0136 12.6978 46.0136C14.5294 46.0136 16.3014 45.4841 17.5597 44.561C19.4739 43.1565 20.1062 41.2687 20.5246 40.0196C20.6562 39.6268 20.7923 39.2206 20.9023 39.0591C21.2588 38.5357 22.0554 38.0875 22.3323 37.9589C22.7265 37.7759 22.9585 37.3586 22.9046 36.9273C22.8507 36.496 22.5256 36.1484 22.0985 36.0681C21.941 36.0361 21.417 35.8751 21.1692 35.5821C21.0059 35.2891 21.2745 33.9973 21.7448 33.2422C22.4895 32.0469 23.1542 31.4658 23.7768 31.4657C23.8158 31.4657 23.8552 31.4679 23.8953 31.4722C24.2323 31.5092 24.767 31.9412 24.9654 32.1534C25.1582 32.3597 25.4244 32.4707 25.6962 32.4707C25.8157 32.4707 25.9363 32.4492 26.0523 32.405C26.3968 32.2736 26.6381 31.965 26.6869 31.6055C26.7171 31.5195 26.9239 31.0198 27.8958 30.1238L28.0384 29.9925C29.5454 28.6051 31.6093 26.7051 32.1002 24.5733C32.6656 22.1182 31.4105 19.7676 30.0443 18.0535L38.7483 8.01227L39.1737 8.40417C39.1375 8.67987 39.2154 8.96655 39.4354 9.16937C39.795 9.50073 40.3552 9.47784 40.6866 9.11829C41.0179 8.75867 40.995 8.19849 40.6355 7.86713C40.4154 7.66431 40.1231 7.61011 39.8512 7.6687L39.4037 7.25623L40.1817 6.35858L40.6561 6.79535C40.6199 7.07111 40.6977 7.35791 40.9178 7.56073C41.2774 7.89209 41.8376 7.86926 42.1689 7.50964C42.5003 7.15002 42.4775 6.5899 42.1178 6.25848C41.8978 6.05573 41.6057 6.00159 41.3339 6.06006L40.8371 5.6026L41.1564 5.23419L42.9991 4.5661C43.4321 4.40912 43.7018 3.97668 43.6525 3.5188L43.377 0.963135ZM7.93357 40.4663C7.94187 40.6587 7.95017 40.8403 7.9282 40.9771C7.78074 41.8799 7.24314 42.4438 6.49753 42.4204C6.30314 42.4135 6.06394 42.2977 5.80955 42.1354C3.85282 40.563 2.34611 38.5763 1.56968 36.5586C1.4697 36.2202 1.42515 35.9059 1.47263 35.6514C1.51218 35.4414 1.61228 35.2891 1.77878 35.1855C2.40769 34.7954 2.97361 34.6372 3.4824 34.6372C4.93357 34.6372 5.92038 35.9229 6.57908 36.7803C6.98923 37.3149 7.23777 37.6396 7.55027 37.4399C8.25193 36.9907 9.10447 36.2876 10.1113 34.478C10.8247 33.1963 11.3315 32.4888 11.5727 32.1787L13.8926 34.3169C13.6108 34.6196 12.9302 35.2876 11.7656 36.0571C11.0586 36.5239 9.36374 37.7031 8.63523 38.3662C7.87009 39.0635 7.90671 39.8745 7.93357 40.4663ZM31.1257 24.3489C30.6899 26.2413 28.6458 28.0723 27.218 29.3886C25.7119 30.7771 25.696 31.4706 25.696 31.4706C25.696 31.4706 24.8556 30.5714 24.0041 30.4782C23.9271 30.4698 23.8514 30.4657 23.7768 30.4657C22.4644 30.4658 21.5114 31.7258 20.896 32.7135C20.3761 33.5481 19.7707 35.4768 20.4056 36.2277C20.9479 36.8691 21.9135 37.0508 21.9135 37.0508C21.9135 37.0508 20.6736 37.6186 20.0759 38.4961C19.445 39.4221 19.33 42.0217 16.9681 43.7547C15.8012 44.6108 14.2033 45.0136 12.6978 45.0136C11.9265 45.0136 11.1794 44.9079 10.527 44.7033C9.20853 44.2899 7.97703 43.6539 6.84751 42.8927C7.65409 42.7568 8.25577 42.0745 8.42136 41.0571C8.45212 40.8691 8.44285 40.6626 8.43308 40.4438C8.40818 39.896 8.37986 39.2754 8.97214 38.7363C9.67869 38.0923 11.3452 36.9341 12.041 36.4741C13.7002 35.3779 14.4087 34.4902 14.438 34.4531L14.581 34.2715L11.5332 31.4624L11.3637 31.646C11.3384 31.6733 10.727 32.3438 9.67478 34.2349C8.76609 35.8672 8.03025 36.5234 7.37156 36.9595C7.27537 36.8662 7.11179 36.6533 6.97556 36.4756C6.11423 35.3545 4.32322 33.0215 1.51511 34.7607C1.3668 34.8528 1.24955 34.9705 1.15946 35.1089C0.842565 33.3846 0.997045 31.3584 1.9083 29.8767C3.44291 27.3813 6.02451 27.0547 6.89603 26.3505C7.72184 25.6832 8.18662 24.401 8.18662 24.401C8.18662 24.401 8.44657 25.3488 9.12992 25.8369C9.32987 25.9797 9.59665 26.0393 9.89683 26.0393C10.7983 26.0393 12.0002 25.5013 12.5925 25.0615C13.5799 24.3282 14.8396 23.1943 14.5669 21.7815C14.4046 20.9406 13.4398 20.1762 13.4398 20.1762C13.4398 20.1762 14.1298 20.1038 15.3908 18.4895C16.5863 16.959 18.2445 14.7725 20.0952 14.1839C20.5505 14.0391 21.0116 13.9758 21.4703 13.9758C23.2528 13.9758 24.9901 14.9307 26.1869 15.7764L17.2134 25.2373L20.3437 28.1221L29.0578 18.4329C30.2368 19.8467 31.6469 22.0853 31.1257 24.3489ZM28.7284 18.0449C28.7293 18.0459 28.7304 18.0472 28.7313 18.0482L20.3105 27.4111L17.9253 25.2129L26.7549 15.9033L26.7542 15.9027L38.9075 3.46313L40.2755 4.72369L28.7284 18.0449ZM40.6234 4.36377L39.2375 3.08679L39.8087 1L42.3827 1.07031L42.6582 3.62598L40.6234 4.36377ZM19.4592 29.1342C19.951 29.5208 19.9822 30.1495 19.7942 30.7744C19.4549 31.9024 17.4505 32.9199 17.0635 34.451C16.9851 34.7606 16.9417 35.4474 17.2209 35.6026C17.4524 35.7312 17.6222 35.6728 17.7205 35.6148C17.5919 35.4777 17.5853 35.2648 17.7147 35.1245C17.8501 34.9775 18.0789 34.9681 18.2259 35.1036C18.3647 35.2314 18.376 35.4408 18.2632 35.5876L18.269 35.5881C18.269 35.5881 17.8897 36.4709 17.0442 36.0028C16.6372 35.7774 16.227 35.2722 16.3578 34.366C16.5232 33.2205 18.1205 31.7935 18.9715 30.8179C19.2527 30.4956 19.6917 30.0045 19.2728 29.4957C19.1891 29.394 19.1032 29.3579 19.0229 29.3407C19.0583 29.459 19.0381 29.5912 18.9483 29.6887C18.813 29.8355 18.584 29.8449 18.4372 29.7095C18.2902 29.5741 18.2809 29.3452 18.4163 29.1983C18.4607 29.1501 18.5164 29.1224 18.5747 29.1041L18.5714 29.0994C18.5714 29.0994 19.1267 28.8729 19.4592 29.1342ZM14.4721 26.6716C13.5693 27.5994 12.2771 29.3077 11.149 29.5659C10.2564 29.7703 9.71952 29.4025 9.46171 29.0153C8.92618 28.2108 9.77512 27.7607 9.77512 27.7607L9.7761 27.7665C9.91324 27.6421 10.1228 27.6364 10.2616 27.7642C10.4085 27.8997 10.4178 28.1285 10.2824 28.2754C10.1531 28.4158 9.94034 28.4266 9.79325 28.3096C9.74344 28.4123 9.69907 28.5863 9.84617 28.8066C10.0235 29.0721 10.7046 28.9728 11.0068 28.8696C12.5012 28.3589 13.3518 26.2783 14.4484 25.8481C15.0559 25.6098 15.6852 25.5897 16.1104 26.0482C16.398 26.3583 16.2176 26.9302 16.2176 26.9302L16.2127 26.9274C16.1991 26.9869 16.176 27.0447 16.1316 27.093C15.9963 27.2399 15.7674 27.2493 15.6205 27.1138C15.4735 26.9785 15.4642 26.7496 15.5996 26.6027C15.6894 26.5052 15.8194 26.4743 15.9403 26.4999C15.9165 26.4213 15.8736 26.3387 15.7654 26.2635C15.2242 25.8875 14.7705 26.3651 14.4721 26.6716ZM17.2575 31.4681L14.1689 28.6218L14.7752 28.425L17.3542 30.8016L17.2575 31.4681Z" fill="black"/>
</svg>
