<?xml version="1.0" encoding="utf-8"?>
<!-- Generator: Adobe Illustrator 24.1.3, SVG Export Plug-In . SVG Version: 6.00 Build 0)  -->
<svg version="1.1" xmlns="http://www.w3.org/2000/svg" xmlns:xlink="http://www.w3.org/1999/xlink" x="0px" y="0px"
	 viewBox="0 0 44 47" style="enable-background:new 0 0 44 47;" xml:space="preserve">
<style type="text/css">
	.st0{fill:#FFD761;}
</style>
<g id="colour">
	<path class="st0" d="M31.5,21.4c-0.4-2.9-2.2-5.1-4.5-6.8c-5.4-3.9-10-0.6-14.2,3.2c-1.1,1-1.1,2.6-0.3,3.7
		c-0.4,2.7-2.3,1.8-2.5,1.7c-1.3-1-3.3-0.2-4.1,1.1c-2.2,3.5-6.2,5.2-5.7,9.9c0.3,3.5,3,7.2,5.6,9.4c2.6,2.2,6.1,3.3,9.5,2.4
		c4.4-1.1,4.6-4.8,7.6-7.4c1.4-1.3,1.1-3,0-4c-0.2-2.3,1.3-1.9,1.8-1.6c1.6,1,2.8-1.3,4.6-3.2C31.5,27,32.1,25.2,31.5,21.4z"/>
</g>
<g id="Layer_1">
	<path d="M43.4,1c-0.1-0.5-0.5-0.9-1-0.9L39.8,0c0,0,0,0,0,0c-0.4,0-0.8,0.3-1,0.7l-0.5,1.9l-0.8,0.9L36.9,3c0-0.3,0-0.6-0.3-0.8
		c-0.4-0.3-0.9-0.3-1.3,0.1c-0.3,0.4-0.3,0.9,0.1,1.3c0.2,0.2,0.5,0.3,0.8,0.2l0.5,0.5L36,5.1l-0.5-0.5c0-0.3,0-0.6-0.3-0.8
		c-0.4-0.3-0.9-0.3-1.3,0.1c-0.3,0.4-0.3,0.9,0.1,1.3c0.2,0.2,0.5,0.3,0.8,0.2l0.5,0.5l-8.8,9c-1.3-0.9-3.1-1.8-5-1.8
		c-0.6,0-1.1,0.1-1.7,0.3c-2.1,0.7-3.8,2.9-5.1,4.5l-0.1,0.2c-0.8,1-1.3,1.3-1.4,1.3c-0.4,0.1-0.6,0.3-0.7,0.7
		c-0.1,0.4,0,0.8,0.3,1.1c0.3,0.2,0.7,0.7,0.8,1c0.1,0.7-0.4,1.4-1.6,2.3c-0.5,0.4-1.5,0.8-2.1,0.8c-0.1,0-0.2,0-0.2,0
		c-0.3-0.2-0.5-0.8-0.5-0.9c-0.1-0.4-0.5-0.7-0.9-0.7c0,0,0,0,0,0c-0.4,0-0.8,0.3-0.9,0.7c-0.1,0.3-0.5,1.1-1,1.5
		c-0.2,0.1-0.5,0.3-0.9,0.5c-1.2,0.5-3,1.3-4.3,3.3c-1.4,2.2-1.3,5.3-0.5,7.4c1.4,4,5.3,7.6,9.7,8.9c0.7,0.2,1.6,0.4,2.5,0.4
		c1.8,0,3.6-0.5,4.9-1.5c1.9-1.4,2.5-3.3,3-4.5c0.1-0.4,0.3-0.8,0.4-1c0.4-0.5,1.2-1,1.4-1.1c0.4-0.2,0.6-0.6,0.6-1
		s-0.4-0.8-0.8-0.9c-0.2,0-0.7-0.2-0.9-0.5c-0.2-0.3,0.1-1.6,0.6-2.3c0.7-1.2,1.4-1.8,2-1.8c0,0,0.1,0,0.1,0c0.3,0,0.9,0.5,1.1,0.7
		c0.2,0.2,0.5,0.3,0.7,0.3c0.1,0,0.2,0,0.4-0.1c0.3-0.1,0.6-0.4,0.6-0.8c0-0.1,0.2-0.6,1.2-1.5L28,30c1.5-1.4,3.6-3.3,4.1-5.4
		c0.6-2.5-0.7-4.8-2.1-6.5l8.7-10l0.4,0.4c0,0.3,0,0.6,0.3,0.8c0.4,0.3,0.9,0.3,1.3-0.1C41,8.8,41,8.2,40.6,7.9
		c-0.2-0.2-0.5-0.3-0.8-0.2l-0.4-0.4l0.8-0.9l0.5,0.4c0,0.3,0,0.6,0.3,0.8c0.4,0.3,0.9,0.3,1.3-0.1c0.3-0.4,0.3-0.9-0.1-1.3
		c-0.2-0.2-0.5-0.3-0.8-0.2l-0.5-0.5l0.3-0.4L43,4.6c0.4-0.2,0.7-0.6,0.7-1L43.4,1z M7.9,40.5c0,0.2,0,0.4,0,0.5
		c-0.1,0.9-0.7,1.5-1.4,1.4c-0.2,0-0.4-0.1-0.7-0.3c-2-1.6-3.5-3.6-4.2-5.6c-0.1-0.3-0.1-0.7-0.1-0.9c0-0.2,0.1-0.4,0.3-0.5
		c0.6-0.4,1.2-0.5,1.7-0.5c1.5,0,2.4,1.3,3.1,2.1c0.4,0.5,0.7,0.9,1,0.7c0.7-0.4,1.6-1.2,2.6-3c0.7-1.3,1.2-2,1.5-2.3l2.3,2.1
		c-0.3,0.3-1,1-2.1,1.7c-0.7,0.5-2.4,1.6-3.1,2.3C7.9,39.1,7.9,39.9,7.9,40.5z M31.1,24.3c-0.4,1.9-2.5,3.7-3.9,5
		c-1.5,1.4-1.5,2.1-1.5,2.1s-0.8-0.9-1.7-1c-0.1,0-0.2,0-0.2,0c-1.3,0-2.3,1.3-2.9,2.2c-0.5,0.8-1.1,2.8-0.5,3.5
		c0.5,0.6,1.5,0.8,1.5,0.8s-1.2,0.6-1.8,1.4c-0.6,0.9-0.7,3.5-3.1,5.3c-1.2,0.9-2.8,1.3-4.3,1.3c-0.8,0-1.5-0.1-2.2-0.3
		c-1.3-0.4-2.5-1-3.7-1.8c0.8-0.1,1.4-0.8,1.6-1.8c0-0.2,0-0.4,0-0.6c0-0.5-0.1-1.2,0.5-1.7c0.7-0.6,2.4-1.8,3.1-2.3
		c1.7-1.1,2.4-2,2.4-2l0.1-0.2l-3-2.8l-0.2,0.2c0,0-0.6,0.7-1.7,2.6C8.8,35.9,8,36.5,7.4,37c-0.1-0.1-0.3-0.3-0.4-0.5
		c-0.9-1.1-2.7-3.5-5.5-1.7c-0.1,0.1-0.3,0.2-0.4,0.3c-0.3-1.7-0.2-3.8,0.7-5.2c1.5-2.5,4.1-2.8,5-3.5c0.8-0.7,1.3-1.9,1.3-1.9
		s0.3,0.9,0.9,1.4C9.3,26,9.6,26,9.9,26c0.9,0,2.1-0.5,2.7-1c1-0.7,2.2-1.9,2-3.3c-0.2-0.8-1.1-1.6-1.1-1.6s0.7-0.1,2-1.7
		c1.2-1.5,2.9-3.7,4.7-4.3C20.6,14,21,14,21.5,14c1.8,0,3.5,1,4.7,1.8l-9,9.5l3.1,2.9l8.7-9.7C30.2,19.8,31.6,22.1,31.1,24.3z
		 M28.7,18C28.7,18,28.7,18,28.7,18l-8.4,9.4l-2.4-2.2l8.8-9.3l0,0L38.9,3.5l1.4,1.3L28.7,18z M40.6,4.4l-1.4-1.3L39.8,1l2.6,0.1
		l0.3,2.6L40.6,4.4z M19.5,29.1c0.5,0.4,0.5,1,0.3,1.6c-0.3,1.1-2.3,2.1-2.7,3.7c-0.1,0.3-0.1,1,0.2,1.2c0.2,0.1,0.4,0.1,0.5,0
		c-0.1-0.1-0.1-0.3,0-0.5c0.1-0.1,0.4-0.2,0.5,0c0.1,0.1,0.2,0.3,0,0.5l0,0c0,0-0.4,0.9-1.2,0.4c-0.4-0.2-0.8-0.7-0.7-1.6
		c0.2-1.1,1.8-2.6,2.6-3.5c0.3-0.3,0.7-0.8,0.3-1.3c-0.1-0.1-0.2-0.1-0.2-0.2c0,0.1,0,0.3-0.1,0.3c-0.1,0.1-0.4,0.2-0.5,0
		c-0.1-0.1-0.2-0.4,0-0.5c0,0,0.1-0.1,0.2-0.1l0,0C18.6,29.1,19.1,28.9,19.5,29.1z M14.5,26.7c-0.9,0.9-2.2,2.6-3.3,2.9
		c-0.9,0.2-1.4-0.2-1.7-0.6c-0.5-0.8,0.3-1.3,0.3-1.3l0,0c0.1-0.1,0.3-0.1,0.5,0c0.1,0.1,0.2,0.4,0,0.5c-0.1,0.1-0.3,0.2-0.5,0
		c0,0.1-0.1,0.3,0.1,0.5c0.2,0.3,0.9,0.2,1.2,0.1c1.5-0.5,2.3-2.6,3.4-3c0.6-0.2,1.2-0.3,1.7,0.2c0.3,0.3,0.1,0.9,0.1,0.9l0,0
		c0,0.1,0,0.1-0.1,0.2c-0.1,0.1-0.4,0.2-0.5,0c-0.1-0.1-0.2-0.4,0-0.5c0.1-0.1,0.2-0.1,0.3-0.1c0-0.1-0.1-0.2-0.2-0.2
		C15.2,25.9,14.8,26.4,14.5,26.7z M17.3,31.5l-3.1-2.8l0.6-0.2l2.6,2.4L17.3,31.5z"/>
</g>
</svg>
